M48
; DRILL file {KiCad 8.0.0} date 2024-04-17T16:37:57-0500
; FORMAT={-:-/ absolute / metric / decimal}
; #@! TF.CreationDate,2024-04-17T16:37:57-05:00
; #@! TF.GenerationSoftware,Kicad,Pcbnew,8.0.0
; #@! TF.FileFunction,MixedPlating,1,2
FMAT,2
METRIC
; #@! TA.AperFunction,Plated,PTH,ViaDrill
T1C0.300
; #@! TA.AperFunction,Plated,PTH,ComponentDrill
T2C0.780
; #@! TA.AperFunction,Plated,PTH,ComponentDrill
T3C1.000
; #@! TA.AperFunction,Plated,PTH,ComponentDrill
T4C1.016
; #@! TA.AperFunction,NonPlated,NPTH,ComponentDrill
T5C2.400
%
G90
G05
T1
X54.5Y-67.37
X59.754Y-67.371
X65.003Y-67.379
X73.25Y-66.495
X76.5Y-66.5
X79.75Y-66.503
X83.0Y-66.5
X86.258Y-66.487
X89.5Y-66.5
T2
X46.5Y-42.0
X46.5Y-44.5
X47.5Y-40.0
X47.5Y-46.5
X48.5Y-42.0
X48.5Y-44.5
X49.5Y-40.0
X49.5Y-46.5
X50.5Y-42.0
X50.5Y-44.5
X51.5Y-40.0
X51.5Y-46.5
X52.5Y-42.0
X52.5Y-44.5
X53.5Y-40.0
X53.5Y-46.5
X54.5Y-42.0
X54.5Y-44.5
X55.5Y-40.0
X55.5Y-46.5
X56.5Y-42.0
X56.5Y-44.5
X59.5Y-40.0
X59.5Y-46.5
X60.5Y-42.0
X60.5Y-44.5
X61.5Y-40.0
X61.5Y-46.5
X62.5Y-42.0
X62.5Y-44.5
X63.5Y-40.0
X63.5Y-46.5
X64.5Y-42.0
X64.5Y-44.5
X65.5Y-40.0
X65.5Y-46.5
X66.5Y-42.0
X66.5Y-44.5
X67.5Y-40.0
X67.5Y-46.5
X68.5Y-42.0
X68.5Y-44.5
X69.5Y-40.0
X69.5Y-46.5
X70.5Y-42.0
X70.5Y-44.5
X71.5Y-40.0
X71.5Y-46.5
X72.5Y-42.0
X72.5Y-44.5
X73.5Y-40.0
X73.5Y-46.5
X74.5Y-42.0
X74.5Y-44.5
X75.5Y-40.0
X75.5Y-46.5
X76.5Y-42.0
X76.5Y-44.5
X77.5Y-40.0
X77.5Y-46.5
X78.5Y-42.0
X78.5Y-44.5
X79.5Y-40.0
X79.5Y-46.5
X80.5Y-42.0
X80.5Y-44.5
X81.5Y-40.0
X81.5Y-46.5
X82.5Y-42.0
X82.5Y-44.5
X83.5Y-40.0
X83.5Y-46.5
X84.5Y-42.0
X84.5Y-44.5
X85.5Y-40.0
X85.5Y-46.5
X86.5Y-42.0
X86.5Y-44.5
X87.5Y-40.0
X87.5Y-46.5
X88.5Y-42.0
X88.5Y-44.5
X89.5Y-40.0
X89.5Y-46.5
X90.5Y-42.0
X90.5Y-44.5
X91.5Y-40.0
X91.5Y-46.5
X92.5Y-42.0
X92.5Y-44.5
X93.5Y-40.0
X93.5Y-46.5
X94.5Y-42.0
X94.5Y-44.5
X95.5Y-40.0
X95.5Y-46.5
X96.5Y-42.0
X96.5Y-44.5
T3
X42.71Y-58.38
X42.71Y-66.0
X45.25Y-58.38
X45.25Y-66.0
X47.79Y-58.38
X47.79Y-66.0
X95.21Y-58.5
X95.21Y-66.12
X97.75Y-58.5
X97.75Y-66.12
X100.29Y-58.5
X100.29Y-66.12
T4
X41.5Y-33.5
X44.04Y-33.5
X50.5Y-33.5
X53.04Y-33.5
X59.5Y-33.5
X62.04Y-33.5
X69.0Y-33.5
X71.54Y-33.5
X78.5Y-33.5
X81.04Y-33.5
X88.0Y-33.5
X90.54Y-33.5
X97.46Y-33.5
X100.0Y-33.5
T5
X58.15Y-43.25
X98.3Y-43.25
M30
