%TF.GenerationSoftware,KiCad,Pcbnew,8.0.1*%
%TF.CreationDate,2024-04-16T20:26:48-05:00*%
%TF.ProjectId,PCB_Test_Jig,5043425f-5465-4737-945f-4a69672e6b69,rev?*%
%TF.SameCoordinates,Original*%
%TF.FileFunction,Soldermask,Top*%
%TF.FilePolarity,Negative*%
%FSLAX46Y46*%
G04 Gerber Fmt 4.6, Leading zero omitted, Abs format (unit mm)*
G04 Created by KiCad (PCBNEW 8.0.1) date 2024-04-16 20:26:48*
%MOMM*%
%LPD*%
G01*
G04 APERTURE LIST*
G04 Aperture macros list*
%AMRoundRect*
0 Rectangle with rounded corners*
0 $1 Rounding radius*
0 $2 $3 $4 $5 $6 $7 $8 $9 X,Y pos of 4 corners*
0 Add a 4 corners polygon primitive as box body*
4,1,4,$2,$3,$4,$5,$6,$7,$8,$9,$2,$3,0*
0 Add four circle primitives for the rounded corners*
1,1,$1+$1,$2,$3*
1,1,$1+$1,$4,$5*
1,1,$1+$1,$6,$7*
1,1,$1+$1,$8,$9*
0 Add four rect primitives between the rounded corners*
20,1,$1+$1,$2,$3,$4,$5,0*
20,1,$1+$1,$4,$5,$6,$7,0*
20,1,$1+$1,$6,$7,$8,$9,0*
20,1,$1+$1,$8,$9,$2,$3,0*%
G04 Aperture macros list end*
%ADD10RoundRect,0.250000X-0.450000X0.262500X-0.450000X-0.262500X0.450000X-0.262500X0.450000X0.262500X0*%
%ADD11RoundRect,0.243750X0.456250X-0.243750X0.456250X0.243750X-0.456250X0.243750X-0.456250X-0.243750X0*%
%ADD12C,1.524000*%
%ADD13RoundRect,0.102000X0.500000X-0.550000X0.500000X0.550000X-0.500000X0.550000X-0.500000X-0.550000X0*%
%ADD14RoundRect,0.102000X-0.790000X-0.790000X0.790000X-0.790000X0.790000X0.790000X-0.790000X0.790000X0*%
%ADD15C,1.784000*%
%ADD16C,2.400000*%
%ADD17RoundRect,0.102000X-0.644000X-0.644000X0.644000X-0.644000X0.644000X0.644000X-0.644000X0.644000X0*%
%ADD18C,1.492000*%
G04 APERTURE END LIST*
D10*
X73250000Y-59750000D03*
X73250000Y-61575000D03*
D11*
X73250000Y-65375000D03*
X73250000Y-63500000D03*
D12*
X100000000Y-33500000D03*
X97460000Y-33500000D03*
X81040000Y-33500000D03*
X78500000Y-33500000D03*
X44040000Y-33500000D03*
X41500000Y-33500000D03*
D10*
X83000000Y-59750000D03*
X83000000Y-61575000D03*
D13*
X65000000Y-66250000D03*
X65000000Y-58750000D03*
D10*
X86250000Y-59750000D03*
X86250000Y-61575000D03*
D13*
X59750000Y-66250000D03*
X59750000Y-58750000D03*
D10*
X76500000Y-59750000D03*
X76500000Y-61575000D03*
D11*
X86250000Y-65375000D03*
X86250000Y-63500000D03*
D12*
X71540000Y-33500000D03*
X69000000Y-33500000D03*
X62040000Y-33500000D03*
X59500000Y-33500000D03*
D11*
X83000000Y-65375000D03*
X83000000Y-63500000D03*
D14*
X42710000Y-66000000D03*
D15*
X42710000Y-58380000D03*
X45250000Y-66000000D03*
X45250000Y-58380000D03*
X47790000Y-66000000D03*
X47790000Y-58380000D03*
D10*
X100250000Y-52587500D03*
X100250000Y-54412500D03*
D16*
X58150000Y-43250000D03*
X98300000Y-43250000D03*
D17*
X46500000Y-42000000D03*
D18*
X47500000Y-40000000D03*
X48500000Y-42000000D03*
X49500000Y-40000000D03*
X50500000Y-42000000D03*
X51500000Y-40000000D03*
X52500000Y-42000000D03*
X53500000Y-40000000D03*
X54500000Y-42000000D03*
X55500000Y-40000000D03*
X56500000Y-42000000D03*
X59500000Y-40000000D03*
X60500000Y-42000000D03*
X61500000Y-40000000D03*
X62500000Y-42000000D03*
X63500000Y-40000000D03*
X64500000Y-42000000D03*
X65500000Y-40000000D03*
X66500000Y-42000000D03*
X67500000Y-40000000D03*
X68500000Y-42000000D03*
X69500000Y-40000000D03*
X70500000Y-42000000D03*
X71500000Y-40000000D03*
X72500000Y-42000000D03*
X73500000Y-40000000D03*
X74500000Y-42000000D03*
X75500000Y-40000000D03*
X76500000Y-42000000D03*
X77500000Y-40000000D03*
X78500000Y-42000000D03*
X79500000Y-40000000D03*
X80500000Y-42000000D03*
X81500000Y-40000000D03*
X82500000Y-42000000D03*
X83500000Y-40000000D03*
X84500000Y-42000000D03*
X85500000Y-40000000D03*
X86500000Y-42000000D03*
X87500000Y-40000000D03*
X88500000Y-42000000D03*
X89500000Y-40000000D03*
X90500000Y-42000000D03*
X91500000Y-40000000D03*
X92500000Y-42000000D03*
X93500000Y-40000000D03*
X94500000Y-42000000D03*
X95500000Y-40000000D03*
X96500000Y-42000000D03*
X46500000Y-44500000D03*
X47500000Y-46500000D03*
X48500000Y-44500000D03*
X49500000Y-46500000D03*
X50500000Y-44500000D03*
X51500000Y-46500000D03*
X52500000Y-44500000D03*
X53500000Y-46500000D03*
X54500000Y-44500000D03*
X55500000Y-46500000D03*
X56500000Y-44500000D03*
X59500000Y-46500000D03*
X60500000Y-44500000D03*
X61500000Y-46500000D03*
X62500000Y-44500000D03*
X63500000Y-46500000D03*
X64500000Y-44500000D03*
X65500000Y-46500000D03*
X66500000Y-44500000D03*
X67500000Y-46500000D03*
X68500000Y-44500000D03*
X69500000Y-46500000D03*
X70500000Y-44500000D03*
X71500000Y-46500000D03*
X72500000Y-44500000D03*
X73500000Y-46500000D03*
X74500000Y-44500000D03*
X75500000Y-46500000D03*
X76500000Y-44500000D03*
X77500000Y-46500000D03*
X78500000Y-44500000D03*
X79500000Y-46500000D03*
X80500000Y-44500000D03*
X81500000Y-46500000D03*
X82500000Y-44500000D03*
X83500000Y-46500000D03*
X84500000Y-44500000D03*
X85500000Y-46500000D03*
X86500000Y-44500000D03*
X87500000Y-46500000D03*
X88500000Y-44500000D03*
X89500000Y-46500000D03*
X90500000Y-44500000D03*
X91500000Y-46500000D03*
X92500000Y-44500000D03*
X93500000Y-46500000D03*
X94500000Y-44500000D03*
X95500000Y-46500000D03*
X96500000Y-44500000D03*
D10*
X79750000Y-59750000D03*
X79750000Y-61575000D03*
D11*
X76500000Y-65375000D03*
X76500000Y-63500000D03*
D14*
X95210000Y-66120000D03*
D15*
X95210000Y-58500000D03*
X97750000Y-66120000D03*
X97750000Y-58500000D03*
X100290000Y-66120000D03*
X100290000Y-58500000D03*
D13*
X54500000Y-66250000D03*
X54500000Y-58750000D03*
D11*
X89500000Y-65375000D03*
X89500000Y-63500000D03*
D12*
X90540000Y-33500000D03*
X88000000Y-33500000D03*
D11*
X79750000Y-65375000D03*
X79750000Y-63500000D03*
D10*
X95250000Y-52587500D03*
X95250000Y-54412500D03*
D12*
X53040000Y-33500000D03*
X50500000Y-33500000D03*
D10*
X97750000Y-52587500D03*
X97750000Y-54412500D03*
X89500000Y-59750000D03*
X89500000Y-61575000D03*
M02*
