M48
; DRILL file {KiCad 8.0.0} date 2024-04-17T16:35:28-0500
; FORMAT={-:-/ absolute / metric / decimal}
; #@! TF.CreationDate,2024-04-17T16:35:28-05:00
; #@! TF.GenerationSoftware,Kicad,Pcbnew,8.0.0
; #@! TF.FileFunction,MixedPlating,1,4
FMAT,2
METRIC
; #@! TA.AperFunction,Plated,PTH,ViaDrill
T1C0.300
; #@! TA.AperFunction,Plated,PTH,ComponentDrill
T2C0.780
; #@! TA.AperFunction,Plated,PTH,ComponentDrill
T3C1.100
; #@! TA.AperFunction,NonPlated,NPTH,ComponentDrill
T4C2.400
; #@! TA.AperFunction,NonPlated,NPTH,ComponentDrill
T5C3.200
%
G90
G05
T1
X154.74Y-87.76
X155.0Y-110.304
X155.011Y-105.595
X156.25Y-91.245
X156.5Y-108.59
X157.0Y-88.864
X157.25Y-81.4
X157.5Y-93.0
X157.5Y-106.078
X157.711Y-105.289
X158.025Y-85.475
X158.5Y-93.5
X158.5Y-104.406
X159.0Y-111.59
X159.15Y-110.24
X159.75Y-78.318
X159.886Y-108.116
X160.0Y-111.09
X160.025Y-80.025
X160.25Y-94.78
X160.392Y-106.913
X161.0Y-82.114
X161.022Y-74.5
X161.5Y-97.5
X162.387Y-135.697
X162.5Y-90.5
X162.75Y-91.83
X162.975Y-80.225
X163.5Y-104.09
X163.5Y-72.0
X164.129Y-133.5
X164.885Y-108.848
X164.97Y-75.347
X165.0Y-107.59
X165.0Y-81.0
X165.063Y-106.774
X165.225Y-129.25
X165.25Y-94.67
X165.5Y-105.09
X165.856Y-132.356
X166.0Y-105.59
X166.788Y-135.25
X167.5Y-88.0
X168.18Y-100.0
X168.5Y-98.25
X168.5Y-102.5
X169.0Y-72.75
X169.5Y-98.25
X169.735Y-125.796
X171.0Y-73.0
X171.0Y-87.5
X171.0Y-130.0
X171.394Y-98.634
X171.938Y-101.062
X172.286Y-78.5
X172.5Y-88.5
X173.141Y-78.1
X173.5Y-88.5
X173.5Y-105.34
X173.5Y-124.5
X174.104Y-81.638
X174.113Y-99.894
X174.5Y-130.841
X174.5Y-134.5
X174.866Y-98.708
X175.5Y-127.75
X175.5Y-128.4
X175.75Y-118.798
X175.875Y-72.625
X176.0Y-82.25
X176.0Y-102.5
X177.18Y-70.75
X177.5Y-88.5
X177.75Y-99.846
X178.0Y-83.5
X178.0Y-123.5
X178.25Y-97.75
X179.135Y-70.135
X179.138Y-72.652
X179.452Y-135.121
X179.5Y-87.5
X181.0Y-93.0
X182.082Y-70.0
X182.25Y-76.25
X182.576Y-73.9
X183.455Y-100.75
X183.5Y-86.0
X183.5Y-95.942
X183.68Y-70.0
X185.5Y-85.5
X185.5Y-94.5
X186.0Y-69.5
X186.0Y-88.5
X186.5Y-83.5
X186.75Y-96.727
X187.0Y-86.5
X187.86Y-100.64
X188.0Y-58.609
X188.1Y-70.0
X188.5Y-80.5
X188.5Y-90.0
X189.186Y-73.982
X189.304Y-54.75
X189.5Y-63.25
X190.0Y-93.5
X190.5Y-77.5
X190.5Y-85.5
X191.5Y-73.9
X191.5Y-85.506
X191.5Y-96.812
X192.275Y-100.725
X192.68Y-69.977
X192.851Y-117.149
X192.874Y-114.202
X193.25Y-59.0
X194.284Y-121.716
X194.5Y-86.0
X194.603Y-60.44
X195.0Y-77.5
X195.384Y-63.75
X195.5Y-86.0
X196.0Y-91.0
X196.05Y-69.395
X196.25Y-82.75
X196.5Y-86.0
X196.588Y-100.912
X196.883Y-118.24
X197.5Y-86.0
X197.5Y-100.5
X197.75Y-82.75
X197.75Y-91.0
X198.0Y-113.94
X198.413Y-101.087
X198.75Y-82.75
X199.0Y-86.5
X199.549Y-70.951
X199.679Y-101.9
X199.75Y-61.17
X199.75Y-116.67
X200.25Y-70.75
X200.527Y-102.715
X201.4Y-64.0
X202.0Y-70.232
X202.25Y-56.75
X203.0Y-120.0
X203.113Y-67.487
X203.334Y-69.662
X203.5Y-100.5
X204.266Y-68.75
X204.521Y-103.82
X204.75Y-111.4
X204.773Y-119.673
X205.133Y-54.0
X205.133Y-57.0
X205.293Y-116.038
X205.5Y-104.615
X206.0Y-61.725
X207.5Y-53.0
X207.5Y-71.0
X207.527Y-104.75
X207.542Y-102.432
X208.0Y-59.167
X208.0Y-65.0
X208.0Y-122.0
X208.129Y-71.0
X208.543Y-109.322
X208.806Y-51.75
X209.273Y-70.426
X209.314Y-115.823
X209.87Y-111.37
X210.25Y-69.556
X211.125Y-63.375
X211.25Y-102.5
X211.39Y-53.0
X211.688Y-74.75
X212.5Y-103.0
X212.509Y-117.173
X213.0Y-51.5
X214.0Y-105.812
X214.475Y-121.6
X214.54Y-99.488
X214.9Y-66.5
X215.0Y-74.5
X215.5Y-58.0
X216.0Y-74.371
X216.0Y-75.0
X216.0Y-115.94
X216.084Y-93.584
X216.25Y-114.227
X217.0Y-71.5
X217.582Y-93.546
X218.0Y-70.0
X218.25Y-117.13
X218.25Y-118.67
X219.25Y-58.17
X219.5Y-80.5
X219.588Y-93.5
X219.625Y-81.125
X220.25Y-60.63
X220.9Y-66.5
X221.0Y-79.5
X221.5Y-104.17
X222.084Y-93.404
X222.5Y-67.133
X222.5Y-113.4
X222.975Y-109.025
X223.29Y-119.25
X224.0Y-120.0
X224.118Y-88.271
X224.125Y-87.625
X224.5Y-101.192
X224.9Y-107.75
X225.125Y-64.625
X225.296Y-64.02
X225.5Y-57.819
X225.5Y-60.769
X226.0Y-53.5
X226.11Y-120.75
X226.17Y-74.17
X226.322Y-70.81
X226.5Y-118.25
X226.75Y-104.13
X227.0Y-121.5
X227.541Y-77.541
X227.75Y-67.13
X227.75Y-110.439
X228.0Y-113.389
X228.5Y-75.0
X228.6Y-106.25
X230.5Y-75.0
X232.11Y-100.5
X233.411Y-105.307
X233.9Y-77.5
X234.11Y-70.61
X234.61Y-107.75
X234.733Y-100.75
X235.61Y-70.61
X236.5Y-98.5
X237.563Y-75.315
X238.0Y-71.772
X238.446Y-132.005
X238.5Y-128.5
X239.0Y-134.5
X239.25Y-68.822
X239.491Y-129.759
X239.5Y-135.0
X241.0Y-96.5
X241.0Y-134.5
X243.694Y-128.694
X244.5Y-93.5
X244.939Y-130.561
X246.0Y-114.0
X246.75Y-127.039
X248.0Y-112.0
X248.949Y-134.0
X251.844Y-69.344
X252.0Y-64.727
X252.0Y-106.0
X252.5Y-90.0
X254.0Y-60.75
X254.0Y-96.0
X254.0Y-97.0
X254.0Y-98.0
X254.0Y-100.0
X254.0Y-102.0
X254.5Y-81.0
X254.5Y-82.0
X254.5Y-83.0
X254.5Y-85.0
X254.5Y-87.0
X254.5Y-88.0
X254.5Y-89.0
X254.5Y-92.0
X254.5Y-94.0
X254.5Y-107.0
X254.5Y-110.0
X266.0Y-81.0
X266.0Y-88.0
X266.0Y-89.0
X266.0Y-96.0
X266.0Y-98.0
X266.0Y-107.0
X266.0Y-110.0
X266.5Y-75.5
X271.5Y-71.75
X271.5Y-81.0
X271.5Y-88.0
X271.5Y-89.0
X271.5Y-96.0
X271.5Y-107.0
X271.5Y-110.0
X283.0Y-81.0
X283.0Y-96.0
X283.0Y-98.0
X283.0Y-107.0
X283.0Y-110.0
X283.5Y-88.0
X283.5Y-89.0
X285.366Y-75.866
X287.0Y-71.677
X287.5Y-81.0
X287.5Y-88.0
X287.5Y-89.0
X287.5Y-96.0
X287.5Y-98.0
X287.5Y-107.0
X287.5Y-110.0
X299.0Y-81.0
X299.0Y-88.0
X299.0Y-89.0
X299.0Y-96.0
X299.0Y-98.0
X299.0Y-107.0
X299.0Y-110.0
X301.5Y-75.75
X303.5Y-81.0
X303.5Y-88.0
X303.5Y-89.0
X303.5Y-96.0
X303.5Y-98.0
X303.5Y-107.0
X303.5Y-110.0
X315.0Y-81.0
X315.0Y-88.0
X315.0Y-89.0
X315.0Y-96.0
X315.0Y-98.0
X315.0Y-107.0
X315.0Y-110.0
X316.875Y-74.375
X319.047Y-70.5
X319.5Y-81.0
X319.5Y-88.0
X319.5Y-89.0
X319.5Y-96.0
X319.5Y-98.0
X319.5Y-107.0
X319.5Y-110.0
X330.5Y-88.0
X330.5Y-89.0
X330.5Y-96.0
X330.5Y-98.0
X330.5Y-107.0
X330.5Y-110.0
T2
X256.5Y-66.0
X256.5Y-68.0
X256.5Y-70.0
X256.5Y-72.0
X256.5Y-74.0
X256.5Y-76.0
X256.5Y-78.0
X256.5Y-80.0
X256.5Y-82.0
X256.5Y-84.0
X256.5Y-86.0
X256.5Y-88.0
X256.5Y-90.0
X256.5Y-92.0
X256.5Y-94.0
X256.5Y-96.0
X256.5Y-98.0
X256.5Y-100.0
X256.5Y-102.0
X256.5Y-106.0
X256.5Y-108.0
X256.5Y-110.0
X256.5Y-112.0
X256.5Y-114.0
X258.5Y-65.0
X258.5Y-67.0
X258.5Y-69.0
X258.5Y-71.0
X258.5Y-73.0
X258.5Y-75.0
X258.5Y-77.0
X258.5Y-79.0
X258.5Y-81.0
X258.5Y-83.0
X258.5Y-85.0
X258.5Y-87.0
X258.5Y-89.0
X258.5Y-91.0
X258.5Y-93.0
X258.5Y-95.0
X258.5Y-97.0
X258.5Y-99.0
X258.5Y-101.0
X258.5Y-105.0
X258.5Y-107.0
X258.5Y-109.0
X258.5Y-111.0
X258.5Y-113.0
X258.5Y-115.0
X261.0Y-65.0
X261.0Y-67.0
X261.0Y-69.0
X261.0Y-71.0
X261.0Y-73.0
X261.0Y-75.0
X261.0Y-77.0
X261.0Y-79.0
X261.0Y-81.0
X261.0Y-83.0
X261.0Y-85.0
X261.0Y-87.0
X261.0Y-89.0
X261.0Y-91.0
X261.0Y-93.0
X261.0Y-95.0
X261.0Y-97.0
X261.0Y-99.0
X261.0Y-101.0
X261.0Y-105.0
X261.0Y-107.0
X261.0Y-109.0
X261.0Y-111.0
X261.0Y-113.0
X261.0Y-115.0
X263.0Y-66.0
X263.0Y-68.0
X263.0Y-70.0
X263.0Y-72.0
X263.0Y-74.0
X263.0Y-76.0
X263.0Y-78.0
X263.0Y-80.0
X263.0Y-82.0
X263.0Y-84.0
X263.0Y-86.0
X263.0Y-88.0
X263.0Y-90.0
X263.0Y-92.0
X263.0Y-94.0
X263.0Y-96.0
X263.0Y-98.0
X263.0Y-100.0
X263.0Y-102.0
X263.0Y-106.0
X263.0Y-108.0
X263.0Y-110.0
X263.0Y-112.0
X263.0Y-114.0
X273.5Y-66.0
X273.5Y-68.0
X273.5Y-70.0
X273.5Y-72.0
X273.5Y-74.0
X273.5Y-76.0
X273.5Y-78.0
X273.5Y-80.0
X273.5Y-82.0
X273.5Y-84.0
X273.5Y-86.0
X273.5Y-88.0
X273.5Y-90.0
X273.5Y-92.0
X273.5Y-94.0
X273.5Y-96.0
X273.5Y-98.0
X273.5Y-100.0
X273.5Y-102.0
X273.5Y-106.0
X273.5Y-108.0
X273.5Y-110.0
X273.5Y-112.0
X273.5Y-114.0
X275.5Y-65.0
X275.5Y-67.0
X275.5Y-69.0
X275.5Y-71.0
X275.5Y-73.0
X275.5Y-75.0
X275.5Y-77.0
X275.5Y-79.0
X275.5Y-81.0
X275.5Y-83.0
X275.5Y-85.0
X275.5Y-87.0
X275.5Y-89.0
X275.5Y-91.0
X275.5Y-93.0
X275.5Y-95.0
X275.5Y-97.0
X275.5Y-99.0
X275.5Y-101.0
X275.5Y-105.0
X275.5Y-107.0
X275.5Y-109.0
X275.5Y-111.0
X275.5Y-113.0
X275.5Y-115.0
X278.0Y-65.0
X278.0Y-67.0
X278.0Y-69.0
X278.0Y-71.0
X278.0Y-73.0
X278.0Y-75.0
X278.0Y-77.0
X278.0Y-79.0
X278.0Y-81.0
X278.0Y-83.0
X278.0Y-85.0
X278.0Y-87.0
X278.0Y-89.0
X278.0Y-91.0
X278.0Y-93.0
X278.0Y-95.0
X278.0Y-97.0
X278.0Y-99.0
X278.0Y-101.0
X278.0Y-105.0
X278.0Y-107.0
X278.0Y-109.0
X278.0Y-111.0
X278.0Y-113.0
X278.0Y-115.0
X280.0Y-66.0
X280.0Y-68.0
X280.0Y-70.0
X280.0Y-72.0
X280.0Y-74.0
X280.0Y-76.0
X280.0Y-78.0
X280.0Y-80.0
X280.0Y-82.0
X280.0Y-84.0
X280.0Y-86.0
X280.0Y-88.0
X280.0Y-90.0
X280.0Y-92.0
X280.0Y-94.0
X280.0Y-96.0
X280.0Y-98.0
X280.0Y-100.0
X280.0Y-102.0
X280.0Y-106.0
X280.0Y-108.0
X280.0Y-110.0
X280.0Y-112.0
X280.0Y-114.0
X289.5Y-66.0
X289.5Y-68.0
X289.5Y-70.0
X289.5Y-72.0
X289.5Y-74.0
X289.5Y-76.0
X289.5Y-78.0
X289.5Y-80.0
X289.5Y-82.0
X289.5Y-84.0
X289.5Y-86.0
X289.5Y-88.0
X289.5Y-90.0
X289.5Y-92.0
X289.5Y-94.0
X289.5Y-96.0
X289.5Y-98.0
X289.5Y-100.0
X289.5Y-102.0
X289.5Y-106.0
X289.5Y-108.0
X289.5Y-110.0
X289.5Y-112.0
X289.5Y-114.0
X291.5Y-65.0
X291.5Y-67.0
X291.5Y-69.0
X291.5Y-71.0
X291.5Y-73.0
X291.5Y-75.0
X291.5Y-77.0
X291.5Y-79.0
X291.5Y-81.0
X291.5Y-83.0
X291.5Y-85.0
X291.5Y-87.0
X291.5Y-89.0
X291.5Y-91.0
X291.5Y-93.0
X291.5Y-95.0
X291.5Y-97.0
X291.5Y-99.0
X291.5Y-101.0
X291.5Y-105.0
X291.5Y-107.0
X291.5Y-109.0
X291.5Y-111.0
X291.5Y-113.0
X291.5Y-115.0
X294.0Y-65.0
X294.0Y-67.0
X294.0Y-69.0
X294.0Y-71.0
X294.0Y-73.0
X294.0Y-75.0
X294.0Y-77.0
X294.0Y-79.0
X294.0Y-81.0
X294.0Y-83.0
X294.0Y-85.0
X294.0Y-87.0
X294.0Y-89.0
X294.0Y-91.0
X294.0Y-93.0
X294.0Y-95.0
X294.0Y-97.0
X294.0Y-99.0
X294.0Y-101.0
X294.0Y-105.0
X294.0Y-107.0
X294.0Y-109.0
X294.0Y-111.0
X294.0Y-113.0
X294.0Y-115.0
X296.0Y-66.0
X296.0Y-68.0
X296.0Y-70.0
X296.0Y-72.0
X296.0Y-74.0
X296.0Y-76.0
X296.0Y-78.0
X296.0Y-80.0
X296.0Y-82.0
X296.0Y-84.0
X296.0Y-86.0
X296.0Y-88.0
X296.0Y-90.0
X296.0Y-92.0
X296.0Y-94.0
X296.0Y-96.0
X296.0Y-98.0
X296.0Y-100.0
X296.0Y-102.0
X296.0Y-106.0
X296.0Y-108.0
X296.0Y-110.0
X296.0Y-112.0
X296.0Y-114.0
X305.5Y-66.0
X305.5Y-68.0
X305.5Y-70.0
X305.5Y-72.0
X305.5Y-74.0
X305.5Y-76.0
X305.5Y-78.0
X305.5Y-80.0
X305.5Y-82.0
X305.5Y-84.0
X305.5Y-86.0
X305.5Y-88.0
X305.5Y-90.0
X305.5Y-92.0
X305.5Y-94.0
X305.5Y-96.0
X305.5Y-98.0
X305.5Y-100.0
X305.5Y-102.0
X305.5Y-106.0
X305.5Y-108.0
X305.5Y-110.0
X305.5Y-112.0
X305.5Y-114.0
X307.5Y-65.0
X307.5Y-67.0
X307.5Y-69.0
X307.5Y-71.0
X307.5Y-73.0
X307.5Y-75.0
X307.5Y-77.0
X307.5Y-79.0
X307.5Y-81.0
X307.5Y-83.0
X307.5Y-85.0
X307.5Y-87.0
X307.5Y-89.0
X307.5Y-91.0
X307.5Y-93.0
X307.5Y-95.0
X307.5Y-97.0
X307.5Y-99.0
X307.5Y-101.0
X307.5Y-105.0
X307.5Y-107.0
X307.5Y-109.0
X307.5Y-111.0
X307.5Y-113.0
X307.5Y-115.0
X310.0Y-65.0
X310.0Y-67.0
X310.0Y-69.0
X310.0Y-71.0
X310.0Y-73.0
X310.0Y-75.0
X310.0Y-77.0
X310.0Y-79.0
X310.0Y-81.0
X310.0Y-83.0
X310.0Y-85.0
X310.0Y-87.0
X310.0Y-89.0
X310.0Y-91.0
X310.0Y-93.0
X310.0Y-95.0
X310.0Y-97.0
X310.0Y-99.0
X310.0Y-101.0
X310.0Y-105.0
X310.0Y-107.0
X310.0Y-109.0
X310.0Y-111.0
X310.0Y-113.0
X310.0Y-115.0
X312.0Y-66.0
X312.0Y-68.0
X312.0Y-70.0
X312.0Y-72.0
X312.0Y-74.0
X312.0Y-76.0
X312.0Y-78.0
X312.0Y-80.0
X312.0Y-82.0
X312.0Y-84.0
X312.0Y-86.0
X312.0Y-88.0
X312.0Y-90.0
X312.0Y-92.0
X312.0Y-94.0
X312.0Y-96.0
X312.0Y-98.0
X312.0Y-100.0
X312.0Y-102.0
X312.0Y-106.0
X312.0Y-108.0
X312.0Y-110.0
X312.0Y-112.0
X312.0Y-114.0
X321.5Y-66.0
X321.5Y-68.0
X321.5Y-70.0
X321.5Y-72.0
X321.5Y-74.0
X321.5Y-76.0
X321.5Y-78.0
X321.5Y-80.0
X321.5Y-82.0
X321.5Y-84.0
X321.5Y-86.0
X321.5Y-88.0
X321.5Y-90.0
X321.5Y-92.0
X321.5Y-94.0
X321.5Y-96.0
X321.5Y-98.0
X321.5Y-100.0
X321.5Y-102.0
X321.5Y-106.0
X321.5Y-108.0
X321.5Y-110.0
X321.5Y-112.0
X321.5Y-114.0
X323.5Y-65.0
X323.5Y-67.0
X323.5Y-69.0
X323.5Y-71.0
X323.5Y-73.0
X323.5Y-75.0
X323.5Y-77.0
X323.5Y-79.0
X323.5Y-81.0
X323.5Y-83.0
X323.5Y-85.0
X323.5Y-87.0
X323.5Y-89.0
X323.5Y-91.0
X323.5Y-93.0
X323.5Y-95.0
X323.5Y-97.0
X323.5Y-99.0
X323.5Y-101.0
X323.5Y-105.0
X323.5Y-107.0
X323.5Y-109.0
X323.5Y-111.0
X323.5Y-113.0
X323.5Y-115.0
X326.0Y-65.0
X326.0Y-67.0
X326.0Y-69.0
X326.0Y-71.0
X326.0Y-73.0
X326.0Y-75.0
X326.0Y-77.0
X326.0Y-79.0
X326.0Y-81.0
X326.0Y-83.0
X326.0Y-85.0
X326.0Y-87.0
X326.0Y-89.0
X326.0Y-91.0
X326.0Y-93.0
X326.0Y-95.0
X326.0Y-97.0
X326.0Y-99.0
X326.0Y-101.0
X326.0Y-105.0
X326.0Y-107.0
X326.0Y-109.0
X326.0Y-111.0
X326.0Y-113.0
X326.0Y-115.0
X328.0Y-66.0
X328.0Y-68.0
X328.0Y-70.0
X328.0Y-72.0
X328.0Y-74.0
X328.0Y-76.0
X328.0Y-78.0
X328.0Y-80.0
X328.0Y-82.0
X328.0Y-84.0
X328.0Y-86.0
X328.0Y-88.0
X328.0Y-90.0
X328.0Y-92.0
X328.0Y-94.0
X328.0Y-96.0
X328.0Y-98.0
X328.0Y-100.0
X328.0Y-102.0
X328.0Y-106.0
X328.0Y-108.0
X328.0Y-110.0
X328.0Y-112.0
X328.0Y-114.0
T3
X172.0Y-105.34
X172.0Y-115.5
T4
X259.75Y-63.2
X259.75Y-103.35
X276.75Y-63.2
X276.75Y-103.35
X292.75Y-63.2
X292.75Y-103.35
X308.75Y-63.2
X308.75Y-103.35
X324.75Y-63.2
X324.75Y-103.35
T5
X157.0Y-47.5
X157.0Y-134.5
X211.5Y-134.5
X278.976Y-134.5
X279.0Y-47.5
X333.0Y-47.5
X333.0Y-134.5
M30
