%TF.GenerationSoftware,KiCad,Pcbnew,8.0.1*%
%TF.CreationDate,2024-04-16T18:19:40-05:00*%
%TF.ProjectId,Backplane,4261636b-706c-4616-9e65-2e6b69636164,rev?*%
%TF.SameCoordinates,Original*%
%TF.FileFunction,Soldermask,Top*%
%TF.FilePolarity,Negative*%
%FSLAX46Y46*%
G04 Gerber Fmt 4.6, Leading zero omitted, Abs format (unit mm)*
G04 Created by KiCad (PCBNEW 8.0.1) date 2024-04-16 18:19:40*
%MOMM*%
%LPD*%
G01*
G04 APERTURE LIST*
G04 Aperture macros list*
%AMRoundRect*
0 Rectangle with rounded corners*
0 $1 Rounding radius*
0 $2 $3 $4 $5 $6 $7 $8 $9 X,Y pos of 4 corners*
0 Add a 4 corners polygon primitive as box body*
4,1,4,$2,$3,$4,$5,$6,$7,$8,$9,$2,$3,0*
0 Add four circle primitives for the rounded corners*
1,1,$1+$1,$2,$3*
1,1,$1+$1,$4,$5*
1,1,$1+$1,$6,$7*
1,1,$1+$1,$8,$9*
0 Add four rect primitives between the rounded corners*
20,1,$1+$1,$2,$3,$4,$5,0*
20,1,$1+$1,$4,$5,$6,$7,0*
20,1,$1+$1,$6,$7,$8,$9,0*
20,1,$1+$1,$8,$9,$2,$3,0*%
G04 Aperture macros list end*
%ADD10RoundRect,0.250000X0.450000X-0.262500X0.450000X0.262500X-0.450000X0.262500X-0.450000X-0.262500X0*%
%ADD11R,1.955800X1.346200*%
%ADD12RoundRect,0.250000X0.650000X-0.325000X0.650000X0.325000X-0.650000X0.325000X-0.650000X-0.325000X0*%
%ADD13RoundRect,0.250000X0.625000X-0.312500X0.625000X0.312500X-0.625000X0.312500X-0.625000X-0.312500X0*%
%ADD14RoundRect,0.250000X-0.450000X0.262500X-0.450000X-0.262500X0.450000X-0.262500X0.450000X0.262500X0*%
%ADD15RoundRect,0.102000X1.560000X-1.145000X1.560000X1.145000X-1.560000X1.145000X-1.560000X-1.145000X0*%
%ADD16RoundRect,0.102000X-0.525000X-0.300000X0.525000X-0.300000X0.525000X0.300000X-0.525000X0.300000X0*%
%ADD17RoundRect,0.102000X0.525000X0.300000X-0.525000X0.300000X-0.525000X-0.300000X0.525000X-0.300000X0*%
%ADD18R,3.200400X2.184400*%
%ADD19RoundRect,0.102000X-1.560000X1.145000X-1.560000X-1.145000X1.560000X-1.145000X1.560000X1.145000X0*%
%ADD20RoundRect,0.250000X-0.262500X-0.450000X0.262500X-0.450000X0.262500X0.450000X-0.262500X0.450000X0*%
%ADD21RoundRect,0.250000X-0.475000X0.250000X-0.475000X-0.250000X0.475000X-0.250000X0.475000X0.250000X0*%
%ADD22RoundRect,0.250000X-0.325000X-0.650000X0.325000X-0.650000X0.325000X0.650000X-0.325000X0.650000X0*%
%ADD23C,2.400000*%
%ADD24RoundRect,0.102000X0.644000X-0.644000X0.644000X0.644000X-0.644000X0.644000X-0.644000X-0.644000X0*%
%ADD25C,1.492000*%
%ADD26R,2.184400X3.200400*%
%ADD27R,1.092200X0.990600*%
%ADD28RoundRect,0.225000X0.225000X0.250000X-0.225000X0.250000X-0.225000X-0.250000X0.225000X-0.250000X0*%
%ADD29R,1.498600X0.711200*%
%ADD30C,3.200000*%
%ADD31RoundRect,0.225000X-0.250000X0.225000X-0.250000X-0.225000X0.250000X-0.225000X0.250000X0.225000X0*%
%ADD32RoundRect,0.200000X0.200000X0.275000X-0.200000X0.275000X-0.200000X-0.275000X0.200000X-0.275000X0*%
%ADD33RoundRect,0.135000X0.185000X-0.135000X0.185000X0.135000X-0.185000X0.135000X-0.185000X-0.135000X0*%
%ADD34R,1.752600X0.660400*%
%ADD35R,0.600000X1.200000*%
%ADD36R,0.800000X1.400000*%
%ADD37RoundRect,0.250000X0.262500X0.450000X-0.262500X0.450000X-0.262500X-0.450000X0.262500X-0.450000X0*%
%ADD38R,1.358900X0.355600*%
%ADD39R,2.743200X3.860800*%
%ADD40RoundRect,0.250000X0.325000X0.650000X-0.325000X0.650000X-0.325000X-0.650000X0.325000X-0.650000X0*%
%ADD41RoundRect,0.135000X-0.185000X0.135000X-0.185000X-0.135000X0.185000X-0.135000X0.185000X0.135000X0*%
%ADD42R,5.207000X2.413000*%
%ADD43R,2.200000X2.200000*%
%ADD44O,2.200000X2.200000*%
%ADD45R,0.254000X0.812800*%
%ADD46R,2.489200X1.752600*%
%ADD47R,0.812800X0.254000*%
%ADD48R,1.752600X2.489200*%
G04 APERTURE END LIST*
D10*
X202000001Y-69312499D03*
X202000001Y-67487499D03*
X209711335Y-61920829D03*
X209711335Y-60095829D03*
D11*
X212389901Y-60629999D03*
X212389901Y-63169999D03*
X221610101Y-63169999D03*
X221610101Y-60629999D03*
D12*
X226597292Y-113389347D03*
X226597292Y-110439347D03*
D13*
X161000000Y-131462500D03*
X161000000Y-128537500D03*
D14*
X317000000Y-75137500D03*
X317000000Y-76962500D03*
D15*
X183455001Y-99242499D03*
X183455001Y-92382499D03*
D10*
X205500001Y-103812499D03*
X205500001Y-101987499D03*
D12*
X208542967Y-111369992D03*
X208542967Y-108419992D03*
D11*
X214779801Y-113399999D03*
X214779801Y-115939999D03*
X224000001Y-115939999D03*
X224000001Y-113399999D03*
D16*
X220900001Y-65899999D03*
X218100001Y-65899999D03*
D17*
X214489901Y-118669999D03*
X217289901Y-118669999D03*
D18*
X176500001Y-90275799D03*
X176500001Y-96524199D03*
D14*
X287000000Y-72500000D03*
X287000000Y-74325000D03*
D19*
X192680001Y-71382499D03*
X192680001Y-78242499D03*
D10*
X211867313Y-58510463D03*
X211867313Y-56685463D03*
D20*
X196587501Y-99899999D03*
X198412501Y-99899999D03*
D10*
X208398193Y-115082499D03*
X208398193Y-113257499D03*
D21*
X177000000Y-123550000D03*
X177000000Y-125450000D03*
D17*
X224741189Y-76899999D03*
X227541189Y-76899999D03*
D16*
X223289901Y-118669999D03*
X220489901Y-118669999D03*
D10*
X158500000Y-107902500D03*
X158500000Y-106077500D03*
D11*
X222889901Y-101629999D03*
X222889901Y-104169999D03*
X232110101Y-104169999D03*
X232110101Y-101629999D03*
D10*
X220236831Y-102807889D03*
X220236831Y-100982889D03*
X236584515Y-75312499D03*
X236584515Y-73487499D03*
D22*
X162025000Y-133500000D03*
X164975000Y-133500000D03*
D23*
X324750000Y-103350000D03*
X324750000Y-63200000D03*
D24*
X323500000Y-115000000D03*
D25*
X321500000Y-114000000D03*
X323500000Y-113000000D03*
X321500000Y-112000000D03*
X323500000Y-111000000D03*
X321500000Y-110000000D03*
X323500000Y-109000000D03*
X321500000Y-108000000D03*
X323500000Y-107000000D03*
X321500000Y-106000000D03*
X323500000Y-105000000D03*
X321500000Y-102000000D03*
X323500000Y-101000000D03*
X321500000Y-100000000D03*
X323500000Y-99000000D03*
X321500000Y-98000000D03*
X323500000Y-97000000D03*
X321500000Y-96000000D03*
X323500000Y-95000000D03*
X321500000Y-94000000D03*
X323500000Y-93000000D03*
X321500000Y-92000000D03*
X323500000Y-91000000D03*
X321500000Y-90000000D03*
X323500000Y-89000000D03*
X321500000Y-88000000D03*
X323500000Y-87000000D03*
X321500000Y-86000000D03*
X323500000Y-85000000D03*
X321500000Y-84000000D03*
X323500000Y-83000000D03*
X321500000Y-82000000D03*
X323500000Y-81000000D03*
X321500000Y-80000000D03*
X323500000Y-79000000D03*
X321500000Y-78000000D03*
X323500000Y-77000000D03*
X321500000Y-76000000D03*
X323500000Y-75000000D03*
X321500000Y-74000000D03*
X323500000Y-73000000D03*
X321500000Y-72000000D03*
X323500000Y-71000000D03*
X321500000Y-70000000D03*
X323500000Y-69000000D03*
X321500000Y-68000000D03*
X323500000Y-67000000D03*
X321500000Y-66000000D03*
X323500000Y-65000000D03*
X326000000Y-115000000D03*
X328000000Y-114000000D03*
X326000000Y-113000000D03*
X328000000Y-112000000D03*
X326000000Y-111000000D03*
X328000000Y-110000000D03*
X326000000Y-109000000D03*
X328000000Y-108000000D03*
X326000000Y-107000000D03*
X328000000Y-106000000D03*
X326000000Y-105000000D03*
X328000000Y-102000000D03*
X326000000Y-101000000D03*
X328000000Y-100000000D03*
X326000000Y-99000000D03*
X328000000Y-98000000D03*
X326000000Y-97000000D03*
X328000000Y-96000000D03*
X326000000Y-95000000D03*
X328000000Y-94000000D03*
X326000000Y-93000000D03*
X328000000Y-92000000D03*
X326000000Y-91000000D03*
X328000000Y-90000000D03*
X326000000Y-89000000D03*
X328000000Y-88000000D03*
X326000000Y-87000000D03*
X328000000Y-86000000D03*
X326000000Y-85000000D03*
X328000000Y-84000000D03*
X326000000Y-83000000D03*
X328000000Y-82000000D03*
X326000000Y-81000000D03*
X328000000Y-80000000D03*
X326000000Y-79000000D03*
X328000000Y-78000000D03*
X326000000Y-77000000D03*
X328000000Y-76000000D03*
X326000000Y-75000000D03*
X328000000Y-74000000D03*
X326000000Y-73000000D03*
X328000000Y-72000000D03*
X326000000Y-71000000D03*
X328000000Y-70000000D03*
X326000000Y-69000000D03*
X328000000Y-68000000D03*
X326000000Y-67000000D03*
X328000000Y-66000000D03*
X326000000Y-65000000D03*
D26*
X211875801Y-80899999D03*
X218124201Y-80899999D03*
D23*
X259750000Y-103350000D03*
X259750000Y-63200000D03*
D24*
X258500000Y-115000000D03*
D25*
X256500000Y-114000000D03*
X258500000Y-113000000D03*
X256500000Y-112000000D03*
X258500000Y-111000000D03*
X256500000Y-110000000D03*
X258500000Y-109000000D03*
X256500000Y-108000000D03*
X258500000Y-107000000D03*
X256500000Y-106000000D03*
X258500000Y-105000000D03*
X256500000Y-102000000D03*
X258500000Y-101000000D03*
X256500000Y-100000000D03*
X258500000Y-99000000D03*
X256500000Y-98000000D03*
X258500000Y-97000000D03*
X256500000Y-96000000D03*
X258500000Y-95000000D03*
X256500000Y-94000000D03*
X258500000Y-93000000D03*
X256500000Y-92000000D03*
X258500000Y-91000000D03*
X256500000Y-90000000D03*
X258500000Y-89000000D03*
X256500000Y-88000000D03*
X258500000Y-87000000D03*
X256500000Y-86000000D03*
X258500000Y-85000000D03*
X256500000Y-84000000D03*
X258500000Y-83000000D03*
X256500000Y-82000000D03*
X258500000Y-81000000D03*
X256500000Y-80000000D03*
X258500000Y-79000000D03*
X256500000Y-78000000D03*
X258500000Y-77000000D03*
X256500000Y-76000000D03*
X258500000Y-75000000D03*
X256500000Y-74000000D03*
X258500000Y-73000000D03*
X256500000Y-72000000D03*
X258500000Y-71000000D03*
X256500000Y-70000000D03*
X258500000Y-69000000D03*
X256500000Y-68000000D03*
X258500000Y-67000000D03*
X256500000Y-66000000D03*
X258500000Y-65000000D03*
X261000000Y-115000000D03*
X263000000Y-114000000D03*
X261000000Y-113000000D03*
X263000000Y-112000000D03*
X261000000Y-111000000D03*
X263000000Y-110000000D03*
X261000000Y-109000000D03*
X263000000Y-108000000D03*
X261000000Y-107000000D03*
X263000000Y-106000000D03*
X261000000Y-105000000D03*
X263000000Y-102000000D03*
X261000000Y-101000000D03*
X263000000Y-100000000D03*
X261000000Y-99000000D03*
X263000000Y-98000000D03*
X261000000Y-97000000D03*
X263000000Y-96000000D03*
X261000000Y-95000000D03*
X263000000Y-94000000D03*
X261000000Y-93000000D03*
X263000000Y-92000000D03*
X261000000Y-91000000D03*
X263000000Y-90000000D03*
X261000000Y-89000000D03*
X263000000Y-88000000D03*
X261000000Y-87000000D03*
X263000000Y-86000000D03*
X261000000Y-85000000D03*
X263000000Y-84000000D03*
X261000000Y-83000000D03*
X263000000Y-82000000D03*
X261000000Y-81000000D03*
X263000000Y-80000000D03*
X261000000Y-79000000D03*
X263000000Y-78000000D03*
X261000000Y-77000000D03*
X263000000Y-76000000D03*
X261000000Y-75000000D03*
X263000000Y-74000000D03*
X261000000Y-73000000D03*
X263000000Y-72000000D03*
X261000000Y-71000000D03*
X263000000Y-70000000D03*
X261000000Y-69000000D03*
X263000000Y-68000000D03*
X261000000Y-67000000D03*
X263000000Y-66000000D03*
X261000000Y-65000000D03*
D14*
X246000000Y-128735614D03*
X246000000Y-130560614D03*
D10*
X212500001Y-103812499D03*
X212500001Y-101987499D03*
X222457986Y-99651511D03*
X222457986Y-97826511D03*
D14*
X319047203Y-71405605D03*
X319047203Y-73230605D03*
D16*
X233900001Y-76899999D03*
X231100001Y-76899999D03*
D27*
X210473201Y-101399999D03*
X207526801Y-101399999D03*
D12*
X224215188Y-60769455D03*
X224215188Y-57819455D03*
D28*
X166775000Y-128500000D03*
X165225000Y-128500000D03*
D14*
X254000000Y-61587500D03*
X254000000Y-63412500D03*
D18*
X203000001Y-92775799D03*
X203000001Y-99024199D03*
D15*
X192275001Y-99329999D03*
X192275001Y-92469999D03*
D29*
X197000001Y-93626699D03*
X197000001Y-98173299D03*
D30*
X157000000Y-47500000D03*
D23*
X276750000Y-103350000D03*
X276750000Y-63200000D03*
D24*
X275500000Y-115000000D03*
D25*
X273500000Y-114000000D03*
X275500000Y-113000000D03*
X273500000Y-112000000D03*
X275500000Y-111000000D03*
X273500000Y-110000000D03*
X275500000Y-109000000D03*
X273500000Y-108000000D03*
X275500000Y-107000000D03*
X273500000Y-106000000D03*
X275500000Y-105000000D03*
X273500000Y-102000000D03*
X275500000Y-101000000D03*
X273500000Y-100000000D03*
X275500000Y-99000000D03*
X273500000Y-98000000D03*
X275500000Y-97000000D03*
X273500000Y-96000000D03*
X275500000Y-95000000D03*
X273500000Y-94000000D03*
X275500000Y-93000000D03*
X273500000Y-92000000D03*
X275500000Y-91000000D03*
X273500000Y-90000000D03*
X275500000Y-89000000D03*
X273500000Y-88000000D03*
X275500000Y-87000000D03*
X273500000Y-86000000D03*
X275500000Y-85000000D03*
X273500000Y-84000000D03*
X275500000Y-83000000D03*
X273500000Y-82000000D03*
X275500000Y-81000000D03*
X273500000Y-80000000D03*
X275500000Y-79000000D03*
X273500000Y-78000000D03*
X275500000Y-77000000D03*
X273500000Y-76000000D03*
X275500000Y-75000000D03*
X273500000Y-74000000D03*
X275500000Y-73000000D03*
X273500000Y-72000000D03*
X275500000Y-71000000D03*
X273500000Y-70000000D03*
X275500000Y-69000000D03*
X273500000Y-68000000D03*
X275500000Y-67000000D03*
X273500000Y-66000000D03*
X275500000Y-65000000D03*
X278000000Y-115000000D03*
X280000000Y-114000000D03*
X278000000Y-113000000D03*
X280000000Y-112000000D03*
X278000000Y-111000000D03*
X280000000Y-110000000D03*
X278000000Y-109000000D03*
X280000000Y-108000000D03*
X278000000Y-107000000D03*
X280000000Y-106000000D03*
X278000000Y-105000000D03*
X280000000Y-102000000D03*
X278000000Y-101000000D03*
X280000000Y-100000000D03*
X278000000Y-99000000D03*
X280000000Y-98000000D03*
X278000000Y-97000000D03*
X280000000Y-96000000D03*
X278000000Y-95000000D03*
X280000000Y-94000000D03*
X278000000Y-93000000D03*
X280000000Y-92000000D03*
X278000000Y-91000000D03*
X280000000Y-90000000D03*
X278000000Y-89000000D03*
X280000000Y-88000000D03*
X278000000Y-87000000D03*
X280000000Y-86000000D03*
X278000000Y-85000000D03*
X280000000Y-84000000D03*
X278000000Y-83000000D03*
X280000000Y-82000000D03*
X278000000Y-81000000D03*
X280000000Y-80000000D03*
X278000000Y-79000000D03*
X280000000Y-78000000D03*
X278000000Y-77000000D03*
X280000000Y-76000000D03*
X278000000Y-75000000D03*
X280000000Y-74000000D03*
X278000000Y-73000000D03*
X280000000Y-72000000D03*
X278000000Y-71000000D03*
X280000000Y-70000000D03*
X278000000Y-69000000D03*
X280000000Y-68000000D03*
X278000000Y-67000000D03*
X280000000Y-66000000D03*
X278000000Y-65000000D03*
D10*
X226490068Y-117218607D03*
X226490068Y-115393607D03*
X187860404Y-96726897D03*
X187860404Y-94901897D03*
D26*
X165624201Y-85399999D03*
X159375801Y-85399999D03*
D20*
X176475233Y-130034219D03*
X178300233Y-130034219D03*
D23*
X308750000Y-103350000D03*
X308750000Y-63200000D03*
D24*
X307500000Y-115000000D03*
D25*
X305500000Y-114000000D03*
X307500000Y-113000000D03*
X305500000Y-112000000D03*
X307500000Y-111000000D03*
X305500000Y-110000000D03*
X307500000Y-109000000D03*
X305500000Y-108000000D03*
X307500000Y-107000000D03*
X305500000Y-106000000D03*
X307500000Y-105000000D03*
X305500000Y-102000000D03*
X307500000Y-101000000D03*
X305500000Y-100000000D03*
X307500000Y-99000000D03*
X305500000Y-98000000D03*
X307500000Y-97000000D03*
X305500000Y-96000000D03*
X307500000Y-95000000D03*
X305500000Y-94000000D03*
X307500000Y-93000000D03*
X305500000Y-92000000D03*
X307500000Y-91000000D03*
X305500000Y-90000000D03*
X307500000Y-89000000D03*
X305500000Y-88000000D03*
X307500000Y-87000000D03*
X305500000Y-86000000D03*
X307500000Y-85000000D03*
X305500000Y-84000000D03*
X307500000Y-83000000D03*
X305500000Y-82000000D03*
X307500000Y-81000000D03*
X305500000Y-80000000D03*
X307500000Y-79000000D03*
X305500000Y-78000000D03*
X307500000Y-77000000D03*
X305500000Y-76000000D03*
X307500000Y-75000000D03*
X305500000Y-74000000D03*
X307500000Y-73000000D03*
X305500000Y-72000000D03*
X307500000Y-71000000D03*
X305500000Y-70000000D03*
X307500000Y-69000000D03*
X305500000Y-68000000D03*
X307500000Y-67000000D03*
X305500000Y-66000000D03*
X307500000Y-65000000D03*
X310000000Y-115000000D03*
X312000000Y-114000000D03*
X310000000Y-113000000D03*
X312000000Y-112000000D03*
X310000000Y-111000000D03*
X312000000Y-110000000D03*
X310000000Y-109000000D03*
X312000000Y-108000000D03*
X310000000Y-107000000D03*
X312000000Y-106000000D03*
X310000000Y-105000000D03*
X312000000Y-102000000D03*
X310000000Y-101000000D03*
X312000000Y-100000000D03*
X310000000Y-99000000D03*
X312000000Y-98000000D03*
X310000000Y-97000000D03*
X312000000Y-96000000D03*
X310000000Y-95000000D03*
X312000000Y-94000000D03*
X310000000Y-93000000D03*
X312000000Y-92000000D03*
X310000000Y-91000000D03*
X312000000Y-90000000D03*
X310000000Y-89000000D03*
X312000000Y-88000000D03*
X310000000Y-87000000D03*
X312000000Y-86000000D03*
X310000000Y-85000000D03*
X312000000Y-84000000D03*
X310000000Y-83000000D03*
X312000000Y-82000000D03*
X310000000Y-81000000D03*
X312000000Y-80000000D03*
X310000000Y-79000000D03*
X312000000Y-78000000D03*
X310000000Y-77000000D03*
X312000000Y-76000000D03*
X310000000Y-75000000D03*
X312000000Y-74000000D03*
X310000000Y-73000000D03*
X312000000Y-72000000D03*
X310000000Y-71000000D03*
X312000000Y-70000000D03*
X310000000Y-69000000D03*
X312000000Y-68000000D03*
X310000000Y-67000000D03*
X312000000Y-66000000D03*
X310000000Y-65000000D03*
D20*
X219587501Y-92399999D03*
X221412501Y-92399999D03*
D31*
X166679446Y-130805561D03*
X166679446Y-132355561D03*
D30*
X333000000Y-134500000D03*
D11*
X196779801Y-111399999D03*
X196779801Y-113939999D03*
X206000001Y-113939999D03*
X206000001Y-111399999D03*
D12*
X205133387Y-57895899D03*
X205133387Y-54945899D03*
D30*
X279000000Y-47500000D03*
D14*
X252000000Y-70087500D03*
X252000000Y-71912500D03*
X252000000Y-65500000D03*
X252000000Y-67325000D03*
D32*
X159150000Y-109490000D03*
X157500000Y-109490000D03*
D23*
X292750000Y-103350000D03*
X292750000Y-63200000D03*
D24*
X291500000Y-115000000D03*
D25*
X289500000Y-114000000D03*
X291500000Y-113000000D03*
X289500000Y-112000000D03*
X291500000Y-111000000D03*
X289500000Y-110000000D03*
X291500000Y-109000000D03*
X289500000Y-108000000D03*
X291500000Y-107000000D03*
X289500000Y-106000000D03*
X291500000Y-105000000D03*
X289500000Y-102000000D03*
X291500000Y-101000000D03*
X289500000Y-100000000D03*
X291500000Y-99000000D03*
X289500000Y-98000000D03*
X291500000Y-97000000D03*
X289500000Y-96000000D03*
X291500000Y-95000000D03*
X289500000Y-94000000D03*
X291500000Y-93000000D03*
X289500000Y-92000000D03*
X291500000Y-91000000D03*
X289500000Y-90000000D03*
X291500000Y-89000000D03*
X289500000Y-88000000D03*
X291500000Y-87000000D03*
X289500000Y-86000000D03*
X291500000Y-85000000D03*
X289500000Y-84000000D03*
X291500000Y-83000000D03*
X289500000Y-82000000D03*
X291500000Y-81000000D03*
X289500000Y-80000000D03*
X291500000Y-79000000D03*
X289500000Y-78000000D03*
X291500000Y-77000000D03*
X289500000Y-76000000D03*
X291500000Y-75000000D03*
X289500000Y-74000000D03*
X291500000Y-73000000D03*
X289500000Y-72000000D03*
X291500000Y-71000000D03*
X289500000Y-70000000D03*
X291500000Y-69000000D03*
X289500000Y-68000000D03*
X291500000Y-67000000D03*
X289500000Y-66000000D03*
X291500000Y-65000000D03*
X294000000Y-115000000D03*
X296000000Y-114000000D03*
X294000000Y-113000000D03*
X296000000Y-112000000D03*
X294000000Y-111000000D03*
X296000000Y-110000000D03*
X294000000Y-109000000D03*
X296000000Y-108000000D03*
X294000000Y-107000000D03*
X296000000Y-106000000D03*
X294000000Y-105000000D03*
X296000000Y-102000000D03*
X294000000Y-101000000D03*
X296000000Y-100000000D03*
X294000000Y-99000000D03*
X296000000Y-98000000D03*
X294000000Y-97000000D03*
X296000000Y-96000000D03*
X294000000Y-95000000D03*
X296000000Y-94000000D03*
X294000000Y-93000000D03*
X296000000Y-92000000D03*
X294000000Y-91000000D03*
X296000000Y-90000000D03*
X294000000Y-89000000D03*
X296000000Y-88000000D03*
X294000000Y-87000000D03*
X296000000Y-86000000D03*
X294000000Y-85000000D03*
X296000000Y-84000000D03*
X294000000Y-83000000D03*
X296000000Y-82000000D03*
X294000000Y-81000000D03*
X296000000Y-80000000D03*
X294000000Y-79000000D03*
X296000000Y-78000000D03*
X294000000Y-77000000D03*
X296000000Y-76000000D03*
X294000000Y-75000000D03*
X296000000Y-74000000D03*
X294000000Y-73000000D03*
X296000000Y-72000000D03*
X294000000Y-71000000D03*
X296000000Y-70000000D03*
X294000000Y-69000000D03*
X296000000Y-68000000D03*
X294000000Y-67000000D03*
X296000000Y-66000000D03*
X294000000Y-65000000D03*
D10*
X161969597Y-103756145D03*
X161969597Y-101931145D03*
D33*
X239420009Y-127219212D03*
X239420009Y-126199212D03*
D27*
X211684504Y-76168159D03*
X214630904Y-76168159D03*
D30*
X157000000Y-134500000D03*
D10*
X234498985Y-105312499D03*
X234498985Y-103487499D03*
X224348678Y-69595344D03*
X224348678Y-67770344D03*
D34*
X168984158Y-118798145D03*
X168984158Y-120068145D03*
X168984158Y-121338145D03*
X168984158Y-122608145D03*
X174584156Y-122608145D03*
X174584156Y-121338145D03*
X174584156Y-120068145D03*
X174584156Y-118798145D03*
D35*
X183000000Y-87399999D03*
X183500000Y-84500000D03*
X183999999Y-87399999D03*
X184500000Y-84500000D03*
X185000000Y-87399999D03*
X185500000Y-84500000D03*
X186000000Y-87399999D03*
X186500000Y-84500000D03*
X187000000Y-87399999D03*
X187500000Y-84500000D03*
X188000000Y-87399999D03*
X188500000Y-84500000D03*
X189000000Y-87399999D03*
X189500000Y-84500000D03*
X190000000Y-87399999D03*
X190500000Y-84500000D03*
X191000000Y-87399999D03*
X191500000Y-84500000D03*
X192000000Y-87399999D03*
X192500000Y-84500000D03*
X193000000Y-87399999D03*
X193500000Y-84500000D03*
X194000000Y-87399999D03*
X194500000Y-84500000D03*
X195000000Y-87399999D03*
X195500000Y-84500000D03*
X196000000Y-87399999D03*
X196500000Y-84500000D03*
X197000000Y-87399999D03*
X197500000Y-84500000D03*
X198000000Y-87399999D03*
X198500000Y-84500000D03*
X199000000Y-87399999D03*
X199500001Y-84500000D03*
X200000000Y-87399999D03*
X200500000Y-84500000D03*
X201000001Y-87399999D03*
X201500000Y-84500000D03*
X202000001Y-87399999D03*
X202500000Y-84500000D03*
D36*
X181999997Y-87300000D03*
X203499957Y-87300000D03*
X181999997Y-84600000D03*
X203499957Y-84600000D03*
D10*
X211889901Y-115082499D03*
X211889901Y-113257499D03*
D16*
X205289901Y-116687898D03*
X202489901Y-116687898D03*
D20*
X240747978Y-126637384D03*
X242572978Y-126637384D03*
D17*
X212100001Y-65899999D03*
X214900001Y-65899999D03*
D30*
X278976187Y-134500000D03*
D16*
X224900001Y-106899999D03*
X222100001Y-106899999D03*
D10*
X224064449Y-64441523D03*
X224064449Y-62616523D03*
D37*
X162823134Y-109402520D03*
X160998134Y-109402520D03*
D14*
X269000000Y-76587500D03*
X269000000Y-78412500D03*
D11*
X193279801Y-57899999D03*
X193279801Y-60439999D03*
X202500001Y-60439999D03*
X202500001Y-57899999D03*
D32*
X245994833Y-127038860D03*
X244344833Y-127038860D03*
D30*
X211500000Y-134500000D03*
D10*
X209273998Y-69556362D03*
X209273998Y-67731362D03*
D37*
X172072124Y-134143895D03*
X170247124Y-134143895D03*
D27*
X207212042Y-69679018D03*
X204265642Y-69679018D03*
D12*
X236740386Y-71771762D03*
X236740386Y-68821762D03*
X155000000Y-109465000D03*
X155000000Y-106515000D03*
D38*
X168746900Y-124499998D03*
X168746900Y-125799997D03*
X168746900Y-127099997D03*
X168746900Y-127749996D03*
X168746900Y-128399997D03*
X168746900Y-129049996D03*
X168746900Y-129699997D03*
X168746900Y-130349996D03*
X174500000Y-130349998D03*
X174500000Y-129700000D03*
X174500000Y-129049999D03*
X174500000Y-128400000D03*
X174500000Y-127749999D03*
X174500000Y-127100000D03*
X174500000Y-125800000D03*
X174500000Y-124500000D03*
D39*
X171623450Y-127424998D03*
D12*
X234732791Y-101672058D03*
X234732791Y-98722058D03*
D18*
X206867193Y-78617394D03*
X206867193Y-72368994D03*
X199550415Y-78574738D03*
X199550415Y-72326338D03*
D40*
X248948932Y-132745486D03*
X245998932Y-132745486D03*
D37*
X178294661Y-132095083D03*
X176469661Y-132095083D03*
D27*
X214635371Y-92580801D03*
X217581771Y-92580801D03*
D14*
X159610467Y-102581360D03*
X159610467Y-104406360D03*
D17*
X192584042Y-63241426D03*
X195384042Y-63241426D03*
D10*
X190611385Y-58968466D03*
X190611385Y-57143466D03*
D41*
X164298543Y-108848213D03*
X164298543Y-109868213D03*
D10*
X194231306Y-112225059D03*
X194231306Y-110400059D03*
D30*
X333000000Y-47500000D03*
D16*
X201400001Y-63283584D03*
X198600001Y-63283584D03*
D27*
X203473201Y-101899999D03*
X200526801Y-101899999D03*
D37*
X242593029Y-128679815D03*
X240768029Y-128679815D03*
D10*
X214353234Y-111411683D03*
X214353234Y-109586683D03*
D14*
X188099616Y-73982122D03*
X188099616Y-75807122D03*
D42*
X160500000Y-125041900D03*
X160500000Y-114958100D03*
D20*
X216587501Y-76399999D03*
X218412501Y-76399999D03*
D11*
X224889901Y-71629999D03*
X224889901Y-74169999D03*
X234110101Y-74169999D03*
X234110101Y-71629999D03*
D14*
X301500000Y-76587500D03*
X301500000Y-78412500D03*
D18*
X210000001Y-92275799D03*
X210000001Y-98524199D03*
X176500001Y-80524199D03*
X176500001Y-74275799D03*
D14*
X271500000Y-72587500D03*
X271500000Y-74412500D03*
D10*
X205000001Y-61724999D03*
X205000001Y-59899999D03*
D16*
X231400001Y-106899999D03*
X228600001Y-106899999D03*
D43*
X172000000Y-115500000D03*
D44*
X172000000Y-105340000D03*
D20*
X177627466Y-134112178D03*
X179452466Y-134112178D03*
D19*
X183680001Y-71452499D03*
X183680001Y-78312499D03*
D45*
X240734260Y-130608362D03*
X240234259Y-130608362D03*
X239734259Y-130608362D03*
X239234258Y-130608362D03*
X239234258Y-133402362D03*
X239734259Y-133402362D03*
X240234259Y-133402362D03*
X240734260Y-133402362D03*
D46*
X239984259Y-132005362D03*
D18*
X169000000Y-80524199D03*
X169000000Y-74275799D03*
D10*
X196389901Y-109082499D03*
X196389901Y-107257499D03*
X222205458Y-73157644D03*
X222205458Y-71332644D03*
D14*
X180146398Y-129948735D03*
X180146398Y-131773735D03*
D17*
X195989901Y-116669999D03*
X198789901Y-116669999D03*
D18*
X169000001Y-90399999D03*
X169000001Y-96648399D03*
D37*
X168612753Y-134143118D03*
X166787753Y-134143118D03*
D10*
X242905960Y-133650421D03*
X242905960Y-131825421D03*
D27*
X199973201Y-69399999D03*
X197026801Y-69399999D03*
D26*
X214875801Y-87899999D03*
X221124201Y-87899999D03*
D47*
X161211857Y-105727512D03*
X161211857Y-106227513D03*
X161211857Y-106727513D03*
X161211857Y-107227514D03*
X164005857Y-107227514D03*
X164005857Y-106727513D03*
X164005857Y-106227513D03*
X164005857Y-105727512D03*
D48*
X162608857Y-106477513D03*
D10*
X192761454Y-55764442D03*
X192761454Y-53939442D03*
D14*
X285500000Y-76675000D03*
X285500000Y-78500000D03*
M02*
