M48
; DRILL file {KiCad 8.0.0} date 2024-04-17T16:37:05-0500
; FORMAT={-:-/ absolute / metric / decimal}
; #@! TF.CreationDate,2024-04-17T16:37:05-05:00
; #@! TF.GenerationSoftware,Kicad,Pcbnew,8.0.0
; #@! TF.FileFunction,MixedPlating,1,4
FMAT,2
METRIC
; #@! TA.AperFunction,Plated,PTH,ViaDrill
T1C0.300
; #@! TA.AperFunction,Plated,PTH,ComponentDrill
T2C0.600
; #@! TA.AperFunction,Plated,PTH,ComponentDrill
T3C1.016
; #@! TA.AperFunction,Plated,PTH,ComponentDrill
T4C1.118
; #@! TA.AperFunction,NonPlated,NPTH,ComponentDrill
T5C0.650
; #@! TA.AperFunction,NonPlated,NPTH,ComponentDrill
T6C2.200
%
G90
G05
T1
X63.0Y-71.5
X63.0Y-79.0
X64.5Y-95.5
X65.0Y-108.5
X65.5Y-99.707
X65.5Y-102.0
X65.5Y-104.207
X66.0Y-95.5
X68.46Y-96.0
X68.46Y-108.0
X68.5Y-66.55
X69.5Y-67.0
X69.707Y-99.707
X70.0Y-102.5
X71.0Y-64.0
X71.0Y-99.5
X71.5Y-61.0
X71.5Y-95.0
X71.996Y-70.504
X72.0Y-109.0
X72.5Y-104.5
X72.5Y-110.5
X72.7Y-118.0
X73.0Y-89.5
X73.25Y-61.25
X73.35Y-118.0
X73.5Y-100.0
X73.5Y-102.5
X74.0Y-64.0
X74.0Y-70.5
X74.0Y-109.0
X74.0Y-118.0
X74.5Y-92.5
X75.0Y-105.0
X75.234Y-109.475
X75.372Y-88.145
X75.372Y-88.723
X75.38Y-89.339
X75.38Y-89.94
X75.5Y-69.5
X75.5Y-119.5
X75.697Y-92.609
X75.95Y-66.45
X75.958Y-88.122
X76.0Y-119.0
X76.0Y-120.0
X76.5Y-118.5
X76.5Y-120.5
X76.5Y-124.5
X76.537Y-88.115
X76.86Y-108.86
X77.13Y-88.107
X77.5Y-111.0
X78.0Y-69.5
X78.0Y-92.0
X78.0Y-119.0
X78.348Y-107.372
X78.5Y-64.0
X78.5Y-67.5
X78.5Y-97.5
X78.5Y-118.5
X79.0Y-92.0
X79.0Y-95.0
X79.0Y-100.5
X79.0Y-105.5
X79.0Y-106.5
X79.0Y-116.0
X79.0Y-118.0
X79.192Y-109.0
X79.5Y-66.308
X79.5Y-97.0
X79.5Y-115.5
X79.5Y-116.5
X79.5Y-117.5
X80.0Y-92.0
X80.0Y-117.0
X80.172Y-90.338
X80.172Y-90.916
X80.5Y-116.5
X80.5Y-117.5
X80.85Y-106.5
X81.0Y-70.961
X81.0Y-117.0
X81.0Y-118.0
X81.5Y-96.475
X81.5Y-117.5
X82.0Y-107.0
X82.395Y-78.105
X82.5Y-65.0
X82.5Y-95.95
X83.0Y-67.473
X83.0Y-103.5
X83.5Y-70.0
X83.5Y-99.525
X83.5Y-101.0
X84.0Y-102.5
X84.45Y-124.525
X84.5Y-61.5
X84.5Y-95.95
X84.5Y-102.0
X84.5Y-113.5
X84.975Y-124.025
X85.0Y-65.0
X85.0Y-67.5
X85.0Y-107.0
X85.0Y-114.0
X85.091Y-99.409
X85.5Y-103.0
X86.0Y-95.0
X86.0Y-124.0
X86.286Y-117.71
X86.5Y-61.5
X86.5Y-103.5
X87.0Y-64.5
X87.0Y-124.0
X87.238Y-106.5
X87.479Y-107.215
X87.694Y-101.306
X88.0Y-106.0
X88.499Y-105.475
X88.566Y-101.434
X89.5Y-93.0
X89.5Y-99.5
X90.5Y-109.475
X90.571Y-89.071
X90.961Y-111.525
X91.0Y-93.5
X91.5Y-106.0
X91.5Y-115.0
X91.523Y-111.948
X91.734Y-71.535
X91.75Y-89.75
X91.784Y-68.147
X92.0Y-92.5
X92.0Y-94.5
X92.0Y-102.0
X92.0Y-105.5
X92.0Y-110.0
X92.0Y-110.7
X92.0Y-111.35
X92.437Y-90.617
X92.437Y-95.5
X92.5Y-112.525
X92.514Y-106.514
X93.0Y-67.0
X93.5Y-92.5
X93.5Y-108.825
X93.5Y-112.525
X93.584Y-71.647
X93.904Y-101.5
X94.5Y-92.5
X94.5Y-95.0
X94.5Y-102.5
X95.06Y-98.541
X95.452Y-114.048
X96.0Y-96.5
X96.0Y-114.5
X96.0Y-124.5
X96.078Y-75.422
X96.5Y-67.5
X96.5Y-118.0
X97.0Y-68.5
X97.0Y-83.0
X97.0Y-99.5
X97.0Y-124.5
X98.0Y-84.0
X98.0Y-98.5
X99.0Y-72.282
X99.47Y-102.97
X100.0Y-86.5
X100.5Y-67.487
X100.5Y-109.5
X101.475Y-90.345
X101.5Y-73.552
X101.5Y-110.5
X102.5Y-87.0
X102.5Y-96.5
X103.5Y-76.0
X103.5Y-97.5
X103.5Y-112.5
X103.794Y-117.731
X104.0Y-107.5
X104.0Y-115.71
X104.0Y-121.0
X104.0Y-124.0
X104.45Y-91.55
X104.5Y-74.0
X104.5Y-97.5
X104.5Y-102.0
X105.0Y-86.5
X105.0Y-109.0
X105.0Y-123.5
X105.0Y-124.5
X105.0Y-127.0
X105.159Y-67.5
X105.5Y-97.5
X106.0Y-123.5
X106.35Y-97.5
X106.351Y-124.757
X107.0Y-97.5
X107.0Y-114.0
X107.0Y-123.0
X107.0Y-127.5
X107.059Y-67.441
X107.059Y-73.059
X107.092Y-124.716
X107.099Y-123.83
X107.5Y-109.0
X107.779Y-124.029
X107.834Y-123.35
X108.0Y-68.5
X108.0Y-75.5
X108.0Y-115.5
X108.0Y-118.0
X108.147Y-72.147
X108.5Y-118.5
X108.617Y-123.94
X108.658Y-123.322
X109.0Y-84.5
X109.0Y-114.5
X109.159Y-72.0
X109.5Y-123.0
X109.975Y-123.475
X110.5Y-90.0
X110.846Y-123.346
X111.0Y-69.5
X111.635Y-82.0
X111.801Y-95.397
X111.801Y-97.398
X112.205Y-120.868
X112.462Y-117.538
X112.5Y-115.0
X112.5Y-118.5
X112.726Y-98.5
X113.0Y-70.647
X113.5Y-78.0
X114.335Y-101.0
X114.421Y-84.079
X115.0Y-87.0
X115.0Y-124.5
X115.255Y-95.0
X115.26Y-97.017
X115.5Y-74.5
X116.0Y-85.0
X116.0Y-127.0
X116.5Y-123.0
X117.5Y-88.0
X117.5Y-116.5
X117.839Y-114.84
X118.0Y-84.5
X118.0Y-124.0
X119.0Y-125.0
X119.475Y-73.5
X119.475Y-126.5
X120.0Y-71.0
X120.0Y-72.0
X120.0Y-122.5
X120.525Y-75.5
X120.54Y-115.887
X120.55Y-67.0
X121.0Y-101.0
X121.0Y-111.0
X121.05Y-73.5
X122.0Y-126.5
X122.452Y-122.5
X122.5Y-100.0
X122.656Y-96.5
X123.0Y-121.5
X123.0Y-123.0
X123.5Y-68.0
X123.5Y-102.881
X123.816Y-123.941
X124.0Y-72.0
X124.0Y-74.5
X124.487Y-102.012
X124.5Y-124.0
X125.0Y-106.0
X125.0Y-119.5
X125.5Y-101.525
X126.5Y-100.5
X126.5Y-112.0
X127.0Y-72.0
X127.0Y-108.0
X127.226Y-112.0
X127.37Y-115.846
X127.375Y-121.152
X127.55Y-119.037
X127.668Y-114.832
X128.0Y-108.0
X128.5Y-117.5
X128.526Y-112.0
X128.75Y-99.75
X129.05Y-67.0
X130.0Y-109.5
X130.252Y-101.895
X130.5Y-96.0
X132.0Y-68.0
X132.0Y-73.81
X132.0Y-95.0
X132.0Y-103.5
X133.0Y-71.5
X133.0Y-106.5
X133.455Y-101.133
X133.647Y-103.5
X134.0Y-96.895
X134.0Y-97.845
X134.0Y-98.795
X134.5Y-110.0
X134.95Y-93.95
X135.5Y-112.0
T3
X61.5Y-100.46
X61.5Y-103.0
T4
X92.366Y-64.147
X106.514Y-64.147
T5
X69.86Y-64.425
X75.64Y-64.425
T6
X63.0Y-62.5
X63.0Y-122.5
X133.0Y-62.5
X133.0Y-122.5
T2
G00X68.43Y-61.145
M15
G01X68.43Y-60.345
M16
G05
G00X68.43Y-65.475
M15
G01X68.43Y-64.375
M16
G05
G00X77.07Y-61.145
M15
G01X77.07Y-60.345
M16
G05
G00X77.07Y-65.475
M15
G01X77.07Y-64.375
M16
G05
M30
