%TF.GenerationSoftware,KiCad,Pcbnew,8.0.1*%
%TF.CreationDate,2024-04-16T19:56:43-05:00*%
%TF.ProjectId,PCB-1-2,5043422d-312d-4322-9e6b-696361645f70,rev?*%
%TF.SameCoordinates,Original*%
%TF.FileFunction,Copper,L2,Inr*%
%TF.FilePolarity,Positive*%
%FSLAX46Y46*%
G04 Gerber Fmt 4.6, Leading zero omitted, Abs format (unit mm)*
G04 Created by KiCad (PCBNEW 8.0.1) date 2024-04-16 19:56:43*
%MOMM*%
%LPD*%
G01*
G04 APERTURE LIST*
G04 Aperture macros list*
%AMRoundRect*
0 Rectangle with rounded corners*
0 $1 Rounding radius*
0 $2 $3 $4 $5 $6 $7 $8 $9 X,Y pos of 4 corners*
0 Add a 4 corners polygon primitive as box body*
4,1,4,$2,$3,$4,$5,$6,$7,$8,$9,$2,$3,0*
0 Add four circle primitives for the rounded corners*
1,1,$1+$1,$2,$3*
1,1,$1+$1,$4,$5*
1,1,$1+$1,$6,$7*
1,1,$1+$1,$8,$9*
0 Add four rect primitives between the rounded corners*
20,1,$1+$1,$2,$3,$4,$5,0*
20,1,$1+$1,$4,$5,$6,$7,0*
20,1,$1+$1,$6,$7,$8,$9,0*
20,1,$1+$1,$8,$9,$2,$3,0*%
G04 Aperture macros list end*
%TA.AperFunction,ComponentPad*%
%ADD10C,1.524000*%
%TD*%
%TA.AperFunction,ComponentPad*%
%ADD11O,1.000000X2.100000*%
%TD*%
%TA.AperFunction,ComponentPad*%
%ADD12RoundRect,0.250000X0.250000X0.650000X-0.250000X0.650000X-0.250000X-0.650000X0.250000X-0.650000X0*%
%TD*%
%TA.AperFunction,ComponentPad*%
%ADD13R,1.625600X1.625600*%
%TD*%
%TA.AperFunction,ComponentPad*%
%ADD14C,1.625600*%
%TD*%
%TA.AperFunction,ViaPad*%
%ADD15C,0.450000*%
%TD*%
G04 APERTURE END LIST*
D10*
X61500000Y-100460000D03*
X61500000Y-103000000D03*
D11*
X77070000Y-64925000D03*
X68430000Y-64925000D03*
D12*
X77070000Y-60745000D03*
X68430000Y-60745000D03*
D13*
X106514152Y-64147111D03*
D14*
X92366352Y-64147111D03*
D15*
X105158652Y-67500000D03*
X112461917Y-117538083D03*
X120539869Y-115886906D03*
X112726309Y-98500000D03*
X104500000Y-74000000D03*
X127668354Y-114831646D03*
X123500000Y-68000000D03*
X132000000Y-68000000D03*
X68460000Y-108000000D03*
X134000000Y-96895285D03*
X69706514Y-99706514D03*
X112500000Y-118500000D03*
X103500000Y-76000000D03*
X122500000Y-100000000D03*
X128525841Y-112000000D03*
X132000000Y-95000000D03*
X109158652Y-72000000D03*
X118000000Y-84500000D03*
X107000000Y-97500000D03*
X120000000Y-71000000D03*
X124000000Y-72000000D03*
X75500000Y-69500000D03*
X69500000Y-67000000D03*
X66000000Y-95500000D03*
X113500000Y-78000000D03*
X86500000Y-61500000D03*
X92500000Y-112525000D03*
X92000000Y-105500000D03*
X92513762Y-106513762D03*
X74000000Y-64000000D03*
X72000000Y-109000000D03*
X88000000Y-106000000D03*
X74000000Y-109000000D03*
X92000000Y-110000000D03*
X76860000Y-108860000D03*
X72699994Y-118000000D03*
X78347890Y-107372109D03*
X84450000Y-124525000D03*
X75233581Y-109475000D03*
X79000000Y-105500000D03*
X73349997Y-118000000D03*
X79192157Y-109000000D03*
X83000000Y-103500000D03*
X88499142Y-105475000D03*
X80849997Y-106500000D03*
X84975000Y-124025000D03*
X92000000Y-110699994D03*
X72500000Y-110500000D03*
X77500000Y-111000000D03*
X92000000Y-111349997D03*
X111635000Y-82000000D03*
X98000000Y-98500000D03*
X85500000Y-103000000D03*
X86000000Y-124000000D03*
X74000000Y-118000000D03*
X84500000Y-102000000D03*
X119475000Y-73500000D03*
X121000000Y-101000000D03*
X121000000Y-111000000D03*
X120000000Y-72000000D03*
X134500000Y-110000000D03*
X105500000Y-97500000D03*
X121050000Y-73500000D03*
X110500000Y-90000000D03*
X120525000Y-75500000D03*
X115000000Y-87000000D03*
X124000000Y-74500000D03*
X104500000Y-97500000D03*
X127000000Y-72000000D03*
X93500000Y-112525000D03*
X84500000Y-95950000D03*
X91500000Y-106000000D03*
X93500000Y-108824997D03*
X133000000Y-71500000D03*
X123816267Y-123941270D03*
X135500000Y-112000000D03*
X119475000Y-126500000D03*
X83500000Y-70000000D03*
X85000000Y-65000000D03*
X74000000Y-70500000D03*
X78000000Y-69500000D03*
X82500000Y-65000000D03*
X71996213Y-70503787D03*
X78500000Y-64000000D03*
X83000000Y-67472809D03*
X90500000Y-109475000D03*
X100000000Y-86500000D03*
X86000000Y-95000000D03*
X96000000Y-96500000D03*
X75000000Y-105000000D03*
X103500000Y-112500000D03*
X108000000Y-118000000D03*
X90570532Y-89070532D03*
X78500000Y-97500000D03*
X63000000Y-71500000D03*
X85000000Y-107000000D03*
X96000000Y-114500000D03*
X101500000Y-110500000D03*
X82395270Y-78104730D03*
X114334644Y-101000000D03*
X108000000Y-115500000D03*
X94500000Y-102500000D03*
X109974693Y-123474693D03*
X112500000Y-115000000D03*
X92000000Y-94500000D03*
X93500000Y-92500000D03*
X92000000Y-92500000D03*
X105000000Y-123500000D03*
X107000000Y-123000000D03*
X110845925Y-123345925D03*
X107092454Y-124716043D03*
X106350918Y-124757240D03*
X107099320Y-123830319D03*
X107833990Y-123349694D03*
X108616723Y-123940177D03*
X108657919Y-123322230D03*
X107779062Y-124029436D03*
X109500000Y-123000000D03*
X106000000Y-123500000D03*
X107000000Y-114000000D03*
X92000000Y-102000000D03*
X89500000Y-99500000D03*
X106349997Y-97500000D03*
X116000000Y-85000000D03*
X97000000Y-83000000D03*
X128500000Y-117500000D03*
X123000000Y-121500000D03*
X97000000Y-68500000D03*
X93000000Y-67000000D03*
X104450000Y-91550000D03*
X127000000Y-108000000D03*
X130000000Y-109500000D03*
X125000000Y-106000000D03*
X128000000Y-108000000D03*
X132000000Y-103500000D03*
X133000000Y-106500000D03*
X122000000Y-126500000D03*
X128750000Y-99750000D03*
X119000000Y-125000000D03*
X126500000Y-100500000D03*
X71000000Y-64000000D03*
X120000000Y-122500000D03*
X117500000Y-116500000D03*
X98000000Y-84000000D03*
X75696664Y-92608732D03*
X73000000Y-89500000D03*
X74500000Y-92500000D03*
X88565687Y-101434313D03*
X82500000Y-95950000D03*
X83500000Y-101000000D03*
X124500000Y-124000000D03*
X83500000Y-99525000D03*
X85090901Y-99409099D03*
X79000000Y-106500000D03*
X87694455Y-101305544D03*
X116500000Y-123000000D03*
X70000000Y-102500000D03*
X116000000Y-127000000D03*
X76500000Y-124500000D03*
X81500000Y-96475000D03*
X79000000Y-100500000D03*
X79500000Y-97000000D03*
X71000000Y-99500000D03*
X105000000Y-86500000D03*
X102500000Y-96500000D03*
X109000000Y-84500000D03*
X103500000Y-97500000D03*
X97000000Y-99500000D03*
X117500000Y-88000000D03*
X94500000Y-95000000D03*
X91000000Y-93500000D03*
X96500000Y-118000000D03*
X127225841Y-112000000D03*
X78000000Y-92000000D03*
X75950000Y-66450000D03*
X127375001Y-121152165D03*
X95059908Y-98540778D03*
X71500000Y-95000000D03*
X127550001Y-119036518D03*
X87237883Y-106500000D03*
X122655533Y-96500000D03*
X75379823Y-89339031D03*
X65500000Y-102000000D03*
X123000000Y-123000000D03*
X96077889Y-75422111D03*
X132000000Y-73810000D03*
X108500000Y-118500000D03*
X134949999Y-93949999D03*
X129050000Y-67000000D03*
X76000000Y-120000000D03*
X134000000Y-97845286D03*
X85000000Y-114000000D03*
X127370149Y-115846359D03*
X79500000Y-66308009D03*
X100500000Y-67486615D03*
X108000000Y-68500000D03*
X115500000Y-74500000D03*
X84500000Y-113500000D03*
X96000000Y-124500000D03*
X82000000Y-107000000D03*
X95451903Y-114048097D03*
X91750000Y-89750000D03*
X65500000Y-104206514D03*
X105000000Y-124500000D03*
X79000000Y-116000000D03*
X92437475Y-90616584D03*
X84000000Y-102500000D03*
X114421430Y-84078570D03*
X124487500Y-102012500D03*
X76536518Y-88114737D03*
X68500000Y-66550000D03*
X78000000Y-119000000D03*
X115259644Y-97016570D03*
X133646629Y-103500000D03*
X130252235Y-101895426D03*
X73500000Y-100000000D03*
X93903806Y-101500000D03*
X108000000Y-75500000D03*
X126500000Y-112000000D03*
X125000000Y-119500000D03*
X94500000Y-92500000D03*
X105000000Y-127000000D03*
X104000000Y-107500000D03*
X102500000Y-87000000D03*
X115000000Y-124500000D03*
X97000000Y-124500000D03*
X84500000Y-61500000D03*
X79500000Y-117500000D03*
X76500000Y-120500000D03*
X111000000Y-69500000D03*
X75500000Y-119500000D03*
X73250000Y-61250000D03*
X107058652Y-67441348D03*
X108147111Y-72147111D03*
X91733652Y-71535046D03*
X73500000Y-102500000D03*
X101500000Y-73552111D03*
X125500000Y-101525000D03*
X120550000Y-67000000D03*
X79000000Y-118000000D03*
X134000000Y-98795287D03*
X87000000Y-64500000D03*
X86286353Y-117710308D03*
X75372312Y-88723129D03*
X71500000Y-61000000D03*
X87479237Y-107215315D03*
X104000000Y-121000000D03*
X80500000Y-117500000D03*
X130500000Y-96000000D03*
X107058652Y-73058652D03*
X80000000Y-92000000D03*
X123500000Y-102880648D03*
X75379823Y-89939911D03*
X96500000Y-67500000D03*
X78500000Y-67500000D03*
X111800533Y-95397340D03*
X68460000Y-96000000D03*
X76000000Y-119000000D03*
X65500000Y-99706514D03*
X75372312Y-88144781D03*
X80500000Y-116500000D03*
X80171844Y-90337995D03*
X77129887Y-88107226D03*
X104000000Y-124000000D03*
X122452087Y-122500000D03*
X105000000Y-109000000D03*
X101475000Y-90345080D03*
X111801309Y-97398256D03*
X133455192Y-101132522D03*
X80171844Y-90916342D03*
X93583652Y-71647111D03*
X81500000Y-117500000D03*
X86500000Y-103500000D03*
X117838970Y-114840422D03*
X92437475Y-95500000D03*
X85000000Y-67500000D03*
X75958171Y-88122248D03*
X91500000Y-115000000D03*
X90960654Y-111525000D03*
X118000000Y-124000000D03*
X76500000Y-118500000D03*
X79000000Y-95000000D03*
X109000000Y-114500000D03*
X81000000Y-118000000D03*
X107000000Y-127500000D03*
X81000000Y-70961163D03*
X107500000Y-109000000D03*
X103794450Y-117730550D03*
X78500000Y-118500000D03*
X80000000Y-117000000D03*
X79500000Y-115500000D03*
X113000000Y-70647111D03*
X112204705Y-120867844D03*
X79500000Y-116500000D03*
X104000000Y-115709756D03*
X79000000Y-92000000D03*
X87000000Y-124000000D03*
X115254525Y-95000000D03*
X100500000Y-109500000D03*
X89500000Y-93000000D03*
X81000000Y-117000000D03*
X91783652Y-68147111D03*
X63000000Y-79000000D03*
X99000000Y-72282111D03*
X72500000Y-104500000D03*
X64500000Y-95500000D03*
X65000000Y-108500000D03*
X99469759Y-102969759D03*
X104500000Y-102000000D03*
X91522998Y-111947765D03*
%TA.AperFunction,Conductor*%
G36*
X68130000Y-60995000D02*
G01*
X67430001Y-60995000D01*
X67430001Y-61444986D01*
X67440494Y-61547697D01*
X67495641Y-61714119D01*
X67495643Y-61714124D01*
X67587684Y-61863345D01*
X67711654Y-61987315D01*
X67860875Y-62079356D01*
X67860880Y-62079358D01*
X68027302Y-62134505D01*
X68027309Y-62134506D01*
X68130019Y-62144999D01*
X68179999Y-62144998D01*
X68180000Y-62144998D01*
X68180000Y-61311988D01*
X68189940Y-61329205D01*
X68245795Y-61385060D01*
X68314204Y-61424556D01*
X68390504Y-61445000D01*
X68469496Y-61445000D01*
X68545796Y-61424556D01*
X68614205Y-61385060D01*
X68670060Y-61329205D01*
X68680000Y-61311988D01*
X68680000Y-62144999D01*
X68729972Y-62144999D01*
X68729986Y-62144998D01*
X68832697Y-62134505D01*
X68999119Y-62079358D01*
X68999124Y-62079356D01*
X69148345Y-61987315D01*
X69272315Y-61863345D01*
X69364356Y-61714124D01*
X69364358Y-61714119D01*
X69419505Y-61547697D01*
X69419506Y-61547690D01*
X69429999Y-61444986D01*
X69430000Y-61444973D01*
X69430000Y-60995000D01*
X68730000Y-60995000D01*
X68730000Y-60500000D01*
X76770000Y-60500000D01*
X76770000Y-60995000D01*
X76070001Y-60995000D01*
X76070001Y-61444986D01*
X76080494Y-61547697D01*
X76135641Y-61714119D01*
X76135643Y-61714124D01*
X76227684Y-61863345D01*
X76351654Y-61987315D01*
X76500875Y-62079356D01*
X76500880Y-62079358D01*
X76667302Y-62134505D01*
X76667309Y-62134506D01*
X76770019Y-62144999D01*
X76819999Y-62144998D01*
X76820000Y-62144998D01*
X76820000Y-61311988D01*
X76829940Y-61329205D01*
X76885795Y-61385060D01*
X76954204Y-61424556D01*
X77030504Y-61445000D01*
X77109496Y-61445000D01*
X77185796Y-61424556D01*
X77254205Y-61385060D01*
X77310060Y-61329205D01*
X77320000Y-61311988D01*
X77320000Y-62144999D01*
X77369972Y-62144999D01*
X77369986Y-62144998D01*
X77472697Y-62134505D01*
X77639119Y-62079358D01*
X77639124Y-62079356D01*
X77788345Y-61987315D01*
X77912315Y-61863345D01*
X78004356Y-61714124D01*
X78004358Y-61714119D01*
X78059505Y-61547697D01*
X78059506Y-61547690D01*
X78064378Y-61500003D01*
X85769909Y-61500003D01*
X85788212Y-61662455D01*
X85842210Y-61816774D01*
X85842211Y-61816775D01*
X85929192Y-61955204D01*
X86044796Y-62070808D01*
X86183225Y-62157789D01*
X86337539Y-62211786D01*
X86337542Y-62211786D01*
X86337544Y-62211787D01*
X86499996Y-62230091D01*
X86500000Y-62230091D01*
X86500004Y-62230091D01*
X86662455Y-62211787D01*
X86662456Y-62211786D01*
X86662461Y-62211786D01*
X86816775Y-62157789D01*
X86955204Y-62070808D01*
X87070808Y-61955204D01*
X87157789Y-61816775D01*
X87211786Y-61662461D01*
X87211787Y-61662455D01*
X87230091Y-61500003D01*
X87230091Y-61499996D01*
X87211787Y-61337544D01*
X87211786Y-61337542D01*
X87211786Y-61337539D01*
X87157789Y-61183225D01*
X87070808Y-61044796D01*
X86955204Y-60929192D01*
X86816774Y-60842210D01*
X86662455Y-60788212D01*
X86500004Y-60769909D01*
X86499996Y-60769909D01*
X86337544Y-60788212D01*
X86183225Y-60842210D01*
X86044795Y-60929192D01*
X85929192Y-61044795D01*
X85842210Y-61183225D01*
X85788212Y-61337544D01*
X85769909Y-61499996D01*
X85769909Y-61500003D01*
X78064378Y-61500003D01*
X78069999Y-61444986D01*
X78070000Y-61444973D01*
X78070000Y-60995000D01*
X77370000Y-60995000D01*
X77370000Y-60500000D01*
X78073666Y-60500000D01*
X135876000Y-60500000D01*
X135943039Y-60519685D01*
X135988794Y-60572489D01*
X136000000Y-60624000D01*
X136000000Y-111233102D01*
X135980315Y-111300141D01*
X135927511Y-111345896D01*
X135858353Y-111355840D01*
X135822198Y-111344822D01*
X135816777Y-111342211D01*
X135662455Y-111288212D01*
X135500004Y-111269909D01*
X135499996Y-111269909D01*
X135337544Y-111288212D01*
X135183225Y-111342210D01*
X135044795Y-111429192D01*
X134929192Y-111544795D01*
X134842210Y-111683225D01*
X134788212Y-111837544D01*
X134769909Y-111999996D01*
X134769909Y-112000003D01*
X134788212Y-112162455D01*
X134842210Y-112316774D01*
X134896370Y-112402969D01*
X134929192Y-112455204D01*
X135044796Y-112570808D01*
X135183225Y-112657789D01*
X135337539Y-112711786D01*
X135337542Y-112711786D01*
X135337544Y-112711787D01*
X135499996Y-112730091D01*
X135500000Y-112730091D01*
X135500004Y-112730091D01*
X135662455Y-112711787D01*
X135662456Y-112711786D01*
X135662461Y-112711786D01*
X135816775Y-112657789D01*
X135816778Y-112657786D01*
X135822190Y-112655181D01*
X135891131Y-112643824D01*
X135955267Y-112671542D01*
X135994237Y-112729534D01*
X136000000Y-112766897D01*
X136000000Y-124876000D01*
X135980315Y-124943039D01*
X135927511Y-124988794D01*
X135876000Y-125000000D01*
X119840904Y-125000000D01*
X119773865Y-124980315D01*
X119728110Y-124927511D01*
X119717684Y-124889882D01*
X119711787Y-124837545D01*
X119711786Y-124837543D01*
X119711786Y-124837539D01*
X119657789Y-124683225D01*
X119570808Y-124544796D01*
X119455204Y-124429192D01*
X119403134Y-124396474D01*
X119316774Y-124342210D01*
X119162455Y-124288212D01*
X119000004Y-124269909D01*
X118999996Y-124269909D01*
X118837544Y-124288212D01*
X118683225Y-124342210D01*
X118544795Y-124429192D01*
X118429192Y-124544795D01*
X118342210Y-124683225D01*
X118288212Y-124837545D01*
X118282316Y-124889882D01*
X118255250Y-124954297D01*
X118197656Y-124993852D01*
X118159096Y-125000000D01*
X107929307Y-125000000D01*
X107862268Y-124980315D01*
X107816513Y-124927511D01*
X107806086Y-124862122D01*
X107807069Y-124853394D01*
X107834133Y-124788979D01*
X107891726Y-124749421D01*
X107916404Y-124744052D01*
X107941523Y-124741222D01*
X107941527Y-124741220D01*
X107941530Y-124741220D01*
X108095835Y-124687226D01*
X108102897Y-124682789D01*
X108209526Y-124615788D01*
X108276763Y-124596788D01*
X108316449Y-124603740D01*
X108421666Y-124640557D01*
X108454265Y-124651964D01*
X108616719Y-124670268D01*
X108616723Y-124670268D01*
X108616727Y-124670268D01*
X108779178Y-124651964D01*
X108779179Y-124651963D01*
X108779184Y-124651963D01*
X108933498Y-124597966D01*
X109071927Y-124510985D01*
X109187531Y-124395381D01*
X109274512Y-124256952D01*
X109328086Y-124103844D01*
X109368807Y-124047071D01*
X109433759Y-124021323D01*
X109502321Y-124034779D01*
X109513455Y-124042015D01*
X109513593Y-124041796D01*
X109519488Y-124045500D01*
X109519489Y-124045501D01*
X109657918Y-124132482D01*
X109812232Y-124186479D01*
X109812235Y-124186479D01*
X109812237Y-124186480D01*
X109974689Y-124204784D01*
X109974693Y-124204784D01*
X109974697Y-124204784D01*
X110137148Y-124186480D01*
X110137149Y-124186479D01*
X110137154Y-124186479D01*
X110291468Y-124132482D01*
X110410465Y-124057711D01*
X110429894Y-124045503D01*
X110429894Y-124045502D01*
X110429897Y-124045501D01*
X110431481Y-124043916D01*
X110432759Y-124043218D01*
X110435341Y-124041160D01*
X110435701Y-124041611D01*
X110492800Y-124010429D01*
X110560120Y-124014550D01*
X110683464Y-124057711D01*
X110683468Y-124057711D01*
X110683470Y-124057712D01*
X110845921Y-124076016D01*
X110845925Y-124076016D01*
X110845929Y-124076016D01*
X111008380Y-124057712D01*
X111008381Y-124057711D01*
X111008386Y-124057711D01*
X111162700Y-124003714D01*
X111262074Y-123941273D01*
X123086176Y-123941273D01*
X123104479Y-124103725D01*
X123158477Y-124258044D01*
X123211363Y-124342211D01*
X123245459Y-124396474D01*
X123361063Y-124512078D01*
X123499492Y-124599059D01*
X123653806Y-124653056D01*
X123653809Y-124653056D01*
X123653811Y-124653057D01*
X123816263Y-124671361D01*
X123816267Y-124671361D01*
X123816271Y-124671361D01*
X123978722Y-124653057D01*
X123978723Y-124653056D01*
X123978728Y-124653056D01*
X124048875Y-124628509D01*
X124118651Y-124624947D01*
X124155800Y-124640557D01*
X124175692Y-124653056D01*
X124183225Y-124657789D01*
X124337539Y-124711786D01*
X124337542Y-124711786D01*
X124337544Y-124711787D01*
X124499996Y-124730091D01*
X124500000Y-124730091D01*
X124500004Y-124730091D01*
X124662455Y-124711787D01*
X124662456Y-124711786D01*
X124662461Y-124711786D01*
X124816775Y-124657789D01*
X124955204Y-124570808D01*
X125070808Y-124455204D01*
X125157789Y-124316775D01*
X125211786Y-124162461D01*
X125212038Y-124160223D01*
X125230091Y-124000003D01*
X125230091Y-123999996D01*
X125211787Y-123837544D01*
X125211786Y-123837542D01*
X125211786Y-123837539D01*
X125157789Y-123683225D01*
X125070808Y-123544796D01*
X124955204Y-123429192D01*
X124861736Y-123370462D01*
X124816774Y-123342210D01*
X124662455Y-123288212D01*
X124500004Y-123269909D01*
X124499996Y-123269909D01*
X124337540Y-123288213D01*
X124337539Y-123288213D01*
X124267389Y-123312759D01*
X124197610Y-123316320D01*
X124160464Y-123300711D01*
X124133042Y-123283480D01*
X123992687Y-123234368D01*
X123978728Y-123229484D01*
X123978727Y-123229483D01*
X123978722Y-123229482D01*
X123816271Y-123211179D01*
X123816263Y-123211179D01*
X123653811Y-123229482D01*
X123499492Y-123283480D01*
X123361062Y-123370462D01*
X123245459Y-123486065D01*
X123158477Y-123624495D01*
X123104479Y-123778814D01*
X123086176Y-123941266D01*
X123086176Y-123941273D01*
X111262074Y-123941273D01*
X111301129Y-123916733D01*
X111416733Y-123801129D01*
X111503714Y-123662700D01*
X111557711Y-123508386D01*
X111558656Y-123500000D01*
X111576016Y-123345928D01*
X111576016Y-123345921D01*
X111557712Y-123183469D01*
X111557711Y-123183467D01*
X111557711Y-123183464D01*
X111503714Y-123029150D01*
X111485400Y-123000003D01*
X115769909Y-123000003D01*
X115788212Y-123162455D01*
X115842210Y-123316774D01*
X115917525Y-123436636D01*
X115929192Y-123455204D01*
X116044796Y-123570808D01*
X116183225Y-123657789D01*
X116337539Y-123711786D01*
X116337542Y-123711786D01*
X116337544Y-123711787D01*
X116499996Y-123730091D01*
X116500000Y-123730091D01*
X116500004Y-123730091D01*
X116662455Y-123711787D01*
X116662456Y-123711786D01*
X116662461Y-123711786D01*
X116816775Y-123657789D01*
X116955204Y-123570808D01*
X117070808Y-123455204D01*
X117157789Y-123316775D01*
X117211786Y-123162461D01*
X117211787Y-123162455D01*
X117230091Y-123000003D01*
X117230091Y-122999996D01*
X117211787Y-122837544D01*
X117211786Y-122837542D01*
X117211786Y-122837539D01*
X117157789Y-122683225D01*
X117070808Y-122544796D01*
X117026015Y-122500003D01*
X119269909Y-122500003D01*
X119288212Y-122662455D01*
X119342210Y-122816774D01*
X119416425Y-122934886D01*
X119429192Y-122955204D01*
X119544796Y-123070808D01*
X119683225Y-123157789D01*
X119837539Y-123211786D01*
X119837542Y-123211786D01*
X119837544Y-123211787D01*
X119999996Y-123230091D01*
X120000000Y-123230091D01*
X120000004Y-123230091D01*
X120162455Y-123211787D01*
X120162456Y-123211786D01*
X120162461Y-123211786D01*
X120316775Y-123157789D01*
X120455204Y-123070808D01*
X120570808Y-122955204D01*
X120657789Y-122816775D01*
X120711786Y-122662461D01*
X120713188Y-122650017D01*
X120718115Y-122606287D01*
X131649500Y-122606287D01*
X131651012Y-122615834D01*
X131681795Y-122810192D01*
X131682754Y-122816243D01*
X131742459Y-122999996D01*
X131748444Y-123018414D01*
X131844951Y-123207820D01*
X131969890Y-123379786D01*
X132120213Y-123530109D01*
X132292179Y-123655048D01*
X132292181Y-123655049D01*
X132292184Y-123655051D01*
X132481588Y-123751557D01*
X132683757Y-123817246D01*
X132893713Y-123850500D01*
X132893714Y-123850500D01*
X133106286Y-123850500D01*
X133106287Y-123850500D01*
X133316243Y-123817246D01*
X133518412Y-123751557D01*
X133707816Y-123655051D01*
X133749873Y-123624495D01*
X133879786Y-123530109D01*
X133879788Y-123530106D01*
X133879792Y-123530104D01*
X134030104Y-123379792D01*
X134030106Y-123379788D01*
X134030109Y-123379786D01*
X134155048Y-123207820D01*
X134155047Y-123207820D01*
X134155051Y-123207816D01*
X134251557Y-123018412D01*
X134317246Y-122816243D01*
X134350500Y-122606287D01*
X134350500Y-122393713D01*
X134317246Y-122183757D01*
X134251557Y-121981588D01*
X134155051Y-121792184D01*
X134155049Y-121792181D01*
X134155048Y-121792179D01*
X134030109Y-121620213D01*
X133879786Y-121469890D01*
X133707820Y-121344951D01*
X133518414Y-121248444D01*
X133518413Y-121248443D01*
X133518412Y-121248443D01*
X133316243Y-121182754D01*
X133316241Y-121182753D01*
X133316240Y-121182753D01*
X133154957Y-121157208D01*
X133106287Y-121149500D01*
X132893713Y-121149500D01*
X132845042Y-121157208D01*
X132683760Y-121182753D01*
X132481585Y-121248444D01*
X132292179Y-121344951D01*
X132120213Y-121469890D01*
X131969890Y-121620213D01*
X131844951Y-121792179D01*
X131748444Y-121981585D01*
X131682753Y-122183760D01*
X131658397Y-122337539D01*
X131649500Y-122393713D01*
X131649500Y-122606287D01*
X120718115Y-122606287D01*
X120730091Y-122500003D01*
X120730091Y-122499996D01*
X120711787Y-122337544D01*
X120711786Y-122337542D01*
X120711786Y-122337539D01*
X120657789Y-122183225D01*
X120570808Y-122044796D01*
X120455204Y-121929192D01*
X120316774Y-121842210D01*
X120182939Y-121795379D01*
X120162461Y-121788214D01*
X120162460Y-121788213D01*
X120162455Y-121788212D01*
X120000004Y-121769909D01*
X119999996Y-121769909D01*
X119837544Y-121788212D01*
X119683225Y-121842210D01*
X119544795Y-121929192D01*
X119429192Y-122044795D01*
X119342210Y-122183225D01*
X119288212Y-122337544D01*
X119269909Y-122499996D01*
X119269909Y-122500003D01*
X117026015Y-122500003D01*
X116955204Y-122429192D01*
X116898740Y-122393713D01*
X116816774Y-122342210D01*
X116662455Y-122288212D01*
X116500004Y-122269909D01*
X116499996Y-122269909D01*
X116337544Y-122288212D01*
X116183225Y-122342210D01*
X116044795Y-122429192D01*
X115929192Y-122544795D01*
X115842210Y-122683225D01*
X115788212Y-122837544D01*
X115769909Y-122999996D01*
X115769909Y-123000003D01*
X111485400Y-123000003D01*
X111416733Y-122890721D01*
X111301129Y-122775117D01*
X111279063Y-122761252D01*
X111162699Y-122688135D01*
X111008380Y-122634137D01*
X110845929Y-122615834D01*
X110845921Y-122615834D01*
X110683469Y-122634137D01*
X110529150Y-122688135D01*
X110390718Y-122775118D01*
X110389125Y-122776712D01*
X110387842Y-122777412D01*
X110385273Y-122779461D01*
X110384914Y-122779010D01*
X110327799Y-122810192D01*
X110260494Y-122806065D01*
X110248803Y-122801974D01*
X110192028Y-122761252D01*
X110172717Y-122725887D01*
X110157789Y-122683225D01*
X110119048Y-122621570D01*
X110070808Y-122544796D01*
X109955204Y-122429192D01*
X109898740Y-122393713D01*
X109816774Y-122342210D01*
X109662455Y-122288212D01*
X109500004Y-122269909D01*
X109499996Y-122269909D01*
X109337544Y-122288212D01*
X109183225Y-122342210D01*
X109044795Y-122429192D01*
X108929187Y-122544800D01*
X108924924Y-122551586D01*
X108872587Y-122597874D01*
X108806051Y-122608828D01*
X108657923Y-122592139D01*
X108657915Y-122592139D01*
X108495463Y-122610442D01*
X108341147Y-122664439D01*
X108341142Y-122664441D01*
X108290069Y-122696532D01*
X108222832Y-122715531D01*
X108158128Y-122696531D01*
X108150766Y-122691905D01*
X107996445Y-122637906D01*
X107833994Y-122619603D01*
X107833986Y-122619603D01*
X107709529Y-122633625D01*
X107640707Y-122621570D01*
X107590653Y-122576378D01*
X107575074Y-122551586D01*
X107570808Y-122544796D01*
X107455204Y-122429192D01*
X107398740Y-122393713D01*
X107316774Y-122342210D01*
X107162455Y-122288212D01*
X107000004Y-122269909D01*
X106999996Y-122269909D01*
X106837544Y-122288212D01*
X106683225Y-122342210D01*
X106544795Y-122429192D01*
X106429192Y-122544795D01*
X106342212Y-122683222D01*
X106330827Y-122715758D01*
X106290104Y-122772533D01*
X106225151Y-122798279D01*
X106172831Y-122791842D01*
X106162460Y-122788213D01*
X106000004Y-122769909D01*
X105999996Y-122769909D01*
X105837544Y-122788212D01*
X105683225Y-122842210D01*
X105565972Y-122915886D01*
X105498735Y-122934886D01*
X105434028Y-122915886D01*
X105316774Y-122842210D01*
X105162455Y-122788212D01*
X105000004Y-122769909D01*
X104999996Y-122769909D01*
X104837544Y-122788212D01*
X104683225Y-122842210D01*
X104544795Y-122929192D01*
X104429192Y-123044795D01*
X104342210Y-123183225D01*
X104288212Y-123337544D01*
X104269909Y-123499996D01*
X104269909Y-123500003D01*
X104288212Y-123662455D01*
X104342210Y-123816774D01*
X104419750Y-123940177D01*
X104429192Y-123955204D01*
X104544796Y-124070808D01*
X104683225Y-124157789D01*
X104837539Y-124211786D01*
X104837542Y-124211786D01*
X104837544Y-124211787D01*
X104999996Y-124230091D01*
X105000000Y-124230091D01*
X105000004Y-124230091D01*
X105162455Y-124211787D01*
X105162456Y-124211786D01*
X105162461Y-124211786D01*
X105316775Y-124157789D01*
X105434028Y-124084113D01*
X105501264Y-124065113D01*
X105565971Y-124084113D01*
X105597377Y-124103847D01*
X105683225Y-124157790D01*
X105690179Y-124160223D01*
X105746956Y-124200943D01*
X105772705Y-124265895D01*
X105759250Y-124334457D01*
X105754221Y-124343237D01*
X105693128Y-124440465D01*
X105639130Y-124594784D01*
X105620827Y-124757236D01*
X105620827Y-124757243D01*
X105632643Y-124862117D01*
X105620588Y-124930939D01*
X105573239Y-124982318D01*
X105509423Y-125000000D01*
X85227186Y-125000000D01*
X85160147Y-124980315D01*
X85114392Y-124927511D01*
X85104448Y-124858353D01*
X85110144Y-124835047D01*
X85125789Y-124790334D01*
X85166510Y-124733558D01*
X85201875Y-124714245D01*
X85291775Y-124682789D01*
X85430204Y-124595808D01*
X85430204Y-124595807D01*
X85436100Y-124592103D01*
X85436896Y-124593371D01*
X85494122Y-124570002D01*
X85562819Y-124582750D01*
X85572730Y-124588360D01*
X85605239Y-124608787D01*
X85673954Y-124651964D01*
X85683225Y-124657789D01*
X85837539Y-124711786D01*
X85837542Y-124711786D01*
X85837544Y-124711787D01*
X85999996Y-124730091D01*
X86000000Y-124730091D01*
X86000004Y-124730091D01*
X86162455Y-124711787D01*
X86162456Y-124711786D01*
X86162461Y-124711786D01*
X86316775Y-124657789D01*
X86455204Y-124570808D01*
X86570808Y-124455204D01*
X86657789Y-124316775D01*
X86711786Y-124162461D01*
X86712038Y-124160223D01*
X86730091Y-124000003D01*
X86730091Y-123999996D01*
X86711787Y-123837544D01*
X86711786Y-123837542D01*
X86711786Y-123837539D01*
X86657789Y-123683225D01*
X86570808Y-123544796D01*
X86455204Y-123429192D01*
X86361736Y-123370462D01*
X86316774Y-123342210D01*
X86162455Y-123288212D01*
X86000004Y-123269909D01*
X85999996Y-123269909D01*
X85837544Y-123288212D01*
X85683225Y-123342210D01*
X85538900Y-123432897D01*
X85538105Y-123431633D01*
X85480848Y-123455000D01*
X85412154Y-123442235D01*
X85402264Y-123436636D01*
X85291776Y-123367211D01*
X85137455Y-123313212D01*
X84975004Y-123294909D01*
X84974996Y-123294909D01*
X84812544Y-123313212D01*
X84658225Y-123367210D01*
X84519795Y-123454192D01*
X84404192Y-123569795D01*
X84317209Y-123708227D01*
X84299208Y-123759670D01*
X84258485Y-123816445D01*
X84223124Y-123835753D01*
X84133223Y-123867211D01*
X84133222Y-123867212D01*
X83994795Y-123954192D01*
X83879192Y-124069795D01*
X83792210Y-124208225D01*
X83738212Y-124362544D01*
X83719909Y-124524996D01*
X83719909Y-124525003D01*
X83738212Y-124687455D01*
X83789856Y-124835046D01*
X83793417Y-124904825D01*
X83758688Y-124965452D01*
X83696694Y-124997679D01*
X83672814Y-125000000D01*
X77266898Y-125000000D01*
X77199859Y-124980315D01*
X77154104Y-124927511D01*
X77144160Y-124858353D01*
X77155178Y-124822198D01*
X77157788Y-124816777D01*
X77178621Y-124757240D01*
X77211786Y-124662461D01*
X77211787Y-124662455D01*
X77230091Y-124500003D01*
X77230091Y-124499996D01*
X77211787Y-124337544D01*
X77211786Y-124337542D01*
X77211786Y-124337539D01*
X77157789Y-124183225D01*
X77070808Y-124044796D01*
X76955204Y-123929192D01*
X76856564Y-123867212D01*
X76816774Y-123842210D01*
X76662455Y-123788212D01*
X76500004Y-123769909D01*
X76499996Y-123769909D01*
X76337544Y-123788212D01*
X76183225Y-123842210D01*
X76044795Y-123929192D01*
X75929192Y-124044795D01*
X75842210Y-124183225D01*
X75788212Y-124337544D01*
X75769909Y-124499996D01*
X75769909Y-124500003D01*
X75788212Y-124662455D01*
X75842211Y-124816777D01*
X75844822Y-124822198D01*
X75856174Y-124891140D01*
X75828452Y-124955274D01*
X75770457Y-124994240D01*
X75733102Y-125000000D01*
X60124000Y-125000000D01*
X60056961Y-124980315D01*
X60011206Y-124927511D01*
X60000000Y-124876000D01*
X60000000Y-122606287D01*
X61649500Y-122606287D01*
X61651012Y-122615834D01*
X61681795Y-122810192D01*
X61682754Y-122816243D01*
X61742459Y-122999996D01*
X61748444Y-123018414D01*
X61844951Y-123207820D01*
X61969890Y-123379786D01*
X62120213Y-123530109D01*
X62292179Y-123655048D01*
X62292181Y-123655049D01*
X62292184Y-123655051D01*
X62481588Y-123751557D01*
X62683757Y-123817246D01*
X62893713Y-123850500D01*
X62893714Y-123850500D01*
X63106286Y-123850500D01*
X63106287Y-123850500D01*
X63316243Y-123817246D01*
X63518412Y-123751557D01*
X63707816Y-123655051D01*
X63749873Y-123624495D01*
X63879786Y-123530109D01*
X63879788Y-123530106D01*
X63879792Y-123530104D01*
X64030104Y-123379792D01*
X64030106Y-123379788D01*
X64030109Y-123379786D01*
X64155048Y-123207820D01*
X64155047Y-123207820D01*
X64155051Y-123207816D01*
X64251557Y-123018412D01*
X64317246Y-122816243D01*
X64350500Y-122606287D01*
X64350500Y-122393713D01*
X64317246Y-122183757D01*
X64251557Y-121981588D01*
X64155051Y-121792184D01*
X64155049Y-121792181D01*
X64155048Y-121792179D01*
X64030109Y-121620213D01*
X63909899Y-121500003D01*
X122269909Y-121500003D01*
X122288212Y-121662455D01*
X122342210Y-121816774D01*
X122429192Y-121955204D01*
X122544796Y-122070808D01*
X122683225Y-122157789D01*
X122837539Y-122211786D01*
X122837542Y-122211786D01*
X122837544Y-122211787D01*
X122999996Y-122230091D01*
X123000000Y-122230091D01*
X123000004Y-122230091D01*
X123162455Y-122211787D01*
X123162456Y-122211786D01*
X123162461Y-122211786D01*
X123316775Y-122157789D01*
X123455204Y-122070808D01*
X123570808Y-121955204D01*
X123657789Y-121816775D01*
X123711786Y-121662461D01*
X123711787Y-121662455D01*
X123730091Y-121500003D01*
X123730091Y-121499996D01*
X123711787Y-121337544D01*
X123711786Y-121337542D01*
X123711786Y-121337539D01*
X123657789Y-121183225D01*
X123570808Y-121044796D01*
X123455204Y-120929192D01*
X123316774Y-120842210D01*
X123162455Y-120788212D01*
X123000004Y-120769909D01*
X122999996Y-120769909D01*
X122837544Y-120788212D01*
X122683225Y-120842210D01*
X122544795Y-120929192D01*
X122429192Y-121044795D01*
X122342210Y-121183225D01*
X122288212Y-121337544D01*
X122269909Y-121499996D01*
X122269909Y-121500003D01*
X63909899Y-121500003D01*
X63879786Y-121469890D01*
X63707820Y-121344951D01*
X63518414Y-121248444D01*
X63518413Y-121248443D01*
X63518412Y-121248443D01*
X63316243Y-121182754D01*
X63316241Y-121182753D01*
X63316240Y-121182753D01*
X63154957Y-121157208D01*
X63106287Y-121149500D01*
X62893713Y-121149500D01*
X62845042Y-121157208D01*
X62683760Y-121182753D01*
X62481585Y-121248444D01*
X62292179Y-121344951D01*
X62120213Y-121469890D01*
X61969890Y-121620213D01*
X61844951Y-121792179D01*
X61748444Y-121981585D01*
X61682753Y-122183760D01*
X61658397Y-122337539D01*
X61649500Y-122393713D01*
X61649500Y-122606287D01*
X60000000Y-122606287D01*
X60000000Y-118000003D01*
X71969903Y-118000003D01*
X71988206Y-118162455D01*
X72042204Y-118316774D01*
X72042205Y-118316775D01*
X72129186Y-118455204D01*
X72244790Y-118570808D01*
X72383219Y-118657789D01*
X72537533Y-118711786D01*
X72537536Y-118711786D01*
X72537538Y-118711787D01*
X72699990Y-118730091D01*
X72699994Y-118730091D01*
X72699998Y-118730091D01*
X72862451Y-118711787D01*
X72862453Y-118711786D01*
X72862455Y-118711786D01*
X72984041Y-118669240D01*
X73053819Y-118665679D01*
X73065950Y-118669241D01*
X73187539Y-118711787D01*
X73349993Y-118730091D01*
X73349997Y-118730091D01*
X73350001Y-118730091D01*
X73512454Y-118711787D01*
X73512456Y-118711786D01*
X73512458Y-118711786D01*
X73634044Y-118669240D01*
X73703822Y-118665679D01*
X73715953Y-118669241D01*
X73837542Y-118711787D01*
X73999996Y-118730091D01*
X74000000Y-118730091D01*
X74000004Y-118730091D01*
X74162455Y-118711787D01*
X74162456Y-118711786D01*
X74162461Y-118711786D01*
X74316775Y-118657789D01*
X74455204Y-118570808D01*
X74570808Y-118455204D01*
X74657789Y-118316775D01*
X74711786Y-118162461D01*
X74711787Y-118162455D01*
X74730091Y-118000003D01*
X107269909Y-118000003D01*
X107288212Y-118162455D01*
X107342210Y-118316774D01*
X107342211Y-118316775D01*
X107429192Y-118455204D01*
X107544796Y-118570808D01*
X107683225Y-118657789D01*
X107837539Y-118711786D01*
X107837542Y-118711786D01*
X107837544Y-118711787D01*
X107999996Y-118730091D01*
X108000000Y-118730091D01*
X108000004Y-118730091D01*
X108162455Y-118711787D01*
X108162456Y-118711786D01*
X108162461Y-118711786D01*
X108316775Y-118657789D01*
X108455204Y-118570808D01*
X108570808Y-118455204D01*
X108657789Y-118316775D01*
X108711786Y-118162461D01*
X108711787Y-118162455D01*
X108730091Y-118000003D01*
X108730091Y-117999996D01*
X108711787Y-117837544D01*
X108711786Y-117837542D01*
X108711786Y-117837539D01*
X108657789Y-117683225D01*
X108570808Y-117544796D01*
X108564098Y-117538086D01*
X111731826Y-117538086D01*
X111750129Y-117700538D01*
X111804128Y-117854859D01*
X111884879Y-117983372D01*
X111903880Y-118050609D01*
X111884880Y-118115317D01*
X111842210Y-118183225D01*
X111788212Y-118337544D01*
X111769909Y-118499996D01*
X111769909Y-118500003D01*
X111788212Y-118662455D01*
X111842210Y-118816774D01*
X111842211Y-118816775D01*
X111929192Y-118955204D01*
X112044796Y-119070808D01*
X112183225Y-119157789D01*
X112337539Y-119211786D01*
X112337542Y-119211786D01*
X112337544Y-119211787D01*
X112499996Y-119230091D01*
X112500000Y-119230091D01*
X112500004Y-119230091D01*
X112662455Y-119211787D01*
X112662456Y-119211786D01*
X112662461Y-119211786D01*
X112816775Y-119157789D01*
X112955204Y-119070808D01*
X113070808Y-118955204D01*
X113157789Y-118816775D01*
X113211786Y-118662461D01*
X113211787Y-118662455D01*
X113230091Y-118500003D01*
X113230091Y-118499996D01*
X113211787Y-118337544D01*
X113211786Y-118337542D01*
X113211786Y-118337539D01*
X113157789Y-118183225D01*
X113141806Y-118157789D01*
X113077037Y-118054710D01*
X113058036Y-117987473D01*
X113077035Y-117922766D01*
X113119706Y-117854858D01*
X113173703Y-117700544D01*
X113173704Y-117700538D01*
X113192008Y-117538086D01*
X113192008Y-117538079D01*
X113187718Y-117500003D01*
X127769909Y-117500003D01*
X127788212Y-117662455D01*
X127842210Y-117816774D01*
X127842211Y-117816775D01*
X127929192Y-117955204D01*
X128044796Y-118070808D01*
X128183225Y-118157789D01*
X128337539Y-118211786D01*
X128337542Y-118211786D01*
X128337544Y-118211787D01*
X128499996Y-118230091D01*
X128500000Y-118230091D01*
X128500004Y-118230091D01*
X128662455Y-118211787D01*
X128662456Y-118211786D01*
X128662461Y-118211786D01*
X128816775Y-118157789D01*
X128955204Y-118070808D01*
X129070808Y-117955204D01*
X129157789Y-117816775D01*
X129211786Y-117662461D01*
X129230091Y-117500000D01*
X129216077Y-117375627D01*
X129211787Y-117337544D01*
X129211786Y-117337542D01*
X129211786Y-117337539D01*
X129157789Y-117183225D01*
X129070808Y-117044796D01*
X128955204Y-116929192D01*
X128877382Y-116880293D01*
X128816774Y-116842210D01*
X128662455Y-116788212D01*
X128500004Y-116769909D01*
X128499996Y-116769909D01*
X128337544Y-116788212D01*
X128183225Y-116842210D01*
X128044795Y-116929192D01*
X127929192Y-117044795D01*
X127842210Y-117183225D01*
X127788212Y-117337544D01*
X127769909Y-117499996D01*
X127769909Y-117500003D01*
X113187718Y-117500003D01*
X113173704Y-117375627D01*
X113173703Y-117375625D01*
X113173703Y-117375622D01*
X113119706Y-117221308D01*
X113032725Y-117082879D01*
X112917121Y-116967275D01*
X112897910Y-116955204D01*
X112778691Y-116880293D01*
X112624372Y-116826295D01*
X112461921Y-116807992D01*
X112461913Y-116807992D01*
X112299461Y-116826295D01*
X112145142Y-116880293D01*
X112006712Y-116967275D01*
X111891109Y-117082878D01*
X111804127Y-117221308D01*
X111750129Y-117375627D01*
X111731826Y-117538079D01*
X111731826Y-117538086D01*
X108564098Y-117538086D01*
X108455204Y-117429192D01*
X108369948Y-117375622D01*
X108316774Y-117342210D01*
X108162455Y-117288212D01*
X108000004Y-117269909D01*
X107999996Y-117269909D01*
X107837544Y-117288212D01*
X107683225Y-117342210D01*
X107544795Y-117429192D01*
X107429192Y-117544795D01*
X107342210Y-117683225D01*
X107288212Y-117837544D01*
X107269909Y-117999996D01*
X107269909Y-118000003D01*
X74730091Y-118000003D01*
X74730091Y-117999996D01*
X74711787Y-117837544D01*
X74711786Y-117837542D01*
X74711786Y-117837539D01*
X74657789Y-117683225D01*
X74570808Y-117544796D01*
X74455204Y-117429192D01*
X74369948Y-117375622D01*
X74316774Y-117342210D01*
X74162455Y-117288212D01*
X74000004Y-117269909D01*
X73999996Y-117269909D01*
X73837544Y-117288212D01*
X73715951Y-117330759D01*
X73646172Y-117334320D01*
X73634055Y-117330762D01*
X73512458Y-117288214D01*
X73512454Y-117288213D01*
X73512450Y-117288212D01*
X73350001Y-117269909D01*
X73349993Y-117269909D01*
X73187541Y-117288212D01*
X73065948Y-117330759D01*
X72996169Y-117334320D01*
X72984052Y-117330762D01*
X72862455Y-117288214D01*
X72862451Y-117288213D01*
X72862447Y-117288212D01*
X72699998Y-117269909D01*
X72699990Y-117269909D01*
X72537538Y-117288212D01*
X72383219Y-117342210D01*
X72244789Y-117429192D01*
X72129186Y-117544795D01*
X72042204Y-117683225D01*
X71988206Y-117837544D01*
X71969903Y-117999996D01*
X71969903Y-118000003D01*
X60000000Y-118000003D01*
X60000000Y-116500003D01*
X116769909Y-116500003D01*
X116788212Y-116662455D01*
X116842210Y-116816774D01*
X116929192Y-116955204D01*
X117044796Y-117070808D01*
X117183225Y-117157789D01*
X117337539Y-117211786D01*
X117337542Y-117211786D01*
X117337544Y-117211787D01*
X117499996Y-117230091D01*
X117500000Y-117230091D01*
X117500004Y-117230091D01*
X117662455Y-117211787D01*
X117662456Y-117211786D01*
X117662461Y-117211786D01*
X117816775Y-117157789D01*
X117955204Y-117070808D01*
X118070808Y-116955204D01*
X118157789Y-116816775D01*
X118211786Y-116662461D01*
X118230091Y-116500000D01*
X118225326Y-116457713D01*
X118211787Y-116337544D01*
X118211786Y-116337542D01*
X118211786Y-116337539D01*
X118157789Y-116183225D01*
X118070808Y-116044796D01*
X117955204Y-115929192D01*
X117887912Y-115886909D01*
X119809778Y-115886909D01*
X119828081Y-116049361D01*
X119882079Y-116203680D01*
X119966189Y-116337539D01*
X119969061Y-116342110D01*
X120084665Y-116457714D01*
X120223094Y-116544695D01*
X120377408Y-116598692D01*
X120377411Y-116598692D01*
X120377413Y-116598693D01*
X120539865Y-116616997D01*
X120539869Y-116616997D01*
X120539873Y-116616997D01*
X120702324Y-116598693D01*
X120702325Y-116598692D01*
X120702330Y-116598692D01*
X120856644Y-116544695D01*
X120995073Y-116457714D01*
X121110677Y-116342110D01*
X121197658Y-116203681D01*
X121251655Y-116049367D01*
X121269960Y-115886906D01*
X121264924Y-115842211D01*
X121251656Y-115724450D01*
X121251655Y-115724448D01*
X121251655Y-115724445D01*
X121197658Y-115570131D01*
X121110677Y-115431702D01*
X120995073Y-115316098D01*
X120948525Y-115286850D01*
X120856643Y-115229116D01*
X120702324Y-115175118D01*
X120539873Y-115156815D01*
X120539865Y-115156815D01*
X120377413Y-115175118D01*
X120223094Y-115229116D01*
X120084664Y-115316098D01*
X119969061Y-115431701D01*
X119882079Y-115570131D01*
X119828081Y-115724450D01*
X119809778Y-115886902D01*
X119809778Y-115886909D01*
X117887912Y-115886909D01*
X117816774Y-115842210D01*
X117662455Y-115788212D01*
X117500004Y-115769909D01*
X117499996Y-115769909D01*
X117337544Y-115788212D01*
X117183225Y-115842210D01*
X117044795Y-115929192D01*
X116929192Y-116044795D01*
X116842210Y-116183225D01*
X116788212Y-116337544D01*
X116769909Y-116499996D01*
X116769909Y-116500003D01*
X60000000Y-116500003D01*
X60000000Y-115500003D01*
X107269909Y-115500003D01*
X107288212Y-115662455D01*
X107342210Y-115816774D01*
X107429192Y-115955204D01*
X107544796Y-116070808D01*
X107683225Y-116157789D01*
X107837539Y-116211786D01*
X107837542Y-116211786D01*
X107837544Y-116211787D01*
X107999996Y-116230091D01*
X108000000Y-116230091D01*
X108000004Y-116230091D01*
X108162455Y-116211787D01*
X108162456Y-116211786D01*
X108162461Y-116211786D01*
X108316775Y-116157789D01*
X108455204Y-116070808D01*
X108570808Y-115955204D01*
X108657789Y-115816775D01*
X108711786Y-115662461D01*
X108711787Y-115662455D01*
X108730091Y-115500003D01*
X108730091Y-115499996D01*
X108711787Y-115337544D01*
X108711786Y-115337542D01*
X108711786Y-115337539D01*
X108657789Y-115183225D01*
X108570808Y-115044796D01*
X108526015Y-115000003D01*
X111769909Y-115000003D01*
X111788212Y-115162455D01*
X111842210Y-115316774D01*
X111842211Y-115316775D01*
X111929192Y-115455204D01*
X112044796Y-115570808D01*
X112183225Y-115657789D01*
X112337539Y-115711786D01*
X112337542Y-115711786D01*
X112337544Y-115711787D01*
X112499996Y-115730091D01*
X112500000Y-115730091D01*
X112500004Y-115730091D01*
X112662455Y-115711787D01*
X112662456Y-115711786D01*
X112662461Y-115711786D01*
X112816775Y-115657789D01*
X112955204Y-115570808D01*
X113070808Y-115455204D01*
X113157789Y-115316775D01*
X113211786Y-115162461D01*
X113211787Y-115162455D01*
X113230091Y-115000003D01*
X113230091Y-114999996D01*
X113211787Y-114837544D01*
X113211786Y-114837542D01*
X113211786Y-114837539D01*
X113209725Y-114831649D01*
X126938263Y-114831649D01*
X126956566Y-114994101D01*
X127010564Y-115148420D01*
X127061269Y-115229116D01*
X127097546Y-115286850D01*
X127213150Y-115402454D01*
X127351579Y-115489435D01*
X127505893Y-115543432D01*
X127505896Y-115543432D01*
X127505898Y-115543433D01*
X127668350Y-115561737D01*
X127668354Y-115561737D01*
X127668358Y-115561737D01*
X127830809Y-115543433D01*
X127830810Y-115543432D01*
X127830815Y-115543432D01*
X127985129Y-115489435D01*
X128123558Y-115402454D01*
X128239162Y-115286850D01*
X128326143Y-115148421D01*
X128380140Y-114994107D01*
X128380141Y-114994101D01*
X128398445Y-114831649D01*
X128398445Y-114831642D01*
X128380141Y-114669190D01*
X128380140Y-114669188D01*
X128380140Y-114669185D01*
X128326143Y-114514871D01*
X128239162Y-114376442D01*
X128123558Y-114260838D01*
X127985128Y-114173856D01*
X127830809Y-114119858D01*
X127668358Y-114101555D01*
X127668350Y-114101555D01*
X127505898Y-114119858D01*
X127351579Y-114173856D01*
X127213149Y-114260838D01*
X127097546Y-114376441D01*
X127010564Y-114514871D01*
X126956566Y-114669190D01*
X126938263Y-114831642D01*
X126938263Y-114831649D01*
X113209725Y-114831649D01*
X113157789Y-114683225D01*
X113070808Y-114544796D01*
X112955204Y-114429192D01*
X112871252Y-114376441D01*
X112816774Y-114342210D01*
X112662455Y-114288212D01*
X112500004Y-114269909D01*
X112499996Y-114269909D01*
X112337544Y-114288212D01*
X112183225Y-114342210D01*
X112044795Y-114429192D01*
X111929192Y-114544795D01*
X111842210Y-114683225D01*
X111788212Y-114837544D01*
X111769909Y-114999996D01*
X111769909Y-115000003D01*
X108526015Y-115000003D01*
X108455204Y-114929192D01*
X108316774Y-114842210D01*
X108162455Y-114788212D01*
X108000004Y-114769909D01*
X107999996Y-114769909D01*
X107837544Y-114788212D01*
X107683225Y-114842210D01*
X107544795Y-114929192D01*
X107429192Y-115044795D01*
X107342210Y-115183225D01*
X107288212Y-115337544D01*
X107269909Y-115499996D01*
X107269909Y-115500003D01*
X60000000Y-115500003D01*
X60000000Y-114500003D01*
X95269909Y-114500003D01*
X95288212Y-114662455D01*
X95342210Y-114816774D01*
X95429192Y-114955204D01*
X95544796Y-115070808D01*
X95683225Y-115157789D01*
X95837539Y-115211786D01*
X95837542Y-115211786D01*
X95837544Y-115211787D01*
X95999996Y-115230091D01*
X96000000Y-115230091D01*
X96000004Y-115230091D01*
X96162455Y-115211787D01*
X96162456Y-115211786D01*
X96162461Y-115211786D01*
X96316775Y-115157789D01*
X96455204Y-115070808D01*
X96570808Y-114955204D01*
X96657789Y-114816775D01*
X96711786Y-114662461D01*
X96711787Y-114662455D01*
X96730091Y-114500003D01*
X96730091Y-114499996D01*
X96711787Y-114337544D01*
X96711786Y-114337542D01*
X96711786Y-114337539D01*
X96657789Y-114183225D01*
X96570808Y-114044796D01*
X96526015Y-114000003D01*
X106269909Y-114000003D01*
X106288212Y-114162455D01*
X106342210Y-114316774D01*
X106429192Y-114455204D01*
X106544796Y-114570808D01*
X106683225Y-114657789D01*
X106837539Y-114711786D01*
X106837542Y-114711786D01*
X106837544Y-114711787D01*
X106999996Y-114730091D01*
X107000000Y-114730091D01*
X107000004Y-114730091D01*
X107162455Y-114711787D01*
X107162456Y-114711786D01*
X107162461Y-114711786D01*
X107316775Y-114657789D01*
X107455204Y-114570808D01*
X107570808Y-114455204D01*
X107657789Y-114316775D01*
X107711786Y-114162461D01*
X107716586Y-114119860D01*
X107730091Y-114000003D01*
X107730091Y-113999996D01*
X107711787Y-113837544D01*
X107711786Y-113837542D01*
X107711786Y-113837539D01*
X107657789Y-113683225D01*
X107570808Y-113544796D01*
X107455204Y-113429192D01*
X107316774Y-113342210D01*
X107162455Y-113288212D01*
X107000004Y-113269909D01*
X106999996Y-113269909D01*
X106837544Y-113288212D01*
X106683225Y-113342210D01*
X106544795Y-113429192D01*
X106429192Y-113544795D01*
X106342210Y-113683225D01*
X106288212Y-113837544D01*
X106269909Y-113999996D01*
X106269909Y-114000003D01*
X96526015Y-114000003D01*
X96455204Y-113929192D01*
X96316774Y-113842210D01*
X96162455Y-113788212D01*
X96000004Y-113769909D01*
X95999996Y-113769909D01*
X95837544Y-113788212D01*
X95683225Y-113842210D01*
X95544795Y-113929192D01*
X95429192Y-114044795D01*
X95342210Y-114183225D01*
X95288212Y-114337544D01*
X95269909Y-114499996D01*
X95269909Y-114500003D01*
X60000000Y-114500003D01*
X60000000Y-108500003D01*
X64269909Y-108500003D01*
X64288212Y-108662455D01*
X64342210Y-108816774D01*
X64429192Y-108955204D01*
X64544796Y-109070808D01*
X64683225Y-109157789D01*
X64837539Y-109211786D01*
X64837542Y-109211786D01*
X64837544Y-109211787D01*
X64999996Y-109230091D01*
X65000000Y-109230091D01*
X65000004Y-109230091D01*
X65162455Y-109211787D01*
X65162456Y-109211786D01*
X65162461Y-109211786D01*
X65316775Y-109157789D01*
X65455204Y-109070808D01*
X65526009Y-109000003D01*
X71269909Y-109000003D01*
X71288212Y-109162455D01*
X71342210Y-109316774D01*
X71413862Y-109430807D01*
X71429192Y-109455204D01*
X71544796Y-109570808D01*
X71683225Y-109657789D01*
X71837539Y-109711786D01*
X71837542Y-109711786D01*
X71837544Y-109711787D01*
X71929404Y-109722136D01*
X71963329Y-109725959D01*
X72027743Y-109753025D01*
X72067298Y-109810620D01*
X72069436Y-109880457D01*
X72037128Y-109936860D01*
X71929191Y-110044797D01*
X71842210Y-110183225D01*
X71788212Y-110337544D01*
X71769909Y-110499996D01*
X71769909Y-110500003D01*
X71788212Y-110662455D01*
X71842210Y-110816774D01*
X71929192Y-110955204D01*
X72044796Y-111070808D01*
X72183225Y-111157789D01*
X72337539Y-111211786D01*
X72337542Y-111211786D01*
X72337544Y-111211787D01*
X72499996Y-111230091D01*
X72500000Y-111230091D01*
X72500004Y-111230091D01*
X72662455Y-111211787D01*
X72662456Y-111211786D01*
X72662461Y-111211786D01*
X72816775Y-111157789D01*
X72955204Y-111070808D01*
X73026009Y-111000003D01*
X76769909Y-111000003D01*
X76788212Y-111162455D01*
X76842210Y-111316774D01*
X76929192Y-111455204D01*
X77044796Y-111570808D01*
X77183225Y-111657789D01*
X77337539Y-111711786D01*
X77337542Y-111711786D01*
X77337544Y-111711787D01*
X77499996Y-111730091D01*
X77500000Y-111730091D01*
X77500004Y-111730091D01*
X77662455Y-111711787D01*
X77662456Y-111711786D01*
X77662461Y-111711786D01*
X77816775Y-111657789D01*
X77955204Y-111570808D01*
X78070808Y-111455204D01*
X78157789Y-111316775D01*
X78211786Y-111162461D01*
X78211787Y-111162455D01*
X78230091Y-111000003D01*
X78230091Y-110999996D01*
X78211787Y-110837544D01*
X78211786Y-110837542D01*
X78211786Y-110837539D01*
X78157789Y-110683225D01*
X78070808Y-110544796D01*
X77955204Y-110429192D01*
X77875041Y-110378822D01*
X77816774Y-110342210D01*
X77662455Y-110288212D01*
X77500004Y-110269909D01*
X77499996Y-110269909D01*
X77337544Y-110288212D01*
X77183225Y-110342210D01*
X77044795Y-110429192D01*
X76929192Y-110544795D01*
X76842210Y-110683225D01*
X76788212Y-110837544D01*
X76769909Y-110999996D01*
X76769909Y-111000003D01*
X73026009Y-111000003D01*
X73070808Y-110955204D01*
X73157789Y-110816775D01*
X73211786Y-110662461D01*
X73211787Y-110662455D01*
X73230091Y-110500003D01*
X73230091Y-110499996D01*
X73211787Y-110337544D01*
X73211786Y-110337542D01*
X73211786Y-110337539D01*
X73157789Y-110183225D01*
X73070808Y-110044796D01*
X72955204Y-109929192D01*
X72877643Y-109880457D01*
X72816774Y-109842210D01*
X72662455Y-109788212D01*
X72536669Y-109774040D01*
X72472255Y-109746974D01*
X72432700Y-109689379D01*
X72430563Y-109619542D01*
X72462869Y-109563142D01*
X72570808Y-109455204D01*
X72657789Y-109316775D01*
X72711786Y-109162461D01*
X72711787Y-109162455D01*
X72730091Y-109000003D01*
X73269909Y-109000003D01*
X73288212Y-109162455D01*
X73342210Y-109316774D01*
X73413862Y-109430807D01*
X73429192Y-109455204D01*
X73544796Y-109570808D01*
X73683225Y-109657789D01*
X73837539Y-109711786D01*
X73837542Y-109711786D01*
X73837544Y-109711787D01*
X73999996Y-109730091D01*
X74000000Y-109730091D01*
X74000004Y-109730091D01*
X74162455Y-109711787D01*
X74162456Y-109711786D01*
X74162461Y-109711786D01*
X74316775Y-109657789D01*
X74359015Y-109631247D01*
X74426250Y-109612247D01*
X74493085Y-109632614D01*
X74538300Y-109685881D01*
X74542028Y-109695284D01*
X74575792Y-109791775D01*
X74662773Y-109930204D01*
X74778377Y-110045808D01*
X74916806Y-110132789D01*
X75071120Y-110186786D01*
X75071123Y-110186786D01*
X75071125Y-110186787D01*
X75233577Y-110205091D01*
X75233581Y-110205091D01*
X75233585Y-110205091D01*
X75396036Y-110186787D01*
X75396037Y-110186786D01*
X75396042Y-110186786D01*
X75550356Y-110132789D01*
X75688785Y-110045808D01*
X75804389Y-109930204D01*
X75891370Y-109791775D01*
X75945367Y-109637461D01*
X75948208Y-109612247D01*
X75963672Y-109475003D01*
X75963672Y-109474996D01*
X75945368Y-109312544D01*
X75945367Y-109312542D01*
X75945367Y-109312539D01*
X75891370Y-109158225D01*
X75804389Y-109019796D01*
X75688785Y-108904192D01*
X75618459Y-108860003D01*
X76129909Y-108860003D01*
X76148212Y-109022455D01*
X76202210Y-109176774D01*
X76235712Y-109230091D01*
X76289192Y-109315204D01*
X76404796Y-109430808D01*
X76543225Y-109517789D01*
X76697539Y-109571786D01*
X76697542Y-109571786D01*
X76697544Y-109571787D01*
X76859996Y-109590091D01*
X76860000Y-109590091D01*
X76860004Y-109590091D01*
X77022455Y-109571787D01*
X77022456Y-109571786D01*
X77022461Y-109571786D01*
X77176775Y-109517789D01*
X77315204Y-109430808D01*
X77430808Y-109315204D01*
X77517789Y-109176775D01*
X77571786Y-109022461D01*
X77571787Y-109022455D01*
X77574317Y-109000003D01*
X78462066Y-109000003D01*
X78480369Y-109162455D01*
X78534367Y-109316774D01*
X78606019Y-109430807D01*
X78621349Y-109455204D01*
X78736953Y-109570808D01*
X78875382Y-109657789D01*
X79029696Y-109711786D01*
X79029699Y-109711786D01*
X79029701Y-109711787D01*
X79192153Y-109730091D01*
X79192157Y-109730091D01*
X79192161Y-109730091D01*
X79354612Y-109711787D01*
X79354613Y-109711786D01*
X79354618Y-109711786D01*
X79508932Y-109657789D01*
X79647361Y-109570808D01*
X79743166Y-109475003D01*
X89769909Y-109475003D01*
X89788212Y-109637455D01*
X89842210Y-109791774D01*
X89873902Y-109842211D01*
X89929192Y-109930204D01*
X90044796Y-110045808D01*
X90183225Y-110132789D01*
X90337539Y-110186786D01*
X90337542Y-110186786D01*
X90337544Y-110186787D01*
X90499996Y-110205091D01*
X90500000Y-110205091D01*
X90500004Y-110205091D01*
X90662455Y-110186787D01*
X90662456Y-110186786D01*
X90662461Y-110186786D01*
X90816775Y-110132789D01*
X90955204Y-110045808D01*
X91060610Y-109940401D01*
X91121929Y-109906919D01*
X91191621Y-109911903D01*
X91247555Y-109953774D01*
X91271508Y-110014201D01*
X91288212Y-110162455D01*
X91339505Y-110309043D01*
X91343066Y-110378822D01*
X91339505Y-110390951D01*
X91288212Y-110537538D01*
X91269909Y-110699990D01*
X91269909Y-110699997D01*
X91288212Y-110862447D01*
X91288213Y-110862451D01*
X91288214Y-110862455D01*
X91330759Y-110984040D01*
X91334320Y-111053818D01*
X91330759Y-111065948D01*
X91288211Y-111187544D01*
X91286662Y-111194332D01*
X91285291Y-111194019D01*
X91261217Y-111251306D01*
X91211969Y-111285875D01*
X91212491Y-111286958D01*
X91206220Y-111289977D01*
X91067793Y-111376957D01*
X90952190Y-111492560D01*
X90865208Y-111630990D01*
X90811210Y-111785309D01*
X90792907Y-111947761D01*
X90792907Y-111947768D01*
X90811210Y-112110220D01*
X90865208Y-112264539D01*
X90926786Y-112362539D01*
X90952190Y-112402969D01*
X91067794Y-112518573D01*
X91206223Y-112605554D01*
X91360537Y-112659551D01*
X91360540Y-112659551D01*
X91360542Y-112659552D01*
X91522994Y-112677856D01*
X91522998Y-112677856D01*
X91523001Y-112677856D01*
X91676655Y-112660543D01*
X91745477Y-112672597D01*
X91796857Y-112719946D01*
X91807580Y-112742806D01*
X91842211Y-112841775D01*
X91929192Y-112980204D01*
X92044796Y-113095808D01*
X92183225Y-113182789D01*
X92337539Y-113236786D01*
X92337542Y-113236786D01*
X92337544Y-113236787D01*
X92499996Y-113255091D01*
X92500000Y-113255091D01*
X92500004Y-113255091D01*
X92662455Y-113236787D01*
X92662456Y-113236786D01*
X92662461Y-113236786D01*
X92816775Y-113182789D01*
X92934028Y-113109113D01*
X93001264Y-113090113D01*
X93065971Y-113109113D01*
X93183225Y-113182789D01*
X93337539Y-113236786D01*
X93337542Y-113236786D01*
X93337544Y-113236787D01*
X93499996Y-113255091D01*
X93500000Y-113255091D01*
X93500004Y-113255091D01*
X93662455Y-113236787D01*
X93662456Y-113236786D01*
X93662461Y-113236786D01*
X93816775Y-113182789D01*
X93955204Y-113095808D01*
X94070808Y-112980204D01*
X94157789Y-112841775D01*
X94211786Y-112687461D01*
X94211787Y-112687455D01*
X94230091Y-112525003D01*
X94230091Y-112524996D01*
X94227275Y-112500003D01*
X102769909Y-112500003D01*
X102788212Y-112662455D01*
X102842210Y-112816774D01*
X102929192Y-112955204D01*
X103044796Y-113070808D01*
X103183225Y-113157789D01*
X103337539Y-113211786D01*
X103337542Y-113211786D01*
X103337544Y-113211787D01*
X103499996Y-113230091D01*
X103500000Y-113230091D01*
X103500004Y-113230091D01*
X103662455Y-113211787D01*
X103662456Y-113211786D01*
X103662461Y-113211786D01*
X103816775Y-113157789D01*
X103955204Y-113070808D01*
X104070808Y-112955204D01*
X104157789Y-112816775D01*
X104211786Y-112662461D01*
X104212114Y-112659551D01*
X104230091Y-112500003D01*
X104230091Y-112499996D01*
X104211787Y-112337544D01*
X104211786Y-112337542D01*
X104211786Y-112337539D01*
X104157789Y-112183225D01*
X104070808Y-112044796D01*
X104026015Y-112000003D01*
X127795750Y-112000003D01*
X127814053Y-112162455D01*
X127868051Y-112316774D01*
X127922211Y-112402969D01*
X127955033Y-112455204D01*
X128070637Y-112570808D01*
X128209066Y-112657789D01*
X128363380Y-112711786D01*
X128363383Y-112711786D01*
X128363385Y-112711787D01*
X128525837Y-112730091D01*
X128525841Y-112730091D01*
X128525845Y-112730091D01*
X128688296Y-112711787D01*
X128688297Y-112711786D01*
X128688302Y-112711786D01*
X128842616Y-112657789D01*
X128981045Y-112570808D01*
X129096649Y-112455204D01*
X129183630Y-112316775D01*
X129237627Y-112162461D01*
X129237628Y-112162455D01*
X129255932Y-112000003D01*
X129255932Y-111999996D01*
X129237628Y-111837544D01*
X129237627Y-111837542D01*
X129237627Y-111837539D01*
X129183630Y-111683225D01*
X129096649Y-111544796D01*
X128981045Y-111429192D01*
X128897914Y-111376957D01*
X128842615Y-111342210D01*
X128688296Y-111288212D01*
X128525845Y-111269909D01*
X128525837Y-111269909D01*
X128363385Y-111288212D01*
X128209066Y-111342210D01*
X128070636Y-111429192D01*
X127955033Y-111544795D01*
X127868051Y-111683225D01*
X127814053Y-111837544D01*
X127795750Y-111999996D01*
X127795750Y-112000003D01*
X104026015Y-112000003D01*
X103955204Y-111929192D01*
X103816774Y-111842210D01*
X103662455Y-111788212D01*
X103500004Y-111769909D01*
X103499996Y-111769909D01*
X103337544Y-111788212D01*
X103183225Y-111842210D01*
X103044795Y-111929192D01*
X102929192Y-112044795D01*
X102842210Y-112183225D01*
X102788212Y-112337544D01*
X102769909Y-112499996D01*
X102769909Y-112500003D01*
X94227275Y-112500003D01*
X94211787Y-112362544D01*
X94211786Y-112362542D01*
X94211786Y-112362539D01*
X94157789Y-112208225D01*
X94070808Y-112069796D01*
X93955204Y-111954192D01*
X93915417Y-111929192D01*
X93816774Y-111867210D01*
X93662455Y-111813212D01*
X93500004Y-111794909D01*
X93499996Y-111794909D01*
X93337544Y-111813212D01*
X93183225Y-111867210D01*
X93065972Y-111940886D01*
X92998735Y-111959886D01*
X92934028Y-111940886D01*
X92816774Y-111867210D01*
X92745329Y-111842211D01*
X92729078Y-111836524D01*
X92672303Y-111795803D01*
X92646555Y-111730851D01*
X92656848Y-111673820D01*
X92655489Y-111673345D01*
X92691368Y-111570808D01*
X92711786Y-111512458D01*
X92711786Y-111512456D01*
X92711787Y-111512454D01*
X92730091Y-111350000D01*
X92730091Y-111349993D01*
X92711787Y-111187539D01*
X92669241Y-111065950D01*
X92665679Y-110996171D01*
X92669241Y-110984040D01*
X92669242Y-110984039D01*
X92711786Y-110862455D01*
X92711786Y-110862453D01*
X92711787Y-110862451D01*
X92730091Y-110699997D01*
X92730091Y-110699990D01*
X92711787Y-110537536D01*
X92711786Y-110537533D01*
X92698654Y-110500003D01*
X100769909Y-110500003D01*
X100788212Y-110662455D01*
X100842210Y-110816774D01*
X100929192Y-110955204D01*
X101044796Y-111070808D01*
X101183225Y-111157789D01*
X101337539Y-111211786D01*
X101337542Y-111211786D01*
X101337544Y-111211787D01*
X101499996Y-111230091D01*
X101500000Y-111230091D01*
X101500004Y-111230091D01*
X101662455Y-111211787D01*
X101662456Y-111211786D01*
X101662461Y-111211786D01*
X101816775Y-111157789D01*
X101955204Y-111070808D01*
X102026009Y-111000003D01*
X120269909Y-111000003D01*
X120288212Y-111162455D01*
X120342210Y-111316774D01*
X120429192Y-111455204D01*
X120544796Y-111570808D01*
X120683225Y-111657789D01*
X120837539Y-111711786D01*
X120837542Y-111711786D01*
X120837544Y-111711787D01*
X120999996Y-111730091D01*
X121000000Y-111730091D01*
X121000004Y-111730091D01*
X121162455Y-111711787D01*
X121162456Y-111711786D01*
X121162461Y-111711786D01*
X121316775Y-111657789D01*
X121455204Y-111570808D01*
X121570808Y-111455204D01*
X121657789Y-111316775D01*
X121711786Y-111162461D01*
X121711787Y-111162455D01*
X121730091Y-111000003D01*
X121730091Y-110999996D01*
X121711787Y-110837544D01*
X121711786Y-110837542D01*
X121711786Y-110837539D01*
X121657789Y-110683225D01*
X121570808Y-110544796D01*
X121455204Y-110429192D01*
X121375041Y-110378822D01*
X121316774Y-110342210D01*
X121162455Y-110288212D01*
X121000004Y-110269909D01*
X120999996Y-110269909D01*
X120837544Y-110288212D01*
X120683225Y-110342210D01*
X120544795Y-110429192D01*
X120429192Y-110544795D01*
X120342210Y-110683225D01*
X120288212Y-110837544D01*
X120269909Y-110999996D01*
X120269909Y-111000003D01*
X102026009Y-111000003D01*
X102070808Y-110955204D01*
X102157789Y-110816775D01*
X102211786Y-110662461D01*
X102211787Y-110662455D01*
X102230091Y-110500003D01*
X102230091Y-110499996D01*
X102211787Y-110337544D01*
X102211786Y-110337542D01*
X102211786Y-110337539D01*
X102157789Y-110183225D01*
X102070808Y-110044796D01*
X101955204Y-109929192D01*
X101877643Y-109880457D01*
X101816774Y-109842210D01*
X101662455Y-109788212D01*
X101500004Y-109769909D01*
X101499996Y-109769909D01*
X101337544Y-109788212D01*
X101183225Y-109842210D01*
X101044795Y-109929192D01*
X100929192Y-110044795D01*
X100842210Y-110183225D01*
X100788212Y-110337544D01*
X100769909Y-110499996D01*
X100769909Y-110500003D01*
X92698654Y-110500003D01*
X92660493Y-110390948D01*
X92656931Y-110321174D01*
X92660489Y-110309058D01*
X92711786Y-110162461D01*
X92711786Y-110162459D01*
X92711787Y-110162457D01*
X92730091Y-110000003D01*
X92730091Y-109999996D01*
X92711787Y-109837544D01*
X92711786Y-109837542D01*
X92711786Y-109837539D01*
X92657789Y-109683225D01*
X92570808Y-109544796D01*
X92455204Y-109429192D01*
X92402069Y-109395805D01*
X92316774Y-109342210D01*
X92162455Y-109288212D01*
X92000004Y-109269909D01*
X91999996Y-109269909D01*
X91837544Y-109288212D01*
X91683225Y-109342210D01*
X91544797Y-109429191D01*
X91439392Y-109534596D01*
X91378069Y-109568080D01*
X91308377Y-109563096D01*
X91252444Y-109521224D01*
X91228491Y-109460797D01*
X91211787Y-109312544D01*
X91211786Y-109312542D01*
X91211786Y-109312539D01*
X91157789Y-109158225D01*
X91070808Y-109019796D01*
X90955204Y-108904192D01*
X90859015Y-108843752D01*
X90829172Y-108825000D01*
X92769909Y-108825000D01*
X92788212Y-108987452D01*
X92842210Y-109141771D01*
X92886204Y-109211786D01*
X92929192Y-109280201D01*
X93044796Y-109395805D01*
X93183225Y-109482786D01*
X93337539Y-109536783D01*
X93337542Y-109536783D01*
X93337544Y-109536784D01*
X93499996Y-109555088D01*
X93500000Y-109555088D01*
X93500004Y-109555088D01*
X93662455Y-109536784D01*
X93662456Y-109536783D01*
X93662461Y-109536783D01*
X93767572Y-109500003D01*
X129269909Y-109500003D01*
X129288212Y-109662455D01*
X129342210Y-109816774D01*
X129428293Y-109953774D01*
X129429192Y-109955204D01*
X129544796Y-110070808D01*
X129683225Y-110157789D01*
X129837539Y-110211786D01*
X129837542Y-110211786D01*
X129837544Y-110211787D01*
X129999996Y-110230091D01*
X130000000Y-110230091D01*
X130000004Y-110230091D01*
X130162455Y-110211787D01*
X130162456Y-110211786D01*
X130162461Y-110211786D01*
X130316775Y-110157789D01*
X130455204Y-110070808D01*
X130526009Y-110000003D01*
X133769909Y-110000003D01*
X133788212Y-110162455D01*
X133842210Y-110316774D01*
X133929192Y-110455204D01*
X134044796Y-110570808D01*
X134183225Y-110657789D01*
X134337539Y-110711786D01*
X134337542Y-110711786D01*
X134337544Y-110711787D01*
X134499996Y-110730091D01*
X134500000Y-110730091D01*
X134500004Y-110730091D01*
X134662455Y-110711787D01*
X134662456Y-110711786D01*
X134662461Y-110711786D01*
X134816775Y-110657789D01*
X134955204Y-110570808D01*
X135070808Y-110455204D01*
X135157789Y-110316775D01*
X135211786Y-110162461D01*
X135211787Y-110162455D01*
X135230091Y-110000003D01*
X135230091Y-109999996D01*
X135211787Y-109837544D01*
X135211786Y-109837542D01*
X135211786Y-109837539D01*
X135157789Y-109683225D01*
X135070808Y-109544796D01*
X134955204Y-109429192D01*
X134902069Y-109395805D01*
X134816774Y-109342210D01*
X134662455Y-109288212D01*
X134500004Y-109269909D01*
X134499996Y-109269909D01*
X134337544Y-109288212D01*
X134183225Y-109342210D01*
X134044795Y-109429192D01*
X133929192Y-109544795D01*
X133842210Y-109683225D01*
X133788212Y-109837544D01*
X133769909Y-109999996D01*
X133769909Y-110000003D01*
X130526009Y-110000003D01*
X130570808Y-109955204D01*
X130657789Y-109816775D01*
X130711786Y-109662461D01*
X130711787Y-109662455D01*
X130730091Y-109500003D01*
X130730091Y-109499996D01*
X130711787Y-109337544D01*
X130711786Y-109337542D01*
X130711786Y-109337539D01*
X130657789Y-109183225D01*
X130570808Y-109044796D01*
X130455204Y-108929192D01*
X130345080Y-108859996D01*
X130316774Y-108842210D01*
X130162455Y-108788212D01*
X130000004Y-108769909D01*
X129999996Y-108769909D01*
X129837544Y-108788212D01*
X129683225Y-108842210D01*
X129544795Y-108929192D01*
X129429192Y-109044795D01*
X129342210Y-109183225D01*
X129288212Y-109337544D01*
X129269909Y-109499996D01*
X129269909Y-109500003D01*
X93767572Y-109500003D01*
X93816775Y-109482786D01*
X93955204Y-109395805D01*
X94070808Y-109280201D01*
X94157789Y-109141772D01*
X94211786Y-108987458D01*
X94228132Y-108842384D01*
X94230091Y-108825000D01*
X94230091Y-108824993D01*
X94211787Y-108662541D01*
X94211786Y-108662539D01*
X94211786Y-108662536D01*
X94157789Y-108508222D01*
X94070808Y-108369793D01*
X93955204Y-108254189D01*
X93872482Y-108202211D01*
X93816774Y-108167207D01*
X93662455Y-108113209D01*
X93500004Y-108094906D01*
X93499996Y-108094906D01*
X93337544Y-108113209D01*
X93183225Y-108167207D01*
X93044795Y-108254189D01*
X92929192Y-108369792D01*
X92842210Y-108508222D01*
X92788212Y-108662541D01*
X92769909Y-108824993D01*
X92769909Y-108825000D01*
X90829172Y-108825000D01*
X90816774Y-108817210D01*
X90662455Y-108763212D01*
X90500004Y-108744909D01*
X90499996Y-108744909D01*
X90337544Y-108763212D01*
X90183225Y-108817210D01*
X90044795Y-108904192D01*
X89929192Y-109019795D01*
X89842210Y-109158225D01*
X89788212Y-109312544D01*
X89769909Y-109474996D01*
X89769909Y-109475003D01*
X79743166Y-109475003D01*
X79762965Y-109455204D01*
X79849946Y-109316775D01*
X79903943Y-109162461D01*
X79903944Y-109162455D01*
X79922248Y-109000003D01*
X79922248Y-108999996D01*
X79903944Y-108837544D01*
X79903943Y-108837542D01*
X79903943Y-108837539D01*
X79849946Y-108683225D01*
X79762965Y-108544796D01*
X79647361Y-108429192D01*
X79608534Y-108404795D01*
X79508931Y-108342210D01*
X79354612Y-108288212D01*
X79192161Y-108269909D01*
X79192153Y-108269909D01*
X79029701Y-108288212D01*
X78875382Y-108342210D01*
X78736952Y-108429192D01*
X78621349Y-108544795D01*
X78534367Y-108683225D01*
X78480369Y-108837544D01*
X78462066Y-108999996D01*
X78462066Y-109000003D01*
X77574317Y-109000003D01*
X77590091Y-108860003D01*
X77590091Y-108859996D01*
X77571787Y-108697544D01*
X77571786Y-108697542D01*
X77571786Y-108697539D01*
X77517789Y-108543225D01*
X77430808Y-108404796D01*
X77315204Y-108289192D01*
X77313644Y-108288212D01*
X77176774Y-108202210D01*
X77022455Y-108148212D01*
X76860004Y-108129909D01*
X76859996Y-108129909D01*
X76697544Y-108148212D01*
X76543225Y-108202210D01*
X76404795Y-108289192D01*
X76289192Y-108404795D01*
X76202210Y-108543225D01*
X76148212Y-108697544D01*
X76129909Y-108859996D01*
X76129909Y-108860003D01*
X75618459Y-108860003D01*
X75592596Y-108843752D01*
X75550355Y-108817210D01*
X75396036Y-108763212D01*
X75233585Y-108744909D01*
X75233577Y-108744909D01*
X75071125Y-108763212D01*
X74916803Y-108817211D01*
X74874564Y-108843752D01*
X74807327Y-108862752D01*
X74740492Y-108842384D01*
X74695279Y-108789115D01*
X74691551Y-108779712D01*
X74685777Y-108763212D01*
X74657789Y-108683225D01*
X74570808Y-108544796D01*
X74455204Y-108429192D01*
X74416377Y-108404795D01*
X74316774Y-108342210D01*
X74162455Y-108288212D01*
X74000004Y-108269909D01*
X73999996Y-108269909D01*
X73837544Y-108288212D01*
X73683225Y-108342210D01*
X73544795Y-108429192D01*
X73429192Y-108544795D01*
X73342210Y-108683225D01*
X73288212Y-108837544D01*
X73269909Y-108999996D01*
X73269909Y-109000003D01*
X72730091Y-109000003D01*
X72730091Y-108999996D01*
X72711787Y-108837544D01*
X72711786Y-108837542D01*
X72711786Y-108837539D01*
X72657789Y-108683225D01*
X72570808Y-108544796D01*
X72455204Y-108429192D01*
X72416377Y-108404795D01*
X72316774Y-108342210D01*
X72162455Y-108288212D01*
X72000004Y-108269909D01*
X71999996Y-108269909D01*
X71837544Y-108288212D01*
X71683225Y-108342210D01*
X71544795Y-108429192D01*
X71429192Y-108544795D01*
X71342210Y-108683225D01*
X71288212Y-108837544D01*
X71269909Y-108999996D01*
X71269909Y-109000003D01*
X65526009Y-109000003D01*
X65570808Y-108955204D01*
X65657789Y-108816775D01*
X65711786Y-108662461D01*
X65711787Y-108662455D01*
X65730091Y-108500003D01*
X65730091Y-108499996D01*
X65711787Y-108337544D01*
X65711786Y-108337542D01*
X65711786Y-108337539D01*
X65657789Y-108183225D01*
X65570808Y-108044796D01*
X65526015Y-108000003D01*
X67729909Y-108000003D01*
X67748212Y-108162455D01*
X67802210Y-108316774D01*
X67889192Y-108455204D01*
X68004796Y-108570808D01*
X68143225Y-108657789D01*
X68297539Y-108711786D01*
X68297542Y-108711786D01*
X68297544Y-108711787D01*
X68459996Y-108730091D01*
X68460000Y-108730091D01*
X68460004Y-108730091D01*
X68622455Y-108711787D01*
X68622456Y-108711786D01*
X68622461Y-108711786D01*
X68776775Y-108657789D01*
X68915204Y-108570808D01*
X69030808Y-108455204D01*
X69117789Y-108316775D01*
X69171786Y-108162461D01*
X69171787Y-108162455D01*
X69190091Y-108000003D01*
X69190091Y-107999996D01*
X69171787Y-107837544D01*
X69171786Y-107837542D01*
X69171786Y-107837539D01*
X69117789Y-107683225D01*
X69030808Y-107544796D01*
X68915204Y-107429192D01*
X68824362Y-107372112D01*
X77617799Y-107372112D01*
X77636102Y-107534564D01*
X77690100Y-107688883D01*
X77752513Y-107788212D01*
X77777082Y-107827313D01*
X77892686Y-107942917D01*
X78031115Y-108029898D01*
X78185429Y-108083895D01*
X78185432Y-108083895D01*
X78185434Y-108083896D01*
X78347886Y-108102200D01*
X78347890Y-108102200D01*
X78347894Y-108102200D01*
X78510345Y-108083896D01*
X78510346Y-108083895D01*
X78510351Y-108083895D01*
X78664665Y-108029898D01*
X78712242Y-108000003D01*
X126269909Y-108000003D01*
X126288212Y-108162455D01*
X126342210Y-108316774D01*
X126429192Y-108455204D01*
X126544796Y-108570808D01*
X126683225Y-108657789D01*
X126837539Y-108711786D01*
X126837542Y-108711786D01*
X126837544Y-108711787D01*
X126999996Y-108730091D01*
X127000000Y-108730091D01*
X127000004Y-108730091D01*
X127162455Y-108711787D01*
X127162456Y-108711786D01*
X127162461Y-108711786D01*
X127316775Y-108657789D01*
X127434028Y-108584113D01*
X127501264Y-108565113D01*
X127565971Y-108584113D01*
X127683225Y-108657789D01*
X127837539Y-108711786D01*
X127837542Y-108711786D01*
X127837544Y-108711787D01*
X127999996Y-108730091D01*
X128000000Y-108730091D01*
X128000004Y-108730091D01*
X128162455Y-108711787D01*
X128162456Y-108711786D01*
X128162461Y-108711786D01*
X128316775Y-108657789D01*
X128455204Y-108570808D01*
X128570808Y-108455204D01*
X128657789Y-108316775D01*
X128711786Y-108162461D01*
X128711787Y-108162455D01*
X128730091Y-108000003D01*
X128730091Y-107999996D01*
X128711787Y-107837544D01*
X128711786Y-107837542D01*
X128711786Y-107837539D01*
X128657789Y-107683225D01*
X128570808Y-107544796D01*
X128455204Y-107429192D01*
X128364362Y-107372112D01*
X128316774Y-107342210D01*
X128162455Y-107288212D01*
X128000004Y-107269909D01*
X127999996Y-107269909D01*
X127837544Y-107288212D01*
X127683225Y-107342210D01*
X127565972Y-107415886D01*
X127498735Y-107434886D01*
X127434028Y-107415886D01*
X127316774Y-107342210D01*
X127162455Y-107288212D01*
X127000004Y-107269909D01*
X126999996Y-107269909D01*
X126837544Y-107288212D01*
X126683225Y-107342210D01*
X126544795Y-107429192D01*
X126429192Y-107544795D01*
X126342210Y-107683225D01*
X126288212Y-107837544D01*
X126269909Y-107999996D01*
X126269909Y-108000003D01*
X78712242Y-108000003D01*
X78803094Y-107942917D01*
X78918698Y-107827313D01*
X79005679Y-107688884D01*
X79059676Y-107534570D01*
X79066502Y-107473988D01*
X79077981Y-107372112D01*
X79077981Y-107372108D01*
X79074878Y-107344572D01*
X79086932Y-107275750D01*
X79134280Y-107224370D01*
X79157144Y-107213645D01*
X79162454Y-107211786D01*
X79162461Y-107211786D01*
X79316775Y-107157789D01*
X79455204Y-107070808D01*
X79570808Y-106955204D01*
X79657789Y-106816775D01*
X79711786Y-106662461D01*
X79712027Y-106660323D01*
X79730091Y-106500003D01*
X80119906Y-106500003D01*
X80138209Y-106662455D01*
X80192207Y-106816774D01*
X80200855Y-106830537D01*
X80279189Y-106955204D01*
X80394793Y-107070808D01*
X80533222Y-107157789D01*
X80687536Y-107211786D01*
X80687539Y-107211786D01*
X80687541Y-107211787D01*
X80849993Y-107230091D01*
X80849997Y-107230091D01*
X80850001Y-107230091D01*
X81012452Y-107211787D01*
X81012453Y-107211786D01*
X81012458Y-107211786D01*
X81166772Y-107157789D01*
X81305201Y-107070808D01*
X81376006Y-107000003D01*
X84269909Y-107000003D01*
X84288212Y-107162455D01*
X84342210Y-107316774D01*
X84416425Y-107434886D01*
X84429192Y-107455204D01*
X84544796Y-107570808D01*
X84683225Y-107657789D01*
X84837539Y-107711786D01*
X84837542Y-107711786D01*
X84837544Y-107711787D01*
X84999996Y-107730091D01*
X85000000Y-107730091D01*
X85000004Y-107730091D01*
X85162455Y-107711787D01*
X85162456Y-107711786D01*
X85162461Y-107711786D01*
X85316775Y-107657789D01*
X85455204Y-107570808D01*
X85570808Y-107455204D01*
X85657789Y-107316775D01*
X85711786Y-107162461D01*
X85711787Y-107162455D01*
X85730091Y-107000003D01*
X85730091Y-106999996D01*
X85711787Y-106837544D01*
X85711786Y-106837542D01*
X85711786Y-106837539D01*
X85657789Y-106683225D01*
X85570808Y-106544796D01*
X85455204Y-106429192D01*
X85331242Y-106351301D01*
X85316774Y-106342210D01*
X85162455Y-106288212D01*
X85000004Y-106269909D01*
X84999996Y-106269909D01*
X84837544Y-106288212D01*
X84683225Y-106342210D01*
X84544795Y-106429192D01*
X84429192Y-106544795D01*
X84342210Y-106683225D01*
X84288212Y-106837544D01*
X84269909Y-106999996D01*
X84269909Y-107000003D01*
X81376006Y-107000003D01*
X81420805Y-106955204D01*
X81507786Y-106816775D01*
X81561783Y-106662461D01*
X81562024Y-106660323D01*
X81580088Y-106500003D01*
X81580088Y-106499996D01*
X81561784Y-106337544D01*
X81561783Y-106337542D01*
X81561783Y-106337539D01*
X81507786Y-106183225D01*
X81420805Y-106044796D01*
X81376012Y-106000003D01*
X87269909Y-106000003D01*
X87288212Y-106162455D01*
X87342210Y-106316774D01*
X87429192Y-106455204D01*
X87544796Y-106570808D01*
X87683225Y-106657789D01*
X87837539Y-106711786D01*
X87837542Y-106711786D01*
X87837544Y-106711787D01*
X87999996Y-106730091D01*
X88000000Y-106730091D01*
X88000004Y-106730091D01*
X88162455Y-106711787D01*
X88162456Y-106711786D01*
X88162461Y-106711786D01*
X88316775Y-106657789D01*
X88455204Y-106570808D01*
X88570808Y-106455204D01*
X88657789Y-106316775D01*
X88689365Y-106226533D01*
X88730085Y-106169759D01*
X88765453Y-106150447D01*
X88815915Y-106132790D01*
X88815917Y-106132789D01*
X88954346Y-106045808D01*
X89000151Y-106000003D01*
X90769909Y-106000003D01*
X90788212Y-106162455D01*
X90842210Y-106316774D01*
X90929192Y-106455204D01*
X91044796Y-106570808D01*
X91183225Y-106657789D01*
X91337539Y-106711786D01*
X91337542Y-106711786D01*
X91337544Y-106711787D01*
X91499996Y-106730091D01*
X91500000Y-106730091D01*
X91500004Y-106730091D01*
X91662454Y-106711787D01*
X91662454Y-106711786D01*
X91662461Y-106711786D01*
X91680803Y-106705367D01*
X91750578Y-106701805D01*
X91811206Y-106736533D01*
X91838797Y-106781454D01*
X91855971Y-106830534D01*
X91855973Y-106830537D01*
X91942954Y-106968966D01*
X92058558Y-107084570D01*
X92196987Y-107171551D01*
X92351301Y-107225548D01*
X92351304Y-107225548D01*
X92351306Y-107225549D01*
X92513758Y-107243853D01*
X92513762Y-107243853D01*
X92513766Y-107243853D01*
X92676217Y-107225549D01*
X92676218Y-107225548D01*
X92676223Y-107225548D01*
X92830537Y-107171551D01*
X92968966Y-107084570D01*
X93084570Y-106968966D01*
X93171551Y-106830537D01*
X93225548Y-106676223D01*
X93227099Y-106662461D01*
X93243853Y-106513765D01*
X93243853Y-106513758D01*
X93225549Y-106351306D01*
X93225548Y-106351304D01*
X93225548Y-106351301D01*
X93171551Y-106196987D01*
X93084570Y-106058558D01*
X93026015Y-106000003D01*
X124269909Y-106000003D01*
X124288212Y-106162455D01*
X124342210Y-106316774D01*
X124429192Y-106455204D01*
X124544796Y-106570808D01*
X124683225Y-106657789D01*
X124837539Y-106711786D01*
X124837542Y-106711786D01*
X124837544Y-106711787D01*
X124999996Y-106730091D01*
X125000000Y-106730091D01*
X125000004Y-106730091D01*
X125162455Y-106711787D01*
X125162456Y-106711786D01*
X125162461Y-106711786D01*
X125316775Y-106657789D01*
X125455204Y-106570808D01*
X125526009Y-106500003D01*
X132269909Y-106500003D01*
X132288212Y-106662455D01*
X132342210Y-106816774D01*
X132350858Y-106830537D01*
X132429192Y-106955204D01*
X132544796Y-107070808D01*
X132683225Y-107157789D01*
X132837539Y-107211786D01*
X132837542Y-107211786D01*
X132837544Y-107211787D01*
X132999996Y-107230091D01*
X133000000Y-107230091D01*
X133000004Y-107230091D01*
X133162455Y-107211787D01*
X133162456Y-107211786D01*
X133162461Y-107211786D01*
X133316775Y-107157789D01*
X133455204Y-107070808D01*
X133570808Y-106955204D01*
X133657789Y-106816775D01*
X133711786Y-106662461D01*
X133712027Y-106660323D01*
X133730091Y-106500003D01*
X133730091Y-106499996D01*
X133711787Y-106337544D01*
X133711786Y-106337542D01*
X133711786Y-106337539D01*
X133657789Y-106183225D01*
X133570808Y-106044796D01*
X133455204Y-105929192D01*
X133316774Y-105842210D01*
X133162455Y-105788212D01*
X133000004Y-105769909D01*
X132999996Y-105769909D01*
X132837544Y-105788212D01*
X132683225Y-105842210D01*
X132544795Y-105929192D01*
X132429192Y-106044795D01*
X132342210Y-106183225D01*
X132288212Y-106337544D01*
X132269909Y-106499996D01*
X132269909Y-106500003D01*
X125526009Y-106500003D01*
X125570808Y-106455204D01*
X125657789Y-106316775D01*
X125711786Y-106162461D01*
X125715129Y-106132790D01*
X125730091Y-106000003D01*
X125730091Y-105999996D01*
X125711787Y-105837544D01*
X125711786Y-105837542D01*
X125711786Y-105837539D01*
X125657789Y-105683225D01*
X125570808Y-105544796D01*
X125455204Y-105429192D01*
X125316777Y-105342212D01*
X125316774Y-105342210D01*
X125162455Y-105288212D01*
X125000004Y-105269909D01*
X124999996Y-105269909D01*
X124837544Y-105288212D01*
X124683225Y-105342210D01*
X124544795Y-105429192D01*
X124429192Y-105544795D01*
X124342210Y-105683225D01*
X124288212Y-105837544D01*
X124269909Y-105999996D01*
X124269909Y-106000003D01*
X93026015Y-106000003D01*
X92968966Y-105942954D01*
X92830537Y-105855973D01*
X92830534Y-105855971D01*
X92781454Y-105838797D01*
X92724678Y-105798076D01*
X92698931Y-105733123D01*
X92705367Y-105680804D01*
X92711786Y-105662461D01*
X92711787Y-105662454D01*
X92730091Y-105500003D01*
X92730091Y-105499996D01*
X92711787Y-105337544D01*
X92711786Y-105337542D01*
X92711786Y-105337539D01*
X92657789Y-105183225D01*
X92570808Y-105044796D01*
X92455204Y-104929192D01*
X92415417Y-104904192D01*
X92316774Y-104842210D01*
X92162455Y-104788212D01*
X92000004Y-104769909D01*
X91999996Y-104769909D01*
X91837544Y-104788212D01*
X91683225Y-104842210D01*
X91544795Y-104929192D01*
X91429192Y-105044795D01*
X91342212Y-105183222D01*
X91320721Y-105244637D01*
X91279998Y-105301412D01*
X91244637Y-105320721D01*
X91183222Y-105342212D01*
X91044795Y-105429192D01*
X90929192Y-105544795D01*
X90842210Y-105683225D01*
X90788212Y-105837544D01*
X90769909Y-105999996D01*
X90769909Y-106000003D01*
X89000151Y-106000003D01*
X89069950Y-105930204D01*
X89156931Y-105791775D01*
X89210928Y-105637461D01*
X89226416Y-105500003D01*
X89229233Y-105475003D01*
X89229233Y-105474996D01*
X89210929Y-105312544D01*
X89210928Y-105312542D01*
X89210928Y-105312539D01*
X89156931Y-105158225D01*
X89069950Y-105019796D01*
X88954346Y-104904192D01*
X88815916Y-104817210D01*
X88661597Y-104763212D01*
X88499146Y-104744909D01*
X88499138Y-104744909D01*
X88336686Y-104763212D01*
X88182367Y-104817210D01*
X88043937Y-104904192D01*
X87928334Y-105019795D01*
X87841354Y-105158222D01*
X87841353Y-105158223D01*
X87809775Y-105248466D01*
X87769052Y-105305242D01*
X87733692Y-105324550D01*
X87683228Y-105342209D01*
X87544795Y-105429192D01*
X87429192Y-105544795D01*
X87342210Y-105683225D01*
X87288212Y-105837544D01*
X87269909Y-105999996D01*
X87269909Y-106000003D01*
X81376012Y-106000003D01*
X81305201Y-105929192D01*
X81166771Y-105842210D01*
X81012452Y-105788212D01*
X80850001Y-105769909D01*
X80849993Y-105769909D01*
X80687541Y-105788212D01*
X80533222Y-105842210D01*
X80394792Y-105929192D01*
X80279189Y-106044795D01*
X80192207Y-106183225D01*
X80138209Y-106337544D01*
X80119906Y-106499996D01*
X80119906Y-106500003D01*
X79730091Y-106500003D01*
X79730091Y-106499996D01*
X79711787Y-106337544D01*
X79711786Y-106337542D01*
X79711786Y-106337539D01*
X79657789Y-106183225D01*
X79584113Y-106065971D01*
X79565113Y-105998736D01*
X79584114Y-105934027D01*
X79586517Y-105930204D01*
X79657789Y-105816775D01*
X79711786Y-105662461D01*
X79711787Y-105662454D01*
X79730091Y-105500003D01*
X79730091Y-105499996D01*
X79711787Y-105337544D01*
X79711786Y-105337542D01*
X79711786Y-105337539D01*
X79657789Y-105183225D01*
X79570808Y-105044796D01*
X79455204Y-104929192D01*
X79415417Y-104904192D01*
X79316774Y-104842210D01*
X79162455Y-104788212D01*
X79000004Y-104769909D01*
X78999996Y-104769909D01*
X78837544Y-104788212D01*
X78683225Y-104842210D01*
X78544795Y-104929192D01*
X78429192Y-105044795D01*
X78342210Y-105183225D01*
X78288212Y-105337544D01*
X78269909Y-105499996D01*
X78269909Y-105500003D01*
X78288212Y-105662455D01*
X78342210Y-105816774D01*
X78415886Y-105934028D01*
X78434886Y-106001265D01*
X78415886Y-106065972D01*
X78342210Y-106183225D01*
X78288212Y-106337544D01*
X78269909Y-106499995D01*
X78269909Y-106499996D01*
X78269909Y-106500000D01*
X78271459Y-106513758D01*
X78273012Y-106527539D01*
X78260956Y-106596361D01*
X78213606Y-106647740D01*
X78190745Y-106658463D01*
X78185429Y-106660322D01*
X78185429Y-106660323D01*
X78169250Y-106665984D01*
X78031115Y-106714319D01*
X77892685Y-106801301D01*
X77777082Y-106916904D01*
X77690100Y-107055334D01*
X77636102Y-107209653D01*
X77617799Y-107372105D01*
X77617799Y-107372112D01*
X68824362Y-107372112D01*
X68776774Y-107342210D01*
X68622455Y-107288212D01*
X68460004Y-107269909D01*
X68459996Y-107269909D01*
X68297544Y-107288212D01*
X68143225Y-107342210D01*
X68004795Y-107429192D01*
X67889192Y-107544795D01*
X67802210Y-107683225D01*
X67748212Y-107837544D01*
X67729909Y-107999996D01*
X67729909Y-108000003D01*
X65526015Y-108000003D01*
X65455204Y-107929192D01*
X65316774Y-107842210D01*
X65162455Y-107788212D01*
X65000004Y-107769909D01*
X64999996Y-107769909D01*
X64837544Y-107788212D01*
X64683225Y-107842210D01*
X64544795Y-107929192D01*
X64429192Y-108044795D01*
X64342210Y-108183225D01*
X64288212Y-108337544D01*
X64269909Y-108499996D01*
X64269909Y-108500003D01*
X60000000Y-108500003D01*
X60000000Y-105000003D01*
X74269909Y-105000003D01*
X74288212Y-105162455D01*
X74342210Y-105316774D01*
X74429192Y-105455204D01*
X74544796Y-105570808D01*
X74683225Y-105657789D01*
X74837539Y-105711786D01*
X74837542Y-105711786D01*
X74837544Y-105711787D01*
X74999996Y-105730091D01*
X75000000Y-105730091D01*
X75000004Y-105730091D01*
X75162455Y-105711787D01*
X75162456Y-105711786D01*
X75162461Y-105711786D01*
X75316775Y-105657789D01*
X75455204Y-105570808D01*
X75570808Y-105455204D01*
X75657789Y-105316775D01*
X75711786Y-105162461D01*
X75711787Y-105162455D01*
X75730091Y-105000003D01*
X75730091Y-104999996D01*
X75711787Y-104837544D01*
X75711786Y-104837542D01*
X75711786Y-104837539D01*
X75657789Y-104683225D01*
X75570808Y-104544796D01*
X75455204Y-104429192D01*
X75316774Y-104342210D01*
X75162455Y-104288212D01*
X75000004Y-104269909D01*
X74999996Y-104269909D01*
X74837544Y-104288212D01*
X74683225Y-104342210D01*
X74544795Y-104429192D01*
X74429192Y-104544795D01*
X74342210Y-104683225D01*
X74288212Y-104837544D01*
X74269909Y-104999996D01*
X74269909Y-105000003D01*
X60000000Y-105000003D01*
X60000000Y-103180558D01*
X60019685Y-103113519D01*
X60072489Y-103067764D01*
X60141647Y-103057820D01*
X60205203Y-103086845D01*
X60242977Y-103145623D01*
X60247528Y-103169751D01*
X60251929Y-103220062D01*
X60251930Y-103220070D01*
X60309104Y-103433445D01*
X60309105Y-103433447D01*
X60309106Y-103433450D01*
X60373157Y-103570808D01*
X60402466Y-103633662D01*
X60402468Y-103633666D01*
X60529170Y-103814615D01*
X60529175Y-103814621D01*
X60685378Y-103970824D01*
X60685384Y-103970829D01*
X60866333Y-104097531D01*
X60866335Y-104097532D01*
X60866338Y-104097534D01*
X61066550Y-104190894D01*
X61279932Y-104248070D01*
X61437123Y-104261822D01*
X61499998Y-104267323D01*
X61500000Y-104267323D01*
X61500002Y-104267323D01*
X61555017Y-104262509D01*
X61720068Y-104248070D01*
X61933450Y-104190894D01*
X62133662Y-104097534D01*
X62314620Y-103970826D01*
X62470826Y-103814620D01*
X62597534Y-103633662D01*
X62659860Y-103500003D01*
X82269909Y-103500003D01*
X82288212Y-103662455D01*
X82342210Y-103816774D01*
X82342211Y-103816775D01*
X82429192Y-103955204D01*
X82544796Y-104070808D01*
X82683225Y-104157789D01*
X82837539Y-104211786D01*
X82837542Y-104211786D01*
X82837544Y-104211787D01*
X82999996Y-104230091D01*
X83000000Y-104230091D01*
X83000004Y-104230091D01*
X83162455Y-104211787D01*
X83162456Y-104211786D01*
X83162461Y-104211786D01*
X83316775Y-104157789D01*
X83455204Y-104070808D01*
X83570808Y-103955204D01*
X83657789Y-103816775D01*
X83711786Y-103662461D01*
X83711787Y-103662455D01*
X83730091Y-103500003D01*
X83730091Y-103499996D01*
X83711787Y-103337544D01*
X83711786Y-103337542D01*
X83711786Y-103337539D01*
X83657789Y-103183225D01*
X83570808Y-103044796D01*
X83455204Y-102929192D01*
X83417849Y-102905720D01*
X83316774Y-102842210D01*
X83162455Y-102788212D01*
X83000004Y-102769909D01*
X82999996Y-102769909D01*
X82837544Y-102788212D01*
X82683225Y-102842210D01*
X82544795Y-102929192D01*
X82429192Y-103044795D01*
X82342210Y-103183225D01*
X82288212Y-103337544D01*
X82269909Y-103499996D01*
X82269909Y-103500003D01*
X62659860Y-103500003D01*
X62690894Y-103433450D01*
X62748070Y-103220068D01*
X62767323Y-103000000D01*
X62748070Y-102779932D01*
X62690894Y-102566550D01*
X62659863Y-102500003D01*
X69269909Y-102500003D01*
X69288212Y-102662455D01*
X69342210Y-102816774D01*
X69417311Y-102936296D01*
X69429192Y-102955204D01*
X69544796Y-103070808D01*
X69683225Y-103157789D01*
X69837539Y-103211786D01*
X69837542Y-103211786D01*
X69837544Y-103211787D01*
X69999996Y-103230091D01*
X70000000Y-103230091D01*
X70000004Y-103230091D01*
X70162455Y-103211787D01*
X70162456Y-103211786D01*
X70162461Y-103211786D01*
X70316775Y-103157789D01*
X70455204Y-103070808D01*
X70570808Y-102955204D01*
X70657789Y-102816775D01*
X70711786Y-102662461D01*
X70711787Y-102662455D01*
X70730091Y-102500003D01*
X70730091Y-102499996D01*
X70711787Y-102337544D01*
X70711786Y-102337542D01*
X70711786Y-102337539D01*
X70657789Y-102183225D01*
X70570808Y-102044796D01*
X70455204Y-101929192D01*
X70412670Y-101902466D01*
X70316774Y-101842210D01*
X70162455Y-101788212D01*
X70000004Y-101769909D01*
X69999996Y-101769909D01*
X69837544Y-101788212D01*
X69683225Y-101842210D01*
X69544795Y-101929192D01*
X69429192Y-102044795D01*
X69342210Y-102183225D01*
X69288212Y-102337544D01*
X69269909Y-102499996D01*
X69269909Y-102500003D01*
X62659863Y-102500003D01*
X62597534Y-102366339D01*
X62508839Y-102239668D01*
X62470827Y-102185381D01*
X62431545Y-102146099D01*
X62314620Y-102029174D01*
X62314616Y-102029171D01*
X62314615Y-102029170D01*
X62133666Y-101902468D01*
X62133658Y-101902464D01*
X62004811Y-101842382D01*
X61952371Y-101796210D01*
X61933219Y-101729017D01*
X61953435Y-101662135D01*
X62004811Y-101617618D01*
X62049511Y-101596774D01*
X62133662Y-101557534D01*
X62314620Y-101430826D01*
X62470826Y-101274620D01*
X62597534Y-101093662D01*
X62690894Y-100893450D01*
X62748070Y-100680068D01*
X62763823Y-100500003D01*
X78269909Y-100500003D01*
X78288212Y-100662455D01*
X78342210Y-100816774D01*
X78390386Y-100893445D01*
X78429192Y-100955204D01*
X78544796Y-101070808D01*
X78683225Y-101157789D01*
X78837539Y-101211786D01*
X78837542Y-101211786D01*
X78837544Y-101211787D01*
X78999996Y-101230091D01*
X79000000Y-101230091D01*
X79000004Y-101230091D01*
X79162455Y-101211787D01*
X79162456Y-101211786D01*
X79162461Y-101211786D01*
X79316775Y-101157789D01*
X79455204Y-101070808D01*
X79526009Y-101000003D01*
X82769909Y-101000003D01*
X82788212Y-101162455D01*
X82842210Y-101316774D01*
X82913873Y-101430824D01*
X82929192Y-101455204D01*
X83044796Y-101570808D01*
X83183225Y-101657789D01*
X83337539Y-101711786D01*
X83337542Y-101711786D01*
X83337544Y-101711787D01*
X83499996Y-101730091D01*
X83500000Y-101730091D01*
X83500003Y-101730091D01*
X83649667Y-101713228D01*
X83718489Y-101725282D01*
X83769869Y-101772632D01*
X83787493Y-101840242D01*
X83786771Y-101850331D01*
X83769909Y-101999995D01*
X83769909Y-102000003D01*
X83788212Y-102162455D01*
X83842210Y-102316774D01*
X83929192Y-102455204D01*
X84044796Y-102570808D01*
X84183225Y-102657789D01*
X84337539Y-102711786D01*
X84337542Y-102711786D01*
X84337544Y-102711787D01*
X84499996Y-102730091D01*
X84500000Y-102730091D01*
X84500003Y-102730091D01*
X84649667Y-102713228D01*
X84718489Y-102725282D01*
X84769869Y-102772632D01*
X84787493Y-102840242D01*
X84786771Y-102850331D01*
X84769909Y-102999995D01*
X84769909Y-103000003D01*
X84788212Y-103162455D01*
X84842210Y-103316774D01*
X84842211Y-103316775D01*
X84929192Y-103455204D01*
X85044796Y-103570808D01*
X85183225Y-103657789D01*
X85337539Y-103711786D01*
X85337542Y-103711786D01*
X85337544Y-103711787D01*
X85499996Y-103730091D01*
X85500000Y-103730091D01*
X85500004Y-103730091D01*
X85662455Y-103711787D01*
X85662456Y-103711786D01*
X85662461Y-103711786D01*
X85816775Y-103657789D01*
X85955204Y-103570808D01*
X86070808Y-103455204D01*
X86157789Y-103316775D01*
X86211786Y-103162461D01*
X86211787Y-103162455D01*
X86230091Y-103000003D01*
X86230091Y-102999996D01*
X86211787Y-102837544D01*
X86211786Y-102837542D01*
X86211786Y-102837539D01*
X86157789Y-102683225D01*
X86070808Y-102544796D01*
X85955204Y-102429192D01*
X85855176Y-102366340D01*
X85816774Y-102342210D01*
X85662455Y-102288212D01*
X85500004Y-102269909D01*
X85499996Y-102269909D01*
X85350331Y-102286771D01*
X85281509Y-102274716D01*
X85230130Y-102227367D01*
X85212506Y-102159756D01*
X85213228Y-102149667D01*
X85230091Y-102000002D01*
X85230091Y-101999996D01*
X85211787Y-101837544D01*
X85211786Y-101837542D01*
X85211786Y-101837539D01*
X85157789Y-101683225D01*
X85070808Y-101544796D01*
X84955204Y-101429192D01*
X84885214Y-101385214D01*
X84816774Y-101342210D01*
X84711996Y-101305547D01*
X86964364Y-101305547D01*
X86982667Y-101467999D01*
X87036665Y-101622318D01*
X87036666Y-101622319D01*
X87123647Y-101760748D01*
X87239251Y-101876352D01*
X87377680Y-101963333D01*
X87531994Y-102017330D01*
X87531997Y-102017330D01*
X87531999Y-102017331D01*
X87694451Y-102035635D01*
X87694455Y-102035635D01*
X87694459Y-102035635D01*
X87856910Y-102017331D01*
X87856911Y-102017330D01*
X87856916Y-102017330D01*
X87980260Y-101974169D01*
X88050034Y-101970607D01*
X88104711Y-102001191D01*
X88105040Y-102000780D01*
X88107539Y-102002773D01*
X88108892Y-102003530D01*
X88110483Y-102005121D01*
X88248912Y-102092102D01*
X88403226Y-102146099D01*
X88403229Y-102146099D01*
X88403231Y-102146100D01*
X88565683Y-102164404D01*
X88565687Y-102164404D01*
X88565691Y-102164404D01*
X88728142Y-102146100D01*
X88728143Y-102146099D01*
X88728148Y-102146099D01*
X88882462Y-102092102D01*
X89020891Y-102005121D01*
X89026009Y-102000003D01*
X91269909Y-102000003D01*
X91288212Y-102162455D01*
X91342210Y-102316774D01*
X91429192Y-102455204D01*
X91544796Y-102570808D01*
X91683225Y-102657789D01*
X91837539Y-102711786D01*
X91837542Y-102711786D01*
X91837544Y-102711787D01*
X91999996Y-102730091D01*
X92000000Y-102730091D01*
X92000004Y-102730091D01*
X92162455Y-102711787D01*
X92162456Y-102711786D01*
X92162461Y-102711786D01*
X92316775Y-102657789D01*
X92455204Y-102570808D01*
X92526009Y-102500003D01*
X93769909Y-102500003D01*
X93788212Y-102662455D01*
X93842210Y-102816774D01*
X93917311Y-102936296D01*
X93929192Y-102955204D01*
X94044796Y-103070808D01*
X94183225Y-103157789D01*
X94337539Y-103211786D01*
X94337542Y-103211786D01*
X94337544Y-103211787D01*
X94499996Y-103230091D01*
X94500000Y-103230091D01*
X94500004Y-103230091D01*
X94662455Y-103211787D01*
X94662456Y-103211786D01*
X94662461Y-103211786D01*
X94816775Y-103157789D01*
X94955204Y-103070808D01*
X95056250Y-102969762D01*
X98739668Y-102969762D01*
X98757971Y-103132214D01*
X98811969Y-103286533D01*
X98844022Y-103337544D01*
X98898951Y-103424963D01*
X99014555Y-103540567D01*
X99152984Y-103627548D01*
X99307298Y-103681545D01*
X99307301Y-103681545D01*
X99307303Y-103681546D01*
X99469755Y-103699850D01*
X99469759Y-103699850D01*
X99469763Y-103699850D01*
X99632214Y-103681546D01*
X99632215Y-103681545D01*
X99632220Y-103681545D01*
X99786534Y-103627548D01*
X99924963Y-103540567D01*
X99965527Y-103500003D01*
X131269909Y-103500003D01*
X131288212Y-103662455D01*
X131342210Y-103816774D01*
X131342211Y-103816775D01*
X131429192Y-103955204D01*
X131544796Y-104070808D01*
X131683225Y-104157789D01*
X131837539Y-104211786D01*
X131837542Y-104211786D01*
X131837544Y-104211787D01*
X131999996Y-104230091D01*
X132000000Y-104230091D01*
X132000004Y-104230091D01*
X132162455Y-104211787D01*
X132162456Y-104211786D01*
X132162461Y-104211786D01*
X132316775Y-104157789D01*
X132455204Y-104070808D01*
X132570808Y-103955204D01*
X132657789Y-103816775D01*
X132711786Y-103662461D01*
X132711787Y-103662455D01*
X132730091Y-103500003D01*
X132730091Y-103499996D01*
X132711787Y-103337544D01*
X132711786Y-103337542D01*
X132711786Y-103337539D01*
X132657789Y-103183225D01*
X132570808Y-103044796D01*
X132455204Y-102929192D01*
X132417849Y-102905720D01*
X132316774Y-102842210D01*
X132162455Y-102788212D01*
X132000004Y-102769909D01*
X131999996Y-102769909D01*
X131837544Y-102788212D01*
X131683225Y-102842210D01*
X131544795Y-102929192D01*
X131429192Y-103044795D01*
X131342210Y-103183225D01*
X131288212Y-103337544D01*
X131269909Y-103499996D01*
X131269909Y-103500003D01*
X99965527Y-103500003D01*
X100040567Y-103424963D01*
X100127548Y-103286534D01*
X100181545Y-103132220D01*
X100186658Y-103086845D01*
X100199850Y-102969762D01*
X100199850Y-102969755D01*
X100181546Y-102807303D01*
X100181545Y-102807301D01*
X100181545Y-102807298D01*
X100127548Y-102652984D01*
X100040567Y-102514555D01*
X99924963Y-102398951D01*
X99873063Y-102366340D01*
X99786533Y-102311969D01*
X99632214Y-102257971D01*
X99469763Y-102239668D01*
X99469755Y-102239668D01*
X99307303Y-102257971D01*
X99152984Y-102311969D01*
X99014554Y-102398951D01*
X98898951Y-102514554D01*
X98811969Y-102652984D01*
X98757971Y-102807303D01*
X98739668Y-102969755D01*
X98739668Y-102969762D01*
X95056250Y-102969762D01*
X95070808Y-102955204D01*
X95157789Y-102816775D01*
X95211786Y-102662461D01*
X95211787Y-102662455D01*
X95230091Y-102500003D01*
X95230091Y-102499996D01*
X95211787Y-102337544D01*
X95211786Y-102337542D01*
X95211786Y-102337539D01*
X95157789Y-102183225D01*
X95070808Y-102044796D01*
X95026015Y-102000003D01*
X103769909Y-102000003D01*
X103788212Y-102162455D01*
X103842210Y-102316774D01*
X103929192Y-102455204D01*
X104044796Y-102570808D01*
X104183225Y-102657789D01*
X104337539Y-102711786D01*
X104337542Y-102711786D01*
X104337544Y-102711787D01*
X104499996Y-102730091D01*
X104500000Y-102730091D01*
X104500004Y-102730091D01*
X104662455Y-102711787D01*
X104662456Y-102711786D01*
X104662461Y-102711786D01*
X104816775Y-102657789D01*
X104955204Y-102570808D01*
X105070808Y-102455204D01*
X105157789Y-102316775D01*
X105211786Y-102162461D01*
X105213228Y-102149667D01*
X105230091Y-102000003D01*
X105230091Y-101999996D01*
X105211787Y-101837544D01*
X105211786Y-101837542D01*
X105211786Y-101837539D01*
X105157789Y-101683225D01*
X105070808Y-101544796D01*
X104955204Y-101429192D01*
X104885214Y-101385214D01*
X104816774Y-101342210D01*
X104662455Y-101288212D01*
X104500004Y-101269909D01*
X104499996Y-101269909D01*
X104337544Y-101288212D01*
X104183225Y-101342210D01*
X104044795Y-101429192D01*
X103929192Y-101544795D01*
X103842210Y-101683225D01*
X103788212Y-101837544D01*
X103769909Y-101999996D01*
X103769909Y-102000003D01*
X95026015Y-102000003D01*
X94955204Y-101929192D01*
X94912670Y-101902466D01*
X94816774Y-101842210D01*
X94662455Y-101788212D01*
X94500004Y-101769909D01*
X94499996Y-101769909D01*
X94337544Y-101788212D01*
X94183225Y-101842210D01*
X94044795Y-101929192D01*
X93929192Y-102044795D01*
X93842210Y-102183225D01*
X93788212Y-102337544D01*
X93769909Y-102499996D01*
X93769909Y-102500003D01*
X92526009Y-102500003D01*
X92570808Y-102455204D01*
X92657789Y-102316775D01*
X92711786Y-102162461D01*
X92713228Y-102149667D01*
X92730091Y-102000003D01*
X92730091Y-101999996D01*
X92711787Y-101837544D01*
X92711786Y-101837542D01*
X92711786Y-101837539D01*
X92657789Y-101683225D01*
X92570808Y-101544796D01*
X92455204Y-101429192D01*
X92385214Y-101385214D01*
X92316774Y-101342210D01*
X92162455Y-101288212D01*
X92000004Y-101269909D01*
X91999996Y-101269909D01*
X91837544Y-101288212D01*
X91683225Y-101342210D01*
X91544795Y-101429192D01*
X91429192Y-101544795D01*
X91342210Y-101683225D01*
X91288212Y-101837544D01*
X91269909Y-101999996D01*
X91269909Y-102000003D01*
X89026009Y-102000003D01*
X89136495Y-101889517D01*
X89223476Y-101751088D01*
X89277473Y-101596774D01*
X89280399Y-101570807D01*
X89295778Y-101434316D01*
X89295778Y-101434309D01*
X89277474Y-101271857D01*
X89277473Y-101271855D01*
X89277473Y-101271852D01*
X89223476Y-101117538D01*
X89149624Y-101000003D01*
X113604553Y-101000003D01*
X113622856Y-101162455D01*
X113676854Y-101316774D01*
X113748517Y-101430824D01*
X113763836Y-101455204D01*
X113879440Y-101570808D01*
X114017869Y-101657789D01*
X114172183Y-101711786D01*
X114172186Y-101711786D01*
X114172188Y-101711787D01*
X114334640Y-101730091D01*
X114334644Y-101730091D01*
X114334648Y-101730091D01*
X114497099Y-101711787D01*
X114497100Y-101711786D01*
X114497105Y-101711786D01*
X114651419Y-101657789D01*
X114789848Y-101570808D01*
X114905452Y-101455204D01*
X114992433Y-101316775D01*
X115046430Y-101162461D01*
X115046735Y-101159756D01*
X115064735Y-101000003D01*
X120269909Y-101000003D01*
X120288212Y-101162455D01*
X120342210Y-101316774D01*
X120413873Y-101430824D01*
X120429192Y-101455204D01*
X120544796Y-101570808D01*
X120683225Y-101657789D01*
X120837539Y-101711786D01*
X120837542Y-101711786D01*
X120837544Y-101711787D01*
X120999996Y-101730091D01*
X121000000Y-101730091D01*
X121000004Y-101730091D01*
X121162455Y-101711787D01*
X121162456Y-101711786D01*
X121162461Y-101711786D01*
X121316775Y-101657789D01*
X121455204Y-101570808D01*
X121570808Y-101455204D01*
X121657789Y-101316775D01*
X121711786Y-101162461D01*
X121712091Y-101159756D01*
X121730091Y-101000003D01*
X121730091Y-100999996D01*
X121711787Y-100837544D01*
X121711786Y-100837542D01*
X121711786Y-100837539D01*
X121657789Y-100683225D01*
X121570808Y-100544796D01*
X121455204Y-100429192D01*
X121437870Y-100418300D01*
X121316774Y-100342210D01*
X121162455Y-100288212D01*
X121000004Y-100269909D01*
X120999996Y-100269909D01*
X120837544Y-100288212D01*
X120683225Y-100342210D01*
X120544795Y-100429192D01*
X120429192Y-100544795D01*
X120342210Y-100683225D01*
X120288212Y-100837544D01*
X120269909Y-100999996D01*
X120269909Y-101000003D01*
X115064735Y-101000003D01*
X115064735Y-100999996D01*
X115046431Y-100837544D01*
X115046430Y-100837542D01*
X115046430Y-100837539D01*
X114992433Y-100683225D01*
X114905452Y-100544796D01*
X114789848Y-100429192D01*
X114772514Y-100418300D01*
X114651418Y-100342210D01*
X114497099Y-100288212D01*
X114334648Y-100269909D01*
X114334640Y-100269909D01*
X114172188Y-100288212D01*
X114017869Y-100342210D01*
X113879439Y-100429192D01*
X113763836Y-100544795D01*
X113676854Y-100683225D01*
X113622856Y-100837544D01*
X113604553Y-100999996D01*
X113604553Y-101000003D01*
X89149624Y-101000003D01*
X89136495Y-100979109D01*
X89020891Y-100863505D01*
X88999938Y-100850339D01*
X88882461Y-100776523D01*
X88728142Y-100722525D01*
X88565691Y-100704222D01*
X88565683Y-100704222D01*
X88403231Y-100722525D01*
X88279883Y-100765686D01*
X88210104Y-100769247D01*
X88155430Y-100738664D01*
X88155102Y-100739077D01*
X88152598Y-100737080D01*
X88151248Y-100736325D01*
X88149659Y-100734736D01*
X88011229Y-100647754D01*
X87856910Y-100593756D01*
X87694459Y-100575453D01*
X87694451Y-100575453D01*
X87531999Y-100593756D01*
X87377680Y-100647754D01*
X87239250Y-100734736D01*
X87123647Y-100850339D01*
X87036665Y-100988769D01*
X86982667Y-101143088D01*
X86964364Y-101305540D01*
X86964364Y-101305547D01*
X84711996Y-101305547D01*
X84662455Y-101288212D01*
X84500004Y-101269909D01*
X84499996Y-101269909D01*
X84350331Y-101286771D01*
X84281509Y-101274716D01*
X84230130Y-101227367D01*
X84212506Y-101159756D01*
X84213228Y-101149667D01*
X84230091Y-101000002D01*
X84230091Y-100999996D01*
X84211787Y-100837544D01*
X84211786Y-100837542D01*
X84211786Y-100837539D01*
X84157789Y-100683225D01*
X84070808Y-100544796D01*
X83955204Y-100429192D01*
X83857011Y-100367493D01*
X83810721Y-100315159D01*
X83800073Y-100246106D01*
X83828448Y-100182257D01*
X83857010Y-100157507D01*
X83955204Y-100095808D01*
X84070808Y-99980204D01*
X84157789Y-99841775D01*
X84159270Y-99837544D01*
X84166537Y-99816774D01*
X84198687Y-99724894D01*
X84239406Y-99668121D01*
X84304358Y-99642373D01*
X84372920Y-99655829D01*
X84423324Y-99704215D01*
X84432765Y-99724885D01*
X84433110Y-99725871D01*
X84433112Y-99725874D01*
X84520093Y-99864303D01*
X84635697Y-99979907D01*
X84774126Y-100066888D01*
X84928440Y-100120885D01*
X84928443Y-100120885D01*
X84928445Y-100120886D01*
X85090897Y-100139190D01*
X85090901Y-100139190D01*
X85090905Y-100139190D01*
X85253356Y-100120886D01*
X85253357Y-100120885D01*
X85253362Y-100120885D01*
X85407676Y-100066888D01*
X85546105Y-99979907D01*
X85661709Y-99864303D01*
X85748690Y-99725874D01*
X85802687Y-99571560D01*
X85805786Y-99544058D01*
X85810750Y-99500003D01*
X88769909Y-99500003D01*
X88788212Y-99662455D01*
X88842210Y-99816774D01*
X88929192Y-99955204D01*
X89044796Y-100070808D01*
X89183225Y-100157789D01*
X89337539Y-100211786D01*
X89337542Y-100211786D01*
X89337544Y-100211787D01*
X89499996Y-100230091D01*
X89500000Y-100230091D01*
X89500004Y-100230091D01*
X89662455Y-100211787D01*
X89662456Y-100211786D01*
X89662461Y-100211786D01*
X89816775Y-100157789D01*
X89955204Y-100070808D01*
X90070808Y-99955204D01*
X90157789Y-99816775D01*
X90211786Y-99662461D01*
X90211787Y-99662455D01*
X90230091Y-99500003D01*
X96269909Y-99500003D01*
X96288212Y-99662455D01*
X96342210Y-99816774D01*
X96429192Y-99955204D01*
X96544796Y-100070808D01*
X96683225Y-100157789D01*
X96837539Y-100211786D01*
X96837542Y-100211786D01*
X96837544Y-100211787D01*
X96999996Y-100230091D01*
X97000000Y-100230091D01*
X97000004Y-100230091D01*
X97162455Y-100211787D01*
X97162456Y-100211786D01*
X97162461Y-100211786D01*
X97316775Y-100157789D01*
X97455204Y-100070808D01*
X97526009Y-100000003D01*
X121769909Y-100000003D01*
X121788212Y-100162455D01*
X121842210Y-100316774D01*
X121917505Y-100436605D01*
X121929192Y-100455204D01*
X122044796Y-100570808D01*
X122183225Y-100657789D01*
X122337539Y-100711786D01*
X122337542Y-100711786D01*
X122337544Y-100711787D01*
X122499996Y-100730091D01*
X122500000Y-100730091D01*
X122500004Y-100730091D01*
X122662455Y-100711787D01*
X122662456Y-100711786D01*
X122662461Y-100711786D01*
X122816775Y-100657789D01*
X122955204Y-100570808D01*
X123026009Y-100500003D01*
X125769909Y-100500003D01*
X125788212Y-100662455D01*
X125842210Y-100816774D01*
X125890386Y-100893445D01*
X125929192Y-100955204D01*
X126044796Y-101070808D01*
X126183225Y-101157789D01*
X126337539Y-101211786D01*
X126337542Y-101211786D01*
X126337544Y-101211787D01*
X126499996Y-101230091D01*
X126500000Y-101230091D01*
X126500004Y-101230091D01*
X126662455Y-101211787D01*
X126662456Y-101211786D01*
X126662461Y-101211786D01*
X126816775Y-101157789D01*
X126955204Y-101070808D01*
X127070808Y-100955204D01*
X127157789Y-100816775D01*
X127211786Y-100662461D01*
X127211787Y-100662455D01*
X127230091Y-100500003D01*
X127230091Y-100499996D01*
X127211787Y-100337544D01*
X127211786Y-100337542D01*
X127211786Y-100337539D01*
X127157789Y-100183225D01*
X127070808Y-100044796D01*
X126955204Y-99929192D01*
X126859360Y-99868969D01*
X126816774Y-99842210D01*
X126662455Y-99788212D01*
X126500004Y-99769909D01*
X126499996Y-99769909D01*
X126337544Y-99788212D01*
X126183225Y-99842210D01*
X126044795Y-99929192D01*
X125929192Y-100044795D01*
X125842210Y-100183225D01*
X125788212Y-100337544D01*
X125769909Y-100499996D01*
X125769909Y-100500003D01*
X123026009Y-100500003D01*
X123070808Y-100455204D01*
X123157789Y-100316775D01*
X123211786Y-100162461D01*
X123211870Y-100161718D01*
X123230091Y-100000003D01*
X123230091Y-99999996D01*
X123211787Y-99837544D01*
X123211786Y-99837542D01*
X123211786Y-99837539D01*
X123181156Y-99750003D01*
X128019909Y-99750003D01*
X128038212Y-99912455D01*
X128092210Y-100066774D01*
X128149221Y-100157506D01*
X128179192Y-100205204D01*
X128294796Y-100320808D01*
X128433225Y-100407789D01*
X128587539Y-100461786D01*
X128587542Y-100461786D01*
X128587544Y-100461787D01*
X128749996Y-100480091D01*
X128750000Y-100480091D01*
X128750004Y-100480091D01*
X128912455Y-100461787D01*
X128912456Y-100461786D01*
X128912461Y-100461786D01*
X129066775Y-100407789D01*
X129205204Y-100320808D01*
X129320808Y-100205204D01*
X129407789Y-100066775D01*
X129461786Y-99912461D01*
X129466686Y-99868975D01*
X129480091Y-99750003D01*
X129480091Y-99749996D01*
X129461787Y-99587544D01*
X129461786Y-99587542D01*
X129461786Y-99587539D01*
X129407789Y-99433225D01*
X129320808Y-99294796D01*
X129205204Y-99179192D01*
X129177514Y-99161793D01*
X129066774Y-99092210D01*
X128912455Y-99038212D01*
X128750004Y-99019909D01*
X128749996Y-99019909D01*
X128587544Y-99038212D01*
X128433225Y-99092210D01*
X128294795Y-99179192D01*
X128179192Y-99294795D01*
X128092210Y-99433225D01*
X128038212Y-99587544D01*
X128019909Y-99749996D01*
X128019909Y-99750003D01*
X123181156Y-99750003D01*
X123157789Y-99683225D01*
X123070808Y-99544796D01*
X122955204Y-99429192D01*
X122829698Y-99350331D01*
X122816774Y-99342210D01*
X122662455Y-99288212D01*
X122500004Y-99269909D01*
X122499996Y-99269909D01*
X122337544Y-99288212D01*
X122183225Y-99342210D01*
X122044795Y-99429192D01*
X121929192Y-99544795D01*
X121842210Y-99683225D01*
X121788212Y-99837544D01*
X121769909Y-99999996D01*
X121769909Y-100000003D01*
X97526009Y-100000003D01*
X97570808Y-99955204D01*
X97657789Y-99816775D01*
X97711786Y-99662461D01*
X97711787Y-99662455D01*
X97730091Y-99500003D01*
X97730091Y-99499996D01*
X97713228Y-99350331D01*
X97725283Y-99281510D01*
X97772632Y-99230130D01*
X97840242Y-99212506D01*
X97850331Y-99213228D01*
X97999996Y-99230091D01*
X98000000Y-99230091D01*
X98000004Y-99230091D01*
X98162455Y-99211787D01*
X98162456Y-99211786D01*
X98162461Y-99211786D01*
X98316775Y-99157789D01*
X98455204Y-99070808D01*
X98570808Y-98955204D01*
X98657789Y-98816775D01*
X98711786Y-98662461D01*
X98711787Y-98662455D01*
X98730091Y-98500003D01*
X111996218Y-98500003D01*
X112014521Y-98662455D01*
X112068519Y-98816774D01*
X112154678Y-98953894D01*
X112155501Y-98955204D01*
X112271105Y-99070808D01*
X112409534Y-99157789D01*
X112563848Y-99211786D01*
X112563851Y-99211786D01*
X112563853Y-99211787D01*
X112726305Y-99230091D01*
X112726309Y-99230091D01*
X112726313Y-99230091D01*
X112888764Y-99211787D01*
X112888765Y-99211786D01*
X112888770Y-99211786D01*
X113043084Y-99157789D01*
X113181513Y-99070808D01*
X113297117Y-98955204D01*
X113384098Y-98816775D01*
X113438095Y-98662461D01*
X113438096Y-98662455D01*
X113456400Y-98500003D01*
X113456400Y-98499996D01*
X113438096Y-98337544D01*
X113438095Y-98337542D01*
X113438095Y-98337539D01*
X113384098Y-98183225D01*
X113297117Y-98044796D01*
X113181513Y-97929192D01*
X113043083Y-97842210D01*
X112888764Y-97788212D01*
X112726313Y-97769909D01*
X112726305Y-97769909D01*
X112563853Y-97788212D01*
X112409534Y-97842210D01*
X112271104Y-97929192D01*
X112155501Y-98044795D01*
X112068519Y-98183225D01*
X112014521Y-98337544D01*
X111996218Y-98499996D01*
X111996218Y-98500003D01*
X98730091Y-98500003D01*
X98730091Y-98499996D01*
X98711787Y-98337544D01*
X98711786Y-98337542D01*
X98711786Y-98337539D01*
X98657789Y-98183225D01*
X98570808Y-98044796D01*
X98455204Y-97929192D01*
X98316774Y-97842210D01*
X98162455Y-97788212D01*
X98000004Y-97769909D01*
X97999996Y-97769909D01*
X97837544Y-97788212D01*
X97683225Y-97842210D01*
X97544795Y-97929192D01*
X97429192Y-98044795D01*
X97342210Y-98183225D01*
X97288212Y-98337544D01*
X97269909Y-98499996D01*
X97269909Y-98500004D01*
X97286771Y-98649668D01*
X97274716Y-98718490D01*
X97227367Y-98769869D01*
X97159756Y-98787493D01*
X97149668Y-98786771D01*
X97000004Y-98769909D01*
X96999996Y-98769909D01*
X96837544Y-98788212D01*
X96683225Y-98842210D01*
X96544795Y-98929192D01*
X96429192Y-99044795D01*
X96342210Y-99183225D01*
X96288212Y-99337544D01*
X96269909Y-99499996D01*
X96269909Y-99500003D01*
X90230091Y-99500003D01*
X90230091Y-99499996D01*
X90211787Y-99337544D01*
X90211786Y-99337542D01*
X90211786Y-99337539D01*
X90157789Y-99183225D01*
X90070808Y-99044796D01*
X89955204Y-98929192D01*
X89885214Y-98885214D01*
X89816774Y-98842210D01*
X89662455Y-98788212D01*
X89500004Y-98769909D01*
X89499996Y-98769909D01*
X89337544Y-98788212D01*
X89183225Y-98842210D01*
X89044795Y-98929192D01*
X88929192Y-99044795D01*
X88842210Y-99183225D01*
X88788212Y-99337544D01*
X88769909Y-99499996D01*
X88769909Y-99500003D01*
X85810750Y-99500003D01*
X85820992Y-99409102D01*
X85820992Y-99409095D01*
X85802688Y-99246643D01*
X85802687Y-99246641D01*
X85802687Y-99246638D01*
X85748690Y-99092324D01*
X85661709Y-98953895D01*
X85546105Y-98838291D01*
X85477063Y-98794909D01*
X85407675Y-98751309D01*
X85253356Y-98697311D01*
X85090905Y-98679008D01*
X85090897Y-98679008D01*
X84928445Y-98697311D01*
X84774126Y-98751309D01*
X84635696Y-98838291D01*
X84520093Y-98953894D01*
X84433111Y-99092324D01*
X84402715Y-99179192D01*
X84392557Y-99208225D01*
X84392215Y-99209201D01*
X84351493Y-99265977D01*
X84286541Y-99291725D01*
X84217979Y-99278269D01*
X84167576Y-99229882D01*
X84158132Y-99209204D01*
X84157789Y-99208225D01*
X84070808Y-99069796D01*
X83955204Y-98954192D01*
X83845427Y-98885214D01*
X83816774Y-98867210D01*
X83662455Y-98813212D01*
X83500004Y-98794909D01*
X83499996Y-98794909D01*
X83337544Y-98813212D01*
X83183225Y-98867210D01*
X83044795Y-98954192D01*
X82929192Y-99069795D01*
X82842210Y-99208225D01*
X82788212Y-99362544D01*
X82769909Y-99524996D01*
X82769909Y-99525003D01*
X82788212Y-99687455D01*
X82788213Y-99687460D01*
X82788214Y-99687461D01*
X82794880Y-99706510D01*
X82842210Y-99841774D01*
X82929192Y-99980204D01*
X83044797Y-100095809D01*
X83142988Y-100157507D01*
X83189278Y-100209841D01*
X83199926Y-100278895D01*
X83171551Y-100342743D01*
X83142988Y-100367493D01*
X83044797Y-100429190D01*
X82929192Y-100544795D01*
X82842210Y-100683225D01*
X82788212Y-100837544D01*
X82769909Y-100999996D01*
X82769909Y-101000003D01*
X79526009Y-101000003D01*
X79570808Y-100955204D01*
X79657789Y-100816775D01*
X79711786Y-100662461D01*
X79711787Y-100662455D01*
X79730091Y-100500003D01*
X79730091Y-100499996D01*
X79711787Y-100337544D01*
X79711786Y-100337542D01*
X79711786Y-100337539D01*
X79657789Y-100183225D01*
X79570808Y-100044796D01*
X79455204Y-99929192D01*
X79359360Y-99868969D01*
X79316774Y-99842210D01*
X79162455Y-99788212D01*
X79000004Y-99769909D01*
X78999996Y-99769909D01*
X78837544Y-99788212D01*
X78683225Y-99842210D01*
X78544795Y-99929192D01*
X78429192Y-100044795D01*
X78342210Y-100183225D01*
X78288212Y-100337544D01*
X78269909Y-100499996D01*
X78269909Y-100500003D01*
X62763823Y-100500003D01*
X62767323Y-100460000D01*
X62766903Y-100455204D01*
X62758165Y-100355317D01*
X62748070Y-100239932D01*
X62690894Y-100026550D01*
X62597534Y-99826339D01*
X62513634Y-99706517D01*
X68976423Y-99706517D01*
X68994726Y-99868969D01*
X69048724Y-100023288D01*
X69078583Y-100070808D01*
X69135706Y-100161718D01*
X69251310Y-100277322D01*
X69389739Y-100364303D01*
X69544053Y-100418300D01*
X69544056Y-100418300D01*
X69544058Y-100418301D01*
X69706510Y-100436605D01*
X69706514Y-100436605D01*
X69706518Y-100436605D01*
X69868969Y-100418301D01*
X69868970Y-100418300D01*
X69868975Y-100418300D01*
X70023289Y-100364303D01*
X70161718Y-100277322D01*
X70277322Y-100161718D01*
X70332890Y-100073282D01*
X70385222Y-100026993D01*
X70454276Y-100016344D01*
X70518124Y-100044719D01*
X70525563Y-100051575D01*
X70544796Y-100070808D01*
X70683225Y-100157789D01*
X70837539Y-100211786D01*
X70837542Y-100211786D01*
X70837544Y-100211787D01*
X70999996Y-100230091D01*
X71000000Y-100230091D01*
X71000004Y-100230091D01*
X71162455Y-100211787D01*
X71162456Y-100211786D01*
X71162461Y-100211786D01*
X71316775Y-100157789D01*
X71455204Y-100070808D01*
X71570808Y-99955204D01*
X71657789Y-99816775D01*
X71711786Y-99662461D01*
X71711787Y-99662455D01*
X71730091Y-99500003D01*
X71730091Y-99499996D01*
X71711787Y-99337544D01*
X71711786Y-99337542D01*
X71711786Y-99337539D01*
X71657789Y-99183225D01*
X71570808Y-99044796D01*
X71455204Y-98929192D01*
X71385214Y-98885214D01*
X71316774Y-98842210D01*
X71162455Y-98788212D01*
X71000004Y-98769909D01*
X70999996Y-98769909D01*
X70837544Y-98788212D01*
X70683225Y-98842210D01*
X70544795Y-98929192D01*
X70429192Y-99044795D01*
X70429192Y-99044796D01*
X70373624Y-99133230D01*
X70321289Y-99179521D01*
X70252236Y-99190168D01*
X70188388Y-99161793D01*
X70180950Y-99154938D01*
X70161718Y-99135706D01*
X70023288Y-99048724D01*
X69868969Y-98994726D01*
X69706518Y-98976423D01*
X69706510Y-98976423D01*
X69544058Y-98994726D01*
X69389739Y-99048724D01*
X69251309Y-99135706D01*
X69135706Y-99251309D01*
X69048724Y-99389739D01*
X68994726Y-99544058D01*
X68976423Y-99706510D01*
X68976423Y-99706517D01*
X62513634Y-99706517D01*
X62513629Y-99706510D01*
X62470827Y-99645381D01*
X62397000Y-99571554D01*
X62314620Y-99489174D01*
X62314616Y-99489171D01*
X62314615Y-99489170D01*
X62133666Y-99362468D01*
X62133662Y-99362466D01*
X62090225Y-99342211D01*
X61933450Y-99269106D01*
X61933447Y-99269105D01*
X61933445Y-99269104D01*
X61720070Y-99211930D01*
X61720062Y-99211929D01*
X61500002Y-99192677D01*
X61499998Y-99192677D01*
X61279937Y-99211929D01*
X61279929Y-99211930D01*
X61066554Y-99269104D01*
X61066548Y-99269107D01*
X60866340Y-99362465D01*
X60866338Y-99362466D01*
X60685377Y-99489175D01*
X60529175Y-99645377D01*
X60402466Y-99826338D01*
X60402465Y-99826340D01*
X60309107Y-100026548D01*
X60309104Y-100026554D01*
X60251930Y-100239929D01*
X60251929Y-100239937D01*
X60247528Y-100290248D01*
X60222076Y-100355317D01*
X60165485Y-100396296D01*
X60095723Y-100400174D01*
X60034939Y-100365720D01*
X60002431Y-100303873D01*
X60000000Y-100279441D01*
X60000000Y-97500003D01*
X77769909Y-97500003D01*
X77788212Y-97662455D01*
X77842210Y-97816774D01*
X77929192Y-97955204D01*
X78044796Y-98070808D01*
X78183225Y-98157789D01*
X78337539Y-98211786D01*
X78337542Y-98211786D01*
X78337544Y-98211787D01*
X78499996Y-98230091D01*
X78500000Y-98230091D01*
X78500004Y-98230091D01*
X78662455Y-98211787D01*
X78662456Y-98211786D01*
X78662461Y-98211786D01*
X78816775Y-98157789D01*
X78955204Y-98070808D01*
X79070808Y-97955204D01*
X79157789Y-97816775D01*
X79169172Y-97784242D01*
X79209891Y-97727469D01*
X79274843Y-97701720D01*
X79327168Y-97708157D01*
X79337542Y-97711787D01*
X79499996Y-97730091D01*
X79500000Y-97730091D01*
X79500004Y-97730091D01*
X79662455Y-97711787D01*
X79662456Y-97711786D01*
X79662461Y-97711786D01*
X79816775Y-97657789D01*
X79955204Y-97570808D01*
X80070808Y-97455204D01*
X80157789Y-97316775D01*
X80211786Y-97162461D01*
X80211787Y-97162455D01*
X80230091Y-97000003D01*
X80230091Y-96999996D01*
X80211787Y-96837544D01*
X80211786Y-96837542D01*
X80211786Y-96837539D01*
X80157789Y-96683225D01*
X80070808Y-96544796D01*
X80001015Y-96475003D01*
X80769909Y-96475003D01*
X80788212Y-96637455D01*
X80842210Y-96791774D01*
X80873902Y-96842211D01*
X80929192Y-96930204D01*
X81044796Y-97045808D01*
X81183225Y-97132789D01*
X81337539Y-97186786D01*
X81337542Y-97186786D01*
X81337544Y-97186787D01*
X81499996Y-97205091D01*
X81500000Y-97205091D01*
X81500004Y-97205091D01*
X81662455Y-97186787D01*
X81662456Y-97186786D01*
X81662461Y-97186786D01*
X81816775Y-97132789D01*
X81955204Y-97045808D01*
X82070808Y-96930204D01*
X82157789Y-96791775D01*
X82176965Y-96736970D01*
X82217686Y-96680196D01*
X82282638Y-96654447D01*
X82330728Y-96660363D01*
X82330757Y-96660238D01*
X82331984Y-96660518D01*
X82334963Y-96660884D01*
X82337539Y-96661786D01*
X82337542Y-96661786D01*
X82337544Y-96661787D01*
X82337542Y-96661787D01*
X82499996Y-96680091D01*
X82500000Y-96680091D01*
X82500004Y-96680091D01*
X82662455Y-96661787D01*
X82662456Y-96661786D01*
X82662461Y-96661786D01*
X82816775Y-96607789D01*
X82955204Y-96520808D01*
X83070808Y-96405204D01*
X83157789Y-96266775D01*
X83211786Y-96112461D01*
X83211787Y-96112455D01*
X83230091Y-95950003D01*
X83769909Y-95950003D01*
X83788212Y-96112455D01*
X83842210Y-96266774D01*
X83886675Y-96337539D01*
X83929192Y-96405204D01*
X84044796Y-96520808D01*
X84183225Y-96607789D01*
X84337539Y-96661786D01*
X84337542Y-96661786D01*
X84337544Y-96661787D01*
X84499996Y-96680091D01*
X84500000Y-96680091D01*
X84500004Y-96680091D01*
X84662455Y-96661787D01*
X84662456Y-96661786D01*
X84662461Y-96661786D01*
X84816775Y-96607789D01*
X84955204Y-96520808D01*
X84976009Y-96500003D01*
X95269909Y-96500003D01*
X95288212Y-96662455D01*
X95342210Y-96816774D01*
X95413483Y-96930204D01*
X95429192Y-96955204D01*
X95544796Y-97070808D01*
X95683225Y-97157789D01*
X95837539Y-97211786D01*
X95837542Y-97211786D01*
X95837544Y-97211787D01*
X95999996Y-97230091D01*
X96000000Y-97230091D01*
X96000004Y-97230091D01*
X96162455Y-97211787D01*
X96162456Y-97211786D01*
X96162461Y-97211786D01*
X96316775Y-97157789D01*
X96455204Y-97070808D01*
X96570808Y-96955204D01*
X96657789Y-96816775D01*
X96711786Y-96662461D01*
X96712005Y-96660518D01*
X96730091Y-96500003D01*
X101769909Y-96500003D01*
X101788212Y-96662455D01*
X101842210Y-96816774D01*
X101913483Y-96930204D01*
X101929192Y-96955204D01*
X102044796Y-97070808D01*
X102183225Y-97157789D01*
X102337539Y-97211786D01*
X102337542Y-97211786D01*
X102337544Y-97211787D01*
X102499996Y-97230091D01*
X102500000Y-97230091D01*
X102500003Y-97230091D01*
X102649667Y-97213228D01*
X102718489Y-97225282D01*
X102769869Y-97272632D01*
X102787493Y-97340242D01*
X102786771Y-97350331D01*
X102769909Y-97499995D01*
X102769909Y-97500003D01*
X102788212Y-97662455D01*
X102842210Y-97816774D01*
X102929192Y-97955204D01*
X103044796Y-98070808D01*
X103183225Y-98157789D01*
X103337539Y-98211786D01*
X103337542Y-98211786D01*
X103337544Y-98211787D01*
X103499996Y-98230091D01*
X103500000Y-98230091D01*
X103500004Y-98230091D01*
X103662455Y-98211787D01*
X103662456Y-98211786D01*
X103662461Y-98211786D01*
X103816775Y-98157789D01*
X103934028Y-98084113D01*
X104001264Y-98065113D01*
X104065971Y-98084113D01*
X104183225Y-98157789D01*
X104337539Y-98211786D01*
X104337542Y-98211786D01*
X104337544Y-98211787D01*
X104499996Y-98230091D01*
X104500000Y-98230091D01*
X104500004Y-98230091D01*
X104662455Y-98211787D01*
X104662456Y-98211786D01*
X104662461Y-98211786D01*
X104816775Y-98157789D01*
X104934028Y-98084113D01*
X105001264Y-98065113D01*
X105065971Y-98084113D01*
X105183225Y-98157789D01*
X105337539Y-98211786D01*
X105337542Y-98211786D01*
X105337544Y-98211787D01*
X105499996Y-98230091D01*
X105500000Y-98230091D01*
X105500004Y-98230091D01*
X105662457Y-98211787D01*
X105662459Y-98211786D01*
X105662461Y-98211786D01*
X105816775Y-98157789D01*
X105859026Y-98131240D01*
X105926260Y-98112240D01*
X105990969Y-98131240D01*
X105990971Y-98131241D01*
X106033222Y-98157789D01*
X106187536Y-98211786D01*
X106187539Y-98211786D01*
X106187541Y-98211787D01*
X106349993Y-98230091D01*
X106349997Y-98230091D01*
X106350001Y-98230091D01*
X106512454Y-98211787D01*
X106512456Y-98211786D01*
X106512458Y-98211786D01*
X106634044Y-98169240D01*
X106703822Y-98165679D01*
X106715953Y-98169241D01*
X106837542Y-98211787D01*
X106999996Y-98230091D01*
X107000000Y-98230091D01*
X107000004Y-98230091D01*
X107162455Y-98211787D01*
X107162456Y-98211786D01*
X107162461Y-98211786D01*
X107316775Y-98157789D01*
X107455204Y-98070808D01*
X107570808Y-97955204D01*
X107657789Y-97816775D01*
X107711786Y-97662461D01*
X107711787Y-97662455D01*
X107730091Y-97500003D01*
X107730091Y-97499996D01*
X107711787Y-97337544D01*
X107711786Y-97337542D01*
X107711786Y-97337539D01*
X107657789Y-97183225D01*
X107570808Y-97044796D01*
X107455204Y-96929192D01*
X107424998Y-96910212D01*
X107401247Y-96895288D01*
X133269909Y-96895288D01*
X133288212Y-97057740D01*
X133342210Y-97212059D01*
X133380271Y-97272632D01*
X133429192Y-97350489D01*
X133544796Y-97466093D01*
X133683225Y-97553074D01*
X133837539Y-97607071D01*
X133837542Y-97607071D01*
X133837544Y-97607072D01*
X133999996Y-97625376D01*
X134000000Y-97625376D01*
X134000004Y-97625376D01*
X134162455Y-97607072D01*
X134162456Y-97607071D01*
X134162461Y-97607071D01*
X134316775Y-97553074D01*
X134455204Y-97466093D01*
X134570808Y-97350489D01*
X134657789Y-97212060D01*
X134711786Y-97057746D01*
X134713131Y-97045808D01*
X134730091Y-96895288D01*
X134730091Y-96895281D01*
X134711787Y-96732829D01*
X134711786Y-96732827D01*
X134711786Y-96732824D01*
X134657789Y-96578510D01*
X134570808Y-96440081D01*
X134455204Y-96324477D01*
X134363371Y-96266774D01*
X134316774Y-96237495D01*
X134162455Y-96183497D01*
X134000004Y-96165194D01*
X133999996Y-96165194D01*
X133837544Y-96183497D01*
X133683225Y-96237495D01*
X133544795Y-96324477D01*
X133429192Y-96440080D01*
X133342210Y-96578510D01*
X133288212Y-96732829D01*
X133269909Y-96895281D01*
X133269909Y-96895288D01*
X107401247Y-96895288D01*
X107316774Y-96842210D01*
X107162455Y-96788212D01*
X107000004Y-96769909D01*
X106999996Y-96769909D01*
X106837544Y-96788212D01*
X106715951Y-96830759D01*
X106646172Y-96834320D01*
X106634055Y-96830762D01*
X106512458Y-96788214D01*
X106512454Y-96788213D01*
X106512450Y-96788212D01*
X106350001Y-96769909D01*
X106349993Y-96769909D01*
X106187541Y-96788212D01*
X106033221Y-96842211D01*
X105990968Y-96868760D01*
X105923731Y-96887759D01*
X105859026Y-96868759D01*
X105816774Y-96842210D01*
X105662455Y-96788212D01*
X105500004Y-96769909D01*
X105499996Y-96769909D01*
X105337544Y-96788212D01*
X105183225Y-96842210D01*
X105065972Y-96915886D01*
X104998735Y-96934886D01*
X104934028Y-96915886D01*
X104816774Y-96842210D01*
X104662455Y-96788212D01*
X104500004Y-96769909D01*
X104499996Y-96769909D01*
X104337544Y-96788212D01*
X104183225Y-96842210D01*
X104065972Y-96915886D01*
X103998735Y-96934886D01*
X103934028Y-96915886D01*
X103816774Y-96842210D01*
X103662455Y-96788212D01*
X103500004Y-96769909D01*
X103499996Y-96769909D01*
X103350331Y-96786771D01*
X103281509Y-96774716D01*
X103230130Y-96727367D01*
X103212506Y-96659756D01*
X103213228Y-96649667D01*
X103230091Y-96500002D01*
X103230091Y-96499996D01*
X103211787Y-96337544D01*
X103211786Y-96337542D01*
X103211786Y-96337539D01*
X103157789Y-96183225D01*
X103070808Y-96044796D01*
X102955204Y-95929192D01*
X102915417Y-95904192D01*
X102816774Y-95842210D01*
X102662455Y-95788212D01*
X102500004Y-95769909D01*
X102499996Y-95769909D01*
X102337544Y-95788212D01*
X102183225Y-95842210D01*
X102044795Y-95929192D01*
X101929192Y-96044795D01*
X101842210Y-96183225D01*
X101788212Y-96337544D01*
X101769909Y-96499996D01*
X101769909Y-96500003D01*
X96730091Y-96500003D01*
X96730091Y-96499996D01*
X96711787Y-96337544D01*
X96711786Y-96337542D01*
X96711786Y-96337539D01*
X96657789Y-96183225D01*
X96570808Y-96044796D01*
X96455204Y-95929192D01*
X96415417Y-95904192D01*
X96316774Y-95842210D01*
X96162455Y-95788212D01*
X96000004Y-95769909D01*
X95999996Y-95769909D01*
X95837544Y-95788212D01*
X95683225Y-95842210D01*
X95544795Y-95929192D01*
X95429192Y-96044795D01*
X95342210Y-96183225D01*
X95288212Y-96337544D01*
X95269909Y-96499996D01*
X95269909Y-96500003D01*
X84976009Y-96500003D01*
X85070808Y-96405204D01*
X85157789Y-96266775D01*
X85211786Y-96112461D01*
X85211787Y-96112455D01*
X85230091Y-95950003D01*
X85230091Y-95949996D01*
X85211787Y-95787544D01*
X85211786Y-95787542D01*
X85211786Y-95787539D01*
X85157789Y-95633225D01*
X85070808Y-95494796D01*
X84955204Y-95379192D01*
X84888914Y-95337539D01*
X84816774Y-95292210D01*
X84662455Y-95238212D01*
X84500004Y-95219909D01*
X84499996Y-95219909D01*
X84337544Y-95238212D01*
X84183225Y-95292210D01*
X84044795Y-95379192D01*
X83929192Y-95494795D01*
X83842210Y-95633225D01*
X83788212Y-95787544D01*
X83769909Y-95949996D01*
X83769909Y-95950003D01*
X83230091Y-95950003D01*
X83230091Y-95949996D01*
X83211787Y-95787544D01*
X83211786Y-95787542D01*
X83211786Y-95787539D01*
X83157789Y-95633225D01*
X83070808Y-95494796D01*
X82955204Y-95379192D01*
X82888914Y-95337539D01*
X82816774Y-95292210D01*
X82662455Y-95238212D01*
X82500004Y-95219909D01*
X82499996Y-95219909D01*
X82337544Y-95238212D01*
X82183225Y-95292210D01*
X82044795Y-95379192D01*
X81929192Y-95494795D01*
X81842209Y-95633226D01*
X81823033Y-95688029D01*
X81782311Y-95744804D01*
X81717358Y-95770551D01*
X81669281Y-95764637D01*
X81669253Y-95764764D01*
X81668017Y-95764481D01*
X81665042Y-95764116D01*
X81662468Y-95763215D01*
X81662455Y-95763212D01*
X81500004Y-95744909D01*
X81499996Y-95744909D01*
X81337544Y-95763212D01*
X81183225Y-95817210D01*
X81044795Y-95904192D01*
X80929192Y-96019795D01*
X80842210Y-96158225D01*
X80788212Y-96312544D01*
X80769909Y-96474996D01*
X80769909Y-96475003D01*
X80001015Y-96475003D01*
X79955204Y-96429192D01*
X79816774Y-96342210D01*
X79662455Y-96288212D01*
X79500004Y-96269909D01*
X79499996Y-96269909D01*
X79337544Y-96288212D01*
X79183225Y-96342210D01*
X79044795Y-96429192D01*
X78929192Y-96544795D01*
X78842212Y-96683222D01*
X78830827Y-96715758D01*
X78790104Y-96772533D01*
X78725151Y-96798279D01*
X78672831Y-96791842D01*
X78662460Y-96788213D01*
X78500004Y-96769909D01*
X78499996Y-96769909D01*
X78337544Y-96788212D01*
X78183225Y-96842210D01*
X78044795Y-96929192D01*
X77929192Y-97044795D01*
X77842210Y-97183225D01*
X77788212Y-97337544D01*
X77769909Y-97499996D01*
X77769909Y-97500003D01*
X60000000Y-97500003D01*
X60000000Y-95500003D01*
X63769909Y-95500003D01*
X63788212Y-95662455D01*
X63842210Y-95816774D01*
X63925920Y-95949996D01*
X63929192Y-95955204D01*
X64044796Y-96070808D01*
X64183225Y-96157789D01*
X64337539Y-96211786D01*
X64337542Y-96211786D01*
X64337544Y-96211787D01*
X64499996Y-96230091D01*
X64500000Y-96230091D01*
X64500004Y-96230091D01*
X64662455Y-96211787D01*
X64662456Y-96211786D01*
X64662461Y-96211786D01*
X64816775Y-96157789D01*
X64955204Y-96070808D01*
X65070808Y-95955204D01*
X65145006Y-95837119D01*
X65197341Y-95790828D01*
X65266395Y-95780180D01*
X65330243Y-95808555D01*
X65354994Y-95837119D01*
X65429192Y-95955204D01*
X65544796Y-96070808D01*
X65683225Y-96157789D01*
X65837539Y-96211786D01*
X65837542Y-96211786D01*
X65837544Y-96211787D01*
X65999996Y-96230091D01*
X66000000Y-96230091D01*
X66000004Y-96230091D01*
X66162455Y-96211787D01*
X66162456Y-96211786D01*
X66162461Y-96211786D01*
X66316775Y-96157789D01*
X66455204Y-96070808D01*
X66570808Y-95955204D01*
X66657789Y-95816775D01*
X66711786Y-95662461D01*
X66711787Y-95662455D01*
X66730091Y-95500003D01*
X66730091Y-95499996D01*
X66711787Y-95337544D01*
X66711786Y-95337542D01*
X66711786Y-95337539D01*
X66657789Y-95183225D01*
X66570808Y-95044796D01*
X66526015Y-95000003D01*
X85269909Y-95000003D01*
X85288212Y-95162455D01*
X85342210Y-95316774D01*
X85342211Y-95316775D01*
X85429192Y-95455204D01*
X85544796Y-95570808D01*
X85683225Y-95657789D01*
X85837539Y-95711786D01*
X85837542Y-95711786D01*
X85837544Y-95711787D01*
X85999996Y-95730091D01*
X86000000Y-95730091D01*
X86000004Y-95730091D01*
X86162455Y-95711787D01*
X86162456Y-95711786D01*
X86162461Y-95711786D01*
X86316775Y-95657789D01*
X86455204Y-95570808D01*
X86570808Y-95455204D01*
X86657789Y-95316775D01*
X86711786Y-95162461D01*
X86711787Y-95162455D01*
X86730091Y-95000003D01*
X86730091Y-94999996D01*
X86711787Y-94837544D01*
X86711786Y-94837542D01*
X86711786Y-94837539D01*
X86657789Y-94683225D01*
X86570808Y-94544796D01*
X86455204Y-94429192D01*
X86329698Y-94350331D01*
X86316774Y-94342210D01*
X86162455Y-94288212D01*
X86000004Y-94269909D01*
X85999996Y-94269909D01*
X85837544Y-94288212D01*
X85683225Y-94342210D01*
X85544795Y-94429192D01*
X85429192Y-94544795D01*
X85342210Y-94683225D01*
X85288212Y-94837544D01*
X85269909Y-94999996D01*
X85269909Y-95000003D01*
X66526015Y-95000003D01*
X66455204Y-94929192D01*
X66316774Y-94842210D01*
X66162455Y-94788212D01*
X66000004Y-94769909D01*
X65999996Y-94769909D01*
X65837544Y-94788212D01*
X65683225Y-94842210D01*
X65544795Y-94929192D01*
X65429190Y-95044797D01*
X65354993Y-95162881D01*
X65302658Y-95209171D01*
X65233605Y-95219819D01*
X65169757Y-95191444D01*
X65145007Y-95162881D01*
X65070809Y-95044797D01*
X64955204Y-94929192D01*
X64816774Y-94842210D01*
X64662455Y-94788212D01*
X64500004Y-94769909D01*
X64499996Y-94769909D01*
X64337544Y-94788212D01*
X64183225Y-94842210D01*
X64044795Y-94929192D01*
X63929192Y-95044795D01*
X63842210Y-95183225D01*
X63788212Y-95337544D01*
X63769909Y-95499996D01*
X63769909Y-95500003D01*
X60000000Y-95500003D01*
X60000000Y-93500003D01*
X90269909Y-93500003D01*
X90288212Y-93662455D01*
X90342210Y-93816774D01*
X90429192Y-93955204D01*
X90544796Y-94070808D01*
X90683225Y-94157789D01*
X90837539Y-94211786D01*
X90837542Y-94211786D01*
X90837544Y-94211787D01*
X90999996Y-94230091D01*
X91000000Y-94230091D01*
X91000003Y-94230091D01*
X91149667Y-94213228D01*
X91218489Y-94225282D01*
X91269869Y-94272632D01*
X91287493Y-94340242D01*
X91286771Y-94350331D01*
X91269909Y-94499995D01*
X91269909Y-94500003D01*
X91288212Y-94662455D01*
X91342210Y-94816774D01*
X91429192Y-94955204D01*
X91544796Y-95070808D01*
X91683225Y-95157789D01*
X91837539Y-95211786D01*
X91837542Y-95211786D01*
X91837544Y-95211787D01*
X91999996Y-95230091D01*
X92000000Y-95230091D01*
X92000004Y-95230091D01*
X92162455Y-95211787D01*
X92162456Y-95211786D01*
X92162461Y-95211786D01*
X92316775Y-95157789D01*
X92455204Y-95070808D01*
X92526009Y-95000003D01*
X93769909Y-95000003D01*
X93788212Y-95162455D01*
X93842210Y-95316774D01*
X93842211Y-95316775D01*
X93929192Y-95455204D01*
X94044796Y-95570808D01*
X94183225Y-95657789D01*
X94337539Y-95711786D01*
X94337542Y-95711786D01*
X94337544Y-95711787D01*
X94499996Y-95730091D01*
X94500000Y-95730091D01*
X94500004Y-95730091D01*
X94662455Y-95711787D01*
X94662456Y-95711786D01*
X94662461Y-95711786D01*
X94816775Y-95657789D01*
X94955204Y-95570808D01*
X95070808Y-95455204D01*
X95157789Y-95316775D01*
X95211786Y-95162461D01*
X95211787Y-95162455D01*
X95230091Y-95000003D01*
X131269909Y-95000003D01*
X131288212Y-95162455D01*
X131342210Y-95316774D01*
X131342211Y-95316775D01*
X131429192Y-95455204D01*
X131544796Y-95570808D01*
X131683225Y-95657789D01*
X131837539Y-95711786D01*
X131837542Y-95711786D01*
X131837544Y-95711787D01*
X131999996Y-95730091D01*
X132000000Y-95730091D01*
X132000004Y-95730091D01*
X132162455Y-95711787D01*
X132162456Y-95711786D01*
X132162461Y-95711786D01*
X132316775Y-95657789D01*
X132455204Y-95570808D01*
X132570808Y-95455204D01*
X132657789Y-95316775D01*
X132711786Y-95162461D01*
X132711787Y-95162455D01*
X132730091Y-95000003D01*
X132730091Y-94999996D01*
X132711787Y-94837544D01*
X132711786Y-94837542D01*
X132711786Y-94837539D01*
X132657789Y-94683225D01*
X132570808Y-94544796D01*
X132455204Y-94429192D01*
X132329698Y-94350331D01*
X132316774Y-94342210D01*
X132162455Y-94288212D01*
X132000004Y-94269909D01*
X131999996Y-94269909D01*
X131837544Y-94288212D01*
X131683225Y-94342210D01*
X131544795Y-94429192D01*
X131429192Y-94544795D01*
X131342210Y-94683225D01*
X131288212Y-94837544D01*
X131269909Y-94999996D01*
X131269909Y-95000003D01*
X95230091Y-95000003D01*
X95230091Y-94999996D01*
X95211787Y-94837544D01*
X95211786Y-94837542D01*
X95211786Y-94837539D01*
X95157789Y-94683225D01*
X95070808Y-94544796D01*
X94955204Y-94429192D01*
X94829698Y-94350331D01*
X94816774Y-94342210D01*
X94662455Y-94288212D01*
X94500004Y-94269909D01*
X94499996Y-94269909D01*
X94337544Y-94288212D01*
X94183225Y-94342210D01*
X94044795Y-94429192D01*
X93929192Y-94544795D01*
X93842210Y-94683225D01*
X93788212Y-94837544D01*
X93769909Y-94999996D01*
X93769909Y-95000003D01*
X92526009Y-95000003D01*
X92570808Y-94955204D01*
X92657789Y-94816775D01*
X92711786Y-94662461D01*
X92730091Y-94500000D01*
X92730090Y-94499995D01*
X92711787Y-94337544D01*
X92711786Y-94337542D01*
X92711786Y-94337539D01*
X92657789Y-94183225D01*
X92570808Y-94044796D01*
X92455204Y-93929192D01*
X92385214Y-93885214D01*
X92316774Y-93842210D01*
X92162455Y-93788212D01*
X92000004Y-93769909D01*
X91999996Y-93769909D01*
X91850331Y-93786771D01*
X91781509Y-93774716D01*
X91730130Y-93727367D01*
X91712506Y-93659756D01*
X91713228Y-93649667D01*
X91730091Y-93500002D01*
X91730091Y-93499996D01*
X91713228Y-93350331D01*
X91725283Y-93281510D01*
X91772632Y-93230130D01*
X91840242Y-93212506D01*
X91850331Y-93213228D01*
X91999996Y-93230091D01*
X92000000Y-93230091D01*
X92000004Y-93230091D01*
X92162455Y-93211787D01*
X92162456Y-93211786D01*
X92162461Y-93211786D01*
X92316775Y-93157789D01*
X92455204Y-93070808D01*
X92570808Y-92955204D01*
X92645006Y-92837119D01*
X92697341Y-92790828D01*
X92766395Y-92780180D01*
X92830243Y-92808555D01*
X92854994Y-92837119D01*
X92929192Y-92955204D01*
X93044796Y-93070808D01*
X93183225Y-93157789D01*
X93337539Y-93211786D01*
X93337542Y-93211786D01*
X93337544Y-93211787D01*
X93499996Y-93230091D01*
X93500000Y-93230091D01*
X93500004Y-93230091D01*
X93662455Y-93211787D01*
X93662456Y-93211786D01*
X93662461Y-93211786D01*
X93816775Y-93157789D01*
X93955204Y-93070808D01*
X94070808Y-92955204D01*
X94157789Y-92816775D01*
X94211786Y-92662461D01*
X94211787Y-92662455D01*
X94230091Y-92500003D01*
X94230091Y-92499996D01*
X94211787Y-92337544D01*
X94211786Y-92337542D01*
X94211786Y-92337539D01*
X94157789Y-92183225D01*
X94070808Y-92044796D01*
X93955204Y-91929192D01*
X93874753Y-91878641D01*
X93816774Y-91842210D01*
X93662455Y-91788212D01*
X93500004Y-91769909D01*
X93499996Y-91769909D01*
X93337544Y-91788212D01*
X93183225Y-91842210D01*
X93044795Y-91929192D01*
X92929190Y-92044797D01*
X92854993Y-92162881D01*
X92802658Y-92209171D01*
X92733605Y-92219819D01*
X92669757Y-92191444D01*
X92645007Y-92162881D01*
X92570809Y-92044797D01*
X92455204Y-91929192D01*
X92316774Y-91842210D01*
X92162455Y-91788212D01*
X92000004Y-91769909D01*
X91999996Y-91769909D01*
X91837544Y-91788212D01*
X91683225Y-91842210D01*
X91544795Y-91929192D01*
X91429192Y-92044795D01*
X91342210Y-92183225D01*
X91288212Y-92337544D01*
X91269909Y-92499996D01*
X91269909Y-92500004D01*
X91286771Y-92649668D01*
X91274716Y-92718490D01*
X91227367Y-92769869D01*
X91159756Y-92787493D01*
X91149668Y-92786771D01*
X91000004Y-92769909D01*
X90999996Y-92769909D01*
X90837544Y-92788212D01*
X90683225Y-92842210D01*
X90544795Y-92929192D01*
X90429192Y-93044795D01*
X90342210Y-93183225D01*
X90288212Y-93337544D01*
X90269909Y-93499996D01*
X90269909Y-93500003D01*
X60000000Y-93500003D01*
X60000000Y-92500003D01*
X73769909Y-92500003D01*
X73788212Y-92662455D01*
X73842210Y-92816774D01*
X73929192Y-92955204D01*
X74044796Y-93070808D01*
X74183225Y-93157789D01*
X74337539Y-93211786D01*
X74337542Y-93211786D01*
X74337544Y-93211787D01*
X74499996Y-93230091D01*
X74500000Y-93230091D01*
X74500004Y-93230091D01*
X74662455Y-93211787D01*
X74662456Y-93211786D01*
X74662461Y-93211786D01*
X74816775Y-93157789D01*
X74955204Y-93070808D01*
X74956279Y-93069732D01*
X74957147Y-93069258D01*
X74960648Y-93066467D01*
X74961136Y-93067079D01*
X75017598Y-93036244D01*
X75087290Y-93041223D01*
X75131647Y-93069727D01*
X75241460Y-93179540D01*
X75379889Y-93266521D01*
X75534203Y-93320518D01*
X75534206Y-93320518D01*
X75534208Y-93320519D01*
X75696660Y-93338823D01*
X75696664Y-93338823D01*
X75696668Y-93338823D01*
X75859119Y-93320519D01*
X75859120Y-93320518D01*
X75859125Y-93320518D01*
X76013439Y-93266521D01*
X76151868Y-93179540D01*
X76267472Y-93063936D01*
X76354453Y-92925507D01*
X76408450Y-92771193D01*
X76408595Y-92769909D01*
X76426755Y-92608735D01*
X76426755Y-92608728D01*
X76408451Y-92446276D01*
X76408450Y-92446274D01*
X76408450Y-92446271D01*
X76354453Y-92291957D01*
X76267472Y-92153528D01*
X76151868Y-92037924D01*
X76099795Y-92005204D01*
X76013438Y-91950942D01*
X75859119Y-91896944D01*
X75696668Y-91878641D01*
X75696660Y-91878641D01*
X75534208Y-91896944D01*
X75379889Y-91950942D01*
X75241457Y-92037926D01*
X75240371Y-92039012D01*
X75239496Y-92039489D01*
X75236012Y-92042268D01*
X75235525Y-92041657D01*
X75179045Y-92072491D01*
X75109354Y-92067501D01*
X75065016Y-92039004D01*
X74955204Y-91929192D01*
X74816774Y-91842210D01*
X74662455Y-91788212D01*
X74500004Y-91769909D01*
X74499996Y-91769909D01*
X74337544Y-91788212D01*
X74183225Y-91842210D01*
X74044795Y-91929192D01*
X73929192Y-92044795D01*
X73842210Y-92183225D01*
X73788212Y-92337544D01*
X73769909Y-92499996D01*
X73769909Y-92500003D01*
X60000000Y-92500003D01*
X60000000Y-91550003D01*
X103719909Y-91550003D01*
X103738212Y-91712455D01*
X103792210Y-91866774D01*
X103831430Y-91929192D01*
X103879192Y-92005204D01*
X103994796Y-92120808D01*
X104133225Y-92207789D01*
X104287539Y-92261786D01*
X104287542Y-92261786D01*
X104287544Y-92261787D01*
X104449996Y-92280091D01*
X104450000Y-92280091D01*
X104450004Y-92280091D01*
X104612455Y-92261787D01*
X104612456Y-92261786D01*
X104612461Y-92261786D01*
X104766775Y-92207789D01*
X104905204Y-92120808D01*
X105020808Y-92005204D01*
X105107789Y-91866775D01*
X105161786Y-91712461D01*
X105180091Y-91550000D01*
X105161786Y-91387539D01*
X105107789Y-91233225D01*
X105020808Y-91094796D01*
X104905204Y-90979192D01*
X104766774Y-90892210D01*
X104612455Y-90838212D01*
X104450004Y-90819909D01*
X104449996Y-90819909D01*
X104287544Y-90838212D01*
X104133225Y-90892210D01*
X103994795Y-90979192D01*
X103879192Y-91094795D01*
X103792210Y-91233225D01*
X103738212Y-91387544D01*
X103719909Y-91549996D01*
X103719909Y-91550003D01*
X60000000Y-91550003D01*
X60000000Y-89500003D01*
X72269909Y-89500003D01*
X72288212Y-89662455D01*
X72342210Y-89816774D01*
X72342211Y-89816775D01*
X72429192Y-89955204D01*
X72544796Y-90070808D01*
X72683225Y-90157789D01*
X72837539Y-90211786D01*
X72837542Y-90211786D01*
X72837544Y-90211787D01*
X72999996Y-90230091D01*
X73000000Y-90230091D01*
X73000004Y-90230091D01*
X73162455Y-90211787D01*
X73162456Y-90211786D01*
X73162461Y-90211786D01*
X73316775Y-90157789D01*
X73455204Y-90070808D01*
X73526009Y-90000003D01*
X109769909Y-90000003D01*
X109788212Y-90162455D01*
X109842210Y-90316774D01*
X109842211Y-90316775D01*
X109929192Y-90455204D01*
X110044796Y-90570808D01*
X110183225Y-90657789D01*
X110337539Y-90711786D01*
X110337542Y-90711786D01*
X110337544Y-90711787D01*
X110499996Y-90730091D01*
X110500000Y-90730091D01*
X110500004Y-90730091D01*
X110662455Y-90711787D01*
X110662456Y-90711786D01*
X110662461Y-90711786D01*
X110816775Y-90657789D01*
X110955204Y-90570808D01*
X111070808Y-90455204D01*
X111157789Y-90316775D01*
X111211786Y-90162461D01*
X111211787Y-90162455D01*
X111230091Y-90000003D01*
X111230091Y-89999996D01*
X111211787Y-89837544D01*
X111211786Y-89837542D01*
X111211786Y-89837539D01*
X111157789Y-89683225D01*
X111070808Y-89544796D01*
X110955204Y-89429192D01*
X110888543Y-89387306D01*
X110816774Y-89342210D01*
X110662455Y-89288212D01*
X110500004Y-89269909D01*
X110499996Y-89269909D01*
X110337544Y-89288212D01*
X110183225Y-89342210D01*
X110044795Y-89429192D01*
X109929192Y-89544795D01*
X109842210Y-89683225D01*
X109788212Y-89837544D01*
X109769909Y-89999996D01*
X109769909Y-90000003D01*
X73526009Y-90000003D01*
X73570808Y-89955204D01*
X73657789Y-89816775D01*
X73711786Y-89662461D01*
X73725044Y-89544795D01*
X73730091Y-89500003D01*
X73730091Y-89499996D01*
X73711787Y-89337544D01*
X73711786Y-89337542D01*
X73711786Y-89337539D01*
X73657789Y-89183225D01*
X73586981Y-89070535D01*
X89840441Y-89070535D01*
X89858744Y-89232987D01*
X89912742Y-89387306D01*
X89912743Y-89387307D01*
X89999724Y-89525736D01*
X90115328Y-89641340D01*
X90253757Y-89728321D01*
X90408071Y-89782318D01*
X90408074Y-89782318D01*
X90408076Y-89782319D01*
X90570528Y-89800623D01*
X90570532Y-89800623D01*
X90570536Y-89800623D01*
X90732987Y-89782319D01*
X90732988Y-89782318D01*
X90732993Y-89782318D01*
X90887307Y-89728321D01*
X91025736Y-89641340D01*
X91141340Y-89525736D01*
X91228321Y-89387307D01*
X91282318Y-89232993D01*
X91300623Y-89070532D01*
X91297723Y-89044796D01*
X91282319Y-88908076D01*
X91282318Y-88908074D01*
X91282318Y-88908071D01*
X91228321Y-88753757D01*
X91141340Y-88615328D01*
X91025736Y-88499724D01*
X90954883Y-88455204D01*
X90887306Y-88412742D01*
X90732987Y-88358744D01*
X90570536Y-88340441D01*
X90570528Y-88340441D01*
X90408076Y-88358744D01*
X90253757Y-88412742D01*
X90115327Y-88499724D01*
X89999724Y-88615327D01*
X89912742Y-88753757D01*
X89858744Y-88908076D01*
X89840441Y-89070528D01*
X89840441Y-89070535D01*
X73586981Y-89070535D01*
X73570808Y-89044796D01*
X73455204Y-88929192D01*
X73421590Y-88908071D01*
X73316774Y-88842210D01*
X73162455Y-88788212D01*
X73000004Y-88769909D01*
X72999996Y-88769909D01*
X72837544Y-88788212D01*
X72683225Y-88842210D01*
X72544795Y-88929192D01*
X72429192Y-89044795D01*
X72342210Y-89183225D01*
X72288212Y-89337544D01*
X72269909Y-89499996D01*
X72269909Y-89500003D01*
X60000000Y-89500003D01*
X60000000Y-88000003D01*
X116769909Y-88000003D01*
X116788212Y-88162455D01*
X116842210Y-88316774D01*
X116842211Y-88316775D01*
X116929192Y-88455204D01*
X117044796Y-88570808D01*
X117183225Y-88657789D01*
X117337539Y-88711786D01*
X117337542Y-88711786D01*
X117337544Y-88711787D01*
X117499996Y-88730091D01*
X117500000Y-88730091D01*
X117500004Y-88730091D01*
X117662455Y-88711787D01*
X117662456Y-88711786D01*
X117662461Y-88711786D01*
X117816775Y-88657789D01*
X117955204Y-88570808D01*
X118070808Y-88455204D01*
X118157789Y-88316775D01*
X118211786Y-88162461D01*
X118230091Y-88000000D01*
X118211786Y-87837539D01*
X118157789Y-87683225D01*
X118070808Y-87544796D01*
X117955204Y-87429192D01*
X117816774Y-87342210D01*
X117662455Y-87288212D01*
X117500004Y-87269909D01*
X117499996Y-87269909D01*
X117337544Y-87288212D01*
X117183225Y-87342210D01*
X117044795Y-87429192D01*
X116929192Y-87544795D01*
X116842210Y-87683225D01*
X116788212Y-87837544D01*
X116769909Y-87999996D01*
X116769909Y-88000003D01*
X60000000Y-88000003D01*
X60000000Y-86500003D01*
X99269909Y-86500003D01*
X99288212Y-86662455D01*
X99342210Y-86816774D01*
X99342211Y-86816775D01*
X99429192Y-86955204D01*
X99544796Y-87070808D01*
X99683225Y-87157789D01*
X99837539Y-87211786D01*
X99837542Y-87211786D01*
X99837544Y-87211787D01*
X99999996Y-87230091D01*
X100000000Y-87230091D01*
X100000004Y-87230091D01*
X100162455Y-87211787D01*
X100162456Y-87211786D01*
X100162461Y-87211786D01*
X100316775Y-87157789D01*
X100455204Y-87070808D01*
X100570808Y-86955204D01*
X100657789Y-86816775D01*
X100711786Y-86662461D01*
X100730091Y-86500003D01*
X104269909Y-86500003D01*
X104288212Y-86662455D01*
X104342210Y-86816774D01*
X104342211Y-86816775D01*
X104429192Y-86955204D01*
X104544796Y-87070808D01*
X104683225Y-87157789D01*
X104837539Y-87211786D01*
X104837542Y-87211786D01*
X104837544Y-87211787D01*
X104999996Y-87230091D01*
X105000000Y-87230091D01*
X105000004Y-87230091D01*
X105162455Y-87211787D01*
X105162456Y-87211786D01*
X105162461Y-87211786D01*
X105316775Y-87157789D01*
X105455204Y-87070808D01*
X105526009Y-87000003D01*
X114269909Y-87000003D01*
X114288212Y-87162455D01*
X114342210Y-87316774D01*
X114429192Y-87455204D01*
X114544796Y-87570808D01*
X114683225Y-87657789D01*
X114837539Y-87711786D01*
X114837542Y-87711786D01*
X114837544Y-87711787D01*
X114999996Y-87730091D01*
X115000000Y-87730091D01*
X115000004Y-87730091D01*
X115162455Y-87711787D01*
X115162456Y-87711786D01*
X115162461Y-87711786D01*
X115316775Y-87657789D01*
X115455204Y-87570808D01*
X115570808Y-87455204D01*
X115657789Y-87316775D01*
X115711786Y-87162461D01*
X115711787Y-87162455D01*
X115730091Y-87000003D01*
X115730091Y-86999996D01*
X115711787Y-86837544D01*
X115711786Y-86837542D01*
X115711786Y-86837539D01*
X115657789Y-86683225D01*
X115570808Y-86544796D01*
X115455204Y-86429192D01*
X115316774Y-86342210D01*
X115162455Y-86288212D01*
X115000004Y-86269909D01*
X114999996Y-86269909D01*
X114837544Y-86288212D01*
X114683225Y-86342210D01*
X114544795Y-86429192D01*
X114429192Y-86544795D01*
X114342210Y-86683225D01*
X114288212Y-86837544D01*
X114269909Y-86999996D01*
X114269909Y-87000003D01*
X105526009Y-87000003D01*
X105570808Y-86955204D01*
X105657789Y-86816775D01*
X105711786Y-86662461D01*
X105730091Y-86500000D01*
X105712312Y-86342211D01*
X105711787Y-86337544D01*
X105711786Y-86337542D01*
X105711786Y-86337539D01*
X105657789Y-86183225D01*
X105570808Y-86044796D01*
X105455204Y-85929192D01*
X105316774Y-85842210D01*
X105162455Y-85788212D01*
X105000004Y-85769909D01*
X104999996Y-85769909D01*
X104837544Y-85788212D01*
X104683225Y-85842210D01*
X104544795Y-85929192D01*
X104429192Y-86044795D01*
X104342210Y-86183225D01*
X104288212Y-86337544D01*
X104269909Y-86499996D01*
X104269909Y-86500003D01*
X100730091Y-86500003D01*
X100730091Y-86500000D01*
X100712312Y-86342211D01*
X100711787Y-86337544D01*
X100711786Y-86337542D01*
X100711786Y-86337539D01*
X100657789Y-86183225D01*
X100570808Y-86044796D01*
X100455204Y-85929192D01*
X100316774Y-85842210D01*
X100162455Y-85788212D01*
X100000004Y-85769909D01*
X99999996Y-85769909D01*
X99837544Y-85788212D01*
X99683225Y-85842210D01*
X99544795Y-85929192D01*
X99429192Y-86044795D01*
X99342210Y-86183225D01*
X99288212Y-86337544D01*
X99269909Y-86499996D01*
X99269909Y-86500003D01*
X60000000Y-86500003D01*
X60000000Y-83000003D01*
X96269909Y-83000003D01*
X96288212Y-83162455D01*
X96342210Y-83316774D01*
X96429192Y-83455204D01*
X96544796Y-83570808D01*
X96683225Y-83657789D01*
X96837539Y-83711786D01*
X96837542Y-83711786D01*
X96837544Y-83711787D01*
X96999996Y-83730091D01*
X97000000Y-83730091D01*
X97000003Y-83730091D01*
X97149667Y-83713228D01*
X97218489Y-83725282D01*
X97269869Y-83772632D01*
X97287493Y-83840242D01*
X97286771Y-83850331D01*
X97269909Y-83999995D01*
X97269909Y-84000003D01*
X97288212Y-84162455D01*
X97342210Y-84316774D01*
X97429192Y-84455204D01*
X97544796Y-84570808D01*
X97683225Y-84657789D01*
X97837539Y-84711786D01*
X97837542Y-84711786D01*
X97837544Y-84711787D01*
X97999996Y-84730091D01*
X98000000Y-84730091D01*
X98000004Y-84730091D01*
X98162455Y-84711787D01*
X98162456Y-84711786D01*
X98162461Y-84711786D01*
X98316775Y-84657789D01*
X98455204Y-84570808D01*
X98526009Y-84500003D01*
X108269909Y-84500003D01*
X108288212Y-84662455D01*
X108342210Y-84816774D01*
X108342211Y-84816775D01*
X108429192Y-84955204D01*
X108544796Y-85070808D01*
X108683225Y-85157789D01*
X108837539Y-85211786D01*
X108837542Y-85211786D01*
X108837544Y-85211787D01*
X108999996Y-85230091D01*
X109000000Y-85230091D01*
X109000004Y-85230091D01*
X109162455Y-85211787D01*
X109162456Y-85211786D01*
X109162461Y-85211786D01*
X109316775Y-85157789D01*
X109455204Y-85070808D01*
X109526009Y-85000003D01*
X115269909Y-85000003D01*
X115288212Y-85162455D01*
X115342210Y-85316774D01*
X115342211Y-85316775D01*
X115429192Y-85455204D01*
X115544796Y-85570808D01*
X115683225Y-85657789D01*
X115837539Y-85711786D01*
X115837542Y-85711786D01*
X115837544Y-85711787D01*
X115999996Y-85730091D01*
X116000000Y-85730091D01*
X116000004Y-85730091D01*
X116162455Y-85711787D01*
X116162456Y-85711786D01*
X116162461Y-85711786D01*
X116316775Y-85657789D01*
X116455204Y-85570808D01*
X116570808Y-85455204D01*
X116657789Y-85316775D01*
X116711786Y-85162461D01*
X116711787Y-85162455D01*
X116730091Y-85000003D01*
X116730091Y-84999996D01*
X116711787Y-84837544D01*
X116711786Y-84837542D01*
X116711786Y-84837539D01*
X116657789Y-84683225D01*
X116570808Y-84544796D01*
X116526015Y-84500003D01*
X117269909Y-84500003D01*
X117288212Y-84662455D01*
X117342210Y-84816774D01*
X117342211Y-84816775D01*
X117429192Y-84955204D01*
X117544796Y-85070808D01*
X117683225Y-85157789D01*
X117837539Y-85211786D01*
X117837542Y-85211786D01*
X117837544Y-85211787D01*
X117999996Y-85230091D01*
X118000000Y-85230091D01*
X118000004Y-85230091D01*
X118162455Y-85211787D01*
X118162456Y-85211786D01*
X118162461Y-85211786D01*
X118316775Y-85157789D01*
X118455204Y-85070808D01*
X118570808Y-84955204D01*
X118657789Y-84816775D01*
X118711786Y-84662461D01*
X118711787Y-84662455D01*
X118730091Y-84500003D01*
X118730091Y-84499996D01*
X118711787Y-84337544D01*
X118711786Y-84337542D01*
X118711786Y-84337539D01*
X118657789Y-84183225D01*
X118570808Y-84044796D01*
X118455204Y-83929192D01*
X118329698Y-83850331D01*
X118316774Y-83842210D01*
X118162455Y-83788212D01*
X118000004Y-83769909D01*
X117999996Y-83769909D01*
X117837544Y-83788212D01*
X117683225Y-83842210D01*
X117544795Y-83929192D01*
X117429192Y-84044795D01*
X117342210Y-84183225D01*
X117288212Y-84337544D01*
X117269909Y-84499996D01*
X117269909Y-84500003D01*
X116526015Y-84500003D01*
X116455204Y-84429192D01*
X116316774Y-84342210D01*
X116162455Y-84288212D01*
X116000004Y-84269909D01*
X115999996Y-84269909D01*
X115837544Y-84288212D01*
X115683225Y-84342210D01*
X115544795Y-84429192D01*
X115429192Y-84544795D01*
X115342210Y-84683225D01*
X115288212Y-84837544D01*
X115269909Y-84999996D01*
X115269909Y-85000003D01*
X109526009Y-85000003D01*
X109570808Y-84955204D01*
X109657789Y-84816775D01*
X109711786Y-84662461D01*
X109711787Y-84662455D01*
X109730091Y-84500003D01*
X109730091Y-84499996D01*
X109711787Y-84337544D01*
X109711786Y-84337542D01*
X109711786Y-84337539D01*
X109657789Y-84183225D01*
X109570808Y-84044796D01*
X109455204Y-83929192D01*
X109329698Y-83850331D01*
X109316774Y-83842210D01*
X109162455Y-83788212D01*
X109000004Y-83769909D01*
X108999996Y-83769909D01*
X108837544Y-83788212D01*
X108683225Y-83842210D01*
X108544795Y-83929192D01*
X108429192Y-84044795D01*
X108342210Y-84183225D01*
X108288212Y-84337544D01*
X108269909Y-84499996D01*
X108269909Y-84500003D01*
X98526009Y-84500003D01*
X98570808Y-84455204D01*
X98657789Y-84316775D01*
X98711786Y-84162461D01*
X98730091Y-84000000D01*
X98730090Y-83999995D01*
X98711787Y-83837544D01*
X98711786Y-83837542D01*
X98711786Y-83837539D01*
X98657789Y-83683225D01*
X98570808Y-83544796D01*
X98455204Y-83429192D01*
X98385214Y-83385214D01*
X98316774Y-83342210D01*
X98162455Y-83288212D01*
X98000004Y-83269909D01*
X97999996Y-83269909D01*
X97850331Y-83286771D01*
X97781509Y-83274716D01*
X97730130Y-83227367D01*
X97712506Y-83159756D01*
X97713228Y-83149667D01*
X97730091Y-83000002D01*
X97730091Y-82999996D01*
X97711787Y-82837544D01*
X97711786Y-82837542D01*
X97711786Y-82837539D01*
X97657789Y-82683225D01*
X97570808Y-82544796D01*
X97455204Y-82429192D01*
X97316774Y-82342210D01*
X97162455Y-82288212D01*
X97000004Y-82269909D01*
X96999996Y-82269909D01*
X96837544Y-82288212D01*
X96683225Y-82342210D01*
X96544795Y-82429192D01*
X96429192Y-82544795D01*
X96342210Y-82683225D01*
X96288212Y-82837544D01*
X96269909Y-82999996D01*
X96269909Y-83000003D01*
X60000000Y-83000003D01*
X60000000Y-82000003D01*
X110904909Y-82000003D01*
X110923212Y-82162455D01*
X110977210Y-82316774D01*
X111064192Y-82455204D01*
X111179796Y-82570808D01*
X111318225Y-82657789D01*
X111472539Y-82711786D01*
X111472542Y-82711786D01*
X111472544Y-82711787D01*
X111634996Y-82730091D01*
X111635000Y-82730091D01*
X111635004Y-82730091D01*
X111797455Y-82711787D01*
X111797456Y-82711786D01*
X111797461Y-82711786D01*
X111951775Y-82657789D01*
X112090204Y-82570808D01*
X112205808Y-82455204D01*
X112292789Y-82316775D01*
X112346786Y-82162461D01*
X112365091Y-82000000D01*
X112346786Y-81837539D01*
X112292789Y-81683225D01*
X112205808Y-81544796D01*
X112090204Y-81429192D01*
X111951774Y-81342210D01*
X111797455Y-81288212D01*
X111635004Y-81269909D01*
X111634996Y-81269909D01*
X111472544Y-81288212D01*
X111318225Y-81342210D01*
X111179795Y-81429192D01*
X111064192Y-81544795D01*
X110977210Y-81683225D01*
X110923212Y-81837544D01*
X110904909Y-81999996D01*
X110904909Y-82000003D01*
X60000000Y-82000003D01*
X60000000Y-78104733D01*
X81665179Y-78104733D01*
X81683482Y-78267185D01*
X81737480Y-78421504D01*
X81824462Y-78559934D01*
X81940066Y-78675538D01*
X82078495Y-78762519D01*
X82232809Y-78816516D01*
X82232812Y-78816516D01*
X82232814Y-78816517D01*
X82395266Y-78834821D01*
X82395270Y-78834821D01*
X82395274Y-78834821D01*
X82557725Y-78816517D01*
X82557726Y-78816516D01*
X82557731Y-78816516D01*
X82712045Y-78762519D01*
X82850474Y-78675538D01*
X82966078Y-78559934D01*
X83053059Y-78421505D01*
X83107056Y-78267191D01*
X83107057Y-78267185D01*
X83125361Y-78104733D01*
X83125361Y-78104726D01*
X83113562Y-78000003D01*
X112769909Y-78000003D01*
X112788212Y-78162455D01*
X112842210Y-78316774D01*
X112842211Y-78316775D01*
X112929192Y-78455204D01*
X113044796Y-78570808D01*
X113183225Y-78657789D01*
X113337539Y-78711786D01*
X113337542Y-78711786D01*
X113337544Y-78711787D01*
X113499996Y-78730091D01*
X113500000Y-78730091D01*
X113500004Y-78730091D01*
X113662455Y-78711787D01*
X113662456Y-78711786D01*
X113662461Y-78711786D01*
X113816775Y-78657789D01*
X113955204Y-78570808D01*
X114070808Y-78455204D01*
X114157789Y-78316775D01*
X114211786Y-78162461D01*
X114211787Y-78162455D01*
X114230091Y-78000003D01*
X114230091Y-77999996D01*
X114211787Y-77837544D01*
X114211786Y-77837542D01*
X114211786Y-77837539D01*
X114157789Y-77683225D01*
X114070808Y-77544796D01*
X113955204Y-77429192D01*
X113868384Y-77374639D01*
X113816774Y-77342210D01*
X113662455Y-77288212D01*
X113500004Y-77269909D01*
X113499996Y-77269909D01*
X113337544Y-77288212D01*
X113183225Y-77342210D01*
X113044795Y-77429192D01*
X112929192Y-77544795D01*
X112842210Y-77683225D01*
X112788212Y-77837544D01*
X112769909Y-77999996D01*
X112769909Y-78000003D01*
X83113562Y-78000003D01*
X83107057Y-77942274D01*
X83107056Y-77942272D01*
X83107056Y-77942269D01*
X83053059Y-77787955D01*
X82966078Y-77649526D01*
X82850474Y-77533922D01*
X82712044Y-77446940D01*
X82557725Y-77392942D01*
X82395274Y-77374639D01*
X82395266Y-77374639D01*
X82232814Y-77392942D01*
X82078495Y-77446940D01*
X81940065Y-77533922D01*
X81824462Y-77649525D01*
X81737480Y-77787955D01*
X81683482Y-77942274D01*
X81665179Y-78104726D01*
X81665179Y-78104733D01*
X60000000Y-78104733D01*
X60000000Y-76000003D01*
X102769909Y-76000003D01*
X102788212Y-76162455D01*
X102842210Y-76316774D01*
X102842211Y-76316775D01*
X102929192Y-76455204D01*
X103044796Y-76570808D01*
X103183225Y-76657789D01*
X103337539Y-76711786D01*
X103337542Y-76711786D01*
X103337544Y-76711787D01*
X103499996Y-76730091D01*
X103500000Y-76730091D01*
X103500004Y-76730091D01*
X103662455Y-76711787D01*
X103662456Y-76711786D01*
X103662461Y-76711786D01*
X103816775Y-76657789D01*
X103955204Y-76570808D01*
X104070808Y-76455204D01*
X104157789Y-76316775D01*
X104211786Y-76162461D01*
X104211787Y-76162455D01*
X104230091Y-76000003D01*
X104230091Y-75999996D01*
X104211787Y-75837544D01*
X104211786Y-75837542D01*
X104211786Y-75837539D01*
X104157789Y-75683225D01*
X104070808Y-75544796D01*
X104026015Y-75500003D01*
X119794909Y-75500003D01*
X119813212Y-75662455D01*
X119867210Y-75816774D01*
X119867211Y-75816775D01*
X119954192Y-75955204D01*
X120069796Y-76070808D01*
X120208225Y-76157789D01*
X120362539Y-76211786D01*
X120362542Y-76211786D01*
X120362544Y-76211787D01*
X120524996Y-76230091D01*
X120525000Y-76230091D01*
X120525004Y-76230091D01*
X120687455Y-76211787D01*
X120687456Y-76211786D01*
X120687461Y-76211786D01*
X120841775Y-76157789D01*
X120980204Y-76070808D01*
X121095808Y-75955204D01*
X121182789Y-75816775D01*
X121236786Y-75662461D01*
X121255091Y-75500000D01*
X121237312Y-75342211D01*
X121236787Y-75337544D01*
X121236786Y-75337542D01*
X121236786Y-75337539D01*
X121182789Y-75183225D01*
X121095808Y-75044796D01*
X120980204Y-74929192D01*
X120841774Y-74842210D01*
X120687455Y-74788212D01*
X120525004Y-74769909D01*
X120524996Y-74769909D01*
X120362544Y-74788212D01*
X120208225Y-74842210D01*
X120069795Y-74929192D01*
X119954192Y-75044795D01*
X119867210Y-75183225D01*
X119813212Y-75337544D01*
X119794909Y-75499996D01*
X119794909Y-75500003D01*
X104026015Y-75500003D01*
X103955204Y-75429192D01*
X103816774Y-75342210D01*
X103662455Y-75288212D01*
X103500004Y-75269909D01*
X103499996Y-75269909D01*
X103337544Y-75288212D01*
X103183225Y-75342210D01*
X103044795Y-75429192D01*
X102929192Y-75544795D01*
X102842210Y-75683225D01*
X102788212Y-75837544D01*
X102769909Y-75999996D01*
X102769909Y-76000003D01*
X60000000Y-76000003D01*
X60000000Y-74000003D01*
X103769909Y-74000003D01*
X103788212Y-74162455D01*
X103842210Y-74316774D01*
X103842211Y-74316775D01*
X103929192Y-74455204D01*
X104044796Y-74570808D01*
X104183225Y-74657789D01*
X104337539Y-74711786D01*
X104337542Y-74711786D01*
X104337544Y-74711787D01*
X104499996Y-74730091D01*
X104500000Y-74730091D01*
X104500004Y-74730091D01*
X104662455Y-74711787D01*
X104662456Y-74711786D01*
X104662461Y-74711786D01*
X104816775Y-74657789D01*
X104955204Y-74570808D01*
X105026009Y-74500003D01*
X123269909Y-74500003D01*
X123288212Y-74662455D01*
X123342210Y-74816774D01*
X123429192Y-74955204D01*
X123544796Y-75070808D01*
X123683225Y-75157789D01*
X123837539Y-75211786D01*
X123837542Y-75211786D01*
X123837544Y-75211787D01*
X123999996Y-75230091D01*
X124000000Y-75230091D01*
X124000004Y-75230091D01*
X124162455Y-75211787D01*
X124162456Y-75211786D01*
X124162461Y-75211786D01*
X124316775Y-75157789D01*
X124455204Y-75070808D01*
X124570808Y-74955204D01*
X124657789Y-74816775D01*
X124711786Y-74662461D01*
X124711787Y-74662455D01*
X124730091Y-74500003D01*
X124730091Y-74499996D01*
X124711787Y-74337544D01*
X124711786Y-74337542D01*
X124711786Y-74337539D01*
X124657789Y-74183225D01*
X124570808Y-74044796D01*
X124455204Y-73929192D01*
X124316774Y-73842210D01*
X124162455Y-73788212D01*
X124000004Y-73769909D01*
X123999996Y-73769909D01*
X123837544Y-73788212D01*
X123683225Y-73842210D01*
X123544795Y-73929192D01*
X123429192Y-74044795D01*
X123342210Y-74183225D01*
X123288212Y-74337544D01*
X123269909Y-74499996D01*
X123269909Y-74500003D01*
X105026009Y-74500003D01*
X105070808Y-74455204D01*
X105157789Y-74316775D01*
X105211786Y-74162461D01*
X105211787Y-74162455D01*
X105230091Y-74000003D01*
X105230091Y-73999996D01*
X105211787Y-73837544D01*
X105211786Y-73837542D01*
X105211786Y-73837539D01*
X105157789Y-73683225D01*
X105070808Y-73544796D01*
X105026015Y-73500003D01*
X118744909Y-73500003D01*
X118763212Y-73662455D01*
X118817210Y-73816774D01*
X118904192Y-73955204D01*
X119019796Y-74070808D01*
X119158225Y-74157789D01*
X119312539Y-74211786D01*
X119312542Y-74211786D01*
X119312544Y-74211787D01*
X119474996Y-74230091D01*
X119475000Y-74230091D01*
X119475004Y-74230091D01*
X119637455Y-74211787D01*
X119637456Y-74211786D01*
X119637461Y-74211786D01*
X119791775Y-74157789D01*
X119930204Y-74070808D01*
X120045808Y-73955204D01*
X120132789Y-73816775D01*
X120145458Y-73780568D01*
X120186179Y-73723793D01*
X120251132Y-73698045D01*
X120319694Y-73711501D01*
X120370097Y-73759888D01*
X120379542Y-73780569D01*
X120392210Y-73816774D01*
X120479192Y-73955204D01*
X120594796Y-74070808D01*
X120733225Y-74157789D01*
X120887539Y-74211786D01*
X120887542Y-74211786D01*
X120887544Y-74211787D01*
X121049996Y-74230091D01*
X121050000Y-74230091D01*
X121050004Y-74230091D01*
X121212455Y-74211787D01*
X121212456Y-74211786D01*
X121212461Y-74211786D01*
X121366775Y-74157789D01*
X121505204Y-74070808D01*
X121620808Y-73955204D01*
X121707789Y-73816775D01*
X121761786Y-73662461D01*
X121780091Y-73500000D01*
X121762312Y-73342211D01*
X121761787Y-73337544D01*
X121761786Y-73337542D01*
X121761786Y-73337539D01*
X121707789Y-73183225D01*
X121620808Y-73044796D01*
X121505204Y-72929192D01*
X121366774Y-72842210D01*
X121212455Y-72788212D01*
X121050004Y-72769909D01*
X121049996Y-72769909D01*
X120887544Y-72788212D01*
X120733225Y-72842210D01*
X120594795Y-72929192D01*
X120479192Y-73044795D01*
X120392211Y-73183224D01*
X120379542Y-73219431D01*
X120338820Y-73276207D01*
X120273867Y-73301954D01*
X120205306Y-73288498D01*
X120154903Y-73240111D01*
X120145458Y-73219431D01*
X120132789Y-73183225D01*
X120045808Y-73044796D01*
X119940404Y-72939392D01*
X119906919Y-72878069D01*
X119911903Y-72808377D01*
X119953775Y-72752444D01*
X120014202Y-72728491D01*
X120162455Y-72711787D01*
X120162456Y-72711786D01*
X120162461Y-72711786D01*
X120316775Y-72657789D01*
X120455204Y-72570808D01*
X120570808Y-72455204D01*
X120657789Y-72316775D01*
X120711786Y-72162461D01*
X120711787Y-72162455D01*
X120730091Y-72000003D01*
X123269909Y-72000003D01*
X123288212Y-72162455D01*
X123342210Y-72316774D01*
X123342211Y-72316775D01*
X123429192Y-72455204D01*
X123544796Y-72570808D01*
X123683225Y-72657789D01*
X123837539Y-72711786D01*
X123837542Y-72711786D01*
X123837544Y-72711787D01*
X123999996Y-72730091D01*
X124000000Y-72730091D01*
X124000004Y-72730091D01*
X124162455Y-72711787D01*
X124162456Y-72711786D01*
X124162461Y-72711786D01*
X124316775Y-72657789D01*
X124455204Y-72570808D01*
X124570808Y-72455204D01*
X124657789Y-72316775D01*
X124711786Y-72162461D01*
X124711787Y-72162455D01*
X124730091Y-72000003D01*
X126269909Y-72000003D01*
X126288212Y-72162455D01*
X126342210Y-72316774D01*
X126342211Y-72316775D01*
X126429192Y-72455204D01*
X126544796Y-72570808D01*
X126683225Y-72657789D01*
X126837539Y-72711786D01*
X126837542Y-72711786D01*
X126837544Y-72711787D01*
X126999996Y-72730091D01*
X127000000Y-72730091D01*
X127000004Y-72730091D01*
X127162455Y-72711787D01*
X127162456Y-72711786D01*
X127162461Y-72711786D01*
X127316775Y-72657789D01*
X127455204Y-72570808D01*
X127570808Y-72455204D01*
X127657789Y-72316775D01*
X127711786Y-72162461D01*
X127711787Y-72162455D01*
X127730091Y-72000003D01*
X127730091Y-71999996D01*
X127711787Y-71837544D01*
X127711786Y-71837542D01*
X127711786Y-71837539D01*
X127657789Y-71683225D01*
X127570808Y-71544796D01*
X127526015Y-71500003D01*
X132269909Y-71500003D01*
X132288212Y-71662455D01*
X132342210Y-71816774D01*
X132342211Y-71816775D01*
X132429192Y-71955204D01*
X132544796Y-72070808D01*
X132683225Y-72157789D01*
X132837539Y-72211786D01*
X132837542Y-72211786D01*
X132837544Y-72211787D01*
X132999996Y-72230091D01*
X133000000Y-72230091D01*
X133000004Y-72230091D01*
X133162455Y-72211787D01*
X133162456Y-72211786D01*
X133162461Y-72211786D01*
X133316775Y-72157789D01*
X133455204Y-72070808D01*
X133570808Y-71955204D01*
X133657789Y-71816775D01*
X133711786Y-71662461D01*
X133725044Y-71544795D01*
X133730091Y-71500003D01*
X133730091Y-71499996D01*
X133711787Y-71337544D01*
X133711786Y-71337542D01*
X133711786Y-71337539D01*
X133657789Y-71183225D01*
X133570808Y-71044796D01*
X133455204Y-70929192D01*
X133316774Y-70842210D01*
X133162455Y-70788212D01*
X133000004Y-70769909D01*
X132999996Y-70769909D01*
X132837544Y-70788212D01*
X132683225Y-70842210D01*
X132544795Y-70929192D01*
X132429192Y-71044795D01*
X132342210Y-71183225D01*
X132288212Y-71337544D01*
X132269909Y-71499996D01*
X132269909Y-71500003D01*
X127526015Y-71500003D01*
X127455204Y-71429192D01*
X127316774Y-71342210D01*
X127162455Y-71288212D01*
X127000004Y-71269909D01*
X126999996Y-71269909D01*
X126837544Y-71288212D01*
X126683225Y-71342210D01*
X126544795Y-71429192D01*
X126429192Y-71544795D01*
X126342210Y-71683225D01*
X126288212Y-71837544D01*
X126269909Y-71999996D01*
X126269909Y-72000003D01*
X124730091Y-72000003D01*
X124730091Y-71999996D01*
X124711787Y-71837544D01*
X124711786Y-71837542D01*
X124711786Y-71837539D01*
X124657789Y-71683225D01*
X124570808Y-71544796D01*
X124455204Y-71429192D01*
X124316774Y-71342210D01*
X124162455Y-71288212D01*
X124000004Y-71269909D01*
X123999996Y-71269909D01*
X123837544Y-71288212D01*
X123683225Y-71342210D01*
X123544795Y-71429192D01*
X123429192Y-71544795D01*
X123342210Y-71683225D01*
X123288212Y-71837544D01*
X123269909Y-71999996D01*
X123269909Y-72000003D01*
X120730091Y-72000003D01*
X120730091Y-71999996D01*
X120711787Y-71837544D01*
X120711786Y-71837542D01*
X120711786Y-71837539D01*
X120657789Y-71683225D01*
X120584113Y-71565971D01*
X120565113Y-71498736D01*
X120584114Y-71434027D01*
X120657788Y-71316776D01*
X120657789Y-71316775D01*
X120711786Y-71162461D01*
X120711886Y-71161576D01*
X120730091Y-71000003D01*
X120730091Y-70999996D01*
X120711787Y-70837544D01*
X120711786Y-70837542D01*
X120711786Y-70837539D01*
X120657789Y-70683225D01*
X120570808Y-70544796D01*
X120455204Y-70429192D01*
X120316774Y-70342210D01*
X120162455Y-70288212D01*
X120000004Y-70269909D01*
X119999996Y-70269909D01*
X119837544Y-70288212D01*
X119683225Y-70342210D01*
X119544795Y-70429192D01*
X119429192Y-70544795D01*
X119342210Y-70683225D01*
X119288212Y-70837544D01*
X119269909Y-70999996D01*
X119269909Y-71000003D01*
X119288212Y-71162455D01*
X119342210Y-71316774D01*
X119415886Y-71434028D01*
X119434886Y-71501265D01*
X119415886Y-71565972D01*
X119342210Y-71683225D01*
X119288212Y-71837544D01*
X119269909Y-71999996D01*
X119269909Y-72000003D01*
X119288212Y-72162455D01*
X119342210Y-72316774D01*
X119429192Y-72455204D01*
X119534595Y-72560607D01*
X119568080Y-72621930D01*
X119563096Y-72691622D01*
X119521224Y-72747555D01*
X119460798Y-72771508D01*
X119312544Y-72788212D01*
X119158225Y-72842210D01*
X119019795Y-72929192D01*
X118904192Y-73044795D01*
X118817210Y-73183225D01*
X118763212Y-73337544D01*
X118744909Y-73499996D01*
X118744909Y-73500003D01*
X105026015Y-73500003D01*
X104955204Y-73429192D01*
X104816774Y-73342210D01*
X104682939Y-73295379D01*
X104662461Y-73288214D01*
X104662460Y-73288213D01*
X104662455Y-73288212D01*
X104500004Y-73269909D01*
X104499996Y-73269909D01*
X104337544Y-73288212D01*
X104183225Y-73342210D01*
X104044795Y-73429192D01*
X103929192Y-73544795D01*
X103842210Y-73683225D01*
X103788212Y-73837544D01*
X103769909Y-73999996D01*
X103769909Y-74000003D01*
X60000000Y-74000003D01*
X60000000Y-71500003D01*
X62269909Y-71500003D01*
X62288212Y-71662455D01*
X62342210Y-71816774D01*
X62342211Y-71816775D01*
X62429192Y-71955204D01*
X62544796Y-72070808D01*
X62683225Y-72157789D01*
X62837539Y-72211786D01*
X62837542Y-72211786D01*
X62837544Y-72211787D01*
X62999996Y-72230091D01*
X63000000Y-72230091D01*
X63000004Y-72230091D01*
X63162455Y-72211787D01*
X63162456Y-72211786D01*
X63162461Y-72211786D01*
X63316775Y-72157789D01*
X63455204Y-72070808D01*
X63526009Y-72000003D01*
X108428561Y-72000003D01*
X108446864Y-72162455D01*
X108500862Y-72316774D01*
X108500863Y-72316775D01*
X108587844Y-72455204D01*
X108703448Y-72570808D01*
X108841877Y-72657789D01*
X108996191Y-72711786D01*
X108996194Y-72711786D01*
X108996196Y-72711787D01*
X109158648Y-72730091D01*
X109158652Y-72730091D01*
X109158656Y-72730091D01*
X109321107Y-72711787D01*
X109321108Y-72711786D01*
X109321113Y-72711786D01*
X109475427Y-72657789D01*
X109613856Y-72570808D01*
X109729460Y-72455204D01*
X109816441Y-72316775D01*
X109870438Y-72162461D01*
X109870439Y-72162455D01*
X109888743Y-72000003D01*
X109888743Y-71999996D01*
X109870439Y-71837544D01*
X109870438Y-71837542D01*
X109870438Y-71837539D01*
X109816441Y-71683225D01*
X109729460Y-71544796D01*
X109613856Y-71429192D01*
X109475426Y-71342210D01*
X109321107Y-71288212D01*
X109158656Y-71269909D01*
X109158648Y-71269909D01*
X108996196Y-71288212D01*
X108841877Y-71342210D01*
X108703447Y-71429192D01*
X108587844Y-71544795D01*
X108500862Y-71683225D01*
X108446864Y-71837544D01*
X108428561Y-71999996D01*
X108428561Y-72000003D01*
X63526009Y-72000003D01*
X63570808Y-71955204D01*
X63657789Y-71816775D01*
X63711786Y-71662461D01*
X63725044Y-71544795D01*
X63730091Y-71500003D01*
X63730091Y-71499996D01*
X63711787Y-71337544D01*
X63711786Y-71337542D01*
X63711786Y-71337539D01*
X63657789Y-71183225D01*
X63570808Y-71044796D01*
X63455204Y-70929192D01*
X63316774Y-70842210D01*
X63162455Y-70788212D01*
X63000004Y-70769909D01*
X62999996Y-70769909D01*
X62837544Y-70788212D01*
X62683225Y-70842210D01*
X62544795Y-70929192D01*
X62429192Y-71044795D01*
X62342210Y-71183225D01*
X62288212Y-71337544D01*
X62269909Y-71499996D01*
X62269909Y-71500003D01*
X60000000Y-71500003D01*
X60000000Y-70503790D01*
X71266122Y-70503790D01*
X71284425Y-70666242D01*
X71338423Y-70820561D01*
X71352026Y-70842210D01*
X71425405Y-70958991D01*
X71541009Y-71074595D01*
X71679438Y-71161576D01*
X71833752Y-71215573D01*
X71833755Y-71215573D01*
X71833757Y-71215574D01*
X71996209Y-71233878D01*
X71996213Y-71233878D01*
X71996217Y-71233878D01*
X72158668Y-71215574D01*
X72158669Y-71215573D01*
X72158674Y-71215573D01*
X72312988Y-71161576D01*
X72451417Y-71074595D01*
X72567021Y-70958991D01*
X72654002Y-70820562D01*
X72707999Y-70666248D01*
X72708426Y-70662461D01*
X72726304Y-70503790D01*
X72726304Y-70503783D01*
X72725878Y-70500003D01*
X73269909Y-70500003D01*
X73288212Y-70662455D01*
X73342210Y-70816774D01*
X73429192Y-70955204D01*
X73544796Y-71070808D01*
X73683225Y-71157789D01*
X73837539Y-71211786D01*
X73837542Y-71211786D01*
X73837544Y-71211787D01*
X73999996Y-71230091D01*
X74000000Y-71230091D01*
X74000004Y-71230091D01*
X74162455Y-71211787D01*
X74162456Y-71211786D01*
X74162461Y-71211786D01*
X74316775Y-71157789D01*
X74455204Y-71070808D01*
X74570808Y-70955204D01*
X74657789Y-70816775D01*
X74711786Y-70662461D01*
X74711787Y-70662455D01*
X74730091Y-70500003D01*
X74730091Y-70499996D01*
X74711787Y-70337544D01*
X74711786Y-70337542D01*
X74711786Y-70337539D01*
X74657789Y-70183225D01*
X74570808Y-70044796D01*
X74455204Y-69929192D01*
X74316774Y-69842210D01*
X74182939Y-69795379D01*
X74162461Y-69788214D01*
X74162460Y-69788213D01*
X74162455Y-69788212D01*
X74000004Y-69769909D01*
X73999996Y-69769909D01*
X73837544Y-69788212D01*
X73683225Y-69842210D01*
X73544795Y-69929192D01*
X73429192Y-70044795D01*
X73342210Y-70183225D01*
X73288212Y-70337544D01*
X73269909Y-70499996D01*
X73269909Y-70500003D01*
X72725878Y-70500003D01*
X72708000Y-70341331D01*
X72707999Y-70341329D01*
X72707999Y-70341326D01*
X72654002Y-70187012D01*
X72567021Y-70048583D01*
X72451417Y-69932979D01*
X72445390Y-69929192D01*
X72312987Y-69845997D01*
X72158668Y-69791999D01*
X71996217Y-69773696D01*
X71996209Y-69773696D01*
X71833757Y-69791999D01*
X71679438Y-69845997D01*
X71541008Y-69932979D01*
X71425405Y-70048582D01*
X71338423Y-70187012D01*
X71284425Y-70341331D01*
X71266122Y-70503783D01*
X71266122Y-70503790D01*
X60000000Y-70503790D01*
X60000000Y-69500003D01*
X74769909Y-69500003D01*
X74788212Y-69662455D01*
X74842210Y-69816774D01*
X74915227Y-69932979D01*
X74929192Y-69955204D01*
X75044796Y-70070808D01*
X75183225Y-70157789D01*
X75337539Y-70211786D01*
X75337542Y-70211786D01*
X75337544Y-70211787D01*
X75499996Y-70230091D01*
X75500000Y-70230091D01*
X75500004Y-70230091D01*
X75662455Y-70211787D01*
X75662456Y-70211786D01*
X75662461Y-70211786D01*
X75816775Y-70157789D01*
X75955204Y-70070808D01*
X76070808Y-69955204D01*
X76157789Y-69816775D01*
X76211786Y-69662461D01*
X76230091Y-69500003D01*
X77269909Y-69500003D01*
X77288212Y-69662455D01*
X77342210Y-69816774D01*
X77415227Y-69932979D01*
X77429192Y-69955204D01*
X77544796Y-70070808D01*
X77683225Y-70157789D01*
X77837539Y-70211786D01*
X77837542Y-70211786D01*
X77837544Y-70211787D01*
X77999996Y-70230091D01*
X78000000Y-70230091D01*
X78000004Y-70230091D01*
X78162455Y-70211787D01*
X78162456Y-70211786D01*
X78162461Y-70211786D01*
X78316775Y-70157789D01*
X78455204Y-70070808D01*
X78526009Y-70000003D01*
X82769909Y-70000003D01*
X82788212Y-70162455D01*
X82842210Y-70316774D01*
X82929192Y-70455204D01*
X83044796Y-70570808D01*
X83183225Y-70657789D01*
X83337539Y-70711786D01*
X83337542Y-70711786D01*
X83337544Y-70711787D01*
X83499996Y-70730091D01*
X83500000Y-70730091D01*
X83500004Y-70730091D01*
X83662455Y-70711787D01*
X83662456Y-70711786D01*
X83662461Y-70711786D01*
X83816775Y-70657789D01*
X83955204Y-70570808D01*
X84070808Y-70455204D01*
X84157789Y-70316775D01*
X84211786Y-70162461D01*
X84211787Y-70162455D01*
X84230091Y-70000003D01*
X84230091Y-69999996D01*
X84211787Y-69837544D01*
X84211786Y-69837542D01*
X84211786Y-69837539D01*
X84157789Y-69683225D01*
X84070808Y-69544796D01*
X83955204Y-69429192D01*
X83816774Y-69342210D01*
X83662455Y-69288212D01*
X83500004Y-69269909D01*
X83499996Y-69269909D01*
X83337544Y-69288212D01*
X83183225Y-69342210D01*
X83044795Y-69429192D01*
X82929192Y-69544795D01*
X82842210Y-69683225D01*
X82788212Y-69837544D01*
X82769909Y-69999996D01*
X82769909Y-70000003D01*
X78526009Y-70000003D01*
X78570808Y-69955204D01*
X78657789Y-69816775D01*
X78711786Y-69662461D01*
X78730091Y-69500000D01*
X78712312Y-69342211D01*
X78711787Y-69337544D01*
X78711786Y-69337542D01*
X78711786Y-69337539D01*
X78657789Y-69183225D01*
X78570808Y-69044796D01*
X78455204Y-68929192D01*
X78316774Y-68842210D01*
X78162455Y-68788212D01*
X78000004Y-68769909D01*
X77999996Y-68769909D01*
X77837544Y-68788212D01*
X77683225Y-68842210D01*
X77544795Y-68929192D01*
X77429192Y-69044795D01*
X77342210Y-69183225D01*
X77288212Y-69337544D01*
X77269909Y-69499996D01*
X77269909Y-69500003D01*
X76230091Y-69500003D01*
X76230091Y-69500000D01*
X76212312Y-69342211D01*
X76211787Y-69337544D01*
X76211786Y-69337542D01*
X76211786Y-69337539D01*
X76157789Y-69183225D01*
X76070808Y-69044796D01*
X75955204Y-68929192D01*
X75816774Y-68842210D01*
X75662455Y-68788212D01*
X75500004Y-68769909D01*
X75499996Y-68769909D01*
X75337544Y-68788212D01*
X75183225Y-68842210D01*
X75044795Y-68929192D01*
X74929192Y-69044795D01*
X74842210Y-69183225D01*
X74788212Y-69337544D01*
X74769909Y-69499996D01*
X74769909Y-69500003D01*
X60000000Y-69500003D01*
X60000000Y-68500003D01*
X96269909Y-68500003D01*
X96288212Y-68662455D01*
X96342210Y-68816774D01*
X96429192Y-68955204D01*
X96544796Y-69070808D01*
X96683225Y-69157789D01*
X96837539Y-69211786D01*
X96837542Y-69211786D01*
X96837544Y-69211787D01*
X96999996Y-69230091D01*
X97000000Y-69230091D01*
X97000004Y-69230091D01*
X97162455Y-69211787D01*
X97162456Y-69211786D01*
X97162461Y-69211786D01*
X97316775Y-69157789D01*
X97455204Y-69070808D01*
X97570808Y-68955204D01*
X97657789Y-68816775D01*
X97711786Y-68662461D01*
X97711787Y-68662455D01*
X97730091Y-68500003D01*
X97730091Y-68499996D01*
X97711787Y-68337544D01*
X97711786Y-68337542D01*
X97711786Y-68337539D01*
X97657789Y-68183225D01*
X97570808Y-68044796D01*
X97455204Y-67929192D01*
X97453328Y-67928013D01*
X97316774Y-67842210D01*
X97162455Y-67788212D01*
X97000004Y-67769909D01*
X96999996Y-67769909D01*
X96837544Y-67788212D01*
X96683225Y-67842210D01*
X96544795Y-67929192D01*
X96429192Y-68044795D01*
X96342210Y-68183225D01*
X96288212Y-68337544D01*
X96269909Y-68499996D01*
X96269909Y-68500003D01*
X60000000Y-68500003D01*
X60000000Y-65573495D01*
X67430000Y-65573495D01*
X67468427Y-65766681D01*
X67468430Y-65766693D01*
X67543807Y-65948671D01*
X67543814Y-65948684D01*
X67653248Y-66112462D01*
X67653251Y-66112466D01*
X67792533Y-66251748D01*
X67792537Y-66251751D01*
X67956315Y-66361185D01*
X67956328Y-66361192D01*
X68138308Y-66436569D01*
X68180000Y-66444862D01*
X68180000Y-65641988D01*
X68189940Y-65659205D01*
X68245795Y-65715060D01*
X68314204Y-65754556D01*
X68390504Y-65775000D01*
X68469496Y-65775000D01*
X68545796Y-65754556D01*
X68614205Y-65715060D01*
X68670060Y-65659205D01*
X68680000Y-65641988D01*
X68680000Y-66444862D01*
X68721685Y-66436570D01*
X68734692Y-66431183D01*
X68804162Y-66423712D01*
X68866642Y-66454985D01*
X68902296Y-66515073D01*
X68899805Y-66584898D01*
X68887143Y-66611715D01*
X68842210Y-66683224D01*
X68788212Y-66837544D01*
X68769909Y-66999996D01*
X68769909Y-67000003D01*
X68788212Y-67162455D01*
X68842210Y-67316774D01*
X68929192Y-67455204D01*
X69044796Y-67570808D01*
X69183225Y-67657789D01*
X69337539Y-67711786D01*
X69337542Y-67711786D01*
X69337544Y-67711787D01*
X69499996Y-67730091D01*
X69500000Y-67730091D01*
X69500004Y-67730091D01*
X69662455Y-67711787D01*
X69662456Y-67711786D01*
X69662461Y-67711786D01*
X69816775Y-67657789D01*
X69955204Y-67570808D01*
X70053200Y-67472812D01*
X82269909Y-67472812D01*
X82288212Y-67635264D01*
X82342210Y-67789583D01*
X82359296Y-67816775D01*
X82429192Y-67928013D01*
X82544796Y-68043617D01*
X82683225Y-68130598D01*
X82837539Y-68184595D01*
X82837542Y-68184595D01*
X82837544Y-68184596D01*
X82999996Y-68202900D01*
X83000000Y-68202900D01*
X83000004Y-68202900D01*
X83162455Y-68184596D01*
X83162456Y-68184595D01*
X83162461Y-68184595D01*
X83316775Y-68130598D01*
X83455204Y-68043617D01*
X83570808Y-67928013D01*
X83657789Y-67789584D01*
X83711786Y-67635270D01*
X83719049Y-67570808D01*
X83730091Y-67472812D01*
X83730091Y-67472805D01*
X83711787Y-67310353D01*
X83711786Y-67310351D01*
X83711786Y-67310348D01*
X83657789Y-67156034D01*
X83570808Y-67017605D01*
X83553206Y-67000003D01*
X92269909Y-67000003D01*
X92288212Y-67162455D01*
X92342210Y-67316774D01*
X92429192Y-67455204D01*
X92544796Y-67570808D01*
X92683225Y-67657789D01*
X92837539Y-67711786D01*
X92837542Y-67711786D01*
X92837544Y-67711787D01*
X92999996Y-67730091D01*
X93000000Y-67730091D01*
X93000004Y-67730091D01*
X93162455Y-67711787D01*
X93162456Y-67711786D01*
X93162461Y-67711786D01*
X93316775Y-67657789D01*
X93455204Y-67570808D01*
X93526009Y-67500003D01*
X104428561Y-67500003D01*
X104446864Y-67662455D01*
X104500862Y-67816774D01*
X104587844Y-67955204D01*
X104703448Y-68070808D01*
X104841877Y-68157789D01*
X104996191Y-68211786D01*
X104996194Y-68211786D01*
X104996196Y-68211787D01*
X105158648Y-68230091D01*
X105158652Y-68230091D01*
X105158656Y-68230091D01*
X105321107Y-68211787D01*
X105321108Y-68211786D01*
X105321113Y-68211786D01*
X105475427Y-68157789D01*
X105613856Y-68070808D01*
X105684661Y-68000003D01*
X122769909Y-68000003D01*
X122788212Y-68162455D01*
X122842210Y-68316774D01*
X122842211Y-68316775D01*
X122929192Y-68455204D01*
X123044796Y-68570808D01*
X123183225Y-68657789D01*
X123337539Y-68711786D01*
X123337542Y-68711786D01*
X123337544Y-68711787D01*
X123499996Y-68730091D01*
X123500000Y-68730091D01*
X123500004Y-68730091D01*
X123662455Y-68711787D01*
X123662456Y-68711786D01*
X123662461Y-68711786D01*
X123816775Y-68657789D01*
X123955204Y-68570808D01*
X124070808Y-68455204D01*
X124157789Y-68316775D01*
X124211786Y-68162461D01*
X124211787Y-68162455D01*
X124230091Y-68000003D01*
X131269909Y-68000003D01*
X131288212Y-68162455D01*
X131342210Y-68316774D01*
X131342211Y-68316775D01*
X131429192Y-68455204D01*
X131544796Y-68570808D01*
X131683225Y-68657789D01*
X131837539Y-68711786D01*
X131837542Y-68711786D01*
X131837544Y-68711787D01*
X131999996Y-68730091D01*
X132000000Y-68730091D01*
X132000004Y-68730091D01*
X132162455Y-68711787D01*
X132162456Y-68711786D01*
X132162461Y-68711786D01*
X132316775Y-68657789D01*
X132455204Y-68570808D01*
X132570808Y-68455204D01*
X132657789Y-68316775D01*
X132711786Y-68162461D01*
X132711787Y-68162455D01*
X132730091Y-68000003D01*
X132730091Y-67999996D01*
X132711787Y-67837544D01*
X132711786Y-67837542D01*
X132711786Y-67837539D01*
X132657789Y-67683225D01*
X132570808Y-67544796D01*
X132455204Y-67429192D01*
X132316774Y-67342210D01*
X132162455Y-67288212D01*
X132000004Y-67269909D01*
X131999996Y-67269909D01*
X131837544Y-67288212D01*
X131683225Y-67342210D01*
X131544795Y-67429192D01*
X131429192Y-67544795D01*
X131342210Y-67683225D01*
X131288212Y-67837544D01*
X131269909Y-67999996D01*
X131269909Y-68000003D01*
X124230091Y-68000003D01*
X124230091Y-67999996D01*
X124211787Y-67837544D01*
X124211786Y-67837542D01*
X124211786Y-67837539D01*
X124157789Y-67683225D01*
X124070808Y-67544796D01*
X123955204Y-67429192D01*
X123816774Y-67342210D01*
X123662455Y-67288212D01*
X123500004Y-67269909D01*
X123499996Y-67269909D01*
X123337544Y-67288212D01*
X123183225Y-67342210D01*
X123044795Y-67429192D01*
X122929192Y-67544795D01*
X122842210Y-67683225D01*
X122788212Y-67837544D01*
X122769909Y-67999996D01*
X122769909Y-68000003D01*
X105684661Y-68000003D01*
X105729460Y-67955204D01*
X105816441Y-67816775D01*
X105870438Y-67662461D01*
X105870439Y-67662455D01*
X105888743Y-67500003D01*
X105888743Y-67499996D01*
X105870439Y-67337544D01*
X105870438Y-67337542D01*
X105870438Y-67337539D01*
X105816441Y-67183225D01*
X105729460Y-67044796D01*
X105613856Y-66929192D01*
X105570582Y-66902001D01*
X105475426Y-66842210D01*
X105321107Y-66788212D01*
X105158656Y-66769909D01*
X105158648Y-66769909D01*
X104996196Y-66788212D01*
X104841877Y-66842210D01*
X104703447Y-66929192D01*
X104587844Y-67044795D01*
X104500862Y-67183225D01*
X104446864Y-67337544D01*
X104428561Y-67499996D01*
X104428561Y-67500003D01*
X93526009Y-67500003D01*
X93570808Y-67455204D01*
X93657789Y-67316775D01*
X93711786Y-67162461D01*
X93725044Y-67044795D01*
X93730091Y-67000003D01*
X93730091Y-66999996D01*
X93711787Y-66837544D01*
X93711786Y-66837542D01*
X93711786Y-66837539D01*
X93657789Y-66683225D01*
X93570808Y-66544796D01*
X93455204Y-66429192D01*
X93346972Y-66361185D01*
X93316774Y-66342210D01*
X93182939Y-66295379D01*
X93162461Y-66288214D01*
X93162460Y-66288213D01*
X93162455Y-66288212D01*
X93000004Y-66269909D01*
X92999996Y-66269909D01*
X92837544Y-66288212D01*
X92683225Y-66342210D01*
X92544795Y-66429192D01*
X92429192Y-66544795D01*
X92342210Y-66683225D01*
X92288212Y-66837544D01*
X92269909Y-66999996D01*
X92269909Y-67000003D01*
X83553206Y-67000003D01*
X83455204Y-66902001D01*
X83360049Y-66842211D01*
X83316774Y-66815019D01*
X83162455Y-66761021D01*
X83000004Y-66742718D01*
X82999996Y-66742718D01*
X82837544Y-66761021D01*
X82683225Y-66815019D01*
X82544795Y-66902001D01*
X82429192Y-67017604D01*
X82342210Y-67156034D01*
X82288212Y-67310353D01*
X82269909Y-67472805D01*
X82269909Y-67472812D01*
X70053200Y-67472812D01*
X70070808Y-67455204D01*
X70157789Y-67316775D01*
X70211786Y-67162461D01*
X70225044Y-67044795D01*
X70230091Y-67000003D01*
X70230091Y-66999996D01*
X70211787Y-66837544D01*
X70211786Y-66837542D01*
X70211786Y-66837539D01*
X70157789Y-66683225D01*
X70070808Y-66544796D01*
X69955204Y-66429192D01*
X69846972Y-66361185D01*
X69816774Y-66342210D01*
X69682939Y-66295379D01*
X69662461Y-66288214D01*
X69662460Y-66288213D01*
X69662455Y-66288212D01*
X69500004Y-66269909D01*
X69499996Y-66269909D01*
X69334434Y-66288562D01*
X69265612Y-66276507D01*
X69214233Y-66229158D01*
X69196609Y-66161547D01*
X69217449Y-66096450D01*
X69316188Y-65948678D01*
X69316192Y-65948671D01*
X69391569Y-65766693D01*
X69391572Y-65766681D01*
X69429999Y-65573495D01*
X69430000Y-65573492D01*
X69430000Y-65056044D01*
X69449685Y-64989005D01*
X69502489Y-64943250D01*
X69571647Y-64933306D01*
X69616000Y-64948657D01*
X69637865Y-64961281D01*
X69784234Y-65000500D01*
X69784236Y-65000500D01*
X69935764Y-65000500D01*
X69935766Y-65000500D01*
X70082135Y-64961281D01*
X70213365Y-64885515D01*
X70320515Y-64778365D01*
X70396281Y-64647135D01*
X70396281Y-64647134D01*
X70400345Y-64640096D01*
X70401726Y-64640893D01*
X70439677Y-64593794D01*
X70505970Y-64571724D01*
X70573670Y-64588999D01*
X70576370Y-64590647D01*
X70683225Y-64657789D01*
X70837539Y-64711786D01*
X70837542Y-64711786D01*
X70837544Y-64711787D01*
X70999996Y-64730091D01*
X71000000Y-64730091D01*
X71000004Y-64730091D01*
X71162455Y-64711787D01*
X71162456Y-64711786D01*
X71162461Y-64711786D01*
X71316775Y-64657789D01*
X71455204Y-64570808D01*
X71570808Y-64455204D01*
X71657789Y-64316775D01*
X71711786Y-64162461D01*
X71711787Y-64162455D01*
X71730091Y-64000003D01*
X73269909Y-64000003D01*
X73288212Y-64162455D01*
X73342210Y-64316774D01*
X73429192Y-64455204D01*
X73544796Y-64570808D01*
X73683225Y-64657789D01*
X73837539Y-64711786D01*
X73837542Y-64711786D01*
X73837544Y-64711787D01*
X73999996Y-64730091D01*
X74000000Y-64730091D01*
X74000004Y-64730091D01*
X74162455Y-64711787D01*
X74162456Y-64711786D01*
X74162461Y-64711786D01*
X74316775Y-64657789D01*
X74455204Y-64570808D01*
X74525246Y-64500766D01*
X75064500Y-64500766D01*
X75076298Y-64544796D01*
X75103719Y-64647136D01*
X75141045Y-64711786D01*
X75179485Y-64778365D01*
X75286635Y-64885515D01*
X75417865Y-64961281D01*
X75564234Y-65000500D01*
X75564236Y-65000500D01*
X75715764Y-65000500D01*
X75715766Y-65000500D01*
X75862135Y-64961281D01*
X75883999Y-64948657D01*
X75951897Y-64932184D01*
X76017925Y-64955035D01*
X76061117Y-65009955D01*
X76070000Y-65056044D01*
X76070000Y-65573495D01*
X76108427Y-65766681D01*
X76108430Y-65766693D01*
X76183807Y-65948671D01*
X76183814Y-65948684D01*
X76293248Y-66112462D01*
X76293251Y-66112466D01*
X76432533Y-66251748D01*
X76432537Y-66251751D01*
X76596315Y-66361185D01*
X76596328Y-66361192D01*
X76778308Y-66436569D01*
X76820000Y-66444862D01*
X76820000Y-65641988D01*
X76829940Y-65659205D01*
X76885795Y-65715060D01*
X76954204Y-65754556D01*
X77030504Y-65775000D01*
X77109496Y-65775000D01*
X77185796Y-65754556D01*
X77254205Y-65715060D01*
X77310060Y-65659205D01*
X77320000Y-65641988D01*
X77320000Y-66444862D01*
X77361690Y-66436569D01*
X77361692Y-66436569D01*
X77543671Y-66361192D01*
X77543684Y-66361185D01*
X77707462Y-66251751D01*
X77707466Y-66251748D01*
X77846748Y-66112466D01*
X77846751Y-66112462D01*
X77956185Y-65948684D01*
X77956192Y-65948671D01*
X78031569Y-65766693D01*
X78031572Y-65766681D01*
X78069999Y-65573495D01*
X78070000Y-65573492D01*
X78070000Y-65175000D01*
X77370000Y-65175000D01*
X77370000Y-65000003D01*
X81769909Y-65000003D01*
X81788212Y-65162455D01*
X81842210Y-65316774D01*
X81896832Y-65403704D01*
X81929192Y-65455204D01*
X82044796Y-65570808D01*
X82183225Y-65657789D01*
X82337539Y-65711786D01*
X82337542Y-65711786D01*
X82337544Y-65711787D01*
X82499996Y-65730091D01*
X82500000Y-65730091D01*
X82500004Y-65730091D01*
X82662455Y-65711787D01*
X82662456Y-65711786D01*
X82662461Y-65711786D01*
X82816775Y-65657789D01*
X82955204Y-65570808D01*
X83070808Y-65455204D01*
X83157789Y-65316775D01*
X83211786Y-65162461D01*
X83211787Y-65162455D01*
X83230091Y-65000003D01*
X84269909Y-65000003D01*
X84288212Y-65162455D01*
X84342210Y-65316774D01*
X84396832Y-65403704D01*
X84429192Y-65455204D01*
X84544796Y-65570808D01*
X84683225Y-65657789D01*
X84837539Y-65711786D01*
X84837542Y-65711786D01*
X84837544Y-65711787D01*
X84999996Y-65730091D01*
X85000000Y-65730091D01*
X85000004Y-65730091D01*
X85162455Y-65711787D01*
X85162456Y-65711786D01*
X85162461Y-65711786D01*
X85316775Y-65657789D01*
X85455204Y-65570808D01*
X85570808Y-65455204D01*
X85657789Y-65316775D01*
X85711786Y-65162461D01*
X85711787Y-65162455D01*
X85730091Y-65000003D01*
X85730091Y-64999996D01*
X85711787Y-64837544D01*
X85711786Y-64837542D01*
X85711786Y-64837539D01*
X85657789Y-64683225D01*
X85570808Y-64544796D01*
X85455204Y-64429192D01*
X85370604Y-64376034D01*
X85316774Y-64342210D01*
X85162455Y-64288212D01*
X85000004Y-64269909D01*
X84999996Y-64269909D01*
X84837544Y-64288212D01*
X84683225Y-64342210D01*
X84544795Y-64429192D01*
X84429192Y-64544795D01*
X84342210Y-64683225D01*
X84288212Y-64837544D01*
X84269909Y-64999996D01*
X84269909Y-65000003D01*
X83230091Y-65000003D01*
X83230091Y-64999996D01*
X83211787Y-64837544D01*
X83211786Y-64837542D01*
X83211786Y-64837539D01*
X83157789Y-64683225D01*
X83070808Y-64544796D01*
X82955204Y-64429192D01*
X82870604Y-64376034D01*
X82816774Y-64342210D01*
X82662455Y-64288212D01*
X82500004Y-64269909D01*
X82499996Y-64269909D01*
X82337544Y-64288212D01*
X82183225Y-64342210D01*
X82044795Y-64429192D01*
X81929192Y-64544795D01*
X81842210Y-64683225D01*
X81788212Y-64837544D01*
X81769909Y-64999996D01*
X81769909Y-65000003D01*
X77370000Y-65000003D01*
X77370000Y-64675000D01*
X78080802Y-64675000D01*
X78118325Y-64654509D01*
X78185639Y-64658633D01*
X78255917Y-64683225D01*
X78337542Y-64711787D01*
X78499996Y-64730091D01*
X78500000Y-64730091D01*
X78500004Y-64730091D01*
X78662455Y-64711787D01*
X78662456Y-64711786D01*
X78662461Y-64711786D01*
X78816775Y-64657789D01*
X78955204Y-64570808D01*
X79070808Y-64455204D01*
X79157789Y-64316775D01*
X79211786Y-64162461D01*
X79211787Y-64162455D01*
X79213516Y-64147112D01*
X91048035Y-64147112D01*
X91068062Y-64376028D01*
X91068064Y-64376039D01*
X91127536Y-64597994D01*
X91127538Y-64597998D01*
X91127539Y-64598002D01*
X91180598Y-64711787D01*
X91224656Y-64806270D01*
X91224660Y-64806276D01*
X91280144Y-64885515D01*
X91356463Y-64994509D01*
X91518954Y-65157000D01*
X91707193Y-65288807D01*
X91915461Y-65385924D01*
X92137429Y-65445400D01*
X92300945Y-65459705D01*
X92366350Y-65465428D01*
X92366352Y-65465428D01*
X92366354Y-65465428D01*
X92423720Y-65460409D01*
X92595275Y-65445400D01*
X92817243Y-65385924D01*
X93025511Y-65288807D01*
X93213750Y-65157000D01*
X93362969Y-65007781D01*
X105200852Y-65007781D01*
X105200853Y-65007787D01*
X105207260Y-65067394D01*
X105257554Y-65202239D01*
X105257558Y-65202246D01*
X105343804Y-65317455D01*
X105343807Y-65317458D01*
X105459016Y-65403704D01*
X105459023Y-65403708D01*
X105593869Y-65454002D01*
X105593868Y-65454002D01*
X105600796Y-65454746D01*
X105653479Y-65460411D01*
X107374824Y-65460410D01*
X107434435Y-65454002D01*
X107569283Y-65403707D01*
X107684498Y-65317457D01*
X107770748Y-65202242D01*
X107821043Y-65067394D01*
X107827452Y-65007784D01*
X107827451Y-63286439D01*
X107821043Y-63226828D01*
X107813953Y-63207820D01*
X107770749Y-63091982D01*
X107770745Y-63091975D01*
X107684499Y-62976766D01*
X107684496Y-62976763D01*
X107569287Y-62890517D01*
X107569280Y-62890513D01*
X107434434Y-62840219D01*
X107434435Y-62840219D01*
X107374835Y-62833812D01*
X107374833Y-62833811D01*
X107374825Y-62833811D01*
X107374816Y-62833811D01*
X105653481Y-62833811D01*
X105653475Y-62833812D01*
X105593868Y-62840219D01*
X105459023Y-62890513D01*
X105459016Y-62890517D01*
X105343807Y-62976763D01*
X105343804Y-62976766D01*
X105257558Y-63091975D01*
X105257554Y-63091982D01*
X105207260Y-63226828D01*
X105202629Y-63269909D01*
X105200853Y-63286434D01*
X105200852Y-63286446D01*
X105200852Y-65007781D01*
X93362969Y-65007781D01*
X93376241Y-64994509D01*
X93508048Y-64806270D01*
X93605165Y-64598002D01*
X93664641Y-64376034D01*
X93684669Y-64147111D01*
X93664641Y-63918188D01*
X93605165Y-63696220D01*
X93508048Y-63487953D01*
X93455864Y-63413427D01*
X93376244Y-63299717D01*
X93376239Y-63299711D01*
X93213750Y-63137222D01*
X93025517Y-63005419D01*
X93025511Y-63005415D01*
X92964071Y-62976765D01*
X92817243Y-62908298D01*
X92817239Y-62908297D01*
X92817235Y-62908295D01*
X92595280Y-62848823D01*
X92595276Y-62848822D01*
X92595275Y-62848822D01*
X92595274Y-62848821D01*
X92595269Y-62848821D01*
X92366354Y-62828794D01*
X92366350Y-62828794D01*
X92137434Y-62848821D01*
X92137423Y-62848823D01*
X91915468Y-62908295D01*
X91915459Y-62908299D01*
X91707194Y-63005414D01*
X91707192Y-63005415D01*
X91518958Y-63137218D01*
X91518952Y-63137223D01*
X91356464Y-63299711D01*
X91356459Y-63299717D01*
X91224656Y-63487951D01*
X91224655Y-63487953D01*
X91127540Y-63696218D01*
X91127536Y-63696227D01*
X91068064Y-63918182D01*
X91068062Y-63918193D01*
X91048035Y-64147109D01*
X91048035Y-64147112D01*
X79213516Y-64147112D01*
X79230091Y-64000003D01*
X79230091Y-63999996D01*
X79211787Y-63837544D01*
X79211786Y-63837542D01*
X79211786Y-63837539D01*
X79157789Y-63683225D01*
X79070808Y-63544796D01*
X78955204Y-63429192D01*
X78816774Y-63342210D01*
X78662455Y-63288212D01*
X78500004Y-63269909D01*
X78499996Y-63269909D01*
X78337544Y-63288212D01*
X78183225Y-63342210D01*
X78044795Y-63429192D01*
X77929193Y-63544794D01*
X77905730Y-63582135D01*
X77853395Y-63628425D01*
X77784341Y-63639072D01*
X77720493Y-63610696D01*
X77713051Y-63603838D01*
X77707460Y-63598247D01*
X77543684Y-63488814D01*
X77543671Y-63488807D01*
X77361691Y-63413429D01*
X77361683Y-63413427D01*
X77320000Y-63405135D01*
X77320000Y-64208011D01*
X77310060Y-64190795D01*
X77254205Y-64134940D01*
X77185796Y-64095444D01*
X77109496Y-64075000D01*
X77030504Y-64075000D01*
X76954204Y-64095444D01*
X76885795Y-64134940D01*
X76829940Y-64190795D01*
X76820000Y-64208011D01*
X76820000Y-63405136D01*
X76819999Y-63405135D01*
X76778316Y-63413427D01*
X76778308Y-63413429D01*
X76596328Y-63488807D01*
X76596315Y-63488814D01*
X76432537Y-63598248D01*
X76432533Y-63598251D01*
X76293251Y-63737533D01*
X76293248Y-63737537D01*
X76183814Y-63901315D01*
X76183809Y-63901324D01*
X76179866Y-63910845D01*
X76136023Y-63965247D01*
X76069728Y-63987310D01*
X76002030Y-63970029D01*
X75996597Y-63966351D01*
X75862136Y-63888719D01*
X75788950Y-63869109D01*
X75715766Y-63849500D01*
X75564234Y-63849500D01*
X75417863Y-63888719D01*
X75286635Y-63964485D01*
X75286632Y-63964487D01*
X75179487Y-64071632D01*
X75179485Y-64071635D01*
X75103719Y-64202863D01*
X75073197Y-64316775D01*
X75064500Y-64349234D01*
X75064500Y-64500766D01*
X74525246Y-64500766D01*
X74570808Y-64455204D01*
X74657789Y-64316775D01*
X74711786Y-64162461D01*
X74711787Y-64162455D01*
X74730091Y-64000003D01*
X74730091Y-63999996D01*
X74711787Y-63837544D01*
X74711786Y-63837542D01*
X74711786Y-63837539D01*
X74657789Y-63683225D01*
X74570808Y-63544796D01*
X74455204Y-63429192D01*
X74316774Y-63342210D01*
X74162455Y-63288212D01*
X74000004Y-63269909D01*
X73999996Y-63269909D01*
X73837544Y-63288212D01*
X73683225Y-63342210D01*
X73544795Y-63429192D01*
X73429192Y-63544795D01*
X73342210Y-63683225D01*
X73288212Y-63837544D01*
X73269909Y-63999996D01*
X73269909Y-64000003D01*
X71730091Y-64000003D01*
X71730091Y-63999996D01*
X71711787Y-63837544D01*
X71711786Y-63837542D01*
X71711786Y-63837539D01*
X71657789Y-63683225D01*
X71570808Y-63544796D01*
X71455204Y-63429192D01*
X71316774Y-63342210D01*
X71162455Y-63288212D01*
X71000004Y-63269909D01*
X70999996Y-63269909D01*
X70837544Y-63288212D01*
X70683225Y-63342210D01*
X70544795Y-63429192D01*
X70429192Y-63544795D01*
X70342209Y-63683227D01*
X70288109Y-63837836D01*
X70247388Y-63894612D01*
X70182435Y-63920359D01*
X70113873Y-63906903D01*
X70109068Y-63904268D01*
X70082138Y-63888720D01*
X70082135Y-63888719D01*
X69935766Y-63849500D01*
X69784234Y-63849500D01*
X69637863Y-63888719D01*
X69546428Y-63941510D01*
X69506635Y-63964485D01*
X69506633Y-63964486D01*
X69499597Y-63968549D01*
X69498327Y-63966349D01*
X69444995Y-63986960D01*
X69376552Y-63972914D01*
X69326568Y-63924094D01*
X69320131Y-63910838D01*
X69316192Y-63901328D01*
X69316185Y-63901315D01*
X69206751Y-63737537D01*
X69206748Y-63737533D01*
X69067466Y-63598251D01*
X69067462Y-63598248D01*
X68903684Y-63488814D01*
X68903671Y-63488807D01*
X68721691Y-63413429D01*
X68721683Y-63413427D01*
X68680000Y-63405135D01*
X68680000Y-64208011D01*
X68670060Y-64190795D01*
X68614205Y-64134940D01*
X68545796Y-64095444D01*
X68469496Y-64075000D01*
X68390504Y-64075000D01*
X68314204Y-64095444D01*
X68245795Y-64134940D01*
X68189940Y-64190795D01*
X68180000Y-64208011D01*
X68180000Y-63405136D01*
X68179999Y-63405135D01*
X68138316Y-63413427D01*
X68138308Y-63413429D01*
X67956328Y-63488807D01*
X67956315Y-63488814D01*
X67792537Y-63598248D01*
X67792533Y-63598251D01*
X67653251Y-63737533D01*
X67653248Y-63737537D01*
X67543814Y-63901315D01*
X67543807Y-63901328D01*
X67468430Y-64083306D01*
X67468427Y-64083318D01*
X67430000Y-64276504D01*
X67430000Y-64675000D01*
X68130000Y-64675000D01*
X68130000Y-65175000D01*
X67430000Y-65175000D01*
X67430000Y-65573495D01*
X60000000Y-65573495D01*
X60000000Y-62606287D01*
X61649500Y-62606287D01*
X61682754Y-62816243D01*
X61744221Y-63005419D01*
X61748444Y-63018414D01*
X61844951Y-63207820D01*
X61969890Y-63379786D01*
X62120213Y-63530109D01*
X62292179Y-63655048D01*
X62292181Y-63655049D01*
X62292184Y-63655051D01*
X62481588Y-63751557D01*
X62683757Y-63817246D01*
X62893713Y-63850500D01*
X62893714Y-63850500D01*
X63106286Y-63850500D01*
X63106287Y-63850500D01*
X63316243Y-63817246D01*
X63518412Y-63751557D01*
X63707816Y-63655051D01*
X63785995Y-63598251D01*
X63879786Y-63530109D01*
X63879788Y-63530106D01*
X63879792Y-63530104D01*
X64030104Y-63379792D01*
X64030106Y-63379788D01*
X64030109Y-63379786D01*
X64155048Y-63207820D01*
X64155047Y-63207820D01*
X64155051Y-63207816D01*
X64251557Y-63018412D01*
X64317246Y-62816243D01*
X64350500Y-62606287D01*
X131649500Y-62606287D01*
X131682754Y-62816243D01*
X131744221Y-63005419D01*
X131748444Y-63018414D01*
X131844951Y-63207820D01*
X131969890Y-63379786D01*
X132120213Y-63530109D01*
X132292179Y-63655048D01*
X132292181Y-63655049D01*
X132292184Y-63655051D01*
X132481588Y-63751557D01*
X132683757Y-63817246D01*
X132893713Y-63850500D01*
X132893714Y-63850500D01*
X133106286Y-63850500D01*
X133106287Y-63850500D01*
X133316243Y-63817246D01*
X133518412Y-63751557D01*
X133707816Y-63655051D01*
X133785995Y-63598251D01*
X133879786Y-63530109D01*
X133879788Y-63530106D01*
X133879792Y-63530104D01*
X134030104Y-63379792D01*
X134030106Y-63379788D01*
X134030109Y-63379786D01*
X134155048Y-63207820D01*
X134155047Y-63207820D01*
X134155051Y-63207816D01*
X134251557Y-63018412D01*
X134317246Y-62816243D01*
X134350500Y-62606287D01*
X134350500Y-62393713D01*
X134317246Y-62183757D01*
X134251557Y-61981588D01*
X134155051Y-61792184D01*
X134155049Y-61792181D01*
X134155048Y-61792179D01*
X134030109Y-61620213D01*
X133879786Y-61469890D01*
X133707820Y-61344951D01*
X133518414Y-61248444D01*
X133518413Y-61248443D01*
X133518412Y-61248443D01*
X133316243Y-61182754D01*
X133316241Y-61182753D01*
X133316240Y-61182753D01*
X133154957Y-61157208D01*
X133106287Y-61149500D01*
X132893713Y-61149500D01*
X132845042Y-61157208D01*
X132683760Y-61182753D01*
X132481585Y-61248444D01*
X132292179Y-61344951D01*
X132120213Y-61469890D01*
X131969890Y-61620213D01*
X131844951Y-61792179D01*
X131748444Y-61981585D01*
X131682753Y-62183760D01*
X131678314Y-62211787D01*
X131649500Y-62393713D01*
X131649500Y-62606287D01*
X64350500Y-62606287D01*
X64350500Y-62393713D01*
X64317246Y-62183757D01*
X64251557Y-61981588D01*
X64155051Y-61792184D01*
X64155049Y-61792181D01*
X64155048Y-61792179D01*
X64030109Y-61620213D01*
X63879786Y-61469890D01*
X63707820Y-61344951D01*
X63518414Y-61248444D01*
X63518413Y-61248443D01*
X63518412Y-61248443D01*
X63316243Y-61182754D01*
X63316241Y-61182753D01*
X63316240Y-61182753D01*
X63154957Y-61157208D01*
X63106287Y-61149500D01*
X62893713Y-61149500D01*
X62845042Y-61157208D01*
X62683760Y-61182753D01*
X62481585Y-61248444D01*
X62292179Y-61344951D01*
X62120213Y-61469890D01*
X61969890Y-61620213D01*
X61844951Y-61792179D01*
X61748444Y-61981585D01*
X61682753Y-62183760D01*
X61678314Y-62211787D01*
X61649500Y-62393713D01*
X61649500Y-62606287D01*
X60000000Y-62606287D01*
X60000000Y-60624000D01*
X60019685Y-60556961D01*
X60072489Y-60511206D01*
X60124000Y-60500000D01*
X67413037Y-60500000D01*
X68130000Y-60500000D01*
X68130000Y-60995000D01*
G37*
%TD.AperFunction*%
M02*
