%TF.GenerationSoftware,KiCad,Pcbnew,8.0.1*%
%TF.CreationDate,2024-04-16T19:56:43-05:00*%
%TF.ProjectId,PCB-1-2,5043422d-312d-4322-9e6b-696361645f70,rev?*%
%TF.SameCoordinates,Original*%
%TF.FileFunction,Paste,Top*%
%TF.FilePolarity,Positive*%
%FSLAX46Y46*%
G04 Gerber Fmt 4.6, Leading zero omitted, Abs format (unit mm)*
G04 Created by KiCad (PCBNEW 8.0.1) date 2024-04-16 19:56:43*
%MOMM*%
%LPD*%
G01*
G04 APERTURE LIST*
G04 Aperture macros list*
%AMRoundRect*
0 Rectangle with rounded corners*
0 $1 Rounding radius*
0 $2 $3 $4 $5 $6 $7 $8 $9 X,Y pos of 4 corners*
0 Add a 4 corners polygon primitive as box body*
4,1,4,$2,$3,$4,$5,$6,$7,$8,$9,$2,$3,0*
0 Add four circle primitives for the rounded corners*
1,1,$1+$1,$2,$3*
1,1,$1+$1,$4,$5*
1,1,$1+$1,$6,$7*
1,1,$1+$1,$8,$9*
0 Add four rect primitives between the rounded corners*
20,1,$1+$1,$2,$3,$4,$5,0*
20,1,$1+$1,$4,$5,$6,$7,0*
20,1,$1+$1,$6,$7,$8,$9,0*
20,1,$1+$1,$8,$9,$2,$3,0*%
%AMRotRect*
0 Rectangle, with rotation*
0 The origin of the aperture is its center*
0 $1 length*
0 $2 width*
0 $3 Rotation angle, in degrees counterclockwise*
0 Add horizontal line*
21,1,$1,$2,0,0,$3*%
G04 Aperture macros list end*
%ADD10RoundRect,0.218750X-0.218750X-0.381250X0.218750X-0.381250X0.218750X0.381250X-0.218750X0.381250X0*%
%ADD11RoundRect,0.250000X0.450000X-0.262500X0.450000X0.262500X-0.450000X0.262500X-0.450000X-0.262500X0*%
%ADD12RoundRect,0.250000X0.250000X0.475000X-0.250000X0.475000X-0.250000X-0.475000X0.250000X-0.475000X0*%
%ADD13RoundRect,0.250000X-0.450000X0.262500X-0.450000X-0.262500X0.450000X-0.262500X0.450000X0.262500X0*%
%ADD14RoundRect,0.250000X-0.250000X-0.475000X0.250000X-0.475000X0.250000X0.475000X-0.250000X0.475000X0*%
%ADD15RoundRect,0.250000X-0.262500X-0.450000X0.262500X-0.450000X0.262500X0.450000X-0.262500X0.450000X0*%
%ADD16RotRect,0.740000X2.790000X315.000000*%
%ADD17RoundRect,0.243750X-0.243750X-0.456250X0.243750X-0.456250X0.243750X0.456250X-0.243750X0.456250X0*%
%ADD18R,0.558800X1.981200*%
%ADD19RoundRect,0.250000X0.475000X-0.250000X0.475000X0.250000X-0.475000X0.250000X-0.475000X-0.250000X0*%
%ADD20RoundRect,0.250000X0.512652X0.159099X0.159099X0.512652X-0.512652X-0.159099X-0.159099X-0.512652X0*%
%ADD21RotRect,1.200000X1.800000X315.000000*%
%ADD22R,0.431800X1.333500*%
%ADD23RoundRect,0.140000X-0.170000X0.140000X-0.170000X-0.140000X0.170000X-0.140000X0.170000X0.140000X0*%
%ADD24RoundRect,0.250000X-0.159099X0.512652X-0.512652X0.159099X0.159099X-0.512652X0.512652X-0.159099X0*%
%ADD25R,0.254000X0.812800*%
%ADD26R,2.489200X1.752600*%
%ADD27RoundRect,0.250000X-0.475000X0.250000X-0.475000X-0.250000X0.475000X-0.250000X0.475000X0.250000X0*%
%ADD28RoundRect,0.225000X-0.250000X0.225000X-0.250000X-0.225000X0.250000X-0.225000X0.250000X0.225000X0*%
%ADD29R,0.355600X1.498600*%
%ADD30RoundRect,0.243750X0.456250X-0.243750X0.456250X0.243750X-0.456250X0.243750X-0.456250X-0.243750X0*%
%ADD31R,0.600000X1.150000*%
%ADD32R,0.300000X1.150000*%
%ADD33R,1.981200X0.533400*%
%ADD34RoundRect,0.200000X0.200000X0.275000X-0.200000X0.275000X-0.200000X-0.275000X0.200000X-0.275000X0*%
%ADD35RoundRect,0.225000X0.225000X0.250000X-0.225000X0.250000X-0.225000X-0.250000X0.225000X-0.250000X0*%
%ADD36R,1.460500X0.533400*%
%ADD37RoundRect,0.225000X-0.225000X-0.250000X0.225000X-0.250000X0.225000X0.250000X-0.225000X0.250000X0*%
%ADD38RoundRect,0.020400X0.919600X0.234600X-0.919600X0.234600X-0.919600X-0.234600X0.919600X-0.234600X0*%
%ADD39RoundRect,0.020400X-0.234600X0.919600X-0.234600X-0.919600X0.234600X-0.919600X0.234600X0.919600X0*%
%ADD40R,2.209800X0.609600*%
%ADD41R,0.977900X0.558800*%
%ADD42R,1.300000X1.050000*%
%ADD43RoundRect,0.250000X-0.512652X-0.159099X-0.159099X-0.512652X0.512652X0.159099X0.159099X0.512652X0*%
%ADD44RoundRect,0.243750X-0.456250X0.243750X-0.456250X-0.243750X0.456250X-0.243750X0.456250X0.243750X0*%
%ADD45RoundRect,0.250000X0.262500X0.450000X-0.262500X0.450000X-0.262500X-0.450000X0.262500X-0.450000X0*%
%ADD46RoundRect,0.011200X-0.420729X-0.602879X0.602879X0.420729X0.420729X0.602879X-0.602879X-0.420729X0*%
%ADD47RoundRect,0.050400X0.420729X-0.547442X0.547442X-0.420729X-0.420729X0.547442X-0.547442X0.420729X0*%
G04 APERTURE END LIST*
D10*
X101165996Y-67486615D03*
X103290996Y-67486615D03*
D11*
X73549928Y-69251169D03*
X73549928Y-67426169D03*
D12*
X122450000Y-68000000D03*
X120550000Y-68000000D03*
D13*
X120952461Y-119719404D03*
X120952461Y-121544404D03*
D14*
X102550003Y-88300001D03*
X104450001Y-88300001D03*
X118820031Y-114840422D03*
X120720029Y-114840422D03*
D15*
X118865464Y-117011906D03*
X120690464Y-117011906D03*
D16*
X91124221Y-86720792D03*
X94002145Y-83842868D03*
X92022246Y-87618818D03*
X94900171Y-84740893D03*
X92920272Y-88516844D03*
X95798197Y-85638919D03*
X93818298Y-89414869D03*
X96696222Y-86536945D03*
X94716323Y-90312895D03*
X97594248Y-87434970D03*
X95614349Y-91210921D03*
X98492274Y-88332996D03*
X96512375Y-92108946D03*
X99390299Y-89231022D03*
D17*
X75852677Y-71988894D03*
X77727677Y-71988894D03*
D14*
X105158652Y-68647111D03*
X107058652Y-68647111D03*
D13*
X107500000Y-102087500D03*
X107500000Y-103912500D03*
D18*
X77350000Y-97457600D03*
X76080000Y-97457600D03*
X74810000Y-97457600D03*
X73540000Y-97457600D03*
X72270000Y-97457600D03*
X71000000Y-97457600D03*
X69730000Y-97457600D03*
X68460000Y-97457600D03*
X67190000Y-97457600D03*
X67190000Y-106500000D03*
X68460000Y-106500000D03*
X69730000Y-106500000D03*
X71000000Y-106500000D03*
X72270000Y-106500000D03*
X73540000Y-106500000D03*
X74810000Y-106500000D03*
X76080000Y-106500000D03*
X77350000Y-106500000D03*
D19*
X133541531Y-104631742D03*
X133541531Y-102731744D03*
D12*
X77608652Y-68147111D03*
X75708652Y-68147111D03*
D20*
X95969848Y-99009693D03*
X94626346Y-97666191D03*
D14*
X92658652Y-71647111D03*
X94558652Y-71647111D03*
D21*
X80943872Y-114737258D03*
X78115445Y-117565685D03*
X79812502Y-119262742D03*
X82640929Y-116434315D03*
D22*
X122525001Y-119216150D03*
X123174999Y-119216150D03*
X123825001Y-119216150D03*
X124474999Y-119216150D03*
X124474999Y-114783850D03*
X123825001Y-114783850D03*
X123174999Y-114783850D03*
X122525001Y-114783850D03*
D19*
X124550843Y-104752542D03*
X124550843Y-102852544D03*
D23*
X126525001Y-115275473D03*
X126525001Y-116235473D03*
D24*
X103161124Y-108393001D03*
X101817622Y-109736503D03*
D25*
X106837501Y-119500000D03*
X106337500Y-119500000D03*
X105837500Y-119500000D03*
X105337499Y-119500000D03*
X105337499Y-122294000D03*
X105837500Y-122294000D03*
X106337500Y-122294000D03*
X106837501Y-122294000D03*
D26*
X106087500Y-120897000D03*
D15*
X126612501Y-118783850D03*
X128437501Y-118783850D03*
D27*
X79998671Y-69061163D03*
X79998671Y-70961163D03*
D28*
X95108652Y-73872111D03*
X95108652Y-75422111D03*
D13*
X63000000Y-72525002D03*
X63000000Y-74350002D03*
D12*
X123819980Y-112738542D03*
X121919982Y-112738542D03*
D15*
X83196152Y-78104730D03*
X85021152Y-78104730D03*
D29*
X87323652Y-63236911D03*
X86688652Y-63236911D03*
X86053652Y-63236911D03*
X85418652Y-63236911D03*
X84783652Y-63236911D03*
X84148652Y-63236911D03*
X83513652Y-63236911D03*
X82878652Y-63236911D03*
X82243652Y-63236911D03*
X81608652Y-63236911D03*
X81608652Y-68647111D03*
X82243652Y-68647111D03*
X82878652Y-68647111D03*
X83513652Y-68647111D03*
X84148652Y-68647111D03*
X84783652Y-68647111D03*
X85418652Y-68647111D03*
X86053652Y-68647111D03*
X86688652Y-68647111D03*
X87323652Y-68647111D03*
D12*
X111095797Y-117617844D03*
X109195797Y-117617844D03*
D11*
X71459979Y-69225089D03*
X71459979Y-67400089D03*
D15*
X126516405Y-102339642D03*
X128341405Y-102339642D03*
D14*
X114329525Y-95090562D03*
X116229523Y-95090562D03*
D30*
X63000000Y-77875002D03*
X63000000Y-76000000D03*
D14*
X124575002Y-121283849D03*
X126475000Y-121283849D03*
D31*
X75950000Y-65500000D03*
X75150000Y-65500000D03*
D32*
X74000000Y-65500000D03*
X73000000Y-65500000D03*
X72500000Y-65500000D03*
X71500000Y-65500000D03*
D31*
X69550000Y-65500000D03*
X70350000Y-65500000D03*
D32*
X71000000Y-65500000D03*
X72000000Y-65500000D03*
X73500000Y-65500000D03*
X74500000Y-65500000D03*
D14*
X132238819Y-100685191D03*
X134138817Y-100685191D03*
X114334644Y-97127875D03*
X116234642Y-97127875D03*
D33*
X117572400Y-70190000D03*
X117572400Y-71460000D03*
X117572400Y-72730000D03*
X117572400Y-74000000D03*
X122500000Y-74000000D03*
X122500000Y-72730000D03*
X122500000Y-71460000D03*
X122500000Y-70190000D03*
D34*
X65785000Y-96999999D03*
X64135000Y-96999999D03*
D24*
X84970910Y-104117889D03*
X83627408Y-105461391D03*
D35*
X128247688Y-104465209D03*
X126697688Y-104465209D03*
D36*
X125551700Y-70000000D03*
X125551700Y-71270000D03*
X125551700Y-72540000D03*
X125551700Y-73810000D03*
X131000000Y-73810000D03*
X131000000Y-72540000D03*
X131000000Y-71270000D03*
X131000000Y-70000000D03*
D37*
X120902087Y-123476835D03*
X122452087Y-123476835D03*
D15*
X79196152Y-76647111D03*
X81021152Y-76647111D03*
D14*
X92708652Y-68147111D03*
X94608652Y-68147111D03*
D22*
X128525841Y-106586393D03*
X127875843Y-106586393D03*
X127225841Y-106586393D03*
X126575843Y-106586393D03*
X126575843Y-111018693D03*
X127225841Y-111018693D03*
X127875843Y-111018693D03*
X128525841Y-111018693D03*
D12*
X112726309Y-97133664D03*
X110826311Y-97133664D03*
D38*
X120000000Y-90300000D03*
X120000000Y-89500000D03*
X120000000Y-88700000D03*
X120000000Y-87900000D03*
X120000000Y-87099999D03*
X120000000Y-86300000D03*
X120000000Y-85500001D03*
X120000000Y-84700000D03*
X120000000Y-83900000D03*
X120000000Y-83100000D03*
X120000000Y-82300000D03*
D39*
X117510000Y-79810000D03*
X116710000Y-79810000D03*
X115910000Y-79810000D03*
X115110000Y-79810000D03*
X114309999Y-79810000D03*
X113510000Y-79810000D03*
X112710001Y-79810000D03*
X111910000Y-79810000D03*
X111110000Y-79810000D03*
X110310000Y-79810000D03*
X109510000Y-79810000D03*
D38*
X107020000Y-82300000D03*
X107020000Y-83100000D03*
X107020000Y-83900000D03*
X107020000Y-84700000D03*
X107020000Y-85500001D03*
X107020000Y-86300000D03*
X107020000Y-87099999D03*
X107020000Y-87900000D03*
X107020000Y-88700000D03*
X107020000Y-89500000D03*
X107020000Y-90300000D03*
D39*
X109510000Y-92790000D03*
X110310000Y-92790000D03*
X111110000Y-92790000D03*
X111910000Y-92790000D03*
X112710001Y-92790000D03*
X113510000Y-92790000D03*
X114309999Y-92790000D03*
X115110000Y-92790000D03*
X115910000Y-92790000D03*
X116710000Y-92790000D03*
X117510000Y-92790000D03*
D12*
X106838631Y-117730550D03*
X104938631Y-117730550D03*
D40*
X97507692Y-69742111D03*
X97507692Y-71012111D03*
X97507692Y-72282111D03*
X97507692Y-73552111D03*
X102709612Y-73552111D03*
X102709612Y-72282111D03*
X102709612Y-71012111D03*
X102709612Y-69742111D03*
D14*
X75950001Y-94999999D03*
X77849999Y-94999999D03*
D41*
X134972549Y-98795287D03*
X134972550Y-97845286D03*
X134972549Y-96895285D03*
X132242049Y-96895285D03*
X132242048Y-97845286D03*
X132242049Y-98795287D03*
D20*
X78069641Y-120658144D03*
X76726139Y-119314642D03*
D12*
X130950000Y-68000000D03*
X129050000Y-68000000D03*
X112725533Y-95090562D03*
X110825535Y-95090562D03*
D15*
X104998176Y-115709756D03*
X106823176Y-115709756D03*
D19*
X130252235Y-104671384D03*
X130252235Y-102771386D03*
D15*
X109237395Y-115620010D03*
X111062395Y-115620010D03*
D42*
X78888863Y-89224069D03*
X76588863Y-89224069D03*
X76588863Y-90974069D03*
X78888863Y-90974069D03*
D37*
X105313705Y-75367041D03*
X106863705Y-75367041D03*
D14*
X133050001Y-95000000D03*
X134949999Y-95000000D03*
X109158652Y-70647111D03*
X111058652Y-70647111D03*
X105208652Y-72147111D03*
X107108652Y-72147111D03*
D25*
X111087500Y-119470844D03*
X110587499Y-119470844D03*
X110087499Y-119470844D03*
X109587498Y-119470844D03*
X109587498Y-122264844D03*
X110087499Y-122264844D03*
X110587499Y-122264844D03*
X111087500Y-122264844D03*
D26*
X110337499Y-120867844D03*
D43*
X82726139Y-113314642D03*
X84069641Y-114658144D03*
D44*
X82608652Y-72869611D03*
X82608652Y-74744611D03*
D19*
X122655533Y-99170495D03*
X122655533Y-97270497D03*
D45*
X80021152Y-74147111D03*
X78196152Y-74147111D03*
D30*
X107500000Y-107437500D03*
X107500000Y-105562500D03*
D14*
X102550002Y-90345080D03*
X104450000Y-90345080D03*
D12*
X74409999Y-94999999D03*
X72510001Y-94999999D03*
D46*
X86339054Y-108357645D03*
X86692608Y-108711198D03*
X87046161Y-109064752D03*
X87399714Y-109418305D03*
X87753268Y-109771859D03*
X88106821Y-110125412D03*
X88460374Y-110478965D03*
X88813928Y-110832519D03*
X89167481Y-111186072D03*
X89521035Y-111539626D03*
X89874588Y-111893179D03*
X90228141Y-112246732D03*
X90581695Y-112600286D03*
X90935248Y-112953839D03*
X91288802Y-113307392D03*
X91642355Y-113660946D03*
D47*
X94357645Y-113660946D03*
X94711198Y-113307392D03*
X95064752Y-112953839D03*
X95418305Y-112600286D03*
X95771859Y-112246732D03*
X96125412Y-111893179D03*
X96478965Y-111539626D03*
X96832519Y-111186072D03*
X97186072Y-110832519D03*
X97539626Y-110478965D03*
X97893179Y-110125412D03*
X98246732Y-109771859D03*
X98600286Y-109418305D03*
X98953839Y-109064752D03*
X99307392Y-108711198D03*
X99660946Y-108357645D03*
D46*
X99660946Y-105642355D03*
X99307392Y-105288802D03*
X98953839Y-104935248D03*
X98600286Y-104581695D03*
X98246732Y-104228141D03*
X97893179Y-103874588D03*
X97539626Y-103521035D03*
X97186072Y-103167481D03*
X96832519Y-102813928D03*
X96478965Y-102460374D03*
X96125412Y-102106821D03*
X95771859Y-101753268D03*
X95418305Y-101399714D03*
X95064752Y-101046161D03*
X94711198Y-100692608D03*
X94357645Y-100339054D03*
D47*
X91642355Y-100339054D03*
X91288802Y-100692608D03*
X90935248Y-101046161D03*
X90581695Y-101399714D03*
X90228141Y-101753268D03*
X89874588Y-102106821D03*
X89521035Y-102460374D03*
X89167481Y-102813928D03*
X88813928Y-103167481D03*
X88460374Y-103521035D03*
X88106821Y-103874588D03*
X87753268Y-104228141D03*
X87399714Y-104581695D03*
X87046161Y-104935248D03*
X86692608Y-105288802D03*
X86339054Y-105642355D03*
D36*
X130224150Y-100404999D03*
X130224150Y-99135000D03*
X130224150Y-97865000D03*
X130224150Y-96595001D03*
X124775850Y-96595001D03*
X124775850Y-97865000D03*
X124775850Y-99135000D03*
X124775850Y-100404999D03*
D34*
X65785000Y-106999999D03*
X64135000Y-106999999D03*
M02*
