%TF.GenerationSoftware,KiCad,Pcbnew,8.0.1*%
%TF.CreationDate,2024-04-16T19:56:43-05:00*%
%TF.ProjectId,PCB-1-2,5043422d-312d-4322-9e6b-696361645f70,rev?*%
%TF.SameCoordinates,Original*%
%TF.FileFunction,Legend,Top*%
%TF.FilePolarity,Positive*%
%FSLAX46Y46*%
G04 Gerber Fmt 4.6, Leading zero omitted, Abs format (unit mm)*
G04 Created by KiCad (PCBNEW 8.0.1) date 2024-04-16 19:56:43*
%MOMM*%
%LPD*%
G01*
G04 APERTURE LIST*
%ADD10C,0.250000*%
%ADD11C,0.150000*%
%ADD12C,0.120000*%
%ADD13C,0.200000*%
%ADD14C,0.152400*%
%ADD15C,0.000000*%
%ADD16C,0.127000*%
%ADD17C,0.508000*%
%ADD18C,0.300000*%
G04 APERTURE END LIST*
D10*
X61473996Y-81439548D02*
X61426377Y-81487168D01*
X61426377Y-81487168D02*
X61283520Y-81534787D01*
X61283520Y-81534787D02*
X61188282Y-81534787D01*
X61188282Y-81534787D02*
X61045425Y-81487168D01*
X61045425Y-81487168D02*
X60950187Y-81391929D01*
X60950187Y-81391929D02*
X60902568Y-81296691D01*
X60902568Y-81296691D02*
X60854949Y-81106215D01*
X60854949Y-81106215D02*
X60854949Y-80963358D01*
X60854949Y-80963358D02*
X60902568Y-80772882D01*
X60902568Y-80772882D02*
X60950187Y-80677644D01*
X60950187Y-80677644D02*
X61045425Y-80582406D01*
X61045425Y-80582406D02*
X61188282Y-80534787D01*
X61188282Y-80534787D02*
X61283520Y-80534787D01*
X61283520Y-80534787D02*
X61426377Y-80582406D01*
X61426377Y-80582406D02*
X61473996Y-80630025D01*
X62045425Y-81534787D02*
X61950187Y-81487168D01*
X61950187Y-81487168D02*
X61902568Y-81439548D01*
X61902568Y-81439548D02*
X61854949Y-81344310D01*
X61854949Y-81344310D02*
X61854949Y-81058596D01*
X61854949Y-81058596D02*
X61902568Y-80963358D01*
X61902568Y-80963358D02*
X61950187Y-80915739D01*
X61950187Y-80915739D02*
X62045425Y-80868120D01*
X62045425Y-80868120D02*
X62188282Y-80868120D01*
X62188282Y-80868120D02*
X62283520Y-80915739D01*
X62283520Y-80915739D02*
X62331139Y-80963358D01*
X62331139Y-80963358D02*
X62378758Y-81058596D01*
X62378758Y-81058596D02*
X62378758Y-81344310D01*
X62378758Y-81344310D02*
X62331139Y-81439548D01*
X62331139Y-81439548D02*
X62283520Y-81487168D01*
X62283520Y-81487168D02*
X62188282Y-81534787D01*
X62188282Y-81534787D02*
X62045425Y-81534787D01*
X62807330Y-80868120D02*
X62807330Y-81534787D01*
X62807330Y-80963358D02*
X62854949Y-80915739D01*
X62854949Y-80915739D02*
X62950187Y-80868120D01*
X62950187Y-80868120D02*
X63093044Y-80868120D01*
X63093044Y-80868120D02*
X63188282Y-80915739D01*
X63188282Y-80915739D02*
X63235901Y-81010977D01*
X63235901Y-81010977D02*
X63235901Y-81534787D01*
X63569235Y-80868120D02*
X63950187Y-80868120D01*
X63712092Y-80534787D02*
X63712092Y-81391929D01*
X63712092Y-81391929D02*
X63759711Y-81487168D01*
X63759711Y-81487168D02*
X63854949Y-81534787D01*
X63854949Y-81534787D02*
X63950187Y-81534787D01*
X64283521Y-81534787D02*
X64283521Y-80868120D01*
X64283521Y-81058596D02*
X64331140Y-80963358D01*
X64331140Y-80963358D02*
X64378759Y-80915739D01*
X64378759Y-80915739D02*
X64473997Y-80868120D01*
X64473997Y-80868120D02*
X64569235Y-80868120D01*
X64902569Y-81534787D02*
X64902569Y-80868120D01*
X64902569Y-80534787D02*
X64854950Y-80582406D01*
X64854950Y-80582406D02*
X64902569Y-80630025D01*
X64902569Y-80630025D02*
X64950188Y-80582406D01*
X64950188Y-80582406D02*
X64902569Y-80534787D01*
X64902569Y-80534787D02*
X64902569Y-80630025D01*
X65378759Y-81534787D02*
X65378759Y-80534787D01*
X65378759Y-80915739D02*
X65473997Y-80868120D01*
X65473997Y-80868120D02*
X65664473Y-80868120D01*
X65664473Y-80868120D02*
X65759711Y-80915739D01*
X65759711Y-80915739D02*
X65807330Y-80963358D01*
X65807330Y-80963358D02*
X65854949Y-81058596D01*
X65854949Y-81058596D02*
X65854949Y-81344310D01*
X65854949Y-81344310D02*
X65807330Y-81439548D01*
X65807330Y-81439548D02*
X65759711Y-81487168D01*
X65759711Y-81487168D02*
X65664473Y-81534787D01*
X65664473Y-81534787D02*
X65473997Y-81534787D01*
X65473997Y-81534787D02*
X65378759Y-81487168D01*
X66712092Y-80868120D02*
X66712092Y-81534787D01*
X66283521Y-80868120D02*
X66283521Y-81391929D01*
X66283521Y-81391929D02*
X66331140Y-81487168D01*
X66331140Y-81487168D02*
X66426378Y-81534787D01*
X66426378Y-81534787D02*
X66569235Y-81534787D01*
X66569235Y-81534787D02*
X66664473Y-81487168D01*
X66664473Y-81487168D02*
X66712092Y-81439548D01*
X67045426Y-80868120D02*
X67426378Y-80868120D01*
X67188283Y-80534787D02*
X67188283Y-81391929D01*
X67188283Y-81391929D02*
X67235902Y-81487168D01*
X67235902Y-81487168D02*
X67331140Y-81534787D01*
X67331140Y-81534787D02*
X67426378Y-81534787D01*
X67902569Y-81534787D02*
X67807331Y-81487168D01*
X67807331Y-81487168D02*
X67759712Y-81439548D01*
X67759712Y-81439548D02*
X67712093Y-81344310D01*
X67712093Y-81344310D02*
X67712093Y-81058596D01*
X67712093Y-81058596D02*
X67759712Y-80963358D01*
X67759712Y-80963358D02*
X67807331Y-80915739D01*
X67807331Y-80915739D02*
X67902569Y-80868120D01*
X67902569Y-80868120D02*
X68045426Y-80868120D01*
X68045426Y-80868120D02*
X68140664Y-80915739D01*
X68140664Y-80915739D02*
X68188283Y-80963358D01*
X68188283Y-80963358D02*
X68235902Y-81058596D01*
X68235902Y-81058596D02*
X68235902Y-81344310D01*
X68235902Y-81344310D02*
X68188283Y-81439548D01*
X68188283Y-81439548D02*
X68140664Y-81487168D01*
X68140664Y-81487168D02*
X68045426Y-81534787D01*
X68045426Y-81534787D02*
X67902569Y-81534787D01*
X68664474Y-81534787D02*
X68664474Y-80868120D01*
X68664474Y-81058596D02*
X68712093Y-80963358D01*
X68712093Y-80963358D02*
X68759712Y-80915739D01*
X68759712Y-80915739D02*
X68854950Y-80868120D01*
X68854950Y-80868120D02*
X68950188Y-80868120D01*
X69235903Y-81487168D02*
X69331141Y-81534787D01*
X69331141Y-81534787D02*
X69521617Y-81534787D01*
X69521617Y-81534787D02*
X69616855Y-81487168D01*
X69616855Y-81487168D02*
X69664474Y-81391929D01*
X69664474Y-81391929D02*
X69664474Y-81344310D01*
X69664474Y-81344310D02*
X69616855Y-81249072D01*
X69616855Y-81249072D02*
X69521617Y-81201453D01*
X69521617Y-81201453D02*
X69378760Y-81201453D01*
X69378760Y-81201453D02*
X69283522Y-81153834D01*
X69283522Y-81153834D02*
X69235903Y-81058596D01*
X69235903Y-81058596D02*
X69235903Y-81010977D01*
X69235903Y-81010977D02*
X69283522Y-80915739D01*
X69283522Y-80915739D02*
X69378760Y-80868120D01*
X69378760Y-80868120D02*
X69521617Y-80868120D01*
X69521617Y-80868120D02*
X69616855Y-80915739D01*
X70093046Y-81439548D02*
X70140665Y-81487168D01*
X70140665Y-81487168D02*
X70093046Y-81534787D01*
X70093046Y-81534787D02*
X70045427Y-81487168D01*
X70045427Y-81487168D02*
X70093046Y-81439548D01*
X70093046Y-81439548D02*
X70093046Y-81534787D01*
X70093046Y-80915739D02*
X70140665Y-80963358D01*
X70140665Y-80963358D02*
X70093046Y-81010977D01*
X70093046Y-81010977D02*
X70045427Y-80963358D01*
X70045427Y-80963358D02*
X70093046Y-80915739D01*
X70093046Y-80915739D02*
X70093046Y-81010977D01*
X60902568Y-83144731D02*
X60902568Y-82144731D01*
X60902568Y-82144731D02*
X61140663Y-82144731D01*
X61140663Y-82144731D02*
X61283520Y-82192350D01*
X61283520Y-82192350D02*
X61378758Y-82287588D01*
X61378758Y-82287588D02*
X61426377Y-82382826D01*
X61426377Y-82382826D02*
X61473996Y-82573302D01*
X61473996Y-82573302D02*
X61473996Y-82716159D01*
X61473996Y-82716159D02*
X61426377Y-82906635D01*
X61426377Y-82906635D02*
X61378758Y-83001873D01*
X61378758Y-83001873D02*
X61283520Y-83097112D01*
X61283520Y-83097112D02*
X61140663Y-83144731D01*
X61140663Y-83144731D02*
X60902568Y-83144731D01*
X62283520Y-83097112D02*
X62188282Y-83144731D01*
X62188282Y-83144731D02*
X61997806Y-83144731D01*
X61997806Y-83144731D02*
X61902568Y-83097112D01*
X61902568Y-83097112D02*
X61854949Y-83001873D01*
X61854949Y-83001873D02*
X61854949Y-82620921D01*
X61854949Y-82620921D02*
X61902568Y-82525683D01*
X61902568Y-82525683D02*
X61997806Y-82478064D01*
X61997806Y-82478064D02*
X62188282Y-82478064D01*
X62188282Y-82478064D02*
X62283520Y-82525683D01*
X62283520Y-82525683D02*
X62331139Y-82620921D01*
X62331139Y-82620921D02*
X62331139Y-82716159D01*
X62331139Y-82716159D02*
X61854949Y-82811397D01*
X62664473Y-82478064D02*
X62902568Y-83144731D01*
X62902568Y-83144731D02*
X63140663Y-82478064D01*
X63521616Y-83144731D02*
X63521616Y-82478064D01*
X63521616Y-82144731D02*
X63473997Y-82192350D01*
X63473997Y-82192350D02*
X63521616Y-82239969D01*
X63521616Y-82239969D02*
X63569235Y-82192350D01*
X63569235Y-82192350D02*
X63521616Y-82144731D01*
X63521616Y-82144731D02*
X63521616Y-82239969D01*
X63997806Y-82478064D02*
X63997806Y-83144731D01*
X63997806Y-82573302D02*
X64045425Y-82525683D01*
X64045425Y-82525683D02*
X64140663Y-82478064D01*
X64140663Y-82478064D02*
X64283520Y-82478064D01*
X64283520Y-82478064D02*
X64378758Y-82525683D01*
X64378758Y-82525683D02*
X64426377Y-82620921D01*
X64426377Y-82620921D02*
X64426377Y-83144731D01*
X65664473Y-83144731D02*
X65664473Y-82144731D01*
X65664473Y-82144731D02*
X65997806Y-82859016D01*
X65997806Y-82859016D02*
X66331139Y-82144731D01*
X66331139Y-82144731D02*
X66331139Y-83144731D01*
X67235901Y-83144731D02*
X67235901Y-82620921D01*
X67235901Y-82620921D02*
X67188282Y-82525683D01*
X67188282Y-82525683D02*
X67093044Y-82478064D01*
X67093044Y-82478064D02*
X66902568Y-82478064D01*
X66902568Y-82478064D02*
X66807330Y-82525683D01*
X67235901Y-83097112D02*
X67140663Y-83144731D01*
X67140663Y-83144731D02*
X66902568Y-83144731D01*
X66902568Y-83144731D02*
X66807330Y-83097112D01*
X66807330Y-83097112D02*
X66759711Y-83001873D01*
X66759711Y-83001873D02*
X66759711Y-82906635D01*
X66759711Y-82906635D02*
X66807330Y-82811397D01*
X66807330Y-82811397D02*
X66902568Y-82763778D01*
X66902568Y-82763778D02*
X67140663Y-82763778D01*
X67140663Y-82763778D02*
X67235901Y-82716159D01*
X67712092Y-83144731D02*
X67712092Y-82478064D01*
X67712092Y-82668540D02*
X67759711Y-82573302D01*
X67759711Y-82573302D02*
X67807330Y-82525683D01*
X67807330Y-82525683D02*
X67902568Y-82478064D01*
X67902568Y-82478064D02*
X67997806Y-82478064D01*
X68235902Y-83144731D02*
X68759711Y-82478064D01*
X68235902Y-82478064D02*
X68759711Y-83144731D01*
X60902568Y-84230865D02*
X61235901Y-84230865D01*
X61378758Y-84754675D02*
X60902568Y-84754675D01*
X60902568Y-84754675D02*
X60902568Y-83754675D01*
X60902568Y-83754675D02*
X61378758Y-83754675D01*
X61807330Y-84754675D02*
X61807330Y-84088008D01*
X61807330Y-84278484D02*
X61854949Y-84183246D01*
X61854949Y-84183246D02*
X61902568Y-84135627D01*
X61902568Y-84135627D02*
X61997806Y-84088008D01*
X61997806Y-84088008D02*
X62093044Y-84088008D01*
X62426378Y-84754675D02*
X62426378Y-84088008D01*
X62426378Y-83754675D02*
X62378759Y-83802294D01*
X62378759Y-83802294D02*
X62426378Y-83849913D01*
X62426378Y-83849913D02*
X62473997Y-83802294D01*
X62473997Y-83802294D02*
X62426378Y-83754675D01*
X62426378Y-83754675D02*
X62426378Y-83849913D01*
X63331139Y-84707056D02*
X63235901Y-84754675D01*
X63235901Y-84754675D02*
X63045425Y-84754675D01*
X63045425Y-84754675D02*
X62950187Y-84707056D01*
X62950187Y-84707056D02*
X62902568Y-84659436D01*
X62902568Y-84659436D02*
X62854949Y-84564198D01*
X62854949Y-84564198D02*
X62854949Y-84278484D01*
X62854949Y-84278484D02*
X62902568Y-84183246D01*
X62902568Y-84183246D02*
X62950187Y-84135627D01*
X62950187Y-84135627D02*
X63045425Y-84088008D01*
X63045425Y-84088008D02*
X63235901Y-84088008D01*
X63235901Y-84088008D02*
X63331139Y-84135627D01*
X63759711Y-84754675D02*
X63759711Y-83754675D01*
X63854949Y-84373722D02*
X64140663Y-84754675D01*
X64140663Y-84088008D02*
X63759711Y-84468960D01*
X65902568Y-84754675D02*
X65569235Y-84278484D01*
X65331140Y-84754675D02*
X65331140Y-83754675D01*
X65331140Y-83754675D02*
X65712092Y-83754675D01*
X65712092Y-83754675D02*
X65807330Y-83802294D01*
X65807330Y-83802294D02*
X65854949Y-83849913D01*
X65854949Y-83849913D02*
X65902568Y-83945151D01*
X65902568Y-83945151D02*
X65902568Y-84088008D01*
X65902568Y-84088008D02*
X65854949Y-84183246D01*
X65854949Y-84183246D02*
X65807330Y-84230865D01*
X65807330Y-84230865D02*
X65712092Y-84278484D01*
X65712092Y-84278484D02*
X65331140Y-84278484D01*
X66473997Y-84754675D02*
X66378759Y-84707056D01*
X66378759Y-84707056D02*
X66331140Y-84659436D01*
X66331140Y-84659436D02*
X66283521Y-84564198D01*
X66283521Y-84564198D02*
X66283521Y-84278484D01*
X66283521Y-84278484D02*
X66331140Y-84183246D01*
X66331140Y-84183246D02*
X66378759Y-84135627D01*
X66378759Y-84135627D02*
X66473997Y-84088008D01*
X66473997Y-84088008D02*
X66616854Y-84088008D01*
X66616854Y-84088008D02*
X66712092Y-84135627D01*
X66712092Y-84135627D02*
X66759711Y-84183246D01*
X66759711Y-84183246D02*
X66807330Y-84278484D01*
X66807330Y-84278484D02*
X66807330Y-84564198D01*
X66807330Y-84564198D02*
X66759711Y-84659436D01*
X66759711Y-84659436D02*
X66712092Y-84707056D01*
X66712092Y-84707056D02*
X66616854Y-84754675D01*
X66616854Y-84754675D02*
X66473997Y-84754675D01*
X67664473Y-84754675D02*
X67664473Y-83754675D01*
X67664473Y-84707056D02*
X67569235Y-84754675D01*
X67569235Y-84754675D02*
X67378759Y-84754675D01*
X67378759Y-84754675D02*
X67283521Y-84707056D01*
X67283521Y-84707056D02*
X67235902Y-84659436D01*
X67235902Y-84659436D02*
X67188283Y-84564198D01*
X67188283Y-84564198D02*
X67188283Y-84278484D01*
X67188283Y-84278484D02*
X67235902Y-84183246D01*
X67235902Y-84183246D02*
X67283521Y-84135627D01*
X67283521Y-84135627D02*
X67378759Y-84088008D01*
X67378759Y-84088008D02*
X67569235Y-84088008D01*
X67569235Y-84088008D02*
X67664473Y-84135627D01*
X68140664Y-84754675D02*
X68140664Y-84088008D01*
X68140664Y-84278484D02*
X68188283Y-84183246D01*
X68188283Y-84183246D02*
X68235902Y-84135627D01*
X68235902Y-84135627D02*
X68331140Y-84088008D01*
X68331140Y-84088008D02*
X68426378Y-84088008D01*
X68759712Y-84754675D02*
X68759712Y-84088008D01*
X68759712Y-83754675D02*
X68712093Y-83802294D01*
X68712093Y-83802294D02*
X68759712Y-83849913D01*
X68759712Y-83849913D02*
X68807331Y-83802294D01*
X68807331Y-83802294D02*
X68759712Y-83754675D01*
X68759712Y-83754675D02*
X68759712Y-83849913D01*
X69664473Y-84088008D02*
X69664473Y-84897532D01*
X69664473Y-84897532D02*
X69616854Y-84992770D01*
X69616854Y-84992770D02*
X69569235Y-85040389D01*
X69569235Y-85040389D02*
X69473997Y-85088008D01*
X69473997Y-85088008D02*
X69331140Y-85088008D01*
X69331140Y-85088008D02*
X69235902Y-85040389D01*
X69664473Y-84707056D02*
X69569235Y-84754675D01*
X69569235Y-84754675D02*
X69378759Y-84754675D01*
X69378759Y-84754675D02*
X69283521Y-84707056D01*
X69283521Y-84707056D02*
X69235902Y-84659436D01*
X69235902Y-84659436D02*
X69188283Y-84564198D01*
X69188283Y-84564198D02*
X69188283Y-84278484D01*
X69188283Y-84278484D02*
X69235902Y-84183246D01*
X69235902Y-84183246D02*
X69283521Y-84135627D01*
X69283521Y-84135627D02*
X69378759Y-84088008D01*
X69378759Y-84088008D02*
X69569235Y-84088008D01*
X69569235Y-84088008D02*
X69664473Y-84135627D01*
X70569235Y-84088008D02*
X70569235Y-84754675D01*
X70140664Y-84088008D02*
X70140664Y-84611817D01*
X70140664Y-84611817D02*
X70188283Y-84707056D01*
X70188283Y-84707056D02*
X70283521Y-84754675D01*
X70283521Y-84754675D02*
X70426378Y-84754675D01*
X70426378Y-84754675D02*
X70521616Y-84707056D01*
X70521616Y-84707056D02*
X70569235Y-84659436D01*
X71426378Y-84707056D02*
X71331140Y-84754675D01*
X71331140Y-84754675D02*
X71140664Y-84754675D01*
X71140664Y-84754675D02*
X71045426Y-84707056D01*
X71045426Y-84707056D02*
X70997807Y-84611817D01*
X70997807Y-84611817D02*
X70997807Y-84230865D01*
X70997807Y-84230865D02*
X71045426Y-84135627D01*
X71045426Y-84135627D02*
X71140664Y-84088008D01*
X71140664Y-84088008D02*
X71331140Y-84088008D01*
X71331140Y-84088008D02*
X71426378Y-84135627D01*
X71426378Y-84135627D02*
X71473997Y-84230865D01*
X71473997Y-84230865D02*
X71473997Y-84326103D01*
X71473997Y-84326103D02*
X70997807Y-84421341D01*
X71807331Y-84088008D02*
X72331140Y-84088008D01*
X72331140Y-84088008D02*
X71807331Y-84754675D01*
X71807331Y-84754675D02*
X72331140Y-84754675D01*
X60902568Y-86364619D02*
X60902568Y-85364619D01*
X60902568Y-85840809D02*
X61473996Y-85840809D01*
X61473996Y-86364619D02*
X61473996Y-85364619D01*
X62378758Y-86364619D02*
X62378758Y-85840809D01*
X62378758Y-85840809D02*
X62331139Y-85745571D01*
X62331139Y-85745571D02*
X62235901Y-85697952D01*
X62235901Y-85697952D02*
X62045425Y-85697952D01*
X62045425Y-85697952D02*
X61950187Y-85745571D01*
X62378758Y-86317000D02*
X62283520Y-86364619D01*
X62283520Y-86364619D02*
X62045425Y-86364619D01*
X62045425Y-86364619D02*
X61950187Y-86317000D01*
X61950187Y-86317000D02*
X61902568Y-86221761D01*
X61902568Y-86221761D02*
X61902568Y-86126523D01*
X61902568Y-86126523D02*
X61950187Y-86031285D01*
X61950187Y-86031285D02*
X62045425Y-85983666D01*
X62045425Y-85983666D02*
X62283520Y-85983666D01*
X62283520Y-85983666D02*
X62378758Y-85936047D01*
X62854949Y-86364619D02*
X62854949Y-85697952D01*
X62854949Y-85888428D02*
X62902568Y-85793190D01*
X62902568Y-85793190D02*
X62950187Y-85745571D01*
X62950187Y-85745571D02*
X63045425Y-85697952D01*
X63045425Y-85697952D02*
X63140663Y-85697952D01*
X63616854Y-86364619D02*
X63521616Y-86317000D01*
X63521616Y-86317000D02*
X63473997Y-86221761D01*
X63473997Y-86221761D02*
X63473997Y-85364619D01*
X64378759Y-86317000D02*
X64283521Y-86364619D01*
X64283521Y-86364619D02*
X64093045Y-86364619D01*
X64093045Y-86364619D02*
X63997807Y-86317000D01*
X63997807Y-86317000D02*
X63950188Y-86221761D01*
X63950188Y-86221761D02*
X63950188Y-85840809D01*
X63950188Y-85840809D02*
X63997807Y-85745571D01*
X63997807Y-85745571D02*
X64093045Y-85697952D01*
X64093045Y-85697952D02*
X64283521Y-85697952D01*
X64283521Y-85697952D02*
X64378759Y-85745571D01*
X64378759Y-85745571D02*
X64426378Y-85840809D01*
X64426378Y-85840809D02*
X64426378Y-85936047D01*
X64426378Y-85936047D02*
X63950188Y-86031285D01*
X64854950Y-86364619D02*
X64854950Y-85697952D01*
X64854950Y-85364619D02*
X64807331Y-85412238D01*
X64807331Y-85412238D02*
X64854950Y-85459857D01*
X64854950Y-85459857D02*
X64902569Y-85412238D01*
X64902569Y-85412238D02*
X64854950Y-85364619D01*
X64854950Y-85364619D02*
X64854950Y-85459857D01*
X65759711Y-85697952D02*
X65759711Y-86507476D01*
X65759711Y-86507476D02*
X65712092Y-86602714D01*
X65712092Y-86602714D02*
X65664473Y-86650333D01*
X65664473Y-86650333D02*
X65569235Y-86697952D01*
X65569235Y-86697952D02*
X65426378Y-86697952D01*
X65426378Y-86697952D02*
X65331140Y-86650333D01*
X65759711Y-86317000D02*
X65664473Y-86364619D01*
X65664473Y-86364619D02*
X65473997Y-86364619D01*
X65473997Y-86364619D02*
X65378759Y-86317000D01*
X65378759Y-86317000D02*
X65331140Y-86269380D01*
X65331140Y-86269380D02*
X65283521Y-86174142D01*
X65283521Y-86174142D02*
X65283521Y-85888428D01*
X65283521Y-85888428D02*
X65331140Y-85793190D01*
X65331140Y-85793190D02*
X65378759Y-85745571D01*
X65378759Y-85745571D02*
X65473997Y-85697952D01*
X65473997Y-85697952D02*
X65664473Y-85697952D01*
X65664473Y-85697952D02*
X65759711Y-85745571D01*
X66235902Y-86364619D02*
X66235902Y-85364619D01*
X66664473Y-86364619D02*
X66664473Y-85840809D01*
X66664473Y-85840809D02*
X66616854Y-85745571D01*
X66616854Y-85745571D02*
X66521616Y-85697952D01*
X66521616Y-85697952D02*
X66378759Y-85697952D01*
X66378759Y-85697952D02*
X66283521Y-85745571D01*
X66283521Y-85745571D02*
X66235902Y-85793190D01*
X67854950Y-86317000D02*
X67997807Y-86364619D01*
X67997807Y-86364619D02*
X68235902Y-86364619D01*
X68235902Y-86364619D02*
X68331140Y-86317000D01*
X68331140Y-86317000D02*
X68378759Y-86269380D01*
X68378759Y-86269380D02*
X68426378Y-86174142D01*
X68426378Y-86174142D02*
X68426378Y-86078904D01*
X68426378Y-86078904D02*
X68378759Y-85983666D01*
X68378759Y-85983666D02*
X68331140Y-85936047D01*
X68331140Y-85936047D02*
X68235902Y-85888428D01*
X68235902Y-85888428D02*
X68045426Y-85840809D01*
X68045426Y-85840809D02*
X67950188Y-85793190D01*
X67950188Y-85793190D02*
X67902569Y-85745571D01*
X67902569Y-85745571D02*
X67854950Y-85650333D01*
X67854950Y-85650333D02*
X67854950Y-85555095D01*
X67854950Y-85555095D02*
X67902569Y-85459857D01*
X67902569Y-85459857D02*
X67950188Y-85412238D01*
X67950188Y-85412238D02*
X68045426Y-85364619D01*
X68045426Y-85364619D02*
X68283521Y-85364619D01*
X68283521Y-85364619D02*
X68426378Y-85412238D01*
X69283521Y-86317000D02*
X69188283Y-86364619D01*
X69188283Y-86364619D02*
X68997807Y-86364619D01*
X68997807Y-86364619D02*
X68902569Y-86317000D01*
X68902569Y-86317000D02*
X68854950Y-86269380D01*
X68854950Y-86269380D02*
X68807331Y-86174142D01*
X68807331Y-86174142D02*
X68807331Y-85888428D01*
X68807331Y-85888428D02*
X68854950Y-85793190D01*
X68854950Y-85793190D02*
X68902569Y-85745571D01*
X68902569Y-85745571D02*
X68997807Y-85697952D01*
X68997807Y-85697952D02*
X69188283Y-85697952D01*
X69188283Y-85697952D02*
X69283521Y-85745571D01*
X69712093Y-86364619D02*
X69712093Y-85364619D01*
X70140664Y-86364619D02*
X70140664Y-85840809D01*
X70140664Y-85840809D02*
X70093045Y-85745571D01*
X70093045Y-85745571D02*
X69997807Y-85697952D01*
X69997807Y-85697952D02*
X69854950Y-85697952D01*
X69854950Y-85697952D02*
X69759712Y-85745571D01*
X69759712Y-85745571D02*
X69712093Y-85793190D01*
X70616855Y-85697952D02*
X70616855Y-86364619D01*
X70616855Y-85793190D02*
X70664474Y-85745571D01*
X70664474Y-85745571D02*
X70759712Y-85697952D01*
X70759712Y-85697952D02*
X70902569Y-85697952D01*
X70902569Y-85697952D02*
X70997807Y-85745571D01*
X70997807Y-85745571D02*
X71045426Y-85840809D01*
X71045426Y-85840809D02*
X71045426Y-86364619D01*
X71902569Y-86317000D02*
X71807331Y-86364619D01*
X71807331Y-86364619D02*
X71616855Y-86364619D01*
X71616855Y-86364619D02*
X71521617Y-86317000D01*
X71521617Y-86317000D02*
X71473998Y-86221761D01*
X71473998Y-86221761D02*
X71473998Y-85840809D01*
X71473998Y-85840809D02*
X71521617Y-85745571D01*
X71521617Y-85745571D02*
X71616855Y-85697952D01*
X71616855Y-85697952D02*
X71807331Y-85697952D01*
X71807331Y-85697952D02*
X71902569Y-85745571D01*
X71902569Y-85745571D02*
X71950188Y-85840809D01*
X71950188Y-85840809D02*
X71950188Y-85936047D01*
X71950188Y-85936047D02*
X71473998Y-86031285D01*
X72378760Y-86364619D02*
X72378760Y-85697952D01*
X72378760Y-85364619D02*
X72331141Y-85412238D01*
X72331141Y-85412238D02*
X72378760Y-85459857D01*
X72378760Y-85459857D02*
X72426379Y-85412238D01*
X72426379Y-85412238D02*
X72378760Y-85364619D01*
X72378760Y-85364619D02*
X72378760Y-85459857D01*
X73283521Y-86364619D02*
X73283521Y-85364619D01*
X73283521Y-86317000D02*
X73188283Y-86364619D01*
X73188283Y-86364619D02*
X72997807Y-86364619D01*
X72997807Y-86364619D02*
X72902569Y-86317000D01*
X72902569Y-86317000D02*
X72854950Y-86269380D01*
X72854950Y-86269380D02*
X72807331Y-86174142D01*
X72807331Y-86174142D02*
X72807331Y-85888428D01*
X72807331Y-85888428D02*
X72854950Y-85793190D01*
X72854950Y-85793190D02*
X72902569Y-85745571D01*
X72902569Y-85745571D02*
X72997807Y-85697952D01*
X72997807Y-85697952D02*
X73188283Y-85697952D01*
X73188283Y-85697952D02*
X73283521Y-85745571D01*
X74140664Y-86317000D02*
X74045426Y-86364619D01*
X74045426Y-86364619D02*
X73854950Y-86364619D01*
X73854950Y-86364619D02*
X73759712Y-86317000D01*
X73759712Y-86317000D02*
X73712093Y-86221761D01*
X73712093Y-86221761D02*
X73712093Y-85840809D01*
X73712093Y-85840809D02*
X73759712Y-85745571D01*
X73759712Y-85745571D02*
X73854950Y-85697952D01*
X73854950Y-85697952D02*
X74045426Y-85697952D01*
X74045426Y-85697952D02*
X74140664Y-85745571D01*
X74140664Y-85745571D02*
X74188283Y-85840809D01*
X74188283Y-85840809D02*
X74188283Y-85936047D01*
X74188283Y-85936047D02*
X73712093Y-86031285D01*
X74616855Y-86364619D02*
X74616855Y-85697952D01*
X74616855Y-85888428D02*
X74664474Y-85793190D01*
X74664474Y-85793190D02*
X74712093Y-85745571D01*
X74712093Y-85745571D02*
X74807331Y-85697952D01*
X74807331Y-85697952D02*
X74902569Y-85697952D01*
D11*
X102061829Y-66391434D02*
X101585639Y-66391434D01*
X101585639Y-66391434D02*
X101585639Y-65391434D01*
X102347544Y-65486672D02*
X102395163Y-65439053D01*
X102395163Y-65439053D02*
X102490401Y-65391434D01*
X102490401Y-65391434D02*
X102728496Y-65391434D01*
X102728496Y-65391434D02*
X102823734Y-65439053D01*
X102823734Y-65439053D02*
X102871353Y-65486672D01*
X102871353Y-65486672D02*
X102918972Y-65581910D01*
X102918972Y-65581910D02*
X102918972Y-65677148D01*
X102918972Y-65677148D02*
X102871353Y-65820005D01*
X102871353Y-65820005D02*
X102299925Y-66391434D01*
X102299925Y-66391434D02*
X102918972Y-66391434D01*
X73449565Y-71206248D02*
X73116232Y-70730057D01*
X72878137Y-71206248D02*
X72878137Y-70206248D01*
X72878137Y-70206248D02*
X73259089Y-70206248D01*
X73259089Y-70206248D02*
X73354327Y-70253867D01*
X73354327Y-70253867D02*
X73401946Y-70301486D01*
X73401946Y-70301486D02*
X73449565Y-70396724D01*
X73449565Y-70396724D02*
X73449565Y-70539581D01*
X73449565Y-70539581D02*
X73401946Y-70634819D01*
X73401946Y-70634819D02*
X73354327Y-70682438D01*
X73354327Y-70682438D02*
X73259089Y-70730057D01*
X73259089Y-70730057D02*
X72878137Y-70730057D01*
X73782899Y-70206248D02*
X74401946Y-70206248D01*
X74401946Y-70206248D02*
X74068613Y-70587200D01*
X74068613Y-70587200D02*
X74211470Y-70587200D01*
X74211470Y-70587200D02*
X74306708Y-70634819D01*
X74306708Y-70634819D02*
X74354327Y-70682438D01*
X74354327Y-70682438D02*
X74401946Y-70777676D01*
X74401946Y-70777676D02*
X74401946Y-71015771D01*
X74401946Y-71015771D02*
X74354327Y-71111009D01*
X74354327Y-71111009D02*
X74306708Y-71158629D01*
X74306708Y-71158629D02*
X74211470Y-71206248D01*
X74211470Y-71206248D02*
X73925756Y-71206248D01*
X73925756Y-71206248D02*
X73830518Y-71158629D01*
X73830518Y-71158629D02*
X73782899Y-71111009D01*
X118833333Y-68359580D02*
X118785714Y-68407200D01*
X118785714Y-68407200D02*
X118642857Y-68454819D01*
X118642857Y-68454819D02*
X118547619Y-68454819D01*
X118547619Y-68454819D02*
X118404762Y-68407200D01*
X118404762Y-68407200D02*
X118309524Y-68311961D01*
X118309524Y-68311961D02*
X118261905Y-68216723D01*
X118261905Y-68216723D02*
X118214286Y-68026247D01*
X118214286Y-68026247D02*
X118214286Y-67883390D01*
X118214286Y-67883390D02*
X118261905Y-67692914D01*
X118261905Y-67692914D02*
X118309524Y-67597676D01*
X118309524Y-67597676D02*
X118404762Y-67502438D01*
X118404762Y-67502438D02*
X118547619Y-67454819D01*
X118547619Y-67454819D02*
X118642857Y-67454819D01*
X118642857Y-67454819D02*
X118785714Y-67502438D01*
X118785714Y-67502438D02*
X118833333Y-67550057D01*
X119785714Y-68454819D02*
X119214286Y-68454819D01*
X119500000Y-68454819D02*
X119500000Y-67454819D01*
X119500000Y-67454819D02*
X119404762Y-67597676D01*
X119404762Y-67597676D02*
X119309524Y-67692914D01*
X119309524Y-67692914D02*
X119214286Y-67740533D01*
X119812811Y-121270604D02*
X119336620Y-121603937D01*
X119812811Y-121842032D02*
X118812811Y-121842032D01*
X118812811Y-121842032D02*
X118812811Y-121461080D01*
X118812811Y-121461080D02*
X118860430Y-121365842D01*
X118860430Y-121365842D02*
X118908049Y-121318223D01*
X118908049Y-121318223D02*
X119003287Y-121270604D01*
X119003287Y-121270604D02*
X119146144Y-121270604D01*
X119146144Y-121270604D02*
X119241382Y-121318223D01*
X119241382Y-121318223D02*
X119289001Y-121365842D01*
X119289001Y-121365842D02*
X119336620Y-121461080D01*
X119336620Y-121461080D02*
X119336620Y-121842032D01*
X119812811Y-120318223D02*
X119812811Y-120889651D01*
X119812811Y-120603937D02*
X118812811Y-120603937D01*
X118812811Y-120603937D02*
X118955668Y-120699175D01*
X118955668Y-120699175D02*
X119050906Y-120794413D01*
X119050906Y-120794413D02*
X119098525Y-120889651D01*
X118812811Y-119461080D02*
X118812811Y-119651556D01*
X118812811Y-119651556D02*
X118860430Y-119746794D01*
X118860430Y-119746794D02*
X118908049Y-119794413D01*
X118908049Y-119794413D02*
X119050906Y-119889651D01*
X119050906Y-119889651D02*
X119241382Y-119937270D01*
X119241382Y-119937270D02*
X119622334Y-119937270D01*
X119622334Y-119937270D02*
X119717572Y-119889651D01*
X119717572Y-119889651D02*
X119765192Y-119842032D01*
X119765192Y-119842032D02*
X119812811Y-119746794D01*
X119812811Y-119746794D02*
X119812811Y-119556318D01*
X119812811Y-119556318D02*
X119765192Y-119461080D01*
X119765192Y-119461080D02*
X119717572Y-119413461D01*
X119717572Y-119413461D02*
X119622334Y-119365842D01*
X119622334Y-119365842D02*
X119384239Y-119365842D01*
X119384239Y-119365842D02*
X119289001Y-119413461D01*
X119289001Y-119413461D02*
X119241382Y-119461080D01*
X119241382Y-119461080D02*
X119193763Y-119556318D01*
X119193763Y-119556318D02*
X119193763Y-119746794D01*
X119193763Y-119746794D02*
X119241382Y-119842032D01*
X119241382Y-119842032D02*
X119289001Y-119889651D01*
X119289001Y-119889651D02*
X119384239Y-119937270D01*
X102857144Y-86659580D02*
X102809525Y-86707200D01*
X102809525Y-86707200D02*
X102666668Y-86754819D01*
X102666668Y-86754819D02*
X102571430Y-86754819D01*
X102571430Y-86754819D02*
X102428573Y-86707200D01*
X102428573Y-86707200D02*
X102333335Y-86611961D01*
X102333335Y-86611961D02*
X102285716Y-86516723D01*
X102285716Y-86516723D02*
X102238097Y-86326247D01*
X102238097Y-86326247D02*
X102238097Y-86183390D01*
X102238097Y-86183390D02*
X102285716Y-85992914D01*
X102285716Y-85992914D02*
X102333335Y-85897676D01*
X102333335Y-85897676D02*
X102428573Y-85802438D01*
X102428573Y-85802438D02*
X102571430Y-85754819D01*
X102571430Y-85754819D02*
X102666668Y-85754819D01*
X102666668Y-85754819D02*
X102809525Y-85802438D01*
X102809525Y-85802438D02*
X102857144Y-85850057D01*
X103190478Y-85754819D02*
X103809525Y-85754819D01*
X103809525Y-85754819D02*
X103476192Y-86135771D01*
X103476192Y-86135771D02*
X103619049Y-86135771D01*
X103619049Y-86135771D02*
X103714287Y-86183390D01*
X103714287Y-86183390D02*
X103761906Y-86231009D01*
X103761906Y-86231009D02*
X103809525Y-86326247D01*
X103809525Y-86326247D02*
X103809525Y-86564342D01*
X103809525Y-86564342D02*
X103761906Y-86659580D01*
X103761906Y-86659580D02*
X103714287Y-86707200D01*
X103714287Y-86707200D02*
X103619049Y-86754819D01*
X103619049Y-86754819D02*
X103333335Y-86754819D01*
X103333335Y-86754819D02*
X103238097Y-86707200D01*
X103238097Y-86707200D02*
X103190478Y-86659580D01*
X104666668Y-85754819D02*
X104476192Y-85754819D01*
X104476192Y-85754819D02*
X104380954Y-85802438D01*
X104380954Y-85802438D02*
X104333335Y-85850057D01*
X104333335Y-85850057D02*
X104238097Y-85992914D01*
X104238097Y-85992914D02*
X104190478Y-86183390D01*
X104190478Y-86183390D02*
X104190478Y-86564342D01*
X104190478Y-86564342D02*
X104238097Y-86659580D01*
X104238097Y-86659580D02*
X104285716Y-86707200D01*
X104285716Y-86707200D02*
X104380954Y-86754819D01*
X104380954Y-86754819D02*
X104571430Y-86754819D01*
X104571430Y-86754819D02*
X104666668Y-86707200D01*
X104666668Y-86707200D02*
X104714287Y-86659580D01*
X104714287Y-86659580D02*
X104761906Y-86564342D01*
X104761906Y-86564342D02*
X104761906Y-86326247D01*
X104761906Y-86326247D02*
X104714287Y-86231009D01*
X104714287Y-86231009D02*
X104666668Y-86183390D01*
X104666668Y-86183390D02*
X104571430Y-86135771D01*
X104571430Y-86135771D02*
X104380954Y-86135771D01*
X104380954Y-86135771D02*
X104285716Y-86183390D01*
X104285716Y-86183390D02*
X104238097Y-86231009D01*
X104238097Y-86231009D02*
X104190478Y-86326247D01*
X118069634Y-113543658D02*
X118022015Y-113591278D01*
X118022015Y-113591278D02*
X117879158Y-113638897D01*
X117879158Y-113638897D02*
X117783920Y-113638897D01*
X117783920Y-113638897D02*
X117641063Y-113591278D01*
X117641063Y-113591278D02*
X117545825Y-113496039D01*
X117545825Y-113496039D02*
X117498206Y-113400801D01*
X117498206Y-113400801D02*
X117450587Y-113210325D01*
X117450587Y-113210325D02*
X117450587Y-113067468D01*
X117450587Y-113067468D02*
X117498206Y-112876992D01*
X117498206Y-112876992D02*
X117545825Y-112781754D01*
X117545825Y-112781754D02*
X117641063Y-112686516D01*
X117641063Y-112686516D02*
X117783920Y-112638897D01*
X117783920Y-112638897D02*
X117879158Y-112638897D01*
X117879158Y-112638897D02*
X118022015Y-112686516D01*
X118022015Y-112686516D02*
X118069634Y-112734135D01*
X118450587Y-112734135D02*
X118498206Y-112686516D01*
X118498206Y-112686516D02*
X118593444Y-112638897D01*
X118593444Y-112638897D02*
X118831539Y-112638897D01*
X118831539Y-112638897D02*
X118926777Y-112686516D01*
X118926777Y-112686516D02*
X118974396Y-112734135D01*
X118974396Y-112734135D02*
X119022015Y-112829373D01*
X119022015Y-112829373D02*
X119022015Y-112924611D01*
X119022015Y-112924611D02*
X118974396Y-113067468D01*
X118974396Y-113067468D02*
X118402968Y-113638897D01*
X118402968Y-113638897D02*
X119022015Y-113638897D01*
X119879158Y-112972230D02*
X119879158Y-113638897D01*
X119641063Y-112591278D02*
X119402968Y-113305563D01*
X119402968Y-113305563D02*
X120022015Y-113305563D01*
X117312301Y-119069395D02*
X116978968Y-118593204D01*
X116740873Y-119069395D02*
X116740873Y-118069395D01*
X116740873Y-118069395D02*
X117121825Y-118069395D01*
X117121825Y-118069395D02*
X117217063Y-118117014D01*
X117217063Y-118117014D02*
X117264682Y-118164633D01*
X117264682Y-118164633D02*
X117312301Y-118259871D01*
X117312301Y-118259871D02*
X117312301Y-118402728D01*
X117312301Y-118402728D02*
X117264682Y-118497966D01*
X117264682Y-118497966D02*
X117217063Y-118545585D01*
X117217063Y-118545585D02*
X117121825Y-118593204D01*
X117121825Y-118593204D02*
X116740873Y-118593204D01*
X117693254Y-118164633D02*
X117740873Y-118117014D01*
X117740873Y-118117014D02*
X117836111Y-118069395D01*
X117836111Y-118069395D02*
X118074206Y-118069395D01*
X118074206Y-118069395D02*
X118169444Y-118117014D01*
X118169444Y-118117014D02*
X118217063Y-118164633D01*
X118217063Y-118164633D02*
X118264682Y-118259871D01*
X118264682Y-118259871D02*
X118264682Y-118355109D01*
X118264682Y-118355109D02*
X118217063Y-118497966D01*
X118217063Y-118497966D02*
X117645635Y-119069395D01*
X117645635Y-119069395D02*
X118264682Y-119069395D01*
X118883730Y-118069395D02*
X118978968Y-118069395D01*
X118978968Y-118069395D02*
X119074206Y-118117014D01*
X119074206Y-118117014D02*
X119121825Y-118164633D01*
X119121825Y-118164633D02*
X119169444Y-118259871D01*
X119169444Y-118259871D02*
X119217063Y-118450347D01*
X119217063Y-118450347D02*
X119217063Y-118688442D01*
X119217063Y-118688442D02*
X119169444Y-118878918D01*
X119169444Y-118878918D02*
X119121825Y-118974156D01*
X119121825Y-118974156D02*
X119074206Y-119021776D01*
X119074206Y-119021776D02*
X118978968Y-119069395D01*
X118978968Y-119069395D02*
X118883730Y-119069395D01*
X118883730Y-119069395D02*
X118788492Y-119021776D01*
X118788492Y-119021776D02*
X118740873Y-118974156D01*
X118740873Y-118974156D02*
X118693254Y-118878918D01*
X118693254Y-118878918D02*
X118645635Y-118688442D01*
X118645635Y-118688442D02*
X118645635Y-118450347D01*
X118645635Y-118450347D02*
X118693254Y-118259871D01*
X118693254Y-118259871D02*
X118740873Y-118164633D01*
X118740873Y-118164633D02*
X118788492Y-118117014D01*
X118788492Y-118117014D02*
X118883730Y-118069395D01*
X95382309Y-87379452D02*
X94877233Y-87884528D01*
X94877233Y-87884528D02*
X94742546Y-87951872D01*
X94742546Y-87951872D02*
X94607859Y-87951872D01*
X94607859Y-87951872D02*
X94473172Y-87884528D01*
X94473172Y-87884528D02*
X94405828Y-87817185D01*
X95618012Y-87749841D02*
X95685355Y-87749841D01*
X95685355Y-87749841D02*
X95786370Y-87783513D01*
X95786370Y-87783513D02*
X95954729Y-87951872D01*
X95954729Y-87951872D02*
X95988401Y-88052887D01*
X95988401Y-88052887D02*
X95988401Y-88120231D01*
X95988401Y-88120231D02*
X95954729Y-88221246D01*
X95954729Y-88221246D02*
X95887386Y-88288589D01*
X95887386Y-88288589D02*
X95752699Y-88355933D01*
X95752699Y-88355933D02*
X94944577Y-88355933D01*
X94944577Y-88355933D02*
X95382309Y-88793666D01*
X73279518Y-72956034D02*
X73279518Y-71956034D01*
X73279518Y-71956034D02*
X73517613Y-71956034D01*
X73517613Y-71956034D02*
X73660470Y-72003653D01*
X73660470Y-72003653D02*
X73755708Y-72098891D01*
X73755708Y-72098891D02*
X73803327Y-72194129D01*
X73803327Y-72194129D02*
X73850946Y-72384605D01*
X73850946Y-72384605D02*
X73850946Y-72527462D01*
X73850946Y-72527462D02*
X73803327Y-72717938D01*
X73803327Y-72717938D02*
X73755708Y-72813176D01*
X73755708Y-72813176D02*
X73660470Y-72908415D01*
X73660470Y-72908415D02*
X73517613Y-72956034D01*
X73517613Y-72956034D02*
X73279518Y-72956034D01*
X74184280Y-71956034D02*
X74803327Y-71956034D01*
X74803327Y-71956034D02*
X74469994Y-72336986D01*
X74469994Y-72336986D02*
X74612851Y-72336986D01*
X74612851Y-72336986D02*
X74708089Y-72384605D01*
X74708089Y-72384605D02*
X74755708Y-72432224D01*
X74755708Y-72432224D02*
X74803327Y-72527462D01*
X74803327Y-72527462D02*
X74803327Y-72765557D01*
X74803327Y-72765557D02*
X74755708Y-72860795D01*
X74755708Y-72860795D02*
X74708089Y-72908415D01*
X74708089Y-72908415D02*
X74612851Y-72956034D01*
X74612851Y-72956034D02*
X74327137Y-72956034D01*
X74327137Y-72956034D02*
X74231899Y-72908415D01*
X74231899Y-72908415D02*
X74184280Y-72860795D01*
X105465794Y-67326691D02*
X105418175Y-67374311D01*
X105418175Y-67374311D02*
X105275318Y-67421930D01*
X105275318Y-67421930D02*
X105180080Y-67421930D01*
X105180080Y-67421930D02*
X105037223Y-67374311D01*
X105037223Y-67374311D02*
X104941985Y-67279072D01*
X104941985Y-67279072D02*
X104894366Y-67183834D01*
X104894366Y-67183834D02*
X104846747Y-66993358D01*
X104846747Y-66993358D02*
X104846747Y-66850501D01*
X104846747Y-66850501D02*
X104894366Y-66660025D01*
X104894366Y-66660025D02*
X104941985Y-66564787D01*
X104941985Y-66564787D02*
X105037223Y-66469549D01*
X105037223Y-66469549D02*
X105180080Y-66421930D01*
X105180080Y-66421930D02*
X105275318Y-66421930D01*
X105275318Y-66421930D02*
X105418175Y-66469549D01*
X105418175Y-66469549D02*
X105465794Y-66517168D01*
X106322937Y-66421930D02*
X106132461Y-66421930D01*
X106132461Y-66421930D02*
X106037223Y-66469549D01*
X106037223Y-66469549D02*
X105989604Y-66517168D01*
X105989604Y-66517168D02*
X105894366Y-66660025D01*
X105894366Y-66660025D02*
X105846747Y-66850501D01*
X105846747Y-66850501D02*
X105846747Y-67231453D01*
X105846747Y-67231453D02*
X105894366Y-67326691D01*
X105894366Y-67326691D02*
X105941985Y-67374311D01*
X105941985Y-67374311D02*
X106037223Y-67421930D01*
X106037223Y-67421930D02*
X106227699Y-67421930D01*
X106227699Y-67421930D02*
X106322937Y-67374311D01*
X106322937Y-67374311D02*
X106370556Y-67326691D01*
X106370556Y-67326691D02*
X106418175Y-67231453D01*
X106418175Y-67231453D02*
X106418175Y-66993358D01*
X106418175Y-66993358D02*
X106370556Y-66898120D01*
X106370556Y-66898120D02*
X106322937Y-66850501D01*
X106322937Y-66850501D02*
X106227699Y-66802882D01*
X106227699Y-66802882D02*
X106037223Y-66802882D01*
X106037223Y-66802882D02*
X105941985Y-66850501D01*
X105941985Y-66850501D02*
X105894366Y-66898120D01*
X105894366Y-66898120D02*
X105846747Y-66993358D01*
X107037223Y-66421930D02*
X107132461Y-66421930D01*
X107132461Y-66421930D02*
X107227699Y-66469549D01*
X107227699Y-66469549D02*
X107275318Y-66517168D01*
X107275318Y-66517168D02*
X107322937Y-66612406D01*
X107322937Y-66612406D02*
X107370556Y-66802882D01*
X107370556Y-66802882D02*
X107370556Y-67040977D01*
X107370556Y-67040977D02*
X107322937Y-67231453D01*
X107322937Y-67231453D02*
X107275318Y-67326691D01*
X107275318Y-67326691D02*
X107227699Y-67374311D01*
X107227699Y-67374311D02*
X107132461Y-67421930D01*
X107132461Y-67421930D02*
X107037223Y-67421930D01*
X107037223Y-67421930D02*
X106941985Y-67374311D01*
X106941985Y-67374311D02*
X106894366Y-67326691D01*
X106894366Y-67326691D02*
X106846747Y-67231453D01*
X106846747Y-67231453D02*
X106799128Y-67040977D01*
X106799128Y-67040977D02*
X106799128Y-66802882D01*
X106799128Y-66802882D02*
X106846747Y-66612406D01*
X106846747Y-66612406D02*
X106894366Y-66517168D01*
X106894366Y-66517168D02*
X106941985Y-66469549D01*
X106941985Y-66469549D02*
X107037223Y-66421930D01*
X109604819Y-103642857D02*
X109128628Y-103976190D01*
X109604819Y-104214285D02*
X108604819Y-104214285D01*
X108604819Y-104214285D02*
X108604819Y-103833333D01*
X108604819Y-103833333D02*
X108652438Y-103738095D01*
X108652438Y-103738095D02*
X108700057Y-103690476D01*
X108700057Y-103690476D02*
X108795295Y-103642857D01*
X108795295Y-103642857D02*
X108938152Y-103642857D01*
X108938152Y-103642857D02*
X109033390Y-103690476D01*
X109033390Y-103690476D02*
X109081009Y-103738095D01*
X109081009Y-103738095D02*
X109128628Y-103833333D01*
X109128628Y-103833333D02*
X109128628Y-104214285D01*
X108700057Y-103261904D02*
X108652438Y-103214285D01*
X108652438Y-103214285D02*
X108604819Y-103119047D01*
X108604819Y-103119047D02*
X108604819Y-102880952D01*
X108604819Y-102880952D02*
X108652438Y-102785714D01*
X108652438Y-102785714D02*
X108700057Y-102738095D01*
X108700057Y-102738095D02*
X108795295Y-102690476D01*
X108795295Y-102690476D02*
X108890533Y-102690476D01*
X108890533Y-102690476D02*
X109033390Y-102738095D01*
X109033390Y-102738095D02*
X109604819Y-103309523D01*
X109604819Y-103309523D02*
X109604819Y-102690476D01*
X109033390Y-102119047D02*
X108985771Y-102214285D01*
X108985771Y-102214285D02*
X108938152Y-102261904D01*
X108938152Y-102261904D02*
X108842914Y-102309523D01*
X108842914Y-102309523D02*
X108795295Y-102309523D01*
X108795295Y-102309523D02*
X108700057Y-102261904D01*
X108700057Y-102261904D02*
X108652438Y-102214285D01*
X108652438Y-102214285D02*
X108604819Y-102119047D01*
X108604819Y-102119047D02*
X108604819Y-101928571D01*
X108604819Y-101928571D02*
X108652438Y-101833333D01*
X108652438Y-101833333D02*
X108700057Y-101785714D01*
X108700057Y-101785714D02*
X108795295Y-101738095D01*
X108795295Y-101738095D02*
X108842914Y-101738095D01*
X108842914Y-101738095D02*
X108938152Y-101785714D01*
X108938152Y-101785714D02*
X108985771Y-101833333D01*
X108985771Y-101833333D02*
X109033390Y-101928571D01*
X109033390Y-101928571D02*
X109033390Y-102119047D01*
X109033390Y-102119047D02*
X109081009Y-102214285D01*
X109081009Y-102214285D02*
X109128628Y-102261904D01*
X109128628Y-102261904D02*
X109223866Y-102309523D01*
X109223866Y-102309523D02*
X109414342Y-102309523D01*
X109414342Y-102309523D02*
X109509580Y-102261904D01*
X109509580Y-102261904D02*
X109557200Y-102214285D01*
X109557200Y-102214285D02*
X109604819Y-102119047D01*
X109604819Y-102119047D02*
X109604819Y-101928571D01*
X109604819Y-101928571D02*
X109557200Y-101833333D01*
X109557200Y-101833333D02*
X109509580Y-101785714D01*
X109509580Y-101785714D02*
X109414342Y-101738095D01*
X109414342Y-101738095D02*
X109223866Y-101738095D01*
X109223866Y-101738095D02*
X109128628Y-101785714D01*
X109128628Y-101785714D02*
X109081009Y-101833333D01*
X109081009Y-101833333D02*
X109033390Y-101928571D01*
X72815180Y-101216895D02*
X72005657Y-101216895D01*
X72005657Y-101216895D02*
X71910419Y-101264514D01*
X71910419Y-101264514D02*
X71862800Y-101312133D01*
X71862800Y-101312133D02*
X71815180Y-101407371D01*
X71815180Y-101407371D02*
X71815180Y-101597847D01*
X71815180Y-101597847D02*
X71862800Y-101693085D01*
X71862800Y-101693085D02*
X71910419Y-101740704D01*
X71910419Y-101740704D02*
X72005657Y-101788323D01*
X72005657Y-101788323D02*
X72815180Y-101788323D01*
X72815180Y-102169276D02*
X72815180Y-102788323D01*
X72815180Y-102788323D02*
X72434228Y-102454990D01*
X72434228Y-102454990D02*
X72434228Y-102597847D01*
X72434228Y-102597847D02*
X72386609Y-102693085D01*
X72386609Y-102693085D02*
X72338990Y-102740704D01*
X72338990Y-102740704D02*
X72243752Y-102788323D01*
X72243752Y-102788323D02*
X72005657Y-102788323D01*
X72005657Y-102788323D02*
X71910419Y-102740704D01*
X71910419Y-102740704D02*
X71862800Y-102693085D01*
X71862800Y-102693085D02*
X71815180Y-102597847D01*
X71815180Y-102597847D02*
X71815180Y-102312133D01*
X71815180Y-102312133D02*
X71862800Y-102216895D01*
X71862800Y-102216895D02*
X71910419Y-102169276D01*
X78556619Y-101203599D02*
X78794714Y-101203599D01*
X78699476Y-101441694D02*
X78794714Y-101203599D01*
X78794714Y-101203599D02*
X78699476Y-100965504D01*
X78985190Y-101346456D02*
X78794714Y-101203599D01*
X78794714Y-101203599D02*
X78985190Y-101060742D01*
X79646980Y-101203600D02*
X79408885Y-101203600D01*
X79504123Y-100965505D02*
X79408885Y-101203600D01*
X79408885Y-101203600D02*
X79504123Y-101441695D01*
X79218409Y-101060743D02*
X79408885Y-101203600D01*
X79408885Y-101203600D02*
X79218409Y-101346457D01*
X132221112Y-104324600D02*
X132268732Y-104372219D01*
X132268732Y-104372219D02*
X132316351Y-104515076D01*
X132316351Y-104515076D02*
X132316351Y-104610314D01*
X132316351Y-104610314D02*
X132268732Y-104753171D01*
X132268732Y-104753171D02*
X132173493Y-104848409D01*
X132173493Y-104848409D02*
X132078255Y-104896028D01*
X132078255Y-104896028D02*
X131887779Y-104943647D01*
X131887779Y-104943647D02*
X131744922Y-104943647D01*
X131744922Y-104943647D02*
X131554446Y-104896028D01*
X131554446Y-104896028D02*
X131459208Y-104848409D01*
X131459208Y-104848409D02*
X131363970Y-104753171D01*
X131363970Y-104753171D02*
X131316351Y-104610314D01*
X131316351Y-104610314D02*
X131316351Y-104515076D01*
X131316351Y-104515076D02*
X131363970Y-104372219D01*
X131363970Y-104372219D02*
X131411589Y-104324600D01*
X131316351Y-103419838D02*
X131316351Y-103896028D01*
X131316351Y-103896028D02*
X131792541Y-103943647D01*
X131792541Y-103943647D02*
X131744922Y-103896028D01*
X131744922Y-103896028D02*
X131697303Y-103800790D01*
X131697303Y-103800790D02*
X131697303Y-103562695D01*
X131697303Y-103562695D02*
X131744922Y-103467457D01*
X131744922Y-103467457D02*
X131792541Y-103419838D01*
X131792541Y-103419838D02*
X131887779Y-103372219D01*
X131887779Y-103372219D02*
X132125874Y-103372219D01*
X132125874Y-103372219D02*
X132221112Y-103419838D01*
X132221112Y-103419838D02*
X132268732Y-103467457D01*
X132268732Y-103467457D02*
X132316351Y-103562695D01*
X132316351Y-103562695D02*
X132316351Y-103800790D01*
X132316351Y-103800790D02*
X132268732Y-103896028D01*
X132268732Y-103896028D02*
X132221112Y-103943647D01*
X131316351Y-103038885D02*
X131316351Y-102372219D01*
X131316351Y-102372219D02*
X132316351Y-102800790D01*
X77031251Y-70239770D02*
X77078871Y-70287389D01*
X77078871Y-70287389D02*
X77126490Y-70430246D01*
X77126490Y-70430246D02*
X77126490Y-70525484D01*
X77126490Y-70525484D02*
X77078871Y-70668341D01*
X77078871Y-70668341D02*
X76983632Y-70763579D01*
X76983632Y-70763579D02*
X76888394Y-70811198D01*
X76888394Y-70811198D02*
X76697918Y-70858817D01*
X76697918Y-70858817D02*
X76555061Y-70858817D01*
X76555061Y-70858817D02*
X76364585Y-70811198D01*
X76364585Y-70811198D02*
X76269347Y-70763579D01*
X76269347Y-70763579D02*
X76174109Y-70668341D01*
X76174109Y-70668341D02*
X76126490Y-70525484D01*
X76126490Y-70525484D02*
X76126490Y-70430246D01*
X76126490Y-70430246D02*
X76174109Y-70287389D01*
X76174109Y-70287389D02*
X76221728Y-70239770D01*
X76126490Y-69382627D02*
X76126490Y-69573103D01*
X76126490Y-69573103D02*
X76174109Y-69668341D01*
X76174109Y-69668341D02*
X76221728Y-69715960D01*
X76221728Y-69715960D02*
X76364585Y-69811198D01*
X76364585Y-69811198D02*
X76555061Y-69858817D01*
X76555061Y-69858817D02*
X76936013Y-69858817D01*
X76936013Y-69858817D02*
X77031251Y-69811198D01*
X77031251Y-69811198D02*
X77078871Y-69763579D01*
X77078871Y-69763579D02*
X77126490Y-69668341D01*
X77126490Y-69668341D02*
X77126490Y-69477865D01*
X77126490Y-69477865D02*
X77078871Y-69382627D01*
X77078871Y-69382627D02*
X77031251Y-69335008D01*
X77031251Y-69335008D02*
X76936013Y-69287389D01*
X76936013Y-69287389D02*
X76697918Y-69287389D01*
X76697918Y-69287389D02*
X76602680Y-69335008D01*
X76602680Y-69335008D02*
X76555061Y-69382627D01*
X76555061Y-69382627D02*
X76507442Y-69477865D01*
X76507442Y-69477865D02*
X76507442Y-69668341D01*
X76507442Y-69668341D02*
X76555061Y-69763579D01*
X76555061Y-69763579D02*
X76602680Y-69811198D01*
X76602680Y-69811198D02*
X76697918Y-69858817D01*
X97206173Y-100466813D02*
X97206173Y-100534157D01*
X97206173Y-100534157D02*
X97138829Y-100668844D01*
X97138829Y-100668844D02*
X97071486Y-100736187D01*
X97071486Y-100736187D02*
X96936799Y-100803531D01*
X96936799Y-100803531D02*
X96802112Y-100803531D01*
X96802112Y-100803531D02*
X96701097Y-100769859D01*
X96701097Y-100769859D02*
X96532738Y-100668844D01*
X96532738Y-100668844D02*
X96431723Y-100567829D01*
X96431723Y-100567829D02*
X96330707Y-100399470D01*
X96330707Y-100399470D02*
X96297036Y-100298455D01*
X96297036Y-100298455D02*
X96297036Y-100163768D01*
X96297036Y-100163768D02*
X96364379Y-100029081D01*
X96364379Y-100029081D02*
X96431723Y-99961737D01*
X96431723Y-99961737D02*
X96566410Y-99894394D01*
X96566410Y-99894394D02*
X96633753Y-99894394D01*
X96802112Y-99591348D02*
X97273516Y-99119943D01*
X97273516Y-99119943D02*
X97677577Y-100130096D01*
X92965794Y-70326691D02*
X92918175Y-70374311D01*
X92918175Y-70374311D02*
X92775318Y-70421930D01*
X92775318Y-70421930D02*
X92680080Y-70421930D01*
X92680080Y-70421930D02*
X92537223Y-70374311D01*
X92537223Y-70374311D02*
X92441985Y-70279072D01*
X92441985Y-70279072D02*
X92394366Y-70183834D01*
X92394366Y-70183834D02*
X92346747Y-69993358D01*
X92346747Y-69993358D02*
X92346747Y-69850501D01*
X92346747Y-69850501D02*
X92394366Y-69660025D01*
X92394366Y-69660025D02*
X92441985Y-69564787D01*
X92441985Y-69564787D02*
X92537223Y-69469549D01*
X92537223Y-69469549D02*
X92680080Y-69421930D01*
X92680080Y-69421930D02*
X92775318Y-69421930D01*
X92775318Y-69421930D02*
X92918175Y-69469549D01*
X92918175Y-69469549D02*
X92965794Y-69517168D01*
X93870556Y-69421930D02*
X93394366Y-69421930D01*
X93394366Y-69421930D02*
X93346747Y-69898120D01*
X93346747Y-69898120D02*
X93394366Y-69850501D01*
X93394366Y-69850501D02*
X93489604Y-69802882D01*
X93489604Y-69802882D02*
X93727699Y-69802882D01*
X93727699Y-69802882D02*
X93822937Y-69850501D01*
X93822937Y-69850501D02*
X93870556Y-69898120D01*
X93870556Y-69898120D02*
X93918175Y-69993358D01*
X93918175Y-69993358D02*
X93918175Y-70231453D01*
X93918175Y-70231453D02*
X93870556Y-70326691D01*
X93870556Y-70326691D02*
X93822937Y-70374311D01*
X93822937Y-70374311D02*
X93727699Y-70421930D01*
X93727699Y-70421930D02*
X93489604Y-70421930D01*
X93489604Y-70421930D02*
X93394366Y-70374311D01*
X93394366Y-70374311D02*
X93346747Y-70326691D01*
X94299128Y-69517168D02*
X94346747Y-69469549D01*
X94346747Y-69469549D02*
X94441985Y-69421930D01*
X94441985Y-69421930D02*
X94680080Y-69421930D01*
X94680080Y-69421930D02*
X94775318Y-69469549D01*
X94775318Y-69469549D02*
X94822937Y-69517168D01*
X94822937Y-69517168D02*
X94870556Y-69612406D01*
X94870556Y-69612406D02*
X94870556Y-69707644D01*
X94870556Y-69707644D02*
X94822937Y-69850501D01*
X94822937Y-69850501D02*
X94251509Y-70421930D01*
X94251509Y-70421930D02*
X94870556Y-70421930D01*
X83669897Y-114625845D02*
X83333179Y-114962563D01*
X83804584Y-114019754D02*
X83669897Y-114625845D01*
X83669897Y-114625845D02*
X84275988Y-114491158D01*
X84174973Y-115804356D02*
X83770912Y-115400295D01*
X83972943Y-115602326D02*
X84680049Y-114895219D01*
X84680049Y-114895219D02*
X84511691Y-114928891D01*
X84511691Y-114928891D02*
X84377004Y-114928891D01*
X84377004Y-114928891D02*
X84275988Y-114895219D01*
X122954819Y-117761904D02*
X123764342Y-117761904D01*
X123764342Y-117761904D02*
X123859580Y-117714285D01*
X123859580Y-117714285D02*
X123907200Y-117666666D01*
X123907200Y-117666666D02*
X123954819Y-117571428D01*
X123954819Y-117571428D02*
X123954819Y-117380952D01*
X123954819Y-117380952D02*
X123907200Y-117285714D01*
X123907200Y-117285714D02*
X123859580Y-117238095D01*
X123859580Y-117238095D02*
X123764342Y-117190476D01*
X123764342Y-117190476D02*
X122954819Y-117190476D01*
X123383390Y-116571428D02*
X123335771Y-116666666D01*
X123335771Y-116666666D02*
X123288152Y-116714285D01*
X123288152Y-116714285D02*
X123192914Y-116761904D01*
X123192914Y-116761904D02*
X123145295Y-116761904D01*
X123145295Y-116761904D02*
X123050057Y-116714285D01*
X123050057Y-116714285D02*
X123002438Y-116666666D01*
X123002438Y-116666666D02*
X122954819Y-116571428D01*
X122954819Y-116571428D02*
X122954819Y-116380952D01*
X122954819Y-116380952D02*
X123002438Y-116285714D01*
X123002438Y-116285714D02*
X123050057Y-116238095D01*
X123050057Y-116238095D02*
X123145295Y-116190476D01*
X123145295Y-116190476D02*
X123192914Y-116190476D01*
X123192914Y-116190476D02*
X123288152Y-116238095D01*
X123288152Y-116238095D02*
X123335771Y-116285714D01*
X123335771Y-116285714D02*
X123383390Y-116380952D01*
X123383390Y-116380952D02*
X123383390Y-116571428D01*
X123383390Y-116571428D02*
X123431009Y-116666666D01*
X123431009Y-116666666D02*
X123478628Y-116714285D01*
X123478628Y-116714285D02*
X123573866Y-116761904D01*
X123573866Y-116761904D02*
X123764342Y-116761904D01*
X123764342Y-116761904D02*
X123859580Y-116714285D01*
X123859580Y-116714285D02*
X123907200Y-116666666D01*
X123907200Y-116666666D02*
X123954819Y-116571428D01*
X123954819Y-116571428D02*
X123954819Y-116380952D01*
X123954819Y-116380952D02*
X123907200Y-116285714D01*
X123907200Y-116285714D02*
X123859580Y-116238095D01*
X123859580Y-116238095D02*
X123764342Y-116190476D01*
X123764342Y-116190476D02*
X123573866Y-116190476D01*
X123573866Y-116190476D02*
X123478628Y-116238095D01*
X123478628Y-116238095D02*
X123431009Y-116285714D01*
X123431009Y-116285714D02*
X123383390Y-116380952D01*
X123987896Y-116957946D02*
X124225991Y-116957946D01*
X124130753Y-117196041D02*
X124225991Y-116957946D01*
X124225991Y-116957946D02*
X124130753Y-116719851D01*
X124416467Y-117100803D02*
X124225991Y-116957946D01*
X124225991Y-116957946D02*
X124416467Y-116815089D01*
X122330587Y-116941317D02*
X122568682Y-116941317D01*
X122473444Y-117179412D02*
X122568682Y-116941317D01*
X122568682Y-116941317D02*
X122473444Y-116703222D01*
X122759158Y-117084174D02*
X122568682Y-116941317D01*
X122568682Y-116941317D02*
X122759158Y-116798460D01*
X123230424Y-104445400D02*
X123278044Y-104493019D01*
X123278044Y-104493019D02*
X123325663Y-104635876D01*
X123325663Y-104635876D02*
X123325663Y-104731114D01*
X123325663Y-104731114D02*
X123278044Y-104873971D01*
X123278044Y-104873971D02*
X123182805Y-104969209D01*
X123182805Y-104969209D02*
X123087567Y-105016828D01*
X123087567Y-105016828D02*
X122897091Y-105064447D01*
X122897091Y-105064447D02*
X122754234Y-105064447D01*
X122754234Y-105064447D02*
X122563758Y-105016828D01*
X122563758Y-105016828D02*
X122468520Y-104969209D01*
X122468520Y-104969209D02*
X122373282Y-104873971D01*
X122373282Y-104873971D02*
X122325663Y-104731114D01*
X122325663Y-104731114D02*
X122325663Y-104635876D01*
X122325663Y-104635876D02*
X122373282Y-104493019D01*
X122373282Y-104493019D02*
X122420901Y-104445400D01*
X122325663Y-104112066D02*
X122325663Y-103493019D01*
X122325663Y-103493019D02*
X122706615Y-103826352D01*
X122706615Y-103826352D02*
X122706615Y-103683495D01*
X122706615Y-103683495D02*
X122754234Y-103588257D01*
X122754234Y-103588257D02*
X122801853Y-103540638D01*
X122801853Y-103540638D02*
X122897091Y-103493019D01*
X122897091Y-103493019D02*
X123135186Y-103493019D01*
X123135186Y-103493019D02*
X123230424Y-103540638D01*
X123230424Y-103540638D02*
X123278044Y-103588257D01*
X123278044Y-103588257D02*
X123325663Y-103683495D01*
X123325663Y-103683495D02*
X123325663Y-103969209D01*
X123325663Y-103969209D02*
X123278044Y-104064447D01*
X123278044Y-104064447D02*
X123230424Y-104112066D01*
X123325663Y-102540638D02*
X123325663Y-103112066D01*
X123325663Y-102826352D02*
X122325663Y-102826352D01*
X122325663Y-102826352D02*
X122468520Y-102921590D01*
X122468520Y-102921590D02*
X122563758Y-103016828D01*
X122563758Y-103016828D02*
X122611377Y-103112066D01*
X128044581Y-116398330D02*
X128092201Y-116445949D01*
X128092201Y-116445949D02*
X128139820Y-116588806D01*
X128139820Y-116588806D02*
X128139820Y-116684044D01*
X128139820Y-116684044D02*
X128092201Y-116826901D01*
X128092201Y-116826901D02*
X127996962Y-116922139D01*
X127996962Y-116922139D02*
X127901724Y-116969758D01*
X127901724Y-116969758D02*
X127711248Y-117017377D01*
X127711248Y-117017377D02*
X127568391Y-117017377D01*
X127568391Y-117017377D02*
X127377915Y-116969758D01*
X127377915Y-116969758D02*
X127282677Y-116922139D01*
X127282677Y-116922139D02*
X127187439Y-116826901D01*
X127187439Y-116826901D02*
X127139820Y-116684044D01*
X127139820Y-116684044D02*
X127139820Y-116588806D01*
X127139820Y-116588806D02*
X127187439Y-116445949D01*
X127187439Y-116445949D02*
X127235058Y-116398330D01*
X127235058Y-116017377D02*
X127187439Y-115969758D01*
X127187439Y-115969758D02*
X127139820Y-115874520D01*
X127139820Y-115874520D02*
X127139820Y-115636425D01*
X127139820Y-115636425D02*
X127187439Y-115541187D01*
X127187439Y-115541187D02*
X127235058Y-115493568D01*
X127235058Y-115493568D02*
X127330296Y-115445949D01*
X127330296Y-115445949D02*
X127425534Y-115445949D01*
X127425534Y-115445949D02*
X127568391Y-115493568D01*
X127568391Y-115493568D02*
X128139820Y-116064996D01*
X128139820Y-116064996D02*
X128139820Y-115445949D01*
X127139820Y-115112615D02*
X127139820Y-114493568D01*
X127139820Y-114493568D02*
X127520772Y-114826901D01*
X127520772Y-114826901D02*
X127520772Y-114684044D01*
X127520772Y-114684044D02*
X127568391Y-114588806D01*
X127568391Y-114588806D02*
X127616010Y-114541187D01*
X127616010Y-114541187D02*
X127711248Y-114493568D01*
X127711248Y-114493568D02*
X127949343Y-114493568D01*
X127949343Y-114493568D02*
X128044581Y-114541187D01*
X128044581Y-114541187D02*
X128092201Y-114588806D01*
X128092201Y-114588806D02*
X128139820Y-114684044D01*
X128139820Y-114684044D02*
X128139820Y-114969758D01*
X128139820Y-114969758D02*
X128092201Y-115064996D01*
X128092201Y-115064996D02*
X128044581Y-115112615D01*
X62045180Y-101396667D02*
X61330895Y-101396667D01*
X61330895Y-101396667D02*
X61188038Y-101349048D01*
X61188038Y-101349048D02*
X61092800Y-101253810D01*
X61092800Y-101253810D02*
X61045180Y-101110953D01*
X61045180Y-101110953D02*
X61045180Y-101015715D01*
X61711847Y-102301429D02*
X61045180Y-102301429D01*
X62092800Y-102063334D02*
X61378514Y-101825239D01*
X61378514Y-101825239D02*
X61378514Y-102444286D01*
X100413495Y-110913416D02*
X100346151Y-110913416D01*
X100346151Y-110913416D02*
X100211464Y-110846072D01*
X100211464Y-110846072D02*
X100144121Y-110778729D01*
X100144121Y-110778729D02*
X100076777Y-110644042D01*
X100076777Y-110644042D02*
X100076777Y-110509355D01*
X100076777Y-110509355D02*
X100110449Y-110408340D01*
X100110449Y-110408340D02*
X100211464Y-110239981D01*
X100211464Y-110239981D02*
X100312479Y-110138966D01*
X100312479Y-110138966D02*
X100480838Y-110037950D01*
X100480838Y-110037950D02*
X100581853Y-110004279D01*
X100581853Y-110004279D02*
X100716540Y-110004279D01*
X100716540Y-110004279D02*
X100851227Y-110071622D01*
X100851227Y-110071622D02*
X100918571Y-110138966D01*
X100918571Y-110138966D02*
X100985914Y-110273653D01*
X100985914Y-110273653D02*
X100985914Y-110340996D01*
X100682869Y-111317477D02*
X100817556Y-111452164D01*
X100817556Y-111452164D02*
X100918571Y-111485836D01*
X100918571Y-111485836D02*
X100985914Y-111485836D01*
X100985914Y-111485836D02*
X101154273Y-111452164D01*
X101154273Y-111452164D02*
X101322632Y-111351149D01*
X101322632Y-111351149D02*
X101592006Y-111081775D01*
X101592006Y-111081775D02*
X101625678Y-110980759D01*
X101625678Y-110980759D02*
X101625678Y-110913416D01*
X101625678Y-110913416D02*
X101592006Y-110812401D01*
X101592006Y-110812401D02*
X101457319Y-110677714D01*
X101457319Y-110677714D02*
X101356304Y-110644042D01*
X101356304Y-110644042D02*
X101288960Y-110644042D01*
X101288960Y-110644042D02*
X101187945Y-110677714D01*
X101187945Y-110677714D02*
X101019586Y-110846072D01*
X101019586Y-110846072D02*
X100985914Y-110947088D01*
X100985914Y-110947088D02*
X100985914Y-111014431D01*
X100985914Y-111014431D02*
X101019586Y-111115446D01*
X101019586Y-111115446D02*
X101154273Y-111250133D01*
X101154273Y-111250133D02*
X101255288Y-111283805D01*
X101255288Y-111283805D02*
X101322632Y-111283805D01*
X101322632Y-111283805D02*
X101423647Y-111250133D01*
X106632680Y-120135095D02*
X105823157Y-120135095D01*
X105823157Y-120135095D02*
X105727919Y-120182714D01*
X105727919Y-120182714D02*
X105680300Y-120230333D01*
X105680300Y-120230333D02*
X105632680Y-120325571D01*
X105632680Y-120325571D02*
X105632680Y-120516047D01*
X105632680Y-120516047D02*
X105680300Y-120611285D01*
X105680300Y-120611285D02*
X105727919Y-120658904D01*
X105727919Y-120658904D02*
X105823157Y-120706523D01*
X105823157Y-120706523D02*
X106632680Y-120706523D01*
X106632680Y-121087476D02*
X106632680Y-121754142D01*
X106632680Y-121754142D02*
X105632680Y-121325571D01*
X126882143Y-117588669D02*
X126548810Y-117112478D01*
X126310715Y-117588669D02*
X126310715Y-116588669D01*
X126310715Y-116588669D02*
X126691667Y-116588669D01*
X126691667Y-116588669D02*
X126786905Y-116636288D01*
X126786905Y-116636288D02*
X126834524Y-116683907D01*
X126834524Y-116683907D02*
X126882143Y-116779145D01*
X126882143Y-116779145D02*
X126882143Y-116922002D01*
X126882143Y-116922002D02*
X126834524Y-117017240D01*
X126834524Y-117017240D02*
X126786905Y-117064859D01*
X126786905Y-117064859D02*
X126691667Y-117112478D01*
X126691667Y-117112478D02*
X126310715Y-117112478D01*
X127834524Y-117588669D02*
X127263096Y-117588669D01*
X127548810Y-117588669D02*
X127548810Y-116588669D01*
X127548810Y-116588669D02*
X127453572Y-116731526D01*
X127453572Y-116731526D02*
X127358334Y-116826764D01*
X127358334Y-116826764D02*
X127263096Y-116874383D01*
X128405953Y-117017240D02*
X128310715Y-116969621D01*
X128310715Y-116969621D02*
X128263096Y-116922002D01*
X128263096Y-116922002D02*
X128215477Y-116826764D01*
X128215477Y-116826764D02*
X128215477Y-116779145D01*
X128215477Y-116779145D02*
X128263096Y-116683907D01*
X128263096Y-116683907D02*
X128310715Y-116636288D01*
X128310715Y-116636288D02*
X128405953Y-116588669D01*
X128405953Y-116588669D02*
X128596429Y-116588669D01*
X128596429Y-116588669D02*
X128691667Y-116636288D01*
X128691667Y-116636288D02*
X128739286Y-116683907D01*
X128739286Y-116683907D02*
X128786905Y-116779145D01*
X128786905Y-116779145D02*
X128786905Y-116826764D01*
X128786905Y-116826764D02*
X128739286Y-116922002D01*
X128739286Y-116922002D02*
X128691667Y-116969621D01*
X128691667Y-116969621D02*
X128596429Y-117017240D01*
X128596429Y-117017240D02*
X128405953Y-117017240D01*
X128405953Y-117017240D02*
X128310715Y-117064859D01*
X128310715Y-117064859D02*
X128263096Y-117112478D01*
X128263096Y-117112478D02*
X128215477Y-117207716D01*
X128215477Y-117207716D02*
X128215477Y-117398192D01*
X128215477Y-117398192D02*
X128263096Y-117493430D01*
X128263096Y-117493430D02*
X128310715Y-117541050D01*
X128310715Y-117541050D02*
X128405953Y-117588669D01*
X128405953Y-117588669D02*
X128596429Y-117588669D01*
X128596429Y-117588669D02*
X128691667Y-117541050D01*
X128691667Y-117541050D02*
X128739286Y-117493430D01*
X128739286Y-117493430D02*
X128786905Y-117398192D01*
X128786905Y-117398192D02*
X128786905Y-117207716D01*
X128786905Y-117207716D02*
X128739286Y-117112478D01*
X128739286Y-117112478D02*
X128691667Y-117064859D01*
X128691667Y-117064859D02*
X128596429Y-117017240D01*
X78786706Y-70247304D02*
X78834326Y-70294923D01*
X78834326Y-70294923D02*
X78881945Y-70437780D01*
X78881945Y-70437780D02*
X78881945Y-70533018D01*
X78881945Y-70533018D02*
X78834326Y-70675875D01*
X78834326Y-70675875D02*
X78739087Y-70771113D01*
X78739087Y-70771113D02*
X78643849Y-70818732D01*
X78643849Y-70818732D02*
X78453373Y-70866351D01*
X78453373Y-70866351D02*
X78310516Y-70866351D01*
X78310516Y-70866351D02*
X78120040Y-70818732D01*
X78120040Y-70818732D02*
X78024802Y-70771113D01*
X78024802Y-70771113D02*
X77929564Y-70675875D01*
X77929564Y-70675875D02*
X77881945Y-70533018D01*
X77881945Y-70533018D02*
X77881945Y-70437780D01*
X77881945Y-70437780D02*
X77929564Y-70294923D01*
X77929564Y-70294923D02*
X77977183Y-70247304D01*
X77881945Y-69913970D02*
X77881945Y-69294923D01*
X77881945Y-69294923D02*
X78262897Y-69628256D01*
X78262897Y-69628256D02*
X78262897Y-69485399D01*
X78262897Y-69485399D02*
X78310516Y-69390161D01*
X78310516Y-69390161D02*
X78358135Y-69342542D01*
X78358135Y-69342542D02*
X78453373Y-69294923D01*
X78453373Y-69294923D02*
X78691468Y-69294923D01*
X78691468Y-69294923D02*
X78786706Y-69342542D01*
X78786706Y-69342542D02*
X78834326Y-69390161D01*
X78834326Y-69390161D02*
X78881945Y-69485399D01*
X78881945Y-69485399D02*
X78881945Y-69771113D01*
X78881945Y-69771113D02*
X78834326Y-69866351D01*
X78834326Y-69866351D02*
X78786706Y-69913970D01*
X93968232Y-75289968D02*
X94015852Y-75337587D01*
X94015852Y-75337587D02*
X94063471Y-75480444D01*
X94063471Y-75480444D02*
X94063471Y-75575682D01*
X94063471Y-75575682D02*
X94015852Y-75718539D01*
X94015852Y-75718539D02*
X93920613Y-75813777D01*
X93920613Y-75813777D02*
X93825375Y-75861396D01*
X93825375Y-75861396D02*
X93634899Y-75909015D01*
X93634899Y-75909015D02*
X93492042Y-75909015D01*
X93492042Y-75909015D02*
X93301566Y-75861396D01*
X93301566Y-75861396D02*
X93206328Y-75813777D01*
X93206328Y-75813777D02*
X93111090Y-75718539D01*
X93111090Y-75718539D02*
X93063471Y-75575682D01*
X93063471Y-75575682D02*
X93063471Y-75480444D01*
X93063471Y-75480444D02*
X93111090Y-75337587D01*
X93111090Y-75337587D02*
X93158709Y-75289968D01*
X93396804Y-74432825D02*
X94063471Y-74432825D01*
X93015852Y-74670920D02*
X93730137Y-74909015D01*
X93730137Y-74909015D02*
X93730137Y-74289968D01*
X93063471Y-74004253D02*
X93063471Y-73337587D01*
X93063471Y-73337587D02*
X94063471Y-73766158D01*
X65104819Y-74080359D02*
X64628628Y-74413692D01*
X65104819Y-74651787D02*
X64104819Y-74651787D01*
X64104819Y-74651787D02*
X64104819Y-74270835D01*
X64104819Y-74270835D02*
X64152438Y-74175597D01*
X64152438Y-74175597D02*
X64200057Y-74127978D01*
X64200057Y-74127978D02*
X64295295Y-74080359D01*
X64295295Y-74080359D02*
X64438152Y-74080359D01*
X64438152Y-74080359D02*
X64533390Y-74127978D01*
X64533390Y-74127978D02*
X64581009Y-74175597D01*
X64581009Y-74175597D02*
X64628628Y-74270835D01*
X64628628Y-74270835D02*
X64628628Y-74651787D01*
X64104819Y-73747025D02*
X64104819Y-73127978D01*
X64104819Y-73127978D02*
X64485771Y-73461311D01*
X64485771Y-73461311D02*
X64485771Y-73318454D01*
X64485771Y-73318454D02*
X64533390Y-73223216D01*
X64533390Y-73223216D02*
X64581009Y-73175597D01*
X64581009Y-73175597D02*
X64676247Y-73127978D01*
X64676247Y-73127978D02*
X64914342Y-73127978D01*
X64914342Y-73127978D02*
X65009580Y-73175597D01*
X65009580Y-73175597D02*
X65057200Y-73223216D01*
X65057200Y-73223216D02*
X65104819Y-73318454D01*
X65104819Y-73318454D02*
X65104819Y-73604168D01*
X65104819Y-73604168D02*
X65057200Y-73699406D01*
X65057200Y-73699406D02*
X65009580Y-73747025D01*
X64438152Y-72270835D02*
X65104819Y-72270835D01*
X64057200Y-72508930D02*
X64771485Y-72747025D01*
X64771485Y-72747025D02*
X64771485Y-72127978D01*
X122227123Y-111598122D02*
X122179504Y-111645742D01*
X122179504Y-111645742D02*
X122036647Y-111693361D01*
X122036647Y-111693361D02*
X121941409Y-111693361D01*
X121941409Y-111693361D02*
X121798552Y-111645742D01*
X121798552Y-111645742D02*
X121703314Y-111550503D01*
X121703314Y-111550503D02*
X121655695Y-111455265D01*
X121655695Y-111455265D02*
X121608076Y-111264789D01*
X121608076Y-111264789D02*
X121608076Y-111121932D01*
X121608076Y-111121932D02*
X121655695Y-110931456D01*
X121655695Y-110931456D02*
X121703314Y-110836218D01*
X121703314Y-110836218D02*
X121798552Y-110740980D01*
X121798552Y-110740980D02*
X121941409Y-110693361D01*
X121941409Y-110693361D02*
X122036647Y-110693361D01*
X122036647Y-110693361D02*
X122179504Y-110740980D01*
X122179504Y-110740980D02*
X122227123Y-110788599D01*
X122608076Y-110788599D02*
X122655695Y-110740980D01*
X122655695Y-110740980D02*
X122750933Y-110693361D01*
X122750933Y-110693361D02*
X122989028Y-110693361D01*
X122989028Y-110693361D02*
X123084266Y-110740980D01*
X123084266Y-110740980D02*
X123131885Y-110788599D01*
X123131885Y-110788599D02*
X123179504Y-110883837D01*
X123179504Y-110883837D02*
X123179504Y-110979075D01*
X123179504Y-110979075D02*
X123131885Y-111121932D01*
X123131885Y-111121932D02*
X122560457Y-111693361D01*
X122560457Y-111693361D02*
X123179504Y-111693361D01*
X124084266Y-110693361D02*
X123608076Y-110693361D01*
X123608076Y-110693361D02*
X123560457Y-111169551D01*
X123560457Y-111169551D02*
X123608076Y-111121932D01*
X123608076Y-111121932D02*
X123703314Y-111074313D01*
X123703314Y-111074313D02*
X123941409Y-111074313D01*
X123941409Y-111074313D02*
X124036647Y-111121932D01*
X124036647Y-111121932D02*
X124084266Y-111169551D01*
X124084266Y-111169551D02*
X124131885Y-111264789D01*
X124131885Y-111264789D02*
X124131885Y-111502884D01*
X124131885Y-111502884D02*
X124084266Y-111598122D01*
X124084266Y-111598122D02*
X124036647Y-111645742D01*
X124036647Y-111645742D02*
X123941409Y-111693361D01*
X123941409Y-111693361D02*
X123703314Y-111693361D01*
X123703314Y-111693361D02*
X123608076Y-111645742D01*
X123608076Y-111645742D02*
X123560457Y-111598122D01*
X83465794Y-76909549D02*
X83132461Y-76433358D01*
X82894366Y-76909549D02*
X82894366Y-75909549D01*
X82894366Y-75909549D02*
X83275318Y-75909549D01*
X83275318Y-75909549D02*
X83370556Y-75957168D01*
X83370556Y-75957168D02*
X83418175Y-76004787D01*
X83418175Y-76004787D02*
X83465794Y-76100025D01*
X83465794Y-76100025D02*
X83465794Y-76242882D01*
X83465794Y-76242882D02*
X83418175Y-76338120D01*
X83418175Y-76338120D02*
X83370556Y-76385739D01*
X83370556Y-76385739D02*
X83275318Y-76433358D01*
X83275318Y-76433358D02*
X82894366Y-76433358D01*
X84418175Y-76909549D02*
X83846747Y-76909549D01*
X84132461Y-76909549D02*
X84132461Y-75909549D01*
X84132461Y-75909549D02*
X84037223Y-76052406D01*
X84037223Y-76052406D02*
X83941985Y-76147644D01*
X83941985Y-76147644D02*
X83846747Y-76195263D01*
X85370556Y-76909549D02*
X84799128Y-76909549D01*
X85084842Y-76909549D02*
X85084842Y-75909549D01*
X85084842Y-75909549D02*
X84989604Y-76052406D01*
X84989604Y-76052406D02*
X84894366Y-76147644D01*
X84894366Y-76147644D02*
X84799128Y-76195263D01*
X85011332Y-65180106D02*
X84201809Y-65180106D01*
X84201809Y-65180106D02*
X84106571Y-65227725D01*
X84106571Y-65227725D02*
X84058952Y-65275344D01*
X84058952Y-65275344D02*
X84011332Y-65370582D01*
X84011332Y-65370582D02*
X84011332Y-65561058D01*
X84011332Y-65561058D02*
X84058952Y-65656296D01*
X84058952Y-65656296D02*
X84106571Y-65703915D01*
X84106571Y-65703915D02*
X84201809Y-65751534D01*
X84201809Y-65751534D02*
X85011332Y-65751534D01*
X84677999Y-66656296D02*
X84011332Y-66656296D01*
X85058952Y-66418201D02*
X84344666Y-66180106D01*
X84344666Y-66180106D02*
X84344666Y-66799153D01*
X88604067Y-64551388D02*
X88365972Y-64551388D01*
X88461210Y-64313293D02*
X88365972Y-64551388D01*
X88365972Y-64551388D02*
X88461210Y-64789483D01*
X88175496Y-64408531D02*
X88365972Y-64551388D01*
X88365972Y-64551388D02*
X88175496Y-64694245D01*
X87546802Y-65213301D02*
X87784897Y-65213301D01*
X87689659Y-65451396D02*
X87784897Y-65213301D01*
X87784897Y-65213301D02*
X87689659Y-64975206D01*
X87975373Y-65356158D02*
X87784897Y-65213301D01*
X87784897Y-65213301D02*
X87975373Y-65070444D01*
X113069769Y-118287175D02*
X113117389Y-118334794D01*
X113117389Y-118334794D02*
X113165008Y-118477651D01*
X113165008Y-118477651D02*
X113165008Y-118572889D01*
X113165008Y-118572889D02*
X113117389Y-118715746D01*
X113117389Y-118715746D02*
X113022150Y-118810984D01*
X113022150Y-118810984D02*
X112926912Y-118858603D01*
X112926912Y-118858603D02*
X112736436Y-118906222D01*
X112736436Y-118906222D02*
X112593579Y-118906222D01*
X112593579Y-118906222D02*
X112403103Y-118858603D01*
X112403103Y-118858603D02*
X112307865Y-118810984D01*
X112307865Y-118810984D02*
X112212627Y-118715746D01*
X112212627Y-118715746D02*
X112165008Y-118572889D01*
X112165008Y-118572889D02*
X112165008Y-118477651D01*
X112165008Y-118477651D02*
X112212627Y-118334794D01*
X112212627Y-118334794D02*
X112260246Y-118287175D01*
X113165008Y-117334794D02*
X113165008Y-117906222D01*
X113165008Y-117620508D02*
X112165008Y-117620508D01*
X112165008Y-117620508D02*
X112307865Y-117715746D01*
X112307865Y-117715746D02*
X112403103Y-117810984D01*
X112403103Y-117810984D02*
X112450722Y-117906222D01*
X112593579Y-116763365D02*
X112545960Y-116858603D01*
X112545960Y-116858603D02*
X112498341Y-116906222D01*
X112498341Y-116906222D02*
X112403103Y-116953841D01*
X112403103Y-116953841D02*
X112355484Y-116953841D01*
X112355484Y-116953841D02*
X112260246Y-116906222D01*
X112260246Y-116906222D02*
X112212627Y-116858603D01*
X112212627Y-116858603D02*
X112165008Y-116763365D01*
X112165008Y-116763365D02*
X112165008Y-116572889D01*
X112165008Y-116572889D02*
X112212627Y-116477651D01*
X112212627Y-116477651D02*
X112260246Y-116430032D01*
X112260246Y-116430032D02*
X112355484Y-116382413D01*
X112355484Y-116382413D02*
X112403103Y-116382413D01*
X112403103Y-116382413D02*
X112498341Y-116430032D01*
X112498341Y-116430032D02*
X112545960Y-116477651D01*
X112545960Y-116477651D02*
X112593579Y-116572889D01*
X112593579Y-116572889D02*
X112593579Y-116763365D01*
X112593579Y-116763365D02*
X112641198Y-116858603D01*
X112641198Y-116858603D02*
X112688817Y-116906222D01*
X112688817Y-116906222D02*
X112784055Y-116953841D01*
X112784055Y-116953841D02*
X112974531Y-116953841D01*
X112974531Y-116953841D02*
X113069769Y-116906222D01*
X113069769Y-116906222D02*
X113117389Y-116858603D01*
X113117389Y-116858603D02*
X113165008Y-116763365D01*
X113165008Y-116763365D02*
X113165008Y-116572889D01*
X113165008Y-116572889D02*
X113117389Y-116477651D01*
X113117389Y-116477651D02*
X113069769Y-116430032D01*
X113069769Y-116430032D02*
X112974531Y-116382413D01*
X112974531Y-116382413D02*
X112784055Y-116382413D01*
X112784055Y-116382413D02*
X112688817Y-116430032D01*
X112688817Y-116430032D02*
X112641198Y-116477651D01*
X112641198Y-116477651D02*
X112593579Y-116572889D01*
X71293312Y-71101930D02*
X70959979Y-70625739D01*
X70721884Y-71101930D02*
X70721884Y-70101930D01*
X70721884Y-70101930D02*
X71102836Y-70101930D01*
X71102836Y-70101930D02*
X71198074Y-70149549D01*
X71198074Y-70149549D02*
X71245693Y-70197168D01*
X71245693Y-70197168D02*
X71293312Y-70292406D01*
X71293312Y-70292406D02*
X71293312Y-70435263D01*
X71293312Y-70435263D02*
X71245693Y-70530501D01*
X71245693Y-70530501D02*
X71198074Y-70578120D01*
X71198074Y-70578120D02*
X71102836Y-70625739D01*
X71102836Y-70625739D02*
X70721884Y-70625739D01*
X71674265Y-70197168D02*
X71721884Y-70149549D01*
X71721884Y-70149549D02*
X71817122Y-70101930D01*
X71817122Y-70101930D02*
X72055217Y-70101930D01*
X72055217Y-70101930D02*
X72150455Y-70149549D01*
X72150455Y-70149549D02*
X72198074Y-70197168D01*
X72198074Y-70197168D02*
X72245693Y-70292406D01*
X72245693Y-70292406D02*
X72245693Y-70387644D01*
X72245693Y-70387644D02*
X72198074Y-70530501D01*
X72198074Y-70530501D02*
X71626646Y-71101930D01*
X71626646Y-71101930D02*
X72245693Y-71101930D01*
X126817336Y-100846971D02*
X126484003Y-100370780D01*
X126245908Y-100846971D02*
X126245908Y-99846971D01*
X126245908Y-99846971D02*
X126626860Y-99846971D01*
X126626860Y-99846971D02*
X126722098Y-99894590D01*
X126722098Y-99894590D02*
X126769717Y-99942209D01*
X126769717Y-99942209D02*
X126817336Y-100037447D01*
X126817336Y-100037447D02*
X126817336Y-100180304D01*
X126817336Y-100180304D02*
X126769717Y-100275542D01*
X126769717Y-100275542D02*
X126722098Y-100323161D01*
X126722098Y-100323161D02*
X126626860Y-100370780D01*
X126626860Y-100370780D02*
X126245908Y-100370780D01*
X127198289Y-99942209D02*
X127245908Y-99894590D01*
X127245908Y-99894590D02*
X127341146Y-99846971D01*
X127341146Y-99846971D02*
X127579241Y-99846971D01*
X127579241Y-99846971D02*
X127674479Y-99894590D01*
X127674479Y-99894590D02*
X127722098Y-99942209D01*
X127722098Y-99942209D02*
X127769717Y-100037447D01*
X127769717Y-100037447D02*
X127769717Y-100132685D01*
X127769717Y-100132685D02*
X127722098Y-100275542D01*
X127722098Y-100275542D02*
X127150670Y-100846971D01*
X127150670Y-100846971D02*
X127769717Y-100846971D01*
X128103051Y-99846971D02*
X128722098Y-99846971D01*
X128722098Y-99846971D02*
X128388765Y-100227923D01*
X128388765Y-100227923D02*
X128531622Y-100227923D01*
X128531622Y-100227923D02*
X128626860Y-100275542D01*
X128626860Y-100275542D02*
X128674479Y-100323161D01*
X128674479Y-100323161D02*
X128722098Y-100418399D01*
X128722098Y-100418399D02*
X128722098Y-100656494D01*
X128722098Y-100656494D02*
X128674479Y-100751732D01*
X128674479Y-100751732D02*
X128626860Y-100799352D01*
X128626860Y-100799352D02*
X128531622Y-100846971D01*
X128531622Y-100846971D02*
X128245908Y-100846971D01*
X128245908Y-100846971D02*
X128150670Y-100799352D01*
X128150670Y-100799352D02*
X128103051Y-100751732D01*
X119077725Y-95881177D02*
X119125345Y-95928796D01*
X119125345Y-95928796D02*
X119172964Y-96071653D01*
X119172964Y-96071653D02*
X119172964Y-96166891D01*
X119172964Y-96166891D02*
X119125345Y-96309748D01*
X119125345Y-96309748D02*
X119030106Y-96404986D01*
X119030106Y-96404986D02*
X118934868Y-96452605D01*
X118934868Y-96452605D02*
X118744392Y-96500224D01*
X118744392Y-96500224D02*
X118601535Y-96500224D01*
X118601535Y-96500224D02*
X118411059Y-96452605D01*
X118411059Y-96452605D02*
X118315821Y-96404986D01*
X118315821Y-96404986D02*
X118220583Y-96309748D01*
X118220583Y-96309748D02*
X118172964Y-96166891D01*
X118172964Y-96166891D02*
X118172964Y-96071653D01*
X118172964Y-96071653D02*
X118220583Y-95928796D01*
X118220583Y-95928796D02*
X118268202Y-95881177D01*
X118172964Y-95547843D02*
X118172964Y-94928796D01*
X118172964Y-94928796D02*
X118553916Y-95262129D01*
X118553916Y-95262129D02*
X118553916Y-95119272D01*
X118553916Y-95119272D02*
X118601535Y-95024034D01*
X118601535Y-95024034D02*
X118649154Y-94976415D01*
X118649154Y-94976415D02*
X118744392Y-94928796D01*
X118744392Y-94928796D02*
X118982487Y-94928796D01*
X118982487Y-94928796D02*
X119077725Y-94976415D01*
X119077725Y-94976415D02*
X119125345Y-95024034D01*
X119125345Y-95024034D02*
X119172964Y-95119272D01*
X119172964Y-95119272D02*
X119172964Y-95404986D01*
X119172964Y-95404986D02*
X119125345Y-95500224D01*
X119125345Y-95500224D02*
X119077725Y-95547843D01*
X118172964Y-94595462D02*
X118172964Y-93976415D01*
X118172964Y-93976415D02*
X118553916Y-94309748D01*
X118553916Y-94309748D02*
X118553916Y-94166891D01*
X118553916Y-94166891D02*
X118601535Y-94071653D01*
X118601535Y-94071653D02*
X118649154Y-94024034D01*
X118649154Y-94024034D02*
X118744392Y-93976415D01*
X118744392Y-93976415D02*
X118982487Y-93976415D01*
X118982487Y-93976415D02*
X119077725Y-94024034D01*
X119077725Y-94024034D02*
X119125345Y-94071653D01*
X119125345Y-94071653D02*
X119172964Y-94166891D01*
X119172964Y-94166891D02*
X119172964Y-94452605D01*
X119172964Y-94452605D02*
X119125345Y-94547843D01*
X119125345Y-94547843D02*
X119077725Y-94595462D01*
X61804819Y-77675595D02*
X60804819Y-77675595D01*
X60804819Y-77675595D02*
X60804819Y-77437500D01*
X60804819Y-77437500D02*
X60852438Y-77294643D01*
X60852438Y-77294643D02*
X60947676Y-77199405D01*
X60947676Y-77199405D02*
X61042914Y-77151786D01*
X61042914Y-77151786D02*
X61233390Y-77104167D01*
X61233390Y-77104167D02*
X61376247Y-77104167D01*
X61376247Y-77104167D02*
X61566723Y-77151786D01*
X61566723Y-77151786D02*
X61661961Y-77199405D01*
X61661961Y-77199405D02*
X61757200Y-77294643D01*
X61757200Y-77294643D02*
X61804819Y-77437500D01*
X61804819Y-77437500D02*
X61804819Y-77675595D01*
X61804819Y-76151786D02*
X61804819Y-76723214D01*
X61804819Y-76437500D02*
X60804819Y-76437500D01*
X60804819Y-76437500D02*
X60947676Y-76532738D01*
X60947676Y-76532738D02*
X61042914Y-76627976D01*
X61042914Y-76627976D02*
X61090533Y-76723214D01*
X129168509Y-61158119D02*
X129168509Y-60158119D01*
X129168509Y-60634309D02*
X129739937Y-60634309D01*
X129739937Y-61158119D02*
X129739937Y-60158119D01*
X130120890Y-60158119D02*
X130739937Y-60158119D01*
X130739937Y-60158119D02*
X130406604Y-60539071D01*
X130406604Y-60539071D02*
X130549461Y-60539071D01*
X130549461Y-60539071D02*
X130644699Y-60586690D01*
X130644699Y-60586690D02*
X130692318Y-60634309D01*
X130692318Y-60634309D02*
X130739937Y-60729547D01*
X130739937Y-60729547D02*
X130739937Y-60967642D01*
X130739937Y-60967642D02*
X130692318Y-61062880D01*
X130692318Y-61062880D02*
X130644699Y-61110500D01*
X130644699Y-61110500D02*
X130549461Y-61158119D01*
X130549461Y-61158119D02*
X130263747Y-61158119D01*
X130263747Y-61158119D02*
X130168509Y-61110500D01*
X130168509Y-61110500D02*
X130120890Y-61062880D01*
X124941735Y-123295749D02*
X124894116Y-123343369D01*
X124894116Y-123343369D02*
X124751259Y-123390988D01*
X124751259Y-123390988D02*
X124656021Y-123390988D01*
X124656021Y-123390988D02*
X124513164Y-123343369D01*
X124513164Y-123343369D02*
X124417926Y-123248130D01*
X124417926Y-123248130D02*
X124370307Y-123152892D01*
X124370307Y-123152892D02*
X124322688Y-122962416D01*
X124322688Y-122962416D02*
X124322688Y-122819559D01*
X124322688Y-122819559D02*
X124370307Y-122629083D01*
X124370307Y-122629083D02*
X124417926Y-122533845D01*
X124417926Y-122533845D02*
X124513164Y-122438607D01*
X124513164Y-122438607D02*
X124656021Y-122390988D01*
X124656021Y-122390988D02*
X124751259Y-122390988D01*
X124751259Y-122390988D02*
X124894116Y-122438607D01*
X124894116Y-122438607D02*
X124941735Y-122486226D01*
X125322688Y-122486226D02*
X125370307Y-122438607D01*
X125370307Y-122438607D02*
X125465545Y-122390988D01*
X125465545Y-122390988D02*
X125703640Y-122390988D01*
X125703640Y-122390988D02*
X125798878Y-122438607D01*
X125798878Y-122438607D02*
X125846497Y-122486226D01*
X125846497Y-122486226D02*
X125894116Y-122581464D01*
X125894116Y-122581464D02*
X125894116Y-122676702D01*
X125894116Y-122676702D02*
X125846497Y-122819559D01*
X125846497Y-122819559D02*
X125275069Y-123390988D01*
X125275069Y-123390988D02*
X125894116Y-123390988D01*
X126846497Y-123390988D02*
X126275069Y-123390988D01*
X126560783Y-123390988D02*
X126560783Y-122390988D01*
X126560783Y-122390988D02*
X126465545Y-122533845D01*
X126465545Y-122533845D02*
X126370307Y-122629083D01*
X126370307Y-122629083D02*
X126275069Y-122676702D01*
X75164321Y-59780311D02*
X75164321Y-60494596D01*
X75164321Y-60494596D02*
X75116702Y-60637453D01*
X75116702Y-60637453D02*
X75021464Y-60732692D01*
X75021464Y-60732692D02*
X74878607Y-60780311D01*
X74878607Y-60780311D02*
X74783369Y-60780311D01*
X75545274Y-59780311D02*
X76164321Y-59780311D01*
X76164321Y-59780311D02*
X75830988Y-60161263D01*
X75830988Y-60161263D02*
X75973845Y-60161263D01*
X75973845Y-60161263D02*
X76069083Y-60208882D01*
X76069083Y-60208882D02*
X76116702Y-60256501D01*
X76116702Y-60256501D02*
X76164321Y-60351739D01*
X76164321Y-60351739D02*
X76164321Y-60589834D01*
X76164321Y-60589834D02*
X76116702Y-60685072D01*
X76116702Y-60685072D02*
X76069083Y-60732692D01*
X76069083Y-60732692D02*
X75973845Y-60780311D01*
X75973845Y-60780311D02*
X75688131Y-60780311D01*
X75688131Y-60780311D02*
X75592893Y-60732692D01*
X75592893Y-60732692D02*
X75545274Y-60685072D01*
X135927272Y-101631992D02*
X135974892Y-101679611D01*
X135974892Y-101679611D02*
X136022511Y-101822468D01*
X136022511Y-101822468D02*
X136022511Y-101917706D01*
X136022511Y-101917706D02*
X135974892Y-102060563D01*
X135974892Y-102060563D02*
X135879653Y-102155801D01*
X135879653Y-102155801D02*
X135784415Y-102203420D01*
X135784415Y-102203420D02*
X135593939Y-102251039D01*
X135593939Y-102251039D02*
X135451082Y-102251039D01*
X135451082Y-102251039D02*
X135260606Y-102203420D01*
X135260606Y-102203420D02*
X135165368Y-102155801D01*
X135165368Y-102155801D02*
X135070130Y-102060563D01*
X135070130Y-102060563D02*
X135022511Y-101917706D01*
X135022511Y-101917706D02*
X135022511Y-101822468D01*
X135022511Y-101822468D02*
X135070130Y-101679611D01*
X135070130Y-101679611D02*
X135117749Y-101631992D01*
X135117749Y-101251039D02*
X135070130Y-101203420D01*
X135070130Y-101203420D02*
X135022511Y-101108182D01*
X135022511Y-101108182D02*
X135022511Y-100870087D01*
X135022511Y-100870087D02*
X135070130Y-100774849D01*
X135070130Y-100774849D02*
X135117749Y-100727230D01*
X135117749Y-100727230D02*
X135212987Y-100679611D01*
X135212987Y-100679611D02*
X135308225Y-100679611D01*
X135308225Y-100679611D02*
X135451082Y-100727230D01*
X135451082Y-100727230D02*
X136022511Y-101298658D01*
X136022511Y-101298658D02*
X136022511Y-100679611D01*
X135022511Y-100346277D02*
X135022511Y-99679611D01*
X135022511Y-99679611D02*
X136022511Y-100108182D01*
X114595262Y-99172592D02*
X114547643Y-99220212D01*
X114547643Y-99220212D02*
X114404786Y-99267831D01*
X114404786Y-99267831D02*
X114309548Y-99267831D01*
X114309548Y-99267831D02*
X114166691Y-99220212D01*
X114166691Y-99220212D02*
X114071453Y-99124973D01*
X114071453Y-99124973D02*
X114023834Y-99029735D01*
X114023834Y-99029735D02*
X113976215Y-98839259D01*
X113976215Y-98839259D02*
X113976215Y-98696402D01*
X113976215Y-98696402D02*
X114023834Y-98505926D01*
X114023834Y-98505926D02*
X114071453Y-98410688D01*
X114071453Y-98410688D02*
X114166691Y-98315450D01*
X114166691Y-98315450D02*
X114309548Y-98267831D01*
X114309548Y-98267831D02*
X114404786Y-98267831D01*
X114404786Y-98267831D02*
X114547643Y-98315450D01*
X114547643Y-98315450D02*
X114595262Y-98363069D01*
X114928596Y-98267831D02*
X115547643Y-98267831D01*
X115547643Y-98267831D02*
X115214310Y-98648783D01*
X115214310Y-98648783D02*
X115357167Y-98648783D01*
X115357167Y-98648783D02*
X115452405Y-98696402D01*
X115452405Y-98696402D02*
X115500024Y-98744021D01*
X115500024Y-98744021D02*
X115547643Y-98839259D01*
X115547643Y-98839259D02*
X115547643Y-99077354D01*
X115547643Y-99077354D02*
X115500024Y-99172592D01*
X115500024Y-99172592D02*
X115452405Y-99220212D01*
X115452405Y-99220212D02*
X115357167Y-99267831D01*
X115357167Y-99267831D02*
X115071453Y-99267831D01*
X115071453Y-99267831D02*
X114976215Y-99220212D01*
X114976215Y-99220212D02*
X114928596Y-99172592D01*
X115928596Y-98363069D02*
X115976215Y-98315450D01*
X115976215Y-98315450D02*
X116071453Y-98267831D01*
X116071453Y-98267831D02*
X116309548Y-98267831D01*
X116309548Y-98267831D02*
X116404786Y-98315450D01*
X116404786Y-98315450D02*
X116452405Y-98363069D01*
X116452405Y-98363069D02*
X116500024Y-98458307D01*
X116500024Y-98458307D02*
X116500024Y-98553545D01*
X116500024Y-98553545D02*
X116452405Y-98696402D01*
X116452405Y-98696402D02*
X115880977Y-99267831D01*
X115880977Y-99267831D02*
X116500024Y-99267831D01*
X119274295Y-71549819D02*
X119274295Y-72359342D01*
X119274295Y-72359342D02*
X119321914Y-72454580D01*
X119321914Y-72454580D02*
X119369533Y-72502200D01*
X119369533Y-72502200D02*
X119464771Y-72549819D01*
X119464771Y-72549819D02*
X119655247Y-72549819D01*
X119655247Y-72549819D02*
X119750485Y-72502200D01*
X119750485Y-72502200D02*
X119798104Y-72454580D01*
X119798104Y-72454580D02*
X119845723Y-72359342D01*
X119845723Y-72359342D02*
X119845723Y-71549819D01*
X120845723Y-72549819D02*
X120274295Y-72549819D01*
X120560009Y-72549819D02*
X120560009Y-71549819D01*
X120560009Y-71549819D02*
X120464771Y-71692676D01*
X120464771Y-71692676D02*
X120369533Y-71787914D01*
X120369533Y-71787914D02*
X120274295Y-71835533D01*
X63817142Y-98884818D02*
X63483809Y-98408627D01*
X63245714Y-98884818D02*
X63245714Y-97884818D01*
X63245714Y-97884818D02*
X63626666Y-97884818D01*
X63626666Y-97884818D02*
X63721904Y-97932437D01*
X63721904Y-97932437D02*
X63769523Y-97980056D01*
X63769523Y-97980056D02*
X63817142Y-98075294D01*
X63817142Y-98075294D02*
X63817142Y-98218151D01*
X63817142Y-98218151D02*
X63769523Y-98313389D01*
X63769523Y-98313389D02*
X63721904Y-98361008D01*
X63721904Y-98361008D02*
X63626666Y-98408627D01*
X63626666Y-98408627D02*
X63245714Y-98408627D01*
X64150476Y-97884818D02*
X64769523Y-97884818D01*
X64769523Y-97884818D02*
X64436190Y-98265770D01*
X64436190Y-98265770D02*
X64579047Y-98265770D01*
X64579047Y-98265770D02*
X64674285Y-98313389D01*
X64674285Y-98313389D02*
X64721904Y-98361008D01*
X64721904Y-98361008D02*
X64769523Y-98456246D01*
X64769523Y-98456246D02*
X64769523Y-98694341D01*
X64769523Y-98694341D02*
X64721904Y-98789579D01*
X64721904Y-98789579D02*
X64674285Y-98837199D01*
X64674285Y-98837199D02*
X64579047Y-98884818D01*
X64579047Y-98884818D02*
X64293333Y-98884818D01*
X64293333Y-98884818D02*
X64198095Y-98837199D01*
X64198095Y-98837199D02*
X64150476Y-98789579D01*
X65388571Y-97884818D02*
X65483809Y-97884818D01*
X65483809Y-97884818D02*
X65579047Y-97932437D01*
X65579047Y-97932437D02*
X65626666Y-97980056D01*
X65626666Y-97980056D02*
X65674285Y-98075294D01*
X65674285Y-98075294D02*
X65721904Y-98265770D01*
X65721904Y-98265770D02*
X65721904Y-98503865D01*
X65721904Y-98503865D02*
X65674285Y-98694341D01*
X65674285Y-98694341D02*
X65626666Y-98789579D01*
X65626666Y-98789579D02*
X65579047Y-98837199D01*
X65579047Y-98837199D02*
X65483809Y-98884818D01*
X65483809Y-98884818D02*
X65388571Y-98884818D01*
X65388571Y-98884818D02*
X65293333Y-98837199D01*
X65293333Y-98837199D02*
X65245714Y-98789579D01*
X65245714Y-98789579D02*
X65198095Y-98694341D01*
X65198095Y-98694341D02*
X65150476Y-98503865D01*
X65150476Y-98503865D02*
X65150476Y-98265770D01*
X65150476Y-98265770D02*
X65198095Y-98075294D01*
X65198095Y-98075294D02*
X65245714Y-97980056D01*
X65245714Y-97980056D02*
X65293333Y-97932437D01*
X65293333Y-97932437D02*
X65388571Y-97884818D01*
X61097458Y-66150039D02*
X61097458Y-65150039D01*
X61097458Y-65626229D02*
X61668886Y-65626229D01*
X61668886Y-66150039D02*
X61668886Y-65150039D01*
X62573648Y-65483372D02*
X62573648Y-66150039D01*
X62335553Y-65102420D02*
X62097458Y-65816705D01*
X62097458Y-65816705D02*
X62716505Y-65816705D01*
X82314250Y-107283072D02*
X82314250Y-107350416D01*
X82314250Y-107350416D02*
X82246906Y-107485103D01*
X82246906Y-107485103D02*
X82179563Y-107552446D01*
X82179563Y-107552446D02*
X82044876Y-107619790D01*
X82044876Y-107619790D02*
X81910189Y-107619790D01*
X81910189Y-107619790D02*
X81809174Y-107586118D01*
X81809174Y-107586118D02*
X81640815Y-107485103D01*
X81640815Y-107485103D02*
X81539800Y-107384088D01*
X81539800Y-107384088D02*
X81438784Y-107215729D01*
X81438784Y-107215729D02*
X81405113Y-107114714D01*
X81405113Y-107114714D02*
X81405113Y-106980027D01*
X81405113Y-106980027D02*
X81472456Y-106845340D01*
X81472456Y-106845340D02*
X81539800Y-106777996D01*
X81539800Y-106777996D02*
X81674487Y-106710653D01*
X81674487Y-106710653D02*
X81741830Y-106710653D01*
X82381593Y-106542294D02*
X82280578Y-106575966D01*
X82280578Y-106575966D02*
X82213235Y-106575966D01*
X82213235Y-106575966D02*
X82112219Y-106542294D01*
X82112219Y-106542294D02*
X82078548Y-106508622D01*
X82078548Y-106508622D02*
X82044876Y-106407607D01*
X82044876Y-106407607D02*
X82044876Y-106340263D01*
X82044876Y-106340263D02*
X82078548Y-106239248D01*
X82078548Y-106239248D02*
X82213235Y-106104561D01*
X82213235Y-106104561D02*
X82314250Y-106070889D01*
X82314250Y-106070889D02*
X82381593Y-106070889D01*
X82381593Y-106070889D02*
X82482609Y-106104561D01*
X82482609Y-106104561D02*
X82516280Y-106138233D01*
X82516280Y-106138233D02*
X82549952Y-106239248D01*
X82549952Y-106239248D02*
X82549952Y-106306592D01*
X82549952Y-106306592D02*
X82516280Y-106407607D01*
X82516280Y-106407607D02*
X82381593Y-106542294D01*
X82381593Y-106542294D02*
X82347922Y-106643309D01*
X82347922Y-106643309D02*
X82347922Y-106710653D01*
X82347922Y-106710653D02*
X82381593Y-106811668D01*
X82381593Y-106811668D02*
X82516280Y-106946355D01*
X82516280Y-106946355D02*
X82617296Y-106980027D01*
X82617296Y-106980027D02*
X82684639Y-106980027D01*
X82684639Y-106980027D02*
X82785654Y-106946355D01*
X82785654Y-106946355D02*
X82920341Y-106811668D01*
X82920341Y-106811668D02*
X82954013Y-106710653D01*
X82954013Y-106710653D02*
X82954013Y-106643309D01*
X82954013Y-106643309D02*
X82920341Y-106542294D01*
X82920341Y-106542294D02*
X82785654Y-106407607D01*
X82785654Y-106407607D02*
X82684639Y-106373935D01*
X82684639Y-106373935D02*
X82617296Y-106373935D01*
X82617296Y-106373935D02*
X82516280Y-106407607D01*
X126829830Y-106254789D02*
X126782211Y-106302409D01*
X126782211Y-106302409D02*
X126639354Y-106350028D01*
X126639354Y-106350028D02*
X126544116Y-106350028D01*
X126544116Y-106350028D02*
X126401259Y-106302409D01*
X126401259Y-106302409D02*
X126306021Y-106207170D01*
X126306021Y-106207170D02*
X126258402Y-106111932D01*
X126258402Y-106111932D02*
X126210783Y-105921456D01*
X126210783Y-105921456D02*
X126210783Y-105778599D01*
X126210783Y-105778599D02*
X126258402Y-105588123D01*
X126258402Y-105588123D02*
X126306021Y-105492885D01*
X126306021Y-105492885D02*
X126401259Y-105397647D01*
X126401259Y-105397647D02*
X126544116Y-105350028D01*
X126544116Y-105350028D02*
X126639354Y-105350028D01*
X126639354Y-105350028D02*
X126782211Y-105397647D01*
X126782211Y-105397647D02*
X126829830Y-105445266D01*
X127210783Y-105445266D02*
X127258402Y-105397647D01*
X127258402Y-105397647D02*
X127353640Y-105350028D01*
X127353640Y-105350028D02*
X127591735Y-105350028D01*
X127591735Y-105350028D02*
X127686973Y-105397647D01*
X127686973Y-105397647D02*
X127734592Y-105445266D01*
X127734592Y-105445266D02*
X127782211Y-105540504D01*
X127782211Y-105540504D02*
X127782211Y-105635742D01*
X127782211Y-105635742D02*
X127734592Y-105778599D01*
X127734592Y-105778599D02*
X127163164Y-106350028D01*
X127163164Y-106350028D02*
X127782211Y-106350028D01*
X128258402Y-106350028D02*
X128448878Y-106350028D01*
X128448878Y-106350028D02*
X128544116Y-106302409D01*
X128544116Y-106302409D02*
X128591735Y-106254789D01*
X128591735Y-106254789D02*
X128686973Y-106111932D01*
X128686973Y-106111932D02*
X128734592Y-105921456D01*
X128734592Y-105921456D02*
X128734592Y-105540504D01*
X128734592Y-105540504D02*
X128686973Y-105445266D01*
X128686973Y-105445266D02*
X128639354Y-105397647D01*
X128639354Y-105397647D02*
X128544116Y-105350028D01*
X128544116Y-105350028D02*
X128353640Y-105350028D01*
X128353640Y-105350028D02*
X128258402Y-105397647D01*
X128258402Y-105397647D02*
X128210783Y-105445266D01*
X128210783Y-105445266D02*
X128163164Y-105540504D01*
X128163164Y-105540504D02*
X128163164Y-105778599D01*
X128163164Y-105778599D02*
X128210783Y-105873837D01*
X128210783Y-105873837D02*
X128258402Y-105921456D01*
X128258402Y-105921456D02*
X128353640Y-105969075D01*
X128353640Y-105969075D02*
X128544116Y-105969075D01*
X128544116Y-105969075D02*
X128639354Y-105921456D01*
X128639354Y-105921456D02*
X128686973Y-105873837D01*
X128686973Y-105873837D02*
X128734592Y-105778599D01*
X127513945Y-71359819D02*
X127513945Y-72169342D01*
X127513945Y-72169342D02*
X127561564Y-72264580D01*
X127561564Y-72264580D02*
X127609183Y-72312200D01*
X127609183Y-72312200D02*
X127704421Y-72359819D01*
X127704421Y-72359819D02*
X127894897Y-72359819D01*
X127894897Y-72359819D02*
X127990135Y-72312200D01*
X127990135Y-72312200D02*
X128037754Y-72264580D01*
X128037754Y-72264580D02*
X128085373Y-72169342D01*
X128085373Y-72169342D02*
X128085373Y-71359819D01*
X128513945Y-71455057D02*
X128561564Y-71407438D01*
X128561564Y-71407438D02*
X128656802Y-71359819D01*
X128656802Y-71359819D02*
X128894897Y-71359819D01*
X128894897Y-71359819D02*
X128990135Y-71407438D01*
X128990135Y-71407438D02*
X129037754Y-71455057D01*
X129037754Y-71455057D02*
X129085373Y-71550295D01*
X129085373Y-71550295D02*
X129085373Y-71645533D01*
X129085373Y-71645533D02*
X129037754Y-71788390D01*
X129037754Y-71788390D02*
X128466326Y-72359819D01*
X128466326Y-72359819D02*
X129085373Y-72359819D01*
X127275850Y-70359819D02*
X127275850Y-70597914D01*
X127037755Y-70502676D02*
X127275850Y-70597914D01*
X127275850Y-70597914D02*
X127513945Y-70502676D01*
X127132993Y-70788390D02*
X127275850Y-70597914D01*
X127275850Y-70597914D02*
X127418707Y-70788390D01*
X128275850Y-70359819D02*
X128275850Y-70597914D01*
X128037755Y-70502676D02*
X128275850Y-70597914D01*
X128275850Y-70597914D02*
X128513945Y-70502676D01*
X128132993Y-70788390D02*
X128275850Y-70597914D01*
X128275850Y-70597914D02*
X128418707Y-70788390D01*
X121034229Y-122406415D02*
X120986610Y-122454035D01*
X120986610Y-122454035D02*
X120843753Y-122501654D01*
X120843753Y-122501654D02*
X120748515Y-122501654D01*
X120748515Y-122501654D02*
X120605658Y-122454035D01*
X120605658Y-122454035D02*
X120510420Y-122358796D01*
X120510420Y-122358796D02*
X120462801Y-122263558D01*
X120462801Y-122263558D02*
X120415182Y-122073082D01*
X120415182Y-122073082D02*
X120415182Y-121930225D01*
X120415182Y-121930225D02*
X120462801Y-121739749D01*
X120462801Y-121739749D02*
X120510420Y-121644511D01*
X120510420Y-121644511D02*
X120605658Y-121549273D01*
X120605658Y-121549273D02*
X120748515Y-121501654D01*
X120748515Y-121501654D02*
X120843753Y-121501654D01*
X120843753Y-121501654D02*
X120986610Y-121549273D01*
X120986610Y-121549273D02*
X121034229Y-121596892D01*
X121415182Y-121596892D02*
X121462801Y-121549273D01*
X121462801Y-121549273D02*
X121558039Y-121501654D01*
X121558039Y-121501654D02*
X121796134Y-121501654D01*
X121796134Y-121501654D02*
X121891372Y-121549273D01*
X121891372Y-121549273D02*
X121938991Y-121596892D01*
X121938991Y-121596892D02*
X121986610Y-121692130D01*
X121986610Y-121692130D02*
X121986610Y-121787368D01*
X121986610Y-121787368D02*
X121938991Y-121930225D01*
X121938991Y-121930225D02*
X121367563Y-122501654D01*
X121367563Y-122501654D02*
X121986610Y-122501654D01*
X122367563Y-121596892D02*
X122415182Y-121549273D01*
X122415182Y-121549273D02*
X122510420Y-121501654D01*
X122510420Y-121501654D02*
X122748515Y-121501654D01*
X122748515Y-121501654D02*
X122843753Y-121549273D01*
X122843753Y-121549273D02*
X122891372Y-121596892D01*
X122891372Y-121596892D02*
X122938991Y-121692130D01*
X122938991Y-121692130D02*
X122938991Y-121787368D01*
X122938991Y-121787368D02*
X122891372Y-121930225D01*
X122891372Y-121930225D02*
X122319944Y-122501654D01*
X122319944Y-122501654D02*
X122938991Y-122501654D01*
X65533792Y-124561389D02*
X65533792Y-123561389D01*
X65533792Y-124037579D02*
X66105220Y-124037579D01*
X66105220Y-124561389D02*
X66105220Y-123561389D01*
X66533792Y-123656627D02*
X66581411Y-123609008D01*
X66581411Y-123609008D02*
X66676649Y-123561389D01*
X66676649Y-123561389D02*
X66914744Y-123561389D01*
X66914744Y-123561389D02*
X67009982Y-123609008D01*
X67009982Y-123609008D02*
X67057601Y-123656627D01*
X67057601Y-123656627D02*
X67105220Y-123751865D01*
X67105220Y-123751865D02*
X67105220Y-123847103D01*
X67105220Y-123847103D02*
X67057601Y-123989960D01*
X67057601Y-123989960D02*
X66486173Y-124561389D01*
X66486173Y-124561389D02*
X67105220Y-124561389D01*
X79465794Y-75451930D02*
X79132461Y-74975739D01*
X78894366Y-75451930D02*
X78894366Y-74451930D01*
X78894366Y-74451930D02*
X79275318Y-74451930D01*
X79275318Y-74451930D02*
X79370556Y-74499549D01*
X79370556Y-74499549D02*
X79418175Y-74547168D01*
X79418175Y-74547168D02*
X79465794Y-74642406D01*
X79465794Y-74642406D02*
X79465794Y-74785263D01*
X79465794Y-74785263D02*
X79418175Y-74880501D01*
X79418175Y-74880501D02*
X79370556Y-74928120D01*
X79370556Y-74928120D02*
X79275318Y-74975739D01*
X79275318Y-74975739D02*
X78894366Y-74975739D01*
X80418175Y-75451930D02*
X79846747Y-75451930D01*
X80132461Y-75451930D02*
X80132461Y-74451930D01*
X80132461Y-74451930D02*
X80037223Y-74594787D01*
X80037223Y-74594787D02*
X79941985Y-74690025D01*
X79941985Y-74690025D02*
X79846747Y-74737644D01*
X81275318Y-74785263D02*
X81275318Y-75451930D01*
X81037223Y-74404311D02*
X80799128Y-75118596D01*
X80799128Y-75118596D02*
X81418175Y-75118596D01*
X93015794Y-66826691D02*
X92968175Y-66874311D01*
X92968175Y-66874311D02*
X92825318Y-66921930D01*
X92825318Y-66921930D02*
X92730080Y-66921930D01*
X92730080Y-66921930D02*
X92587223Y-66874311D01*
X92587223Y-66874311D02*
X92491985Y-66779072D01*
X92491985Y-66779072D02*
X92444366Y-66683834D01*
X92444366Y-66683834D02*
X92396747Y-66493358D01*
X92396747Y-66493358D02*
X92396747Y-66350501D01*
X92396747Y-66350501D02*
X92444366Y-66160025D01*
X92444366Y-66160025D02*
X92491985Y-66064787D01*
X92491985Y-66064787D02*
X92587223Y-65969549D01*
X92587223Y-65969549D02*
X92730080Y-65921930D01*
X92730080Y-65921930D02*
X92825318Y-65921930D01*
X92825318Y-65921930D02*
X92968175Y-65969549D01*
X92968175Y-65969549D02*
X93015794Y-66017168D01*
X93872937Y-66255263D02*
X93872937Y-66921930D01*
X93634842Y-65874311D02*
X93396747Y-66588596D01*
X93396747Y-66588596D02*
X94015794Y-66588596D01*
X94539604Y-66350501D02*
X94444366Y-66302882D01*
X94444366Y-66302882D02*
X94396747Y-66255263D01*
X94396747Y-66255263D02*
X94349128Y-66160025D01*
X94349128Y-66160025D02*
X94349128Y-66112406D01*
X94349128Y-66112406D02*
X94396747Y-66017168D01*
X94396747Y-66017168D02*
X94444366Y-65969549D01*
X94444366Y-65969549D02*
X94539604Y-65921930D01*
X94539604Y-65921930D02*
X94730080Y-65921930D01*
X94730080Y-65921930D02*
X94825318Y-65969549D01*
X94825318Y-65969549D02*
X94872937Y-66017168D01*
X94872937Y-66017168D02*
X94920556Y-66112406D01*
X94920556Y-66112406D02*
X94920556Y-66160025D01*
X94920556Y-66160025D02*
X94872937Y-66255263D01*
X94872937Y-66255263D02*
X94825318Y-66302882D01*
X94825318Y-66302882D02*
X94730080Y-66350501D01*
X94730080Y-66350501D02*
X94539604Y-66350501D01*
X94539604Y-66350501D02*
X94444366Y-66398120D01*
X94444366Y-66398120D02*
X94396747Y-66445739D01*
X94396747Y-66445739D02*
X94349128Y-66540977D01*
X94349128Y-66540977D02*
X94349128Y-66731453D01*
X94349128Y-66731453D02*
X94396747Y-66826691D01*
X94396747Y-66826691D02*
X94444366Y-66874311D01*
X94444366Y-66874311D02*
X94539604Y-66921930D01*
X94539604Y-66921930D02*
X94730080Y-66921930D01*
X94730080Y-66921930D02*
X94825318Y-66874311D01*
X94825318Y-66874311D02*
X94872937Y-66826691D01*
X94872937Y-66826691D02*
X94920556Y-66731453D01*
X94920556Y-66731453D02*
X94920556Y-66540977D01*
X94920556Y-66540977D02*
X94872937Y-66445739D01*
X94872937Y-66445739D02*
X94825318Y-66398120D01*
X94825318Y-66398120D02*
X94730080Y-66350501D01*
X127096022Y-107564448D02*
X126286499Y-107564448D01*
X126286499Y-107564448D02*
X126191261Y-107612067D01*
X126191261Y-107612067D02*
X126143642Y-107659686D01*
X126143642Y-107659686D02*
X126096022Y-107754924D01*
X126096022Y-107754924D02*
X126096022Y-107945400D01*
X126096022Y-107945400D02*
X126143642Y-108040638D01*
X126143642Y-108040638D02*
X126191261Y-108088257D01*
X126191261Y-108088257D02*
X126286499Y-108135876D01*
X126286499Y-108135876D02*
X127096022Y-108135876D01*
X126096022Y-109135876D02*
X126096022Y-108564448D01*
X126096022Y-108850162D02*
X127096022Y-108850162D01*
X127096022Y-108850162D02*
X126953165Y-108754924D01*
X126953165Y-108754924D02*
X126857927Y-108659686D01*
X126857927Y-108659686D02*
X126810308Y-108564448D01*
X127096022Y-109754924D02*
X127096022Y-109850162D01*
X127096022Y-109850162D02*
X127048403Y-109945400D01*
X127048403Y-109945400D02*
X127000784Y-109993019D01*
X127000784Y-109993019D02*
X126905546Y-110040638D01*
X126905546Y-110040638D02*
X126715070Y-110088257D01*
X126715070Y-110088257D02*
X126476975Y-110088257D01*
X126476975Y-110088257D02*
X126286499Y-110040638D01*
X126286499Y-110040638D02*
X126191261Y-109993019D01*
X126191261Y-109993019D02*
X126143642Y-109945400D01*
X126143642Y-109945400D02*
X126096022Y-109850162D01*
X126096022Y-109850162D02*
X126096022Y-109754924D01*
X126096022Y-109754924D02*
X126143642Y-109659686D01*
X126143642Y-109659686D02*
X126191261Y-109612067D01*
X126191261Y-109612067D02*
X126286499Y-109564448D01*
X126286499Y-109564448D02*
X126476975Y-109516829D01*
X126476975Y-109516829D02*
X126715070Y-109516829D01*
X126715070Y-109516829D02*
X126905546Y-109564448D01*
X126905546Y-109564448D02*
X127000784Y-109612067D01*
X127000784Y-109612067D02*
X127048403Y-109659686D01*
X127048403Y-109659686D02*
X127096022Y-109754924D01*
X127507751Y-109220694D02*
X127269656Y-109220694D01*
X127364894Y-108982599D02*
X127269656Y-109220694D01*
X127269656Y-109220694D02*
X127364894Y-109458789D01*
X127079180Y-109077837D02*
X127269656Y-109220694D01*
X127269656Y-109220694D02*
X127079180Y-109363551D01*
X126460489Y-108466445D02*
X126698584Y-108466445D01*
X126603346Y-108704540D02*
X126698584Y-108466445D01*
X126698584Y-108466445D02*
X126603346Y-108228350D01*
X126889060Y-108609302D02*
X126698584Y-108466445D01*
X126698584Y-108466445D02*
X126889060Y-108323588D01*
X107583452Y-97493244D02*
X107535833Y-97540864D01*
X107535833Y-97540864D02*
X107392976Y-97588483D01*
X107392976Y-97588483D02*
X107297738Y-97588483D01*
X107297738Y-97588483D02*
X107154881Y-97540864D01*
X107154881Y-97540864D02*
X107059643Y-97445625D01*
X107059643Y-97445625D02*
X107012024Y-97350387D01*
X107012024Y-97350387D02*
X106964405Y-97159911D01*
X106964405Y-97159911D02*
X106964405Y-97017054D01*
X106964405Y-97017054D02*
X107012024Y-96826578D01*
X107012024Y-96826578D02*
X107059643Y-96731340D01*
X107059643Y-96731340D02*
X107154881Y-96636102D01*
X107154881Y-96636102D02*
X107297738Y-96588483D01*
X107297738Y-96588483D02*
X107392976Y-96588483D01*
X107392976Y-96588483D02*
X107535833Y-96636102D01*
X107535833Y-96636102D02*
X107583452Y-96683721D01*
X107916786Y-96588483D02*
X108535833Y-96588483D01*
X108535833Y-96588483D02*
X108202500Y-96969435D01*
X108202500Y-96969435D02*
X108345357Y-96969435D01*
X108345357Y-96969435D02*
X108440595Y-97017054D01*
X108440595Y-97017054D02*
X108488214Y-97064673D01*
X108488214Y-97064673D02*
X108535833Y-97159911D01*
X108535833Y-97159911D02*
X108535833Y-97398006D01*
X108535833Y-97398006D02*
X108488214Y-97493244D01*
X108488214Y-97493244D02*
X108440595Y-97540864D01*
X108440595Y-97540864D02*
X108345357Y-97588483D01*
X108345357Y-97588483D02*
X108059643Y-97588483D01*
X108059643Y-97588483D02*
X107964405Y-97540864D01*
X107964405Y-97540864D02*
X107916786Y-97493244D01*
X109440595Y-96588483D02*
X108964405Y-96588483D01*
X108964405Y-96588483D02*
X108916786Y-97064673D01*
X108916786Y-97064673D02*
X108964405Y-97017054D01*
X108964405Y-97017054D02*
X109059643Y-96969435D01*
X109059643Y-96969435D02*
X109297738Y-96969435D01*
X109297738Y-96969435D02*
X109392976Y-97017054D01*
X109392976Y-97017054D02*
X109440595Y-97064673D01*
X109440595Y-97064673D02*
X109488214Y-97159911D01*
X109488214Y-97159911D02*
X109488214Y-97398006D01*
X109488214Y-97398006D02*
X109440595Y-97493244D01*
X109440595Y-97493244D02*
X109392976Y-97540864D01*
X109392976Y-97540864D02*
X109297738Y-97588483D01*
X109297738Y-97588483D02*
X109059643Y-97588483D01*
X109059643Y-97588483D02*
X108964405Y-97540864D01*
X108964405Y-97540864D02*
X108916786Y-97493244D01*
X111974950Y-85529122D02*
X111974950Y-86663578D01*
X111974950Y-86663578D02*
X112041683Y-86797043D01*
X112041683Y-86797043D02*
X112108415Y-86863776D01*
X112108415Y-86863776D02*
X112241881Y-86930508D01*
X112241881Y-86930508D02*
X112508811Y-86930508D01*
X112508811Y-86930508D02*
X112642277Y-86863776D01*
X112642277Y-86863776D02*
X112709009Y-86797043D01*
X112709009Y-86797043D02*
X112775742Y-86663578D01*
X112775742Y-86663578D02*
X112775742Y-85529122D01*
X114177128Y-86930508D02*
X113376336Y-86930508D01*
X113776732Y-86930508D02*
X113776732Y-85529122D01*
X113776732Y-85529122D02*
X113643267Y-85729320D01*
X113643267Y-85729320D02*
X113509802Y-85862786D01*
X113509802Y-85862786D02*
X113376336Y-85929518D01*
X114644257Y-85529122D02*
X115511781Y-85529122D01*
X115511781Y-85529122D02*
X115044653Y-86062984D01*
X115044653Y-86062984D02*
X115244851Y-86062984D01*
X115244851Y-86062984D02*
X115378316Y-86129716D01*
X115378316Y-86129716D02*
X115445049Y-86196449D01*
X115445049Y-86196449D02*
X115511781Y-86329914D01*
X115511781Y-86329914D02*
X115511781Y-86663578D01*
X115511781Y-86663578D02*
X115445049Y-86797043D01*
X115445049Y-86797043D02*
X115378316Y-86863776D01*
X115378316Y-86863776D02*
X115244851Y-86930508D01*
X115244851Y-86930508D02*
X114844455Y-86930508D01*
X114844455Y-86930508D02*
X114710989Y-86863776D01*
X114710989Y-86863776D02*
X114644257Y-86797043D01*
X103748211Y-118936857D02*
X103795831Y-118984476D01*
X103795831Y-118984476D02*
X103843450Y-119127333D01*
X103843450Y-119127333D02*
X103843450Y-119222571D01*
X103843450Y-119222571D02*
X103795831Y-119365428D01*
X103795831Y-119365428D02*
X103700592Y-119460666D01*
X103700592Y-119460666D02*
X103605354Y-119508285D01*
X103605354Y-119508285D02*
X103414878Y-119555904D01*
X103414878Y-119555904D02*
X103272021Y-119555904D01*
X103272021Y-119555904D02*
X103081545Y-119508285D01*
X103081545Y-119508285D02*
X102986307Y-119460666D01*
X102986307Y-119460666D02*
X102891069Y-119365428D01*
X102891069Y-119365428D02*
X102843450Y-119222571D01*
X102843450Y-119222571D02*
X102843450Y-119127333D01*
X102843450Y-119127333D02*
X102891069Y-118984476D01*
X102891069Y-118984476D02*
X102938688Y-118936857D01*
X103843450Y-117984476D02*
X103843450Y-118555904D01*
X103843450Y-118270190D02*
X102843450Y-118270190D01*
X102843450Y-118270190D02*
X102986307Y-118365428D01*
X102986307Y-118365428D02*
X103081545Y-118460666D01*
X103081545Y-118460666D02*
X103129164Y-118555904D01*
X103843450Y-117508285D02*
X103843450Y-117317809D01*
X103843450Y-117317809D02*
X103795831Y-117222571D01*
X103795831Y-117222571D02*
X103748211Y-117174952D01*
X103748211Y-117174952D02*
X103605354Y-117079714D01*
X103605354Y-117079714D02*
X103414878Y-117032095D01*
X103414878Y-117032095D02*
X103033926Y-117032095D01*
X103033926Y-117032095D02*
X102938688Y-117079714D01*
X102938688Y-117079714D02*
X102891069Y-117127333D01*
X102891069Y-117127333D02*
X102843450Y-117222571D01*
X102843450Y-117222571D02*
X102843450Y-117413047D01*
X102843450Y-117413047D02*
X102891069Y-117508285D01*
X102891069Y-117508285D02*
X102938688Y-117555904D01*
X102938688Y-117555904D02*
X103033926Y-117603523D01*
X103033926Y-117603523D02*
X103272021Y-117603523D01*
X103272021Y-117603523D02*
X103367259Y-117555904D01*
X103367259Y-117555904D02*
X103414878Y-117508285D01*
X103414878Y-117508285D02*
X103462497Y-117413047D01*
X103462497Y-117413047D02*
X103462497Y-117222571D01*
X103462497Y-117222571D02*
X103414878Y-117127333D01*
X103414878Y-117127333D02*
X103367259Y-117079714D01*
X103367259Y-117079714D02*
X103272021Y-117032095D01*
X98870557Y-70601930D02*
X98870557Y-71411453D01*
X98870557Y-71411453D02*
X98918176Y-71506691D01*
X98918176Y-71506691D02*
X98965795Y-71554311D01*
X98965795Y-71554311D02*
X99061033Y-71601930D01*
X99061033Y-71601930D02*
X99251509Y-71601930D01*
X99251509Y-71601930D02*
X99346747Y-71554311D01*
X99346747Y-71554311D02*
X99394366Y-71506691D01*
X99394366Y-71506691D02*
X99441985Y-71411453D01*
X99441985Y-71411453D02*
X99441985Y-70601930D01*
X100441985Y-71601930D02*
X99870557Y-71601930D01*
X100156271Y-71601930D02*
X100156271Y-70601930D01*
X100156271Y-70601930D02*
X100061033Y-70744787D01*
X100061033Y-70744787D02*
X99965795Y-70840025D01*
X99965795Y-70840025D02*
X99870557Y-70887644D01*
X101299128Y-70935263D02*
X101299128Y-71601930D01*
X101061033Y-70554311D02*
X100822938Y-71268596D01*
X100822938Y-71268596D02*
X101441985Y-71268596D01*
X100608652Y-70101930D02*
X100608652Y-70340025D01*
X100370557Y-70244787D02*
X100608652Y-70340025D01*
X100608652Y-70340025D02*
X100846747Y-70244787D01*
X100465795Y-70530501D02*
X100608652Y-70340025D01*
X100608652Y-70340025D02*
X100751509Y-70530501D01*
X99855363Y-69933163D02*
X99855363Y-70171258D01*
X99617268Y-70076020D02*
X99855363Y-70171258D01*
X99855363Y-70171258D02*
X100093458Y-70076020D01*
X99712506Y-70361734D02*
X99855363Y-70171258D01*
X99855363Y-70171258D02*
X99998220Y-70361734D01*
X79759580Y-95642856D02*
X79807200Y-95690475D01*
X79807200Y-95690475D02*
X79854819Y-95833332D01*
X79854819Y-95833332D02*
X79854819Y-95928570D01*
X79854819Y-95928570D02*
X79807200Y-96071427D01*
X79807200Y-96071427D02*
X79711961Y-96166665D01*
X79711961Y-96166665D02*
X79616723Y-96214284D01*
X79616723Y-96214284D02*
X79426247Y-96261903D01*
X79426247Y-96261903D02*
X79283390Y-96261903D01*
X79283390Y-96261903D02*
X79092914Y-96214284D01*
X79092914Y-96214284D02*
X78997676Y-96166665D01*
X78997676Y-96166665D02*
X78902438Y-96071427D01*
X78902438Y-96071427D02*
X78854819Y-95928570D01*
X78854819Y-95928570D02*
X78854819Y-95833332D01*
X78854819Y-95833332D02*
X78902438Y-95690475D01*
X78902438Y-95690475D02*
X78950057Y-95642856D01*
X79188152Y-94785713D02*
X79854819Y-94785713D01*
X78807200Y-95023808D02*
X79521485Y-95261903D01*
X79521485Y-95261903D02*
X79521485Y-94642856D01*
X78854819Y-93785713D02*
X78854819Y-94261903D01*
X78854819Y-94261903D02*
X79331009Y-94309522D01*
X79331009Y-94309522D02*
X79283390Y-94261903D01*
X79283390Y-94261903D02*
X79235771Y-94166665D01*
X79235771Y-94166665D02*
X79235771Y-93928570D01*
X79235771Y-93928570D02*
X79283390Y-93833332D01*
X79283390Y-93833332D02*
X79331009Y-93785713D01*
X79331009Y-93785713D02*
X79426247Y-93738094D01*
X79426247Y-93738094D02*
X79664342Y-93738094D01*
X79664342Y-93738094D02*
X79759580Y-93785713D01*
X79759580Y-93785713D02*
X79807200Y-93833332D01*
X79807200Y-93833332D02*
X79854819Y-93928570D01*
X79854819Y-93928570D02*
X79854819Y-94166665D01*
X79854819Y-94166665D02*
X79807200Y-94261903D01*
X79807200Y-94261903D02*
X79759580Y-94309522D01*
X133850263Y-96648207D02*
X133040740Y-96648207D01*
X133040740Y-96648207D02*
X132945502Y-96695826D01*
X132945502Y-96695826D02*
X132897883Y-96743445D01*
X132897883Y-96743445D02*
X132850263Y-96838683D01*
X132850263Y-96838683D02*
X132850263Y-97029159D01*
X132850263Y-97029159D02*
X132897883Y-97124397D01*
X132897883Y-97124397D02*
X132945502Y-97172016D01*
X132945502Y-97172016D02*
X133040740Y-97219635D01*
X133040740Y-97219635D02*
X133850263Y-97219635D01*
X132850263Y-98219635D02*
X132850263Y-97648207D01*
X132850263Y-97933921D02*
X133850263Y-97933921D01*
X133850263Y-97933921D02*
X133707406Y-97838683D01*
X133707406Y-97838683D02*
X133612168Y-97743445D01*
X133612168Y-97743445D02*
X133564549Y-97648207D01*
X133755025Y-98600588D02*
X133802644Y-98648207D01*
X133802644Y-98648207D02*
X133850263Y-98743445D01*
X133850263Y-98743445D02*
X133850263Y-98981540D01*
X133850263Y-98981540D02*
X133802644Y-99076778D01*
X133802644Y-99076778D02*
X133755025Y-99124397D01*
X133755025Y-99124397D02*
X133659787Y-99172016D01*
X133659787Y-99172016D02*
X133564549Y-99172016D01*
X133564549Y-99172016D02*
X133421692Y-99124397D01*
X133421692Y-99124397D02*
X132850263Y-98552969D01*
X132850263Y-98552969D02*
X132850263Y-99172016D01*
X133291989Y-97511341D02*
X133291989Y-97749436D01*
X133053894Y-97654198D02*
X133291989Y-97749436D01*
X133291989Y-97749436D02*
X133530084Y-97654198D01*
X133149132Y-97939912D02*
X133291989Y-97749436D01*
X133291989Y-97749436D02*
X133434846Y-97939912D01*
X134116898Y-98555875D02*
X134116898Y-98317780D01*
X134354993Y-98413018D02*
X134116898Y-98317780D01*
X134116898Y-98317780D02*
X133878803Y-98413018D01*
X134259755Y-98127304D02*
X134116898Y-98317780D01*
X134116898Y-98317780D02*
X133974041Y-98127304D01*
X78965350Y-122462990D02*
X78965350Y-122530334D01*
X78965350Y-122530334D02*
X78898006Y-122665021D01*
X78898006Y-122665021D02*
X78830663Y-122732364D01*
X78830663Y-122732364D02*
X78695976Y-122799708D01*
X78695976Y-122799708D02*
X78561289Y-122799708D01*
X78561289Y-122799708D02*
X78460274Y-122766036D01*
X78460274Y-122766036D02*
X78291915Y-122665021D01*
X78291915Y-122665021D02*
X78190900Y-122564006D01*
X78190900Y-122564006D02*
X78089884Y-122395647D01*
X78089884Y-122395647D02*
X78056213Y-122294632D01*
X78056213Y-122294632D02*
X78056213Y-122159945D01*
X78056213Y-122159945D02*
X78123556Y-122025258D01*
X78123556Y-122025258D02*
X78190900Y-121957914D01*
X78190900Y-121957914D02*
X78325587Y-121890571D01*
X78325587Y-121890571D02*
X78392930Y-121890571D01*
X79706128Y-121856899D02*
X79302067Y-122260960D01*
X79504098Y-122058929D02*
X78796991Y-121351823D01*
X78796991Y-121351823D02*
X78830663Y-121520181D01*
X78830663Y-121520181D02*
X78830663Y-121654868D01*
X78830663Y-121654868D02*
X78796991Y-121755884D01*
X79234724Y-120914090D02*
X79706129Y-120442685D01*
X79706129Y-120442685D02*
X80110190Y-121452838D01*
X126833333Y-68359580D02*
X126785714Y-68407200D01*
X126785714Y-68407200D02*
X126642857Y-68454819D01*
X126642857Y-68454819D02*
X126547619Y-68454819D01*
X126547619Y-68454819D02*
X126404762Y-68407200D01*
X126404762Y-68407200D02*
X126309524Y-68311961D01*
X126309524Y-68311961D02*
X126261905Y-68216723D01*
X126261905Y-68216723D02*
X126214286Y-68026247D01*
X126214286Y-68026247D02*
X126214286Y-67883390D01*
X126214286Y-67883390D02*
X126261905Y-67692914D01*
X126261905Y-67692914D02*
X126309524Y-67597676D01*
X126309524Y-67597676D02*
X126404762Y-67502438D01*
X126404762Y-67502438D02*
X126547619Y-67454819D01*
X126547619Y-67454819D02*
X126642857Y-67454819D01*
X126642857Y-67454819D02*
X126785714Y-67502438D01*
X126785714Y-67502438D02*
X126833333Y-67550057D01*
X127214286Y-67550057D02*
X127261905Y-67502438D01*
X127261905Y-67502438D02*
X127357143Y-67454819D01*
X127357143Y-67454819D02*
X127595238Y-67454819D01*
X127595238Y-67454819D02*
X127690476Y-67502438D01*
X127690476Y-67502438D02*
X127738095Y-67550057D01*
X127738095Y-67550057D02*
X127785714Y-67645295D01*
X127785714Y-67645295D02*
X127785714Y-67740533D01*
X127785714Y-67740533D02*
X127738095Y-67883390D01*
X127738095Y-67883390D02*
X127166667Y-68454819D01*
X127166667Y-68454819D02*
X127785714Y-68454819D01*
X107568540Y-95450142D02*
X107520921Y-95497762D01*
X107520921Y-95497762D02*
X107378064Y-95545381D01*
X107378064Y-95545381D02*
X107282826Y-95545381D01*
X107282826Y-95545381D02*
X107139969Y-95497762D01*
X107139969Y-95497762D02*
X107044731Y-95402523D01*
X107044731Y-95402523D02*
X106997112Y-95307285D01*
X106997112Y-95307285D02*
X106949493Y-95116809D01*
X106949493Y-95116809D02*
X106949493Y-94973952D01*
X106949493Y-94973952D02*
X106997112Y-94783476D01*
X106997112Y-94783476D02*
X107044731Y-94688238D01*
X107044731Y-94688238D02*
X107139969Y-94593000D01*
X107139969Y-94593000D02*
X107282826Y-94545381D01*
X107282826Y-94545381D02*
X107378064Y-94545381D01*
X107378064Y-94545381D02*
X107520921Y-94593000D01*
X107520921Y-94593000D02*
X107568540Y-94640619D01*
X107901874Y-94545381D02*
X108520921Y-94545381D01*
X108520921Y-94545381D02*
X108187588Y-94926333D01*
X108187588Y-94926333D02*
X108330445Y-94926333D01*
X108330445Y-94926333D02*
X108425683Y-94973952D01*
X108425683Y-94973952D02*
X108473302Y-95021571D01*
X108473302Y-95021571D02*
X108520921Y-95116809D01*
X108520921Y-95116809D02*
X108520921Y-95354904D01*
X108520921Y-95354904D02*
X108473302Y-95450142D01*
X108473302Y-95450142D02*
X108425683Y-95497762D01*
X108425683Y-95497762D02*
X108330445Y-95545381D01*
X108330445Y-95545381D02*
X108044731Y-95545381D01*
X108044731Y-95545381D02*
X107949493Y-95497762D01*
X107949493Y-95497762D02*
X107901874Y-95450142D01*
X109378064Y-94878714D02*
X109378064Y-95545381D01*
X109139969Y-94497762D02*
X108901874Y-95212047D01*
X108901874Y-95212047D02*
X109520921Y-95212047D01*
X100178346Y-63692291D02*
X100178346Y-64692291D01*
X100178346Y-64692291D02*
X99940251Y-64692291D01*
X99940251Y-64692291D02*
X99797394Y-64644672D01*
X99797394Y-64644672D02*
X99702156Y-64549434D01*
X99702156Y-64549434D02*
X99654537Y-64454196D01*
X99654537Y-64454196D02*
X99606918Y-64263720D01*
X99606918Y-64263720D02*
X99606918Y-64120863D01*
X99606918Y-64120863D02*
X99654537Y-63930387D01*
X99654537Y-63930387D02*
X99702156Y-63835149D01*
X99702156Y-63835149D02*
X99797394Y-63739911D01*
X99797394Y-63739911D02*
X99940251Y-63692291D01*
X99940251Y-63692291D02*
X100178346Y-63692291D01*
X99225965Y-64597053D02*
X99178346Y-64644672D01*
X99178346Y-64644672D02*
X99083108Y-64692291D01*
X99083108Y-64692291D02*
X98845013Y-64692291D01*
X98845013Y-64692291D02*
X98749775Y-64644672D01*
X98749775Y-64644672D02*
X98702156Y-64597053D01*
X98702156Y-64597053D02*
X98654537Y-64501815D01*
X98654537Y-64501815D02*
X98654537Y-64406577D01*
X98654537Y-64406577D02*
X98702156Y-64263720D01*
X98702156Y-64263720D02*
X99273584Y-63692291D01*
X99273584Y-63692291D02*
X98654537Y-63692291D01*
X106365495Y-113876422D02*
X105889304Y-114209755D01*
X106365495Y-114447850D02*
X105365495Y-114447850D01*
X105365495Y-114447850D02*
X105365495Y-114066898D01*
X105365495Y-114066898D02*
X105413114Y-113971660D01*
X105413114Y-113971660D02*
X105460733Y-113924041D01*
X105460733Y-113924041D02*
X105555971Y-113876422D01*
X105555971Y-113876422D02*
X105698828Y-113876422D01*
X105698828Y-113876422D02*
X105794066Y-113924041D01*
X105794066Y-113924041D02*
X105841685Y-113971660D01*
X105841685Y-113971660D02*
X105889304Y-114066898D01*
X105889304Y-114066898D02*
X105889304Y-114447850D01*
X106365495Y-113400231D02*
X106365495Y-113209755D01*
X106365495Y-113209755D02*
X106317876Y-113114517D01*
X106317876Y-113114517D02*
X106270256Y-113066898D01*
X106270256Y-113066898D02*
X106127399Y-112971660D01*
X106127399Y-112971660D02*
X105936923Y-112924041D01*
X105936923Y-112924041D02*
X105555971Y-112924041D01*
X105555971Y-112924041D02*
X105460733Y-112971660D01*
X105460733Y-112971660D02*
X105413114Y-113019279D01*
X105413114Y-113019279D02*
X105365495Y-113114517D01*
X105365495Y-113114517D02*
X105365495Y-113304993D01*
X105365495Y-113304993D02*
X105413114Y-113400231D01*
X105413114Y-113400231D02*
X105460733Y-113447850D01*
X105460733Y-113447850D02*
X105555971Y-113495469D01*
X105555971Y-113495469D02*
X105794066Y-113495469D01*
X105794066Y-113495469D02*
X105889304Y-113447850D01*
X105889304Y-113447850D02*
X105936923Y-113400231D01*
X105936923Y-113400231D02*
X105984542Y-113304993D01*
X105984542Y-113304993D02*
X105984542Y-113114517D01*
X105984542Y-113114517D02*
X105936923Y-113019279D01*
X105936923Y-113019279D02*
X105889304Y-112971660D01*
X105889304Y-112971660D02*
X105794066Y-112924041D01*
X130546685Y-107529556D02*
X130594305Y-107577175D01*
X130594305Y-107577175D02*
X130641924Y-107720032D01*
X130641924Y-107720032D02*
X130641924Y-107815270D01*
X130641924Y-107815270D02*
X130594305Y-107958127D01*
X130594305Y-107958127D02*
X130499066Y-108053365D01*
X130499066Y-108053365D02*
X130403828Y-108100984D01*
X130403828Y-108100984D02*
X130213352Y-108148603D01*
X130213352Y-108148603D02*
X130070495Y-108148603D01*
X130070495Y-108148603D02*
X129880019Y-108100984D01*
X129880019Y-108100984D02*
X129784781Y-108053365D01*
X129784781Y-108053365D02*
X129689543Y-107958127D01*
X129689543Y-107958127D02*
X129641924Y-107815270D01*
X129641924Y-107815270D02*
X129641924Y-107720032D01*
X129641924Y-107720032D02*
X129689543Y-107577175D01*
X129689543Y-107577175D02*
X129737162Y-107529556D01*
X129641924Y-107196222D02*
X129641924Y-106577175D01*
X129641924Y-106577175D02*
X130022876Y-106910508D01*
X130022876Y-106910508D02*
X130022876Y-106767651D01*
X130022876Y-106767651D02*
X130070495Y-106672413D01*
X130070495Y-106672413D02*
X130118114Y-106624794D01*
X130118114Y-106624794D02*
X130213352Y-106577175D01*
X130213352Y-106577175D02*
X130451447Y-106577175D01*
X130451447Y-106577175D02*
X130546685Y-106624794D01*
X130546685Y-106624794D02*
X130594305Y-106672413D01*
X130594305Y-106672413D02*
X130641924Y-106767651D01*
X130641924Y-106767651D02*
X130641924Y-107053365D01*
X130641924Y-107053365D02*
X130594305Y-107148603D01*
X130594305Y-107148603D02*
X130546685Y-107196222D01*
X129641924Y-105958127D02*
X129641924Y-105862889D01*
X129641924Y-105862889D02*
X129689543Y-105767651D01*
X129689543Y-105767651D02*
X129737162Y-105720032D01*
X129737162Y-105720032D02*
X129832400Y-105672413D01*
X129832400Y-105672413D02*
X130022876Y-105624794D01*
X130022876Y-105624794D02*
X130260971Y-105624794D01*
X130260971Y-105624794D02*
X130451447Y-105672413D01*
X130451447Y-105672413D02*
X130546685Y-105720032D01*
X130546685Y-105720032D02*
X130594305Y-105767651D01*
X130594305Y-105767651D02*
X130641924Y-105862889D01*
X130641924Y-105862889D02*
X130641924Y-105958127D01*
X130641924Y-105958127D02*
X130594305Y-106053365D01*
X130594305Y-106053365D02*
X130546685Y-106100984D01*
X130546685Y-106100984D02*
X130451447Y-106148603D01*
X130451447Y-106148603D02*
X130260971Y-106196222D01*
X130260971Y-106196222D02*
X130022876Y-106196222D01*
X130022876Y-106196222D02*
X129832400Y-106148603D01*
X129832400Y-106148603D02*
X129737162Y-106100984D01*
X129737162Y-106100984D02*
X129689543Y-106053365D01*
X129689543Y-106053365D02*
X129641924Y-105958127D01*
X109983228Y-114574829D02*
X109649895Y-114098638D01*
X109411800Y-114574829D02*
X109411800Y-113574829D01*
X109411800Y-113574829D02*
X109792752Y-113574829D01*
X109792752Y-113574829D02*
X109887990Y-113622448D01*
X109887990Y-113622448D02*
X109935609Y-113670067D01*
X109935609Y-113670067D02*
X109983228Y-113765305D01*
X109983228Y-113765305D02*
X109983228Y-113908162D01*
X109983228Y-113908162D02*
X109935609Y-114003400D01*
X109935609Y-114003400D02*
X109887990Y-114051019D01*
X109887990Y-114051019D02*
X109792752Y-114098638D01*
X109792752Y-114098638D02*
X109411800Y-114098638D01*
X110316562Y-113574829D02*
X110983228Y-113574829D01*
X110983228Y-113574829D02*
X110554657Y-114574829D01*
X132238095Y-119754819D02*
X132238095Y-118754819D01*
X132238095Y-119231009D02*
X132809523Y-119231009D01*
X132809523Y-119754819D02*
X132809523Y-118754819D01*
X133809523Y-119754819D02*
X133238095Y-119754819D01*
X133523809Y-119754819D02*
X133523809Y-118754819D01*
X133523809Y-118754819D02*
X133428571Y-118897676D01*
X133428571Y-118897676D02*
X133333333Y-118992914D01*
X133333333Y-118992914D02*
X133238095Y-119040533D01*
X80467491Y-90575259D02*
X80943682Y-90575259D01*
X79943682Y-90908592D02*
X80467491Y-90575259D01*
X80467491Y-90575259D02*
X79943682Y-90241926D01*
X80038920Y-89956211D02*
X79991301Y-89908592D01*
X79991301Y-89908592D02*
X79943682Y-89813354D01*
X79943682Y-89813354D02*
X79943682Y-89575259D01*
X79943682Y-89575259D02*
X79991301Y-89480021D01*
X79991301Y-89480021D02*
X80038920Y-89432402D01*
X80038920Y-89432402D02*
X80134158Y-89384783D01*
X80134158Y-89384783D02*
X80229396Y-89384783D01*
X80229396Y-89384783D02*
X80372253Y-89432402D01*
X80372253Y-89432402D02*
X80943682Y-90003830D01*
X80943682Y-90003830D02*
X80943682Y-89384783D01*
X105445847Y-74296621D02*
X105398228Y-74344241D01*
X105398228Y-74344241D02*
X105255371Y-74391860D01*
X105255371Y-74391860D02*
X105160133Y-74391860D01*
X105160133Y-74391860D02*
X105017276Y-74344241D01*
X105017276Y-74344241D02*
X104922038Y-74249002D01*
X104922038Y-74249002D02*
X104874419Y-74153764D01*
X104874419Y-74153764D02*
X104826800Y-73963288D01*
X104826800Y-73963288D02*
X104826800Y-73820431D01*
X104826800Y-73820431D02*
X104874419Y-73629955D01*
X104874419Y-73629955D02*
X104922038Y-73534717D01*
X104922038Y-73534717D02*
X105017276Y-73439479D01*
X105017276Y-73439479D02*
X105160133Y-73391860D01*
X105160133Y-73391860D02*
X105255371Y-73391860D01*
X105255371Y-73391860D02*
X105398228Y-73439479D01*
X105398228Y-73439479D02*
X105445847Y-73487098D01*
X106350609Y-73391860D02*
X105874419Y-73391860D01*
X105874419Y-73391860D02*
X105826800Y-73868050D01*
X105826800Y-73868050D02*
X105874419Y-73820431D01*
X105874419Y-73820431D02*
X105969657Y-73772812D01*
X105969657Y-73772812D02*
X106207752Y-73772812D01*
X106207752Y-73772812D02*
X106302990Y-73820431D01*
X106302990Y-73820431D02*
X106350609Y-73868050D01*
X106350609Y-73868050D02*
X106398228Y-73963288D01*
X106398228Y-73963288D02*
X106398228Y-74201383D01*
X106398228Y-74201383D02*
X106350609Y-74296621D01*
X106350609Y-74296621D02*
X106302990Y-74344241D01*
X106302990Y-74344241D02*
X106207752Y-74391860D01*
X106207752Y-74391860D02*
X105969657Y-74391860D01*
X105969657Y-74391860D02*
X105874419Y-74344241D01*
X105874419Y-74344241D02*
X105826800Y-74296621D01*
X107017276Y-73391860D02*
X107112514Y-73391860D01*
X107112514Y-73391860D02*
X107207752Y-73439479D01*
X107207752Y-73439479D02*
X107255371Y-73487098D01*
X107255371Y-73487098D02*
X107302990Y-73582336D01*
X107302990Y-73582336D02*
X107350609Y-73772812D01*
X107350609Y-73772812D02*
X107350609Y-74010907D01*
X107350609Y-74010907D02*
X107302990Y-74201383D01*
X107302990Y-74201383D02*
X107255371Y-74296621D01*
X107255371Y-74296621D02*
X107207752Y-74344241D01*
X107207752Y-74344241D02*
X107112514Y-74391860D01*
X107112514Y-74391860D02*
X107017276Y-74391860D01*
X107017276Y-74391860D02*
X106922038Y-74344241D01*
X106922038Y-74344241D02*
X106874419Y-74296621D01*
X106874419Y-74296621D02*
X106826800Y-74201383D01*
X106826800Y-74201383D02*
X106779181Y-74010907D01*
X106779181Y-74010907D02*
X106779181Y-73772812D01*
X106779181Y-73772812D02*
X106826800Y-73582336D01*
X106826800Y-73582336D02*
X106874419Y-73487098D01*
X106874419Y-73487098D02*
X106922038Y-73439479D01*
X106922038Y-73439479D02*
X107017276Y-73391860D01*
X132945926Y-93179432D02*
X132898307Y-93227052D01*
X132898307Y-93227052D02*
X132755450Y-93274671D01*
X132755450Y-93274671D02*
X132660212Y-93274671D01*
X132660212Y-93274671D02*
X132517355Y-93227052D01*
X132517355Y-93227052D02*
X132422117Y-93131813D01*
X132422117Y-93131813D02*
X132374498Y-93036575D01*
X132374498Y-93036575D02*
X132326879Y-92846099D01*
X132326879Y-92846099D02*
X132326879Y-92703242D01*
X132326879Y-92703242D02*
X132374498Y-92512766D01*
X132374498Y-92512766D02*
X132422117Y-92417528D01*
X132422117Y-92417528D02*
X132517355Y-92322290D01*
X132517355Y-92322290D02*
X132660212Y-92274671D01*
X132660212Y-92274671D02*
X132755450Y-92274671D01*
X132755450Y-92274671D02*
X132898307Y-92322290D01*
X132898307Y-92322290D02*
X132945926Y-92369909D01*
X133326879Y-92369909D02*
X133374498Y-92322290D01*
X133374498Y-92322290D02*
X133469736Y-92274671D01*
X133469736Y-92274671D02*
X133707831Y-92274671D01*
X133707831Y-92274671D02*
X133803069Y-92322290D01*
X133803069Y-92322290D02*
X133850688Y-92369909D01*
X133850688Y-92369909D02*
X133898307Y-92465147D01*
X133898307Y-92465147D02*
X133898307Y-92560385D01*
X133898307Y-92560385D02*
X133850688Y-92703242D01*
X133850688Y-92703242D02*
X133279260Y-93274671D01*
X133279260Y-93274671D02*
X133898307Y-93274671D01*
X134755450Y-92274671D02*
X134564974Y-92274671D01*
X134564974Y-92274671D02*
X134469736Y-92322290D01*
X134469736Y-92322290D02*
X134422117Y-92369909D01*
X134422117Y-92369909D02*
X134326879Y-92512766D01*
X134326879Y-92512766D02*
X134279260Y-92703242D01*
X134279260Y-92703242D02*
X134279260Y-93084194D01*
X134279260Y-93084194D02*
X134326879Y-93179432D01*
X134326879Y-93179432D02*
X134374498Y-93227052D01*
X134374498Y-93227052D02*
X134469736Y-93274671D01*
X134469736Y-93274671D02*
X134660212Y-93274671D01*
X134660212Y-93274671D02*
X134755450Y-93227052D01*
X134755450Y-93227052D02*
X134803069Y-93179432D01*
X134803069Y-93179432D02*
X134850688Y-93084194D01*
X134850688Y-93084194D02*
X134850688Y-92846099D01*
X134850688Y-92846099D02*
X134803069Y-92750861D01*
X134803069Y-92750861D02*
X134755450Y-92703242D01*
X134755450Y-92703242D02*
X134660212Y-92655623D01*
X134660212Y-92655623D02*
X134469736Y-92655623D01*
X134469736Y-92655623D02*
X134374498Y-92703242D01*
X134374498Y-92703242D02*
X134326879Y-92750861D01*
X134326879Y-92750861D02*
X134279260Y-92846099D01*
X109465794Y-69326691D02*
X109418175Y-69374311D01*
X109418175Y-69374311D02*
X109275318Y-69421930D01*
X109275318Y-69421930D02*
X109180080Y-69421930D01*
X109180080Y-69421930D02*
X109037223Y-69374311D01*
X109037223Y-69374311D02*
X108941985Y-69279072D01*
X108941985Y-69279072D02*
X108894366Y-69183834D01*
X108894366Y-69183834D02*
X108846747Y-68993358D01*
X108846747Y-68993358D02*
X108846747Y-68850501D01*
X108846747Y-68850501D02*
X108894366Y-68660025D01*
X108894366Y-68660025D02*
X108941985Y-68564787D01*
X108941985Y-68564787D02*
X109037223Y-68469549D01*
X109037223Y-68469549D02*
X109180080Y-68421930D01*
X109180080Y-68421930D02*
X109275318Y-68421930D01*
X109275318Y-68421930D02*
X109418175Y-68469549D01*
X109418175Y-68469549D02*
X109465794Y-68517168D01*
X110322937Y-68421930D02*
X110132461Y-68421930D01*
X110132461Y-68421930D02*
X110037223Y-68469549D01*
X110037223Y-68469549D02*
X109989604Y-68517168D01*
X109989604Y-68517168D02*
X109894366Y-68660025D01*
X109894366Y-68660025D02*
X109846747Y-68850501D01*
X109846747Y-68850501D02*
X109846747Y-69231453D01*
X109846747Y-69231453D02*
X109894366Y-69326691D01*
X109894366Y-69326691D02*
X109941985Y-69374311D01*
X109941985Y-69374311D02*
X110037223Y-69421930D01*
X110037223Y-69421930D02*
X110227699Y-69421930D01*
X110227699Y-69421930D02*
X110322937Y-69374311D01*
X110322937Y-69374311D02*
X110370556Y-69326691D01*
X110370556Y-69326691D02*
X110418175Y-69231453D01*
X110418175Y-69231453D02*
X110418175Y-68993358D01*
X110418175Y-68993358D02*
X110370556Y-68898120D01*
X110370556Y-68898120D02*
X110322937Y-68850501D01*
X110322937Y-68850501D02*
X110227699Y-68802882D01*
X110227699Y-68802882D02*
X110037223Y-68802882D01*
X110037223Y-68802882D02*
X109941985Y-68850501D01*
X109941985Y-68850501D02*
X109894366Y-68898120D01*
X109894366Y-68898120D02*
X109846747Y-68993358D01*
X110799128Y-68517168D02*
X110846747Y-68469549D01*
X110846747Y-68469549D02*
X110941985Y-68421930D01*
X110941985Y-68421930D02*
X111180080Y-68421930D01*
X111180080Y-68421930D02*
X111275318Y-68469549D01*
X111275318Y-68469549D02*
X111322937Y-68517168D01*
X111322937Y-68517168D02*
X111370556Y-68612406D01*
X111370556Y-68612406D02*
X111370556Y-68707644D01*
X111370556Y-68707644D02*
X111322937Y-68850501D01*
X111322937Y-68850501D02*
X110751509Y-69421930D01*
X110751509Y-69421930D02*
X111370556Y-69421930D01*
X105515794Y-70826691D02*
X105468175Y-70874311D01*
X105468175Y-70874311D02*
X105325318Y-70921930D01*
X105325318Y-70921930D02*
X105230080Y-70921930D01*
X105230080Y-70921930D02*
X105087223Y-70874311D01*
X105087223Y-70874311D02*
X104991985Y-70779072D01*
X104991985Y-70779072D02*
X104944366Y-70683834D01*
X104944366Y-70683834D02*
X104896747Y-70493358D01*
X104896747Y-70493358D02*
X104896747Y-70350501D01*
X104896747Y-70350501D02*
X104944366Y-70160025D01*
X104944366Y-70160025D02*
X104991985Y-70064787D01*
X104991985Y-70064787D02*
X105087223Y-69969549D01*
X105087223Y-69969549D02*
X105230080Y-69921930D01*
X105230080Y-69921930D02*
X105325318Y-69921930D01*
X105325318Y-69921930D02*
X105468175Y-69969549D01*
X105468175Y-69969549D02*
X105515794Y-70017168D01*
X106420556Y-69921930D02*
X105944366Y-69921930D01*
X105944366Y-69921930D02*
X105896747Y-70398120D01*
X105896747Y-70398120D02*
X105944366Y-70350501D01*
X105944366Y-70350501D02*
X106039604Y-70302882D01*
X106039604Y-70302882D02*
X106277699Y-70302882D01*
X106277699Y-70302882D02*
X106372937Y-70350501D01*
X106372937Y-70350501D02*
X106420556Y-70398120D01*
X106420556Y-70398120D02*
X106468175Y-70493358D01*
X106468175Y-70493358D02*
X106468175Y-70731453D01*
X106468175Y-70731453D02*
X106420556Y-70826691D01*
X106420556Y-70826691D02*
X106372937Y-70874311D01*
X106372937Y-70874311D02*
X106277699Y-70921930D01*
X106277699Y-70921930D02*
X106039604Y-70921930D01*
X106039604Y-70921930D02*
X105944366Y-70874311D01*
X105944366Y-70874311D02*
X105896747Y-70826691D01*
X107325318Y-70255263D02*
X107325318Y-70921930D01*
X107087223Y-69874311D02*
X106849128Y-70588596D01*
X106849128Y-70588596D02*
X107468175Y-70588596D01*
X110882679Y-120105939D02*
X110073156Y-120105939D01*
X110073156Y-120105939D02*
X109977918Y-120153558D01*
X109977918Y-120153558D02*
X109930299Y-120201177D01*
X109930299Y-120201177D02*
X109882679Y-120296415D01*
X109882679Y-120296415D02*
X109882679Y-120486891D01*
X109882679Y-120486891D02*
X109930299Y-120582129D01*
X109930299Y-120582129D02*
X109977918Y-120629748D01*
X109977918Y-120629748D02*
X110073156Y-120677367D01*
X110073156Y-120677367D02*
X110882679Y-120677367D01*
X109882679Y-121201177D02*
X109882679Y-121391653D01*
X109882679Y-121391653D02*
X109930299Y-121486891D01*
X109930299Y-121486891D02*
X109977918Y-121534510D01*
X109977918Y-121534510D02*
X110120775Y-121629748D01*
X110120775Y-121629748D02*
X110311251Y-121677367D01*
X110311251Y-121677367D02*
X110692203Y-121677367D01*
X110692203Y-121677367D02*
X110787441Y-121629748D01*
X110787441Y-121629748D02*
X110835060Y-121582129D01*
X110835060Y-121582129D02*
X110882679Y-121486891D01*
X110882679Y-121486891D02*
X110882679Y-121296415D01*
X110882679Y-121296415D02*
X110835060Y-121201177D01*
X110835060Y-121201177D02*
X110787441Y-121153558D01*
X110787441Y-121153558D02*
X110692203Y-121105939D01*
X110692203Y-121105939D02*
X110454108Y-121105939D01*
X110454108Y-121105939D02*
X110358870Y-121153558D01*
X110358870Y-121153558D02*
X110311251Y-121201177D01*
X110311251Y-121201177D02*
X110263632Y-121296415D01*
X110263632Y-121296415D02*
X110263632Y-121486891D01*
X110263632Y-121486891D02*
X110311251Y-121582129D01*
X110311251Y-121582129D02*
X110358870Y-121629748D01*
X110358870Y-121629748D02*
X110454108Y-121677367D01*
X85403876Y-115996369D02*
X85403876Y-116063713D01*
X85403876Y-116063713D02*
X85336532Y-116198400D01*
X85336532Y-116198400D02*
X85269189Y-116265743D01*
X85269189Y-116265743D02*
X85134502Y-116333087D01*
X85134502Y-116333087D02*
X84999815Y-116333087D01*
X84999815Y-116333087D02*
X84898800Y-116299415D01*
X84898800Y-116299415D02*
X84730441Y-116198400D01*
X84730441Y-116198400D02*
X84629426Y-116097385D01*
X84629426Y-116097385D02*
X84528410Y-115929026D01*
X84528410Y-115929026D02*
X84494739Y-115828011D01*
X84494739Y-115828011D02*
X84494739Y-115693324D01*
X84494739Y-115693324D02*
X84562082Y-115558637D01*
X84562082Y-115558637D02*
X84629426Y-115491293D01*
X84629426Y-115491293D02*
X84764113Y-115423950D01*
X84764113Y-115423950D02*
X84831456Y-115423950D01*
X86144654Y-115390278D02*
X85740593Y-115794339D01*
X85942624Y-115592308D02*
X85235517Y-114885202D01*
X85235517Y-114885202D02*
X85269189Y-115053560D01*
X85269189Y-115053560D02*
X85269189Y-115188247D01*
X85269189Y-115188247D02*
X85235517Y-115289263D01*
X86043639Y-114077079D02*
X85908952Y-114211766D01*
X85908952Y-114211766D02*
X85875281Y-114312782D01*
X85875281Y-114312782D02*
X85875281Y-114380125D01*
X85875281Y-114380125D02*
X85908952Y-114548484D01*
X85908952Y-114548484D02*
X86009968Y-114716843D01*
X86009968Y-114716843D02*
X86279342Y-114986217D01*
X86279342Y-114986217D02*
X86380357Y-115019888D01*
X86380357Y-115019888D02*
X86447700Y-115019888D01*
X86447700Y-115019888D02*
X86548716Y-114986217D01*
X86548716Y-114986217D02*
X86683403Y-114851530D01*
X86683403Y-114851530D02*
X86717074Y-114750514D01*
X86717074Y-114750514D02*
X86717074Y-114683171D01*
X86717074Y-114683171D02*
X86683403Y-114582156D01*
X86683403Y-114582156D02*
X86515044Y-114413797D01*
X86515044Y-114413797D02*
X86414029Y-114380125D01*
X86414029Y-114380125D02*
X86346685Y-114380125D01*
X86346685Y-114380125D02*
X86245670Y-114413797D01*
X86245670Y-114413797D02*
X86110983Y-114548484D01*
X86110983Y-114548484D02*
X86077311Y-114649499D01*
X86077311Y-114649499D02*
X86077311Y-114716843D01*
X86077311Y-114716843D02*
X86110983Y-114817858D01*
X84713471Y-74545205D02*
X83713471Y-74545205D01*
X83713471Y-74545205D02*
X83713471Y-74307110D01*
X83713471Y-74307110D02*
X83761090Y-74164253D01*
X83761090Y-74164253D02*
X83856328Y-74069015D01*
X83856328Y-74069015D02*
X83951566Y-74021396D01*
X83951566Y-74021396D02*
X84142042Y-73973777D01*
X84142042Y-73973777D02*
X84284899Y-73973777D01*
X84284899Y-73973777D02*
X84475375Y-74021396D01*
X84475375Y-74021396D02*
X84570613Y-74069015D01*
X84570613Y-74069015D02*
X84665852Y-74164253D01*
X84665852Y-74164253D02*
X84713471Y-74307110D01*
X84713471Y-74307110D02*
X84713471Y-74545205D01*
X84046804Y-73116634D02*
X84713471Y-73116634D01*
X83665852Y-73354729D02*
X84380137Y-73592824D01*
X84380137Y-73592824D02*
X84380137Y-72973777D01*
X121335114Y-98863353D02*
X121382734Y-98910972D01*
X121382734Y-98910972D02*
X121430353Y-99053829D01*
X121430353Y-99053829D02*
X121430353Y-99149067D01*
X121430353Y-99149067D02*
X121382734Y-99291924D01*
X121382734Y-99291924D02*
X121287495Y-99387162D01*
X121287495Y-99387162D02*
X121192257Y-99434781D01*
X121192257Y-99434781D02*
X121001781Y-99482400D01*
X121001781Y-99482400D02*
X120858924Y-99482400D01*
X120858924Y-99482400D02*
X120668448Y-99434781D01*
X120668448Y-99434781D02*
X120573210Y-99387162D01*
X120573210Y-99387162D02*
X120477972Y-99291924D01*
X120477972Y-99291924D02*
X120430353Y-99149067D01*
X120430353Y-99149067D02*
X120430353Y-99053829D01*
X120430353Y-99053829D02*
X120477972Y-98910972D01*
X120477972Y-98910972D02*
X120525591Y-98863353D01*
X120525591Y-98482400D02*
X120477972Y-98434781D01*
X120477972Y-98434781D02*
X120430353Y-98339543D01*
X120430353Y-98339543D02*
X120430353Y-98101448D01*
X120430353Y-98101448D02*
X120477972Y-98006210D01*
X120477972Y-98006210D02*
X120525591Y-97958591D01*
X120525591Y-97958591D02*
X120620829Y-97910972D01*
X120620829Y-97910972D02*
X120716067Y-97910972D01*
X120716067Y-97910972D02*
X120858924Y-97958591D01*
X120858924Y-97958591D02*
X121430353Y-98530019D01*
X121430353Y-98530019D02*
X121430353Y-97910972D01*
X120858924Y-97339543D02*
X120811305Y-97434781D01*
X120811305Y-97434781D02*
X120763686Y-97482400D01*
X120763686Y-97482400D02*
X120668448Y-97530019D01*
X120668448Y-97530019D02*
X120620829Y-97530019D01*
X120620829Y-97530019D02*
X120525591Y-97482400D01*
X120525591Y-97482400D02*
X120477972Y-97434781D01*
X120477972Y-97434781D02*
X120430353Y-97339543D01*
X120430353Y-97339543D02*
X120430353Y-97149067D01*
X120430353Y-97149067D02*
X120477972Y-97053829D01*
X120477972Y-97053829D02*
X120525591Y-97006210D01*
X120525591Y-97006210D02*
X120620829Y-96958591D01*
X120620829Y-96958591D02*
X120668448Y-96958591D01*
X120668448Y-96958591D02*
X120763686Y-97006210D01*
X120763686Y-97006210D02*
X120811305Y-97053829D01*
X120811305Y-97053829D02*
X120858924Y-97149067D01*
X120858924Y-97149067D02*
X120858924Y-97339543D01*
X120858924Y-97339543D02*
X120906543Y-97434781D01*
X120906543Y-97434781D02*
X120954162Y-97482400D01*
X120954162Y-97482400D02*
X121049400Y-97530019D01*
X121049400Y-97530019D02*
X121239876Y-97530019D01*
X121239876Y-97530019D02*
X121335114Y-97482400D01*
X121335114Y-97482400D02*
X121382734Y-97434781D01*
X121382734Y-97434781D02*
X121430353Y-97339543D01*
X121430353Y-97339543D02*
X121430353Y-97149067D01*
X121430353Y-97149067D02*
X121382734Y-97053829D01*
X121382734Y-97053829D02*
X121335114Y-97006210D01*
X121335114Y-97006210D02*
X121239876Y-96958591D01*
X121239876Y-96958591D02*
X121049400Y-96958591D01*
X121049400Y-96958591D02*
X120954162Y-97006210D01*
X120954162Y-97006210D02*
X120906543Y-97053829D01*
X120906543Y-97053829D02*
X120858924Y-97149067D01*
X78465793Y-72942223D02*
X78132460Y-72466032D01*
X77894365Y-72942223D02*
X77894365Y-71942223D01*
X77894365Y-71942223D02*
X78275317Y-71942223D01*
X78275317Y-71942223D02*
X78370555Y-71989842D01*
X78370555Y-71989842D02*
X78418174Y-72037461D01*
X78418174Y-72037461D02*
X78465793Y-72132699D01*
X78465793Y-72132699D02*
X78465793Y-72275556D01*
X78465793Y-72275556D02*
X78418174Y-72370794D01*
X78418174Y-72370794D02*
X78370555Y-72418413D01*
X78370555Y-72418413D02*
X78275317Y-72466032D01*
X78275317Y-72466032D02*
X77894365Y-72466032D01*
X79418174Y-72942223D02*
X78846746Y-72942223D01*
X79132460Y-72942223D02*
X79132460Y-71942223D01*
X79132460Y-71942223D02*
X79037222Y-72085080D01*
X79037222Y-72085080D02*
X78941984Y-72180318D01*
X78941984Y-72180318D02*
X78846746Y-72227937D01*
X79751508Y-71942223D02*
X80370555Y-71942223D01*
X80370555Y-71942223D02*
X80037222Y-72323175D01*
X80037222Y-72323175D02*
X80180079Y-72323175D01*
X80180079Y-72323175D02*
X80275317Y-72370794D01*
X80275317Y-72370794D02*
X80322936Y-72418413D01*
X80322936Y-72418413D02*
X80370555Y-72513651D01*
X80370555Y-72513651D02*
X80370555Y-72751746D01*
X80370555Y-72751746D02*
X80322936Y-72846984D01*
X80322936Y-72846984D02*
X80275317Y-72894604D01*
X80275317Y-72894604D02*
X80180079Y-72942223D01*
X80180079Y-72942223D02*
X79894365Y-72942223D01*
X79894365Y-72942223D02*
X79799127Y-72894604D01*
X79799127Y-72894604D02*
X79751508Y-72846984D01*
X106304819Y-107238094D02*
X105304819Y-107238094D01*
X105304819Y-107238094D02*
X105304819Y-106999999D01*
X105304819Y-106999999D02*
X105352438Y-106857142D01*
X105352438Y-106857142D02*
X105447676Y-106761904D01*
X105447676Y-106761904D02*
X105542914Y-106714285D01*
X105542914Y-106714285D02*
X105733390Y-106666666D01*
X105733390Y-106666666D02*
X105876247Y-106666666D01*
X105876247Y-106666666D02*
X106066723Y-106714285D01*
X106066723Y-106714285D02*
X106161961Y-106761904D01*
X106161961Y-106761904D02*
X106257200Y-106857142D01*
X106257200Y-106857142D02*
X106304819Y-106999999D01*
X106304819Y-106999999D02*
X106304819Y-107238094D01*
X105304819Y-105761904D02*
X105304819Y-106238094D01*
X105304819Y-106238094D02*
X105781009Y-106285713D01*
X105781009Y-106285713D02*
X105733390Y-106238094D01*
X105733390Y-106238094D02*
X105685771Y-106142856D01*
X105685771Y-106142856D02*
X105685771Y-105904761D01*
X105685771Y-105904761D02*
X105733390Y-105809523D01*
X105733390Y-105809523D02*
X105781009Y-105761904D01*
X105781009Y-105761904D02*
X105876247Y-105714285D01*
X105876247Y-105714285D02*
X106114342Y-105714285D01*
X106114342Y-105714285D02*
X106209580Y-105761904D01*
X106209580Y-105761904D02*
X106257200Y-105809523D01*
X106257200Y-105809523D02*
X106304819Y-105904761D01*
X106304819Y-105904761D02*
X106304819Y-106142856D01*
X106304819Y-106142856D02*
X106257200Y-106238094D01*
X106257200Y-106238094D02*
X106209580Y-106285713D01*
X102857143Y-92704661D02*
X102809524Y-92752281D01*
X102809524Y-92752281D02*
X102666667Y-92799900D01*
X102666667Y-92799900D02*
X102571429Y-92799900D01*
X102571429Y-92799900D02*
X102428572Y-92752281D01*
X102428572Y-92752281D02*
X102333334Y-92657042D01*
X102333334Y-92657042D02*
X102285715Y-92561804D01*
X102285715Y-92561804D02*
X102238096Y-92371328D01*
X102238096Y-92371328D02*
X102238096Y-92228471D01*
X102238096Y-92228471D02*
X102285715Y-92037995D01*
X102285715Y-92037995D02*
X102333334Y-91942757D01*
X102333334Y-91942757D02*
X102428572Y-91847519D01*
X102428572Y-91847519D02*
X102571429Y-91799900D01*
X102571429Y-91799900D02*
X102666667Y-91799900D01*
X102666667Y-91799900D02*
X102809524Y-91847519D01*
X102809524Y-91847519D02*
X102857143Y-91895138D01*
X103190477Y-91799900D02*
X103809524Y-91799900D01*
X103809524Y-91799900D02*
X103476191Y-92180852D01*
X103476191Y-92180852D02*
X103619048Y-92180852D01*
X103619048Y-92180852D02*
X103714286Y-92228471D01*
X103714286Y-92228471D02*
X103761905Y-92276090D01*
X103761905Y-92276090D02*
X103809524Y-92371328D01*
X103809524Y-92371328D02*
X103809524Y-92609423D01*
X103809524Y-92609423D02*
X103761905Y-92704661D01*
X103761905Y-92704661D02*
X103714286Y-92752281D01*
X103714286Y-92752281D02*
X103619048Y-92799900D01*
X103619048Y-92799900D02*
X103333334Y-92799900D01*
X103333334Y-92799900D02*
X103238096Y-92752281D01*
X103238096Y-92752281D02*
X103190477Y-92704661D01*
X104142858Y-91799900D02*
X104809524Y-91799900D01*
X104809524Y-91799900D02*
X104380953Y-92799900D01*
X72030249Y-93591578D02*
X71982630Y-93639198D01*
X71982630Y-93639198D02*
X71839773Y-93686817D01*
X71839773Y-93686817D02*
X71744535Y-93686817D01*
X71744535Y-93686817D02*
X71601678Y-93639198D01*
X71601678Y-93639198D02*
X71506440Y-93543959D01*
X71506440Y-93543959D02*
X71458821Y-93448721D01*
X71458821Y-93448721D02*
X71411202Y-93258245D01*
X71411202Y-93258245D02*
X71411202Y-93115388D01*
X71411202Y-93115388D02*
X71458821Y-92924912D01*
X71458821Y-92924912D02*
X71506440Y-92829674D01*
X71506440Y-92829674D02*
X71601678Y-92734436D01*
X71601678Y-92734436D02*
X71744535Y-92686817D01*
X71744535Y-92686817D02*
X71839773Y-92686817D01*
X71839773Y-92686817D02*
X71982630Y-92734436D01*
X71982630Y-92734436D02*
X72030249Y-92782055D01*
X72887392Y-93020150D02*
X72887392Y-93686817D01*
X72649297Y-92639198D02*
X72411202Y-93353483D01*
X72411202Y-93353483D02*
X73030249Y-93353483D01*
X73839773Y-92686817D02*
X73649297Y-92686817D01*
X73649297Y-92686817D02*
X73554059Y-92734436D01*
X73554059Y-92734436D02*
X73506440Y-92782055D01*
X73506440Y-92782055D02*
X73411202Y-92924912D01*
X73411202Y-92924912D02*
X73363583Y-93115388D01*
X73363583Y-93115388D02*
X73363583Y-93496340D01*
X73363583Y-93496340D02*
X73411202Y-93591578D01*
X73411202Y-93591578D02*
X73458821Y-93639198D01*
X73458821Y-93639198D02*
X73554059Y-93686817D01*
X73554059Y-93686817D02*
X73744535Y-93686817D01*
X73744535Y-93686817D02*
X73839773Y-93639198D01*
X73839773Y-93639198D02*
X73887392Y-93591578D01*
X73887392Y-93591578D02*
X73935011Y-93496340D01*
X73935011Y-93496340D02*
X73935011Y-93258245D01*
X73935011Y-93258245D02*
X73887392Y-93163007D01*
X73887392Y-93163007D02*
X73839773Y-93115388D01*
X73839773Y-93115388D02*
X73744535Y-93067769D01*
X73744535Y-93067769D02*
X73554059Y-93067769D01*
X73554059Y-93067769D02*
X73458821Y-93115388D01*
X73458821Y-93115388D02*
X73411202Y-93163007D01*
X73411202Y-93163007D02*
X73363583Y-93258245D01*
X92075750Y-107153246D02*
X92648170Y-107725666D01*
X92648170Y-107725666D02*
X92749185Y-107759338D01*
X92749185Y-107759338D02*
X92816529Y-107759338D01*
X92816529Y-107759338D02*
X92917544Y-107725666D01*
X92917544Y-107725666D02*
X93052231Y-107590979D01*
X93052231Y-107590979D02*
X93085903Y-107489964D01*
X93085903Y-107489964D02*
X93085903Y-107422620D01*
X93085903Y-107422620D02*
X93052231Y-107321605D01*
X93052231Y-107321605D02*
X92479811Y-106749185D01*
X93153246Y-106075750D02*
X92816529Y-106412468D01*
X92816529Y-106412468D02*
X93119575Y-106782857D01*
X93119575Y-106782857D02*
X93119575Y-106715514D01*
X93119575Y-106715514D02*
X93153246Y-106614498D01*
X93153246Y-106614498D02*
X93321605Y-106446140D01*
X93321605Y-106446140D02*
X93422620Y-106412468D01*
X93422620Y-106412468D02*
X93489964Y-106412468D01*
X93489964Y-106412468D02*
X93590979Y-106446140D01*
X93590979Y-106446140D02*
X93759338Y-106614498D01*
X93759338Y-106614498D02*
X93793010Y-106715514D01*
X93793010Y-106715514D02*
X93793010Y-106782857D01*
X93793010Y-106782857D02*
X93759338Y-106883872D01*
X93759338Y-106883872D02*
X93590979Y-107052231D01*
X93590979Y-107052231D02*
X93489964Y-107085903D01*
X93489964Y-107085903D02*
X93422620Y-107085903D01*
X128148207Y-97142622D02*
X128148207Y-96333099D01*
X128148207Y-96333099D02*
X128100588Y-96237861D01*
X128100588Y-96237861D02*
X128052969Y-96190242D01*
X128052969Y-96190242D02*
X127957731Y-96142622D01*
X127957731Y-96142622D02*
X127767255Y-96142622D01*
X127767255Y-96142622D02*
X127672017Y-96190242D01*
X127672017Y-96190242D02*
X127624398Y-96237861D01*
X127624398Y-96237861D02*
X127576779Y-96333099D01*
X127576779Y-96333099D02*
X127576779Y-97142622D01*
X126576779Y-96142622D02*
X127148207Y-96142622D01*
X126862493Y-96142622D02*
X126862493Y-97142622D01*
X126862493Y-97142622D02*
X126957731Y-96999765D01*
X126957731Y-96999765D02*
X127052969Y-96904527D01*
X127052969Y-96904527D02*
X127148207Y-96856908D01*
X125624398Y-96142622D02*
X126195826Y-96142622D01*
X125910112Y-96142622D02*
X125910112Y-97142622D01*
X125910112Y-97142622D02*
X126005350Y-96999765D01*
X126005350Y-96999765D02*
X126100588Y-96904527D01*
X126100588Y-96904527D02*
X126195826Y-96856908D01*
X126447853Y-97626382D02*
X126447853Y-97388287D01*
X126685948Y-97483525D02*
X126447853Y-97388287D01*
X126447853Y-97388287D02*
X126209758Y-97483525D01*
X126590710Y-97197811D02*
X126447853Y-97388287D01*
X126447853Y-97388287D02*
X126304996Y-97197811D01*
X127264870Y-96675775D02*
X127264870Y-96913870D01*
X127026775Y-96818632D02*
X127264870Y-96913870D01*
X127264870Y-96913870D02*
X127502965Y-96818632D01*
X127122013Y-97104346D02*
X127264870Y-96913870D01*
X127264870Y-96913870D02*
X127407727Y-97104346D01*
X64317142Y-108884818D02*
X63983809Y-108408627D01*
X63745714Y-108884818D02*
X63745714Y-107884818D01*
X63745714Y-107884818D02*
X64126666Y-107884818D01*
X64126666Y-107884818D02*
X64221904Y-107932437D01*
X64221904Y-107932437D02*
X64269523Y-107980056D01*
X64269523Y-107980056D02*
X64317142Y-108075294D01*
X64317142Y-108075294D02*
X64317142Y-108218151D01*
X64317142Y-108218151D02*
X64269523Y-108313389D01*
X64269523Y-108313389D02*
X64221904Y-108361008D01*
X64221904Y-108361008D02*
X64126666Y-108408627D01*
X64126666Y-108408627D02*
X63745714Y-108408627D01*
X64650476Y-107884818D02*
X65269523Y-107884818D01*
X65269523Y-107884818D02*
X64936190Y-108265770D01*
X64936190Y-108265770D02*
X65079047Y-108265770D01*
X65079047Y-108265770D02*
X65174285Y-108313389D01*
X65174285Y-108313389D02*
X65221904Y-108361008D01*
X65221904Y-108361008D02*
X65269523Y-108456246D01*
X65269523Y-108456246D02*
X65269523Y-108694341D01*
X65269523Y-108694341D02*
X65221904Y-108789579D01*
X65221904Y-108789579D02*
X65174285Y-108837199D01*
X65174285Y-108837199D02*
X65079047Y-108884818D01*
X65079047Y-108884818D02*
X64793333Y-108884818D01*
X64793333Y-108884818D02*
X64698095Y-108837199D01*
X64698095Y-108837199D02*
X64650476Y-108789579D01*
X66221904Y-108884818D02*
X65650476Y-108884818D01*
X65936190Y-108884818D02*
X65936190Y-107884818D01*
X65936190Y-107884818D02*
X65840952Y-108027675D01*
X65840952Y-108027675D02*
X65745714Y-108122913D01*
X65745714Y-108122913D02*
X65650476Y-108170532D01*
D12*
X101828874Y-66926615D02*
X102628118Y-66926615D01*
X101828874Y-68046615D02*
X102628118Y-68046615D01*
X72814928Y-68565733D02*
X72814928Y-68111605D01*
X74284928Y-68565733D02*
X74284928Y-68111605D01*
X121761252Y-67265000D02*
X121238748Y-67265000D01*
X121761252Y-68735000D02*
X121238748Y-68735000D01*
X120217461Y-120404840D02*
X120217461Y-120858968D01*
X121687461Y-120404840D02*
X121687461Y-120858968D01*
X103238749Y-87565001D02*
X103761255Y-87565001D01*
X103238749Y-89035001D02*
X103761255Y-89035001D01*
X119508777Y-114105422D02*
X120031283Y-114105422D01*
X119508777Y-115575422D02*
X120031283Y-115575422D01*
X119550900Y-116276906D02*
X120005028Y-116276906D01*
X119550900Y-117746906D02*
X120005028Y-117746906D01*
D13*
X90841378Y-85985401D02*
X90841378Y-85985401D01*
X90841378Y-85985401D02*
X93266754Y-83560025D01*
X93266754Y-83560025D02*
X93266754Y-83560025D01*
X97247766Y-92391789D02*
X97247766Y-92391789D01*
X99673142Y-89966413D02*
X97247766Y-92391789D01*
X99673142Y-89966413D02*
X99673142Y-89966413D01*
X90315589Y-85812160D02*
G75*
G02*
X90115589Y-85812160I-100000J0D01*
G01*
X90115589Y-85812160D02*
G75*
G02*
X90315589Y-85812160I100000J0D01*
G01*
D12*
X75105177Y-71028894D02*
X75105177Y-72948894D01*
X75105177Y-72948894D02*
X77790177Y-72948894D01*
X77790177Y-71028894D02*
X75105177Y-71028894D01*
X105847400Y-67912111D02*
X106369904Y-67912111D01*
X105847400Y-69382111D02*
X106369904Y-69382111D01*
X106765000Y-102772936D02*
X106765000Y-103227064D01*
X108235000Y-102772936D02*
X108235000Y-103227064D01*
D14*
X66364500Y-98105300D02*
X66364500Y-105852300D01*
X66364500Y-105852300D02*
X66577860Y-105852300D01*
X66577860Y-98105300D02*
X66364500Y-98105300D01*
X77962140Y-105852300D02*
X78175500Y-105852300D01*
X78175500Y-98105300D02*
X77962140Y-98105300D01*
X78175500Y-105852300D02*
X78175500Y-98105300D01*
D15*
G36*
X67380500Y-107998600D02*
G01*
X66999500Y-107998600D01*
X66999500Y-107744600D01*
X67380500Y-107744600D01*
X67380500Y-107998600D01*
G37*
D12*
X132806531Y-103942996D02*
X132806531Y-103420490D01*
X134276531Y-103942996D02*
X134276531Y-103420490D01*
X76919904Y-67412111D02*
X76397400Y-67412111D01*
X76919904Y-68882111D02*
X76397400Y-68882111D01*
X94963107Y-99042399D02*
X94593640Y-98672932D01*
X96002554Y-98002952D02*
X95633087Y-97633485D01*
X93347400Y-70912111D02*
X93869904Y-70912111D01*
X93347400Y-72382111D02*
X93869904Y-72382111D01*
D16*
X78412430Y-118569777D02*
X78808410Y-118965757D01*
X79798359Y-115317086D02*
X78695273Y-116420172D01*
X81947964Y-115034243D02*
X82343944Y-115430223D01*
X82061101Y-117579828D02*
X80958015Y-118682914D01*
D13*
X80089278Y-113782664D02*
G75*
G02*
X79889278Y-113782664I-100000J0D01*
G01*
X79889278Y-113782664D02*
G75*
G02*
X80089278Y-113782664I100000J0D01*
G01*
D14*
X121823600Y-115323600D02*
X121823600Y-118676400D01*
X125176400Y-118676400D02*
X125176400Y-115323600D01*
D12*
X123815843Y-104063796D02*
X123815843Y-103541290D01*
X125285843Y-104063796D02*
X125285843Y-103541290D01*
X126165001Y-115647637D02*
X126165001Y-115863309D01*
X126885001Y-115647637D02*
X126885001Y-115863309D01*
D14*
X60179200Y-98809000D02*
X60179200Y-104651000D01*
X60179200Y-104651000D02*
X62820800Y-104651000D01*
X62820800Y-98809000D02*
X60179200Y-98809000D01*
X62820800Y-104651000D02*
X62820800Y-98809000D01*
D17*
X61881001Y-97031000D02*
G75*
G02*
X61118999Y-97031000I-381001J0D01*
G01*
X61118999Y-97031000D02*
G75*
G02*
X61881001Y-97031000I381001J0D01*
G01*
D12*
X102154383Y-108360295D02*
X101784916Y-108729762D01*
X103193830Y-109399742D02*
X102824363Y-109769209D01*
D14*
X104461900Y-119271400D02*
X104461900Y-122522600D01*
X104461900Y-122522600D02*
X104877759Y-122522600D01*
X104877759Y-119271400D02*
X104461900Y-119271400D01*
X107297241Y-122522600D02*
X107713100Y-122522600D01*
X107713100Y-119271400D02*
X107297241Y-119271400D01*
X107713100Y-122522600D02*
X107713100Y-119271400D01*
X106763672Y-118760860D02*
G75*
G02*
X106911328Y-118760860I73828J18860D01*
G01*
D12*
X127297937Y-118048850D02*
X127752065Y-118048850D01*
X127297937Y-119518850D02*
X127752065Y-119518850D01*
X79263671Y-69749911D02*
X79263671Y-70272415D01*
X80733671Y-69749911D02*
X80733671Y-70272415D01*
X94598652Y-74506531D02*
X94598652Y-74787691D01*
X95618652Y-74506531D02*
X95618652Y-74787691D01*
X62265000Y-73210438D02*
X62265000Y-73664566D01*
X63735000Y-73210438D02*
X63735000Y-73664566D01*
X123131234Y-112003542D02*
X122608728Y-112003542D01*
X123131234Y-113473542D02*
X122608728Y-113473542D01*
X83881588Y-77369730D02*
X84335716Y-77369730D01*
X83881588Y-78839730D02*
X84335716Y-78839730D01*
D14*
X80008452Y-63859211D02*
X80008452Y-68024811D01*
X80008452Y-68024811D02*
X81098112Y-68024811D01*
X81098112Y-63859211D02*
X80008452Y-63859211D01*
X87834192Y-68024811D02*
X88923852Y-68024811D01*
X88923852Y-63859211D02*
X87834192Y-63859211D01*
X88923852Y-68024811D02*
X88923852Y-63859211D01*
D15*
G36*
X81799152Y-62233611D02*
G01*
X81418152Y-62233611D01*
X81418152Y-61979611D01*
X81799152Y-61979611D01*
X81799152Y-62233611D01*
G37*
G36*
X87514152Y-69904411D02*
G01*
X87133152Y-69904411D01*
X87133152Y-69650411D01*
X87514152Y-69650411D01*
X87514152Y-69904411D01*
G37*
D12*
X110407049Y-116882844D02*
X109884545Y-116882844D01*
X110407049Y-118352844D02*
X109884545Y-118352844D01*
X70724979Y-68539653D02*
X70724979Y-68085525D01*
X72194979Y-68539653D02*
X72194979Y-68085525D01*
X127201841Y-101604642D02*
X127655969Y-101604642D01*
X127201841Y-103074642D02*
X127655969Y-103074642D01*
X115018271Y-94355562D02*
X115540777Y-94355562D01*
X115018271Y-95825562D02*
X115540777Y-95825562D01*
X62040000Y-75937501D02*
X62040000Y-78622500D01*
X62040000Y-78622500D02*
X63960000Y-78622500D01*
X63960000Y-78622500D02*
X63960000Y-75937501D01*
X125263748Y-120548849D02*
X125786254Y-120548849D01*
X125263748Y-122018849D02*
X125786254Y-122018849D01*
D13*
X68280000Y-58145000D02*
X68280000Y-59425000D01*
X68280000Y-63395000D02*
X68280000Y-62145000D01*
X77220000Y-59425000D02*
X77220000Y-58145000D01*
X77220000Y-63395000D02*
X77220000Y-62145000D01*
X76100000Y-66745000D02*
G75*
G02*
X75900000Y-66745000I-100000J0D01*
G01*
X75900000Y-66745000D02*
G75*
G02*
X76100000Y-66745000I100000J0D01*
G01*
D12*
X132927565Y-99950191D02*
X133450071Y-99950191D01*
X132927565Y-101420191D02*
X133450071Y-101420191D01*
X115023390Y-96392875D02*
X115545896Y-96392875D01*
X115023390Y-97862875D02*
X115545896Y-97862875D01*
D14*
X117902600Y-74736600D02*
X122169800Y-74736600D01*
X122169800Y-69453400D02*
X117902600Y-69453400D01*
D12*
X65197258Y-96477499D02*
X64722742Y-96477499D01*
X65197258Y-97522499D02*
X64722742Y-97522499D01*
X83964169Y-104085183D02*
X83594702Y-104454650D01*
X85003616Y-105124630D02*
X84634149Y-105494097D01*
X127613269Y-103955209D02*
X127332107Y-103955209D01*
X127613269Y-104975209D02*
X127332107Y-104975209D01*
D14*
X126154950Y-74533900D02*
X130396750Y-74533900D01*
X130396750Y-69276100D02*
X126154950Y-69276100D01*
D12*
X121536506Y-122966835D02*
X121817668Y-122966835D01*
X121536506Y-123986835D02*
X121817668Y-123986835D01*
X79881588Y-75912111D02*
X80335716Y-75912111D01*
X79881588Y-77382111D02*
X80335716Y-77382111D01*
X93397400Y-67412111D02*
X93919904Y-67412111D01*
X93397400Y-68882111D02*
X93919904Y-68882111D01*
D14*
X125874442Y-107126143D02*
X125874442Y-110478943D01*
X129227242Y-110478943D02*
X129227242Y-107126143D01*
D12*
X112037563Y-96398664D02*
X111515057Y-96398664D01*
X112037563Y-97868664D02*
X111515057Y-97868664D01*
D14*
X108510000Y-81300000D02*
X118510000Y-81300000D01*
X108510000Y-91300000D02*
X108510000Y-81300000D01*
X118510000Y-81300000D02*
X118510000Y-91300000D01*
X118510000Y-91300000D02*
X108510000Y-91300000D01*
D18*
X121510000Y-90300000D02*
G75*
G02*
X121210000Y-90300000I-150000J0D01*
G01*
X121210000Y-90300000D02*
G75*
G02*
X121510000Y-90300000I150000J0D01*
G01*
D12*
X106149883Y-116995550D02*
X105627379Y-116995550D01*
X106149883Y-118465550D02*
X105627379Y-118465550D01*
D14*
X98756837Y-74398467D02*
X101460467Y-74398467D01*
X101460467Y-68895755D02*
X98756837Y-68895755D01*
D12*
X76638747Y-94264999D02*
X77161253Y-94264999D01*
X76638747Y-95734999D02*
X77161253Y-95734999D01*
D14*
X132603999Y-99470886D02*
X134610599Y-99470886D01*
X134610599Y-96219686D02*
X132603999Y-96219686D01*
D12*
X77062900Y-120690850D02*
X76693433Y-120321383D01*
X78102347Y-119651403D02*
X77732880Y-119281936D01*
X130261252Y-67265000D02*
X129738748Y-67265000D01*
X130261252Y-68735000D02*
X129738748Y-68735000D01*
X112036787Y-94355562D02*
X111514281Y-94355562D01*
X112036787Y-95825562D02*
X111514281Y-95825562D01*
D14*
X96709752Y-62673911D02*
X96709752Y-65620311D01*
X96709752Y-65620311D02*
X102170752Y-65620311D01*
X102170752Y-62673911D02*
X96709752Y-62673911D01*
X102170752Y-65620311D02*
X102170752Y-62673911D01*
X108647752Y-64147111D02*
X109917752Y-64147111D01*
X108901752Y-64782111D02*
X108901752Y-63512111D01*
X109663752Y-64147111D02*
X108901752Y-63512111D01*
X109663752Y-64147111D02*
X108901752Y-63639111D01*
X109663752Y-64147111D02*
X108901752Y-63766111D01*
X109663752Y-64147111D02*
X108901752Y-63893111D01*
X109663752Y-64147111D02*
X108901752Y-64020111D01*
X109663752Y-64147111D02*
X108901752Y-64274111D01*
X109663752Y-64147111D02*
X108901752Y-64401111D01*
X109663752Y-64147111D02*
X108901752Y-64528111D01*
X109663752Y-64147111D02*
X108901752Y-64655111D01*
X109663752Y-64147111D02*
X108901752Y-64782111D01*
X109663752Y-64782111D02*
X109663752Y-63512111D01*
D12*
X105683612Y-114974756D02*
X106137740Y-114974756D01*
X105683612Y-116444756D02*
X106137740Y-116444756D01*
X129517235Y-103982638D02*
X129517235Y-103460132D01*
X130987235Y-103982638D02*
X130987235Y-103460132D01*
X109922831Y-114885010D02*
X110376959Y-114885010D01*
X109922831Y-116355010D02*
X110376959Y-116355010D01*
D16*
X77918863Y-88849069D02*
X77558863Y-88849069D01*
X77918863Y-91349069D02*
X77558863Y-91349069D01*
D13*
X78988863Y-87949069D02*
G75*
G02*
X78788863Y-87949069I-100000J0D01*
G01*
X78788863Y-87949069D02*
G75*
G02*
X78988863Y-87949069I100000J0D01*
G01*
D12*
X105948125Y-74857041D02*
X106229285Y-74857041D01*
X105948125Y-75877041D02*
X106229285Y-75877041D01*
X133738747Y-94265000D02*
X134261253Y-94265000D01*
X133738747Y-95735000D02*
X134261253Y-95735000D01*
X109847400Y-69912111D02*
X110369904Y-69912111D01*
X109847400Y-71382111D02*
X110369904Y-71382111D01*
X105897400Y-71412111D02*
X106419904Y-71412111D01*
X105897400Y-72882111D02*
X106419904Y-72882111D01*
D14*
X108711899Y-119242244D02*
X108711899Y-122493444D01*
X108711899Y-122493444D02*
X109127758Y-122493444D01*
X109127758Y-119242244D02*
X108711899Y-119242244D01*
X111547240Y-122493444D02*
X111963099Y-122493444D01*
X111963099Y-119242244D02*
X111547240Y-119242244D01*
X111963099Y-122493444D02*
X111963099Y-119242244D01*
X111013671Y-118731704D02*
G75*
G02*
X111161327Y-118731704I73828J18860D01*
G01*
D12*
X82693433Y-114321383D02*
X83062900Y-114690850D01*
X83732880Y-113281936D02*
X84102347Y-113651403D01*
X81648652Y-72122111D02*
X81648652Y-74807111D01*
X83568652Y-72122111D02*
X81648652Y-72122111D01*
X83568652Y-74807111D02*
X83568652Y-72122111D01*
X121920533Y-98481749D02*
X121920533Y-97959243D01*
X123390533Y-98481749D02*
X123390533Y-97959243D01*
X79335716Y-73412111D02*
X78881588Y-73412111D01*
X79335716Y-74882111D02*
X78881588Y-74882111D01*
X106540000Y-105500000D02*
X106540000Y-108185000D01*
X106540000Y-108185000D02*
X108460000Y-108185000D01*
X108460000Y-108185000D02*
X108460000Y-105500000D01*
X103238748Y-89610080D02*
X103761254Y-89610080D01*
X103238748Y-91080080D02*
X103761254Y-91080080D01*
X73721253Y-94264999D02*
X73198747Y-94264999D01*
X73721253Y-95734999D02*
X73198747Y-95734999D01*
D16*
X85928932Y-107000000D02*
X86487547Y-106441386D01*
X85928932Y-107000000D02*
X86487547Y-107558614D01*
X93000000Y-99928932D02*
X92441386Y-100487547D01*
X93000000Y-99928932D02*
X93558614Y-100487547D01*
X93000000Y-114071068D02*
X92441386Y-113512453D01*
X93000000Y-114071068D02*
X93558614Y-113512453D01*
X100071068Y-107000000D02*
X99512453Y-106441386D01*
X100071068Y-107000000D02*
X99512453Y-107558614D01*
D13*
X85258185Y-109538513D02*
G75*
G02*
X85058187Y-109538513I-99999J0D01*
G01*
X85058187Y-109538513D02*
G75*
G02*
X85258185Y-109538513I99999J0D01*
G01*
D14*
X125379100Y-101128900D02*
X129620900Y-101128900D01*
X129620900Y-95871100D02*
X125379100Y-95871100D01*
D12*
X65197258Y-106477499D02*
X64722742Y-106477499D01*
X65197258Y-107522499D02*
X64722742Y-107522499D01*
M02*
