%TF.GenerationSoftware,KiCad,Pcbnew,8.0.1*%
%TF.CreationDate,2024-04-16T19:56:43-05:00*%
%TF.ProjectId,PCB-1-2,5043422d-312d-4322-9e6b-696361645f70,rev?*%
%TF.SameCoordinates,Original*%
%TF.FileFunction,Soldermask,Bot*%
%TF.FilePolarity,Negative*%
%FSLAX46Y46*%
G04 Gerber Fmt 4.6, Leading zero omitted, Abs format (unit mm)*
G04 Created by KiCad (PCBNEW 8.0.1) date 2024-04-16 19:56:43*
%MOMM*%
%LPD*%
G01*
G04 APERTURE LIST*
G04 Aperture macros list*
%AMRoundRect*
0 Rectangle with rounded corners*
0 $1 Rounding radius*
0 $2 $3 $4 $5 $6 $7 $8 $9 X,Y pos of 4 corners*
0 Add a 4 corners polygon primitive as box body*
4,1,4,$2,$3,$4,$5,$6,$7,$8,$9,$2,$3,0*
0 Add four circle primitives for the rounded corners*
1,1,$1+$1,$2,$3*
1,1,$1+$1,$4,$5*
1,1,$1+$1,$6,$7*
1,1,$1+$1,$8,$9*
0 Add four rect primitives between the rounded corners*
20,1,$1+$1,$2,$3,$4,$5,0*
20,1,$1+$1,$4,$5,$6,$7,0*
20,1,$1+$1,$6,$7,$8,$9,0*
20,1,$1+$1,$8,$9,$2,$3,0*%
%AMRotRect*
0 Rectangle, with rotation*
0 The origin of the aperture is its center*
0 $1 length*
0 $2 width*
0 $3 Rotation angle, in degrees counterclockwise*
0 Add horizontal line*
21,1,$1,$2,0,0,$3*%
G04 Aperture macros list end*
%ADD10C,1.524000*%
%ADD11C,2.200000*%
%ADD12C,0.650000*%
%ADD13O,1.204000X2.304000*%
%ADD14RoundRect,0.301000X0.301000X0.701000X-0.301000X0.701000X-0.301000X-0.701000X0.301000X-0.701000X0*%
%ADD15R,1.625600X1.625600*%
%ADD16C,1.625600*%
%ADD17RoundRect,0.250000X-0.512652X-0.159099X-0.159099X-0.512652X0.512652X0.159099X0.159099X0.512652X0*%
%ADD18RoundRect,0.250000X-0.250000X-0.475000X0.250000X-0.475000X0.250000X0.475000X-0.250000X0.475000X0*%
%ADD19RoundRect,0.250000X-0.159099X0.512652X-0.512652X0.159099X0.159099X-0.512652X0.512652X-0.159099X0*%
%ADD20RoundRect,0.218750X0.218750X0.381250X-0.218750X0.381250X-0.218750X-0.381250X0.218750X-0.381250X0*%
%ADD21RoundRect,0.200000X0.200000X0.275000X-0.200000X0.275000X-0.200000X-0.275000X0.200000X-0.275000X0*%
%ADD22RoundRect,0.250000X-0.262500X-0.450000X0.262500X-0.450000X0.262500X0.450000X-0.262500X0.450000X0*%
%ADD23RoundRect,0.250000X0.262500X0.450000X-0.262500X0.450000X-0.262500X-0.450000X0.262500X-0.450000X0*%
%ADD24RoundRect,0.250000X0.475000X-0.250000X0.475000X0.250000X-0.475000X0.250000X-0.475000X-0.250000X0*%
%ADD25RoundRect,0.250000X-0.325000X-0.650000X0.325000X-0.650000X0.325000X0.650000X-0.325000X0.650000X0*%
%ADD26RoundRect,0.250000X0.250000X0.475000X-0.250000X0.475000X-0.250000X-0.475000X0.250000X-0.475000X0*%
%ADD27RoundRect,0.218750X0.114905X-0.424264X0.424264X-0.114905X-0.114905X0.424264X-0.424264X0.114905X0*%
%ADD28RoundRect,0.250000X-0.450000X0.262500X-0.450000X-0.262500X0.450000X-0.262500X0.450000X0.262500X0*%
%ADD29RoundRect,0.200000X-0.200000X-0.275000X0.200000X-0.275000X0.200000X0.275000X-0.200000X0.275000X0*%
%ADD30RoundRect,0.250000X0.450000X-0.262500X0.450000X0.262500X-0.450000X0.262500X-0.450000X-0.262500X0*%
%ADD31RoundRect,0.250000X0.512652X0.159099X0.159099X0.512652X-0.512652X-0.159099X-0.159099X-0.512652X0*%
%ADD32RoundRect,0.250000X-0.132583X0.503814X-0.503814X0.132583X0.132583X-0.503814X0.503814X-0.132583X0*%
%ADD33RotRect,0.977900X0.508000X225.000000*%
%ADD34RoundRect,0.225000X0.225000X0.250000X-0.225000X0.250000X-0.225000X-0.250000X0.225000X-0.250000X0*%
%ADD35R,0.700000X4.300000*%
%ADD36R,0.700000X3.200000*%
G04 APERTURE END LIST*
D10*
X61500000Y-100460000D03*
X61500000Y-103000000D03*
D11*
X133000000Y-62500000D03*
D12*
X75640000Y-64425000D03*
X69860000Y-64425000D03*
D13*
X77070000Y-64925000D03*
X68430000Y-64925000D03*
D14*
X77070000Y-60745000D03*
X68430000Y-60745000D03*
D11*
X63000000Y-62500000D03*
X63000000Y-122500000D03*
D15*
X106514152Y-64147111D03*
D16*
X92366352Y-64147111D03*
D11*
X133000000Y-122500000D03*
D17*
X89328249Y-114328249D03*
X90671751Y-115671751D03*
X82828249Y-107328249D03*
X84171751Y-108671751D03*
D18*
X120550001Y-123500001D03*
X122449999Y-123500001D03*
D19*
X103161124Y-108393001D03*
X101817622Y-109736503D03*
D20*
X77671152Y-68147111D03*
X75546152Y-68147111D03*
D19*
X88171751Y-115828249D03*
X86828249Y-117171751D03*
D21*
X65785000Y-106999999D03*
X64135000Y-106999999D03*
D22*
X124612501Y-121283849D03*
X126437501Y-121283849D03*
D23*
X107000000Y-121000000D03*
X105175000Y-121000000D03*
D24*
X124568262Y-104780646D03*
X124568262Y-102880648D03*
D18*
X75010001Y-99499999D03*
X76909999Y-99499999D03*
D25*
X109133652Y-70647111D03*
X112083652Y-70647111D03*
D18*
X83838726Y-66319041D03*
X85738726Y-66319041D03*
D26*
X82219550Y-66308009D03*
X80319550Y-66308009D03*
D27*
X90748699Y-118251301D03*
X92251301Y-116748699D03*
D28*
X72500000Y-91087499D03*
X72500000Y-92912499D03*
D29*
X64135000Y-96999999D03*
X65785000Y-96999999D03*
D28*
X111009050Y-115713083D03*
X111009050Y-117538083D03*
D26*
X94558652Y-71647111D03*
X92658652Y-71647111D03*
D28*
X106641964Y-115742239D03*
X106641964Y-117567239D03*
D18*
X105158652Y-68647111D03*
X107058652Y-68647111D03*
D23*
X128342938Y-102336130D03*
X126517938Y-102336130D03*
D26*
X68523077Y-104206514D03*
X66623079Y-104206514D03*
D22*
X126638343Y-109302543D03*
X128463343Y-109302543D03*
D30*
X74108652Y-62559611D03*
X74108652Y-60734611D03*
D31*
X89483626Y-108801434D03*
X88140124Y-107457932D03*
D32*
X94025126Y-84696699D03*
X92734656Y-85987169D03*
D18*
X105158652Y-72147111D03*
X107058652Y-72147111D03*
X74010001Y-104272071D03*
X75909999Y-104272071D03*
D23*
X111267205Y-120909499D03*
X109442205Y-120909499D03*
D28*
X126525001Y-114831646D03*
X126525001Y-116656646D03*
X113510003Y-82253570D03*
X113510003Y-84078570D03*
D30*
X130251246Y-104657926D03*
X130251246Y-102832926D03*
X70608652Y-62559611D03*
X70608652Y-60734611D03*
D19*
X104619881Y-109857034D03*
X103276379Y-111200536D03*
D33*
X90793625Y-95362870D03*
X91465378Y-96034622D03*
X92137130Y-96706375D03*
X90206375Y-98637130D03*
X88862870Y-97293625D03*
D26*
X94558652Y-68147111D03*
X92658652Y-68147111D03*
X68523077Y-101982233D03*
X66623079Y-101982233D03*
D19*
X88919794Y-94266856D03*
X87576292Y-95610358D03*
D32*
X95439340Y-86110913D03*
X94148870Y-87401383D03*
D17*
X94828249Y-115828249D03*
X96171751Y-117171751D03*
D34*
X131775000Y-106500000D03*
X130225000Y-106500000D03*
D35*
X123000000Y-131000000D03*
X122000000Y-131000000D03*
X121000000Y-131000000D03*
X120000000Y-131000000D03*
X119000000Y-131000000D03*
X118000000Y-131000000D03*
X117000000Y-131000000D03*
X116000000Y-131000000D03*
X115000000Y-131000000D03*
X114000000Y-131000000D03*
X113000000Y-131000000D03*
X110000000Y-131000000D03*
X109000000Y-131000000D03*
X108000000Y-131000000D03*
X107000000Y-131000000D03*
X106000000Y-131000000D03*
X105000000Y-131000000D03*
X104000000Y-131000000D03*
X103000000Y-131000000D03*
X102000000Y-131000000D03*
X101000000Y-131000000D03*
X100000000Y-131000000D03*
X99000000Y-131000000D03*
X98000000Y-131000000D03*
X97000000Y-131000000D03*
X96000000Y-131000000D03*
X95000000Y-131000000D03*
X94000000Y-131000000D03*
X93000000Y-131000000D03*
X92000000Y-131000000D03*
X91000000Y-131000000D03*
X90000000Y-131000000D03*
X89000000Y-131000000D03*
X88000000Y-131000000D03*
X87000000Y-131000000D03*
X86000000Y-131000000D03*
X85000000Y-131000000D03*
X84000000Y-131000000D03*
X83000000Y-131000000D03*
X82000000Y-131000000D03*
X81000000Y-131000000D03*
X80000000Y-131000000D03*
X79000000Y-131000000D03*
X78000000Y-131000000D03*
X77000000Y-131000000D03*
X76000000Y-131000000D03*
X75000000Y-131000000D03*
D36*
X74000000Y-130450000D03*
D35*
X73000000Y-131000000D03*
D32*
X97145235Y-89354765D03*
X95854765Y-90645235D03*
D23*
X120188970Y-112731966D03*
X118363970Y-112731966D03*
D26*
X68523077Y-99706514D03*
X66623079Y-99706514D03*
D18*
X75010001Y-101999999D03*
X76909999Y-101999999D03*
M02*
