G04 #@! TF.GenerationSoftware,KiCad,Pcbnew,8.0.1*
G04 #@! TF.CreationDate,2024-04-11T19:40:34-05:00*
G04 #@! TF.ProjectId,Backplane,4261636b-706c-4616-9e65-2e6b69636164,rev?*
G04 #@! TF.SameCoordinates,Original*
G04 #@! TF.FileFunction,Copper,L1,Top*
G04 #@! TF.FilePolarity,Positive*
%FSLAX46Y46*%
G04 Gerber Fmt 4.6, Leading zero omitted, Abs format (unit mm)*
G04 Created by KiCad (PCBNEW 8.0.1) date 2024-04-11 19:40:34*
%MOMM*%
%LPD*%
G01*
G04 APERTURE LIST*
G04 Aperture macros list*
%AMRoundRect*
0 Rectangle with rounded corners*
0 $1 Rounding radius*
0 $2 $3 $4 $5 $6 $7 $8 $9 X,Y pos of 4 corners*
0 Add a 4 corners polygon primitive as box body*
4,1,4,$2,$3,$4,$5,$6,$7,$8,$9,$2,$3,0*
0 Add four circle primitives for the rounded corners*
1,1,$1+$1,$2,$3*
1,1,$1+$1,$4,$5*
1,1,$1+$1,$6,$7*
1,1,$1+$1,$8,$9*
0 Add four rect primitives between the rounded corners*
20,1,$1+$1,$2,$3,$4,$5,0*
20,1,$1+$1,$4,$5,$6,$7,0*
20,1,$1+$1,$6,$7,$8,$9,0*
20,1,$1+$1,$8,$9,$2,$3,0*%
G04 Aperture macros list end*
G04 #@! TA.AperFunction,SMDPad,CuDef*
%ADD10R,5.207000X2.413000*%
G04 #@! TD*
G04 #@! TA.AperFunction,SMDPad,CuDef*
%ADD11RoundRect,0.250000X0.450000X-0.262500X0.450000X0.262500X-0.450000X0.262500X-0.450000X-0.262500X0*%
G04 #@! TD*
G04 #@! TA.AperFunction,SMDPad,CuDef*
%ADD12R,1.955800X1.346200*%
G04 #@! TD*
G04 #@! TA.AperFunction,SMDPad,CuDef*
%ADD13RoundRect,0.250000X0.650000X-0.325000X0.650000X0.325000X-0.650000X0.325000X-0.650000X-0.325000X0*%
G04 #@! TD*
G04 #@! TA.AperFunction,SMDPad,CuDef*
%ADD14RoundRect,0.250000X0.625000X-0.312500X0.625000X0.312500X-0.625000X0.312500X-0.625000X-0.312500X0*%
G04 #@! TD*
G04 #@! TA.AperFunction,SMDPad,CuDef*
%ADD15RoundRect,0.250000X-0.450000X0.262500X-0.450000X-0.262500X0.450000X-0.262500X0.450000X0.262500X0*%
G04 #@! TD*
G04 #@! TA.AperFunction,SMDPad,CuDef*
%ADD16R,3.120000X2.290000*%
G04 #@! TD*
G04 #@! TA.AperFunction,SMDPad,CuDef*
%ADD17R,1.050000X0.600000*%
G04 #@! TD*
G04 #@! TA.AperFunction,SMDPad,CuDef*
%ADD18R,3.200400X2.184400*%
G04 #@! TD*
G04 #@! TA.AperFunction,SMDPad,CuDef*
%ADD19RoundRect,0.250000X-0.262500X-0.450000X0.262500X-0.450000X0.262500X0.450000X-0.262500X0.450000X0*%
G04 #@! TD*
G04 #@! TA.AperFunction,SMDPad,CuDef*
%ADD20RoundRect,0.250000X-0.475000X0.250000X-0.475000X-0.250000X0.475000X-0.250000X0.475000X0.250000X0*%
G04 #@! TD*
G04 #@! TA.AperFunction,SMDPad,CuDef*
%ADD21RoundRect,0.250000X-0.325000X-0.650000X0.325000X-0.650000X0.325000X0.650000X-0.325000X0.650000X0*%
G04 #@! TD*
G04 #@! TA.AperFunction,ComponentPad*
%ADD22R,1.288000X1.288000*%
G04 #@! TD*
G04 #@! TA.AperFunction,ComponentPad*
%ADD23C,1.288000*%
G04 #@! TD*
G04 #@! TA.AperFunction,SMDPad,CuDef*
%ADD24R,2.184400X3.200400*%
G04 #@! TD*
G04 #@! TA.AperFunction,SMDPad,CuDef*
%ADD25R,1.092200X0.990600*%
G04 #@! TD*
G04 #@! TA.AperFunction,SMDPad,CuDef*
%ADD26RoundRect,0.225000X0.225000X0.250000X-0.225000X0.250000X-0.225000X-0.250000X0.225000X-0.250000X0*%
G04 #@! TD*
G04 #@! TA.AperFunction,SMDPad,CuDef*
%ADD27R,1.498600X0.711200*%
G04 #@! TD*
G04 #@! TA.AperFunction,SMDPad,CuDef*
%ADD28RoundRect,0.225000X-0.250000X0.225000X-0.250000X-0.225000X0.250000X-0.225000X0.250000X0.225000X0*%
G04 #@! TD*
G04 #@! TA.AperFunction,SMDPad,CuDef*
%ADD29RoundRect,0.200000X0.200000X0.275000X-0.200000X0.275000X-0.200000X-0.275000X0.200000X-0.275000X0*%
G04 #@! TD*
G04 #@! TA.AperFunction,SMDPad,CuDef*
%ADD30RoundRect,0.135000X0.185000X-0.135000X0.185000X0.135000X-0.185000X0.135000X-0.185000X-0.135000X0*%
G04 #@! TD*
G04 #@! TA.AperFunction,SMDPad,CuDef*
%ADD31R,1.752600X0.660400*%
G04 #@! TD*
G04 #@! TA.AperFunction,SMDPad,CuDef*
%ADD32R,0.600000X1.200000*%
G04 #@! TD*
G04 #@! TA.AperFunction,SMDPad,CuDef*
%ADD33R,0.800000X1.400000*%
G04 #@! TD*
G04 #@! TA.AperFunction,SMDPad,CuDef*
%ADD34RoundRect,0.250000X0.262500X0.450000X-0.262500X0.450000X-0.262500X-0.450000X0.262500X-0.450000X0*%
G04 #@! TD*
G04 #@! TA.AperFunction,SMDPad,CuDef*
%ADD35R,1.358900X0.355600*%
G04 #@! TD*
G04 #@! TA.AperFunction,SMDPad,CuDef*
%ADD36R,2.743200X3.860800*%
G04 #@! TD*
G04 #@! TA.AperFunction,SMDPad,CuDef*
%ADD37RoundRect,0.250000X0.325000X0.650000X-0.325000X0.650000X-0.325000X-0.650000X0.325000X-0.650000X0*%
G04 #@! TD*
G04 #@! TA.AperFunction,SMDPad,CuDef*
%ADD38RoundRect,0.135000X-0.185000X0.135000X-0.185000X-0.135000X0.185000X-0.135000X0.185000X0.135000X0*%
G04 #@! TD*
G04 #@! TA.AperFunction,ComponentPad*
%ADD39O,2.200000X2.200000*%
G04 #@! TD*
G04 #@! TA.AperFunction,ComponentPad*
%ADD40R,2.200000X2.200000*%
G04 #@! TD*
G04 #@! TA.AperFunction,SMDPad,CuDef*
%ADD41R,0.254000X0.812800*%
G04 #@! TD*
G04 #@! TA.AperFunction,SMDPad,CuDef*
%ADD42R,2.489200X1.752600*%
G04 #@! TD*
G04 #@! TA.AperFunction,SMDPad,CuDef*
%ADD43R,0.812800X0.254000*%
G04 #@! TD*
G04 #@! TA.AperFunction,SMDPad,CuDef*
%ADD44R,1.752600X2.489200*%
G04 #@! TD*
G04 #@! TA.AperFunction,ViaPad*
%ADD45C,0.450000*%
G04 #@! TD*
G04 #@! TA.AperFunction,Conductor*
%ADD46C,0.200000*%
G04 #@! TD*
G04 #@! TA.AperFunction,Conductor*
%ADD47C,0.150000*%
G04 #@! TD*
G04 #@! TA.AperFunction,Conductor*
%ADD48C,0.100000*%
G04 #@! TD*
G04 #@! TA.AperFunction,Conductor*
%ADD49C,0.300000*%
G04 #@! TD*
G04 APERTURE END LIST*
D10*
X160500000Y-114958100D03*
X160500000Y-125041900D03*
D11*
X202000001Y-69312499D03*
X202000001Y-67487499D03*
X209711335Y-61920829D03*
X209711335Y-60095829D03*
D12*
X212389901Y-60629999D03*
X212389901Y-63169999D03*
X221610101Y-63169999D03*
X221610101Y-60629999D03*
D13*
X226597292Y-113389347D03*
X226597292Y-110439347D03*
D14*
X161000000Y-131462500D03*
X161000000Y-128537500D03*
D15*
X317000000Y-75137500D03*
X317000000Y-76962500D03*
D16*
X183455001Y-99242499D03*
X183455001Y-92382499D03*
D11*
X205500001Y-103812499D03*
X205500001Y-101987499D03*
D13*
X208542967Y-111369992D03*
X208542967Y-108419992D03*
D12*
X214779801Y-113399999D03*
X214779801Y-115939999D03*
X224000001Y-115939999D03*
X224000001Y-113399999D03*
D17*
X220900001Y-65899999D03*
X218100001Y-65899999D03*
X214489901Y-118669999D03*
X217289901Y-118669999D03*
D18*
X176500001Y-90275799D03*
X176500001Y-96524199D03*
D15*
X287000000Y-72500000D03*
X287000000Y-74325000D03*
D16*
X192680001Y-71382499D03*
X192680001Y-78242499D03*
D11*
X211867313Y-58510463D03*
X211867313Y-56685463D03*
D19*
X196587501Y-99899999D03*
X198412501Y-99899999D03*
D11*
X208398193Y-115082499D03*
X208398193Y-113257499D03*
D20*
X177000000Y-123550000D03*
X177000000Y-125450000D03*
D17*
X224741189Y-76899999D03*
X227541189Y-76899999D03*
X223289901Y-118669999D03*
X220489901Y-118669999D03*
D11*
X158500000Y-107902500D03*
X158500000Y-106077500D03*
D12*
X222889901Y-101629999D03*
X222889901Y-104169999D03*
X232110101Y-104169999D03*
X232110101Y-101629999D03*
D11*
X220236831Y-102807889D03*
X220236831Y-100982889D03*
X236584515Y-75312499D03*
X236584515Y-73487499D03*
D21*
X162025000Y-133500000D03*
X164975000Y-133500000D03*
D22*
X323500000Y-115000000D03*
D23*
X321500000Y-114000000D03*
X323500000Y-113000000D03*
X321500000Y-112000000D03*
X323500000Y-111000000D03*
X321500000Y-110000000D03*
X323500000Y-109000000D03*
X321500000Y-108000000D03*
X323500000Y-107000000D03*
X321500000Y-106000000D03*
X323500000Y-105000000D03*
X321500000Y-102000000D03*
X323500000Y-101000000D03*
X321500000Y-100000000D03*
X323500000Y-99000000D03*
X321500000Y-98000000D03*
X323500000Y-97000000D03*
X321500000Y-96000000D03*
X323500000Y-95000000D03*
X321500000Y-94000000D03*
X323500000Y-93000000D03*
X321500000Y-92000000D03*
X323500000Y-91000000D03*
X321500000Y-90000000D03*
X323500000Y-89000000D03*
X321500000Y-88000000D03*
X323500000Y-87000000D03*
X321500000Y-86000000D03*
X323500000Y-85000000D03*
X321500000Y-84000000D03*
X323500000Y-83000000D03*
X321500000Y-82000000D03*
X323500000Y-81000000D03*
X321500000Y-80000000D03*
X323500000Y-79000000D03*
X321500000Y-78000000D03*
X323500000Y-77000000D03*
X321500000Y-76000000D03*
X323500000Y-75000000D03*
X321500000Y-74000000D03*
X323500000Y-73000000D03*
X321500000Y-72000000D03*
X323500000Y-71000000D03*
X321500000Y-70000000D03*
X323500000Y-69000000D03*
X321500000Y-68000000D03*
X323500000Y-67000000D03*
X321500000Y-66000000D03*
X323500000Y-65000000D03*
X326000000Y-115000000D03*
X328000000Y-114000000D03*
X326000000Y-113000000D03*
X328000000Y-112000000D03*
X326000000Y-111000000D03*
X328000000Y-110000000D03*
X326000000Y-109000000D03*
X328000000Y-108000000D03*
X326000000Y-107000000D03*
X328000000Y-106000000D03*
X326000000Y-105000000D03*
X328000000Y-102000000D03*
X326000000Y-101000000D03*
X328000000Y-100000000D03*
X326000000Y-99000000D03*
X328000000Y-98000000D03*
X326000000Y-97000000D03*
X328000000Y-96000000D03*
X326000000Y-95000000D03*
X328000000Y-94000000D03*
X326000000Y-93000000D03*
X328000000Y-92000000D03*
X326000000Y-91000000D03*
X328000000Y-90000000D03*
X326000000Y-89000000D03*
X328000000Y-88000000D03*
X326000000Y-87000000D03*
X328000000Y-86000000D03*
X326000000Y-85000000D03*
X328000000Y-84000000D03*
X326000000Y-83000000D03*
X328000000Y-82000000D03*
X326000000Y-81000000D03*
X328000000Y-80000000D03*
X326000000Y-79000000D03*
X328000000Y-78000000D03*
X326000000Y-77000000D03*
X328000000Y-76000000D03*
X326000000Y-75000000D03*
X328000000Y-74000000D03*
X326000000Y-73000000D03*
X328000000Y-72000000D03*
X326000000Y-71000000D03*
X328000000Y-70000000D03*
X326000000Y-69000000D03*
X328000000Y-68000000D03*
X326000000Y-67000000D03*
X328000000Y-66000000D03*
X326000000Y-65000000D03*
D24*
X211875801Y-80899999D03*
X218124201Y-80899999D03*
D22*
X258500000Y-115000000D03*
D23*
X256500000Y-114000000D03*
X258500000Y-113000000D03*
X256500000Y-112000000D03*
X258500000Y-111000000D03*
X256500000Y-110000000D03*
X258500000Y-109000000D03*
X256500000Y-108000000D03*
X258500000Y-107000000D03*
X256500000Y-106000000D03*
X258500000Y-105000000D03*
X256500000Y-102000000D03*
X258500000Y-101000000D03*
X256500000Y-100000000D03*
X258500000Y-99000000D03*
X256500000Y-98000000D03*
X258500000Y-97000000D03*
X256500000Y-96000000D03*
X258500000Y-95000000D03*
X256500000Y-94000000D03*
X258500000Y-93000000D03*
X256500000Y-92000000D03*
X258500000Y-91000000D03*
X256500000Y-90000000D03*
X258500000Y-89000000D03*
X256500000Y-88000000D03*
X258500000Y-87000000D03*
X256500000Y-86000000D03*
X258500000Y-85000000D03*
X256500000Y-84000000D03*
X258500000Y-83000000D03*
X256500000Y-82000000D03*
X258500000Y-81000000D03*
X256500000Y-80000000D03*
X258500000Y-79000000D03*
X256500000Y-78000000D03*
X258500000Y-77000000D03*
X256500000Y-76000000D03*
X258500000Y-75000000D03*
X256500000Y-74000000D03*
X258500000Y-73000000D03*
X256500000Y-72000000D03*
X258500000Y-71000000D03*
X256500000Y-70000000D03*
X258500000Y-69000000D03*
X256500000Y-68000000D03*
X258500000Y-67000000D03*
X256500000Y-66000000D03*
X258500000Y-65000000D03*
X261000000Y-115000000D03*
X263000000Y-114000000D03*
X261000000Y-113000000D03*
X263000000Y-112000000D03*
X261000000Y-111000000D03*
X263000000Y-110000000D03*
X261000000Y-109000000D03*
X263000000Y-108000000D03*
X261000000Y-107000000D03*
X263000000Y-106000000D03*
X261000000Y-105000000D03*
X263000000Y-102000000D03*
X261000000Y-101000000D03*
X263000000Y-100000000D03*
X261000000Y-99000000D03*
X263000000Y-98000000D03*
X261000000Y-97000000D03*
X263000000Y-96000000D03*
X261000000Y-95000000D03*
X263000000Y-94000000D03*
X261000000Y-93000000D03*
X263000000Y-92000000D03*
X261000000Y-91000000D03*
X263000000Y-90000000D03*
X261000000Y-89000000D03*
X263000000Y-88000000D03*
X261000000Y-87000000D03*
X263000000Y-86000000D03*
X261000000Y-85000000D03*
X263000000Y-84000000D03*
X261000000Y-83000000D03*
X263000000Y-82000000D03*
X261000000Y-81000000D03*
X263000000Y-80000000D03*
X261000000Y-79000000D03*
X263000000Y-78000000D03*
X261000000Y-77000000D03*
X263000000Y-76000000D03*
X261000000Y-75000000D03*
X263000000Y-74000000D03*
X261000000Y-73000000D03*
X263000000Y-72000000D03*
X261000000Y-71000000D03*
X263000000Y-70000000D03*
X261000000Y-69000000D03*
X263000000Y-68000000D03*
X261000000Y-67000000D03*
X263000000Y-66000000D03*
X261000000Y-65000000D03*
D15*
X246000000Y-128735614D03*
X246000000Y-130560614D03*
D11*
X212500001Y-103812499D03*
X212500001Y-101987499D03*
X222457986Y-99651511D03*
X222457986Y-97826511D03*
D15*
X319047203Y-71405605D03*
X319047203Y-73230605D03*
D17*
X233900001Y-76899999D03*
X231100001Y-76899999D03*
D25*
X210473201Y-101399999D03*
X207526801Y-101399999D03*
D13*
X224215188Y-60769455D03*
X224215188Y-57819455D03*
D26*
X166775000Y-128500000D03*
X165225000Y-128500000D03*
D15*
X254000000Y-61587500D03*
X254000000Y-63412500D03*
D18*
X203000001Y-92775799D03*
X203000001Y-99024199D03*
D16*
X192275001Y-99329999D03*
X192275001Y-92469999D03*
D27*
X197000001Y-93626699D03*
X197000001Y-98173299D03*
D22*
X275500000Y-115000000D03*
D23*
X273500000Y-114000000D03*
X275500000Y-113000000D03*
X273500000Y-112000000D03*
X275500000Y-111000000D03*
X273500000Y-110000000D03*
X275500000Y-109000000D03*
X273500000Y-108000000D03*
X275500000Y-107000000D03*
X273500000Y-106000000D03*
X275500000Y-105000000D03*
X273500000Y-102000000D03*
X275500000Y-101000000D03*
X273500000Y-100000000D03*
X275500000Y-99000000D03*
X273500000Y-98000000D03*
X275500000Y-97000000D03*
X273500000Y-96000000D03*
X275500000Y-95000000D03*
X273500000Y-94000000D03*
X275500000Y-93000000D03*
X273500000Y-92000000D03*
X275500000Y-91000000D03*
X273500000Y-90000000D03*
X275500000Y-89000000D03*
X273500000Y-88000000D03*
X275500000Y-87000000D03*
X273500000Y-86000000D03*
X275500000Y-85000000D03*
X273500000Y-84000000D03*
X275500000Y-83000000D03*
X273500000Y-82000000D03*
X275500000Y-81000000D03*
X273500000Y-80000000D03*
X275500000Y-79000000D03*
X273500000Y-78000000D03*
X275500000Y-77000000D03*
X273500000Y-76000000D03*
X275500000Y-75000000D03*
X273500000Y-74000000D03*
X275500000Y-73000000D03*
X273500000Y-72000000D03*
X275500000Y-71000000D03*
X273500000Y-70000000D03*
X275500000Y-69000000D03*
X273500000Y-68000000D03*
X275500000Y-67000000D03*
X273500000Y-66000000D03*
X275500000Y-65000000D03*
X278000000Y-115000000D03*
X280000000Y-114000000D03*
X278000000Y-113000000D03*
X280000000Y-112000000D03*
X278000000Y-111000000D03*
X280000000Y-110000000D03*
X278000000Y-109000000D03*
X280000000Y-108000000D03*
X278000000Y-107000000D03*
X280000000Y-106000000D03*
X278000000Y-105000000D03*
X280000000Y-102000000D03*
X278000000Y-101000000D03*
X280000000Y-100000000D03*
X278000000Y-99000000D03*
X280000000Y-98000000D03*
X278000000Y-97000000D03*
X280000000Y-96000000D03*
X278000000Y-95000000D03*
X280000000Y-94000000D03*
X278000000Y-93000000D03*
X280000000Y-92000000D03*
X278000000Y-91000000D03*
X280000000Y-90000000D03*
X278000000Y-89000000D03*
X280000000Y-88000000D03*
X278000000Y-87000000D03*
X280000000Y-86000000D03*
X278000000Y-85000000D03*
X280000000Y-84000000D03*
X278000000Y-83000000D03*
X280000000Y-82000000D03*
X278000000Y-81000000D03*
X280000000Y-80000000D03*
X278000000Y-79000000D03*
X280000000Y-78000000D03*
X278000000Y-77000000D03*
X280000000Y-76000000D03*
X278000000Y-75000000D03*
X280000000Y-74000000D03*
X278000000Y-73000000D03*
X280000000Y-72000000D03*
X278000000Y-71000000D03*
X280000000Y-70000000D03*
X278000000Y-69000000D03*
X280000000Y-68000000D03*
X278000000Y-67000000D03*
X280000000Y-66000000D03*
X278000000Y-65000000D03*
D11*
X226490068Y-117218607D03*
X226490068Y-115393607D03*
X187860404Y-96726897D03*
X187860404Y-94901897D03*
D24*
X165624201Y-85399999D03*
X159375801Y-85399999D03*
D19*
X176475233Y-130034219D03*
X178300233Y-130034219D03*
D22*
X307500000Y-115000000D03*
D23*
X305500000Y-114000000D03*
X307500000Y-113000000D03*
X305500000Y-112000000D03*
X307500000Y-111000000D03*
X305500000Y-110000000D03*
X307500000Y-109000000D03*
X305500000Y-108000000D03*
X307500000Y-107000000D03*
X305500000Y-106000000D03*
X307500000Y-105000000D03*
X305500000Y-102000000D03*
X307500000Y-101000000D03*
X305500000Y-100000000D03*
X307500000Y-99000000D03*
X305500000Y-98000000D03*
X307500000Y-97000000D03*
X305500000Y-96000000D03*
X307500000Y-95000000D03*
X305500000Y-94000000D03*
X307500000Y-93000000D03*
X305500000Y-92000000D03*
X307500000Y-91000000D03*
X305500000Y-90000000D03*
X307500000Y-89000000D03*
X305500000Y-88000000D03*
X307500000Y-87000000D03*
X305500000Y-86000000D03*
X307500000Y-85000000D03*
X305500000Y-84000000D03*
X307500000Y-83000000D03*
X305500000Y-82000000D03*
X307500000Y-81000000D03*
X305500000Y-80000000D03*
X307500000Y-79000000D03*
X305500000Y-78000000D03*
X307500000Y-77000000D03*
X305500000Y-76000000D03*
X307500000Y-75000000D03*
X305500000Y-74000000D03*
X307500000Y-73000000D03*
X305500000Y-72000000D03*
X307500000Y-71000000D03*
X305500000Y-70000000D03*
X307500000Y-69000000D03*
X305500000Y-68000000D03*
X307500000Y-67000000D03*
X305500000Y-66000000D03*
X307500000Y-65000000D03*
X310000000Y-115000000D03*
X312000000Y-114000000D03*
X310000000Y-113000000D03*
X312000000Y-112000000D03*
X310000000Y-111000000D03*
X312000000Y-110000000D03*
X310000000Y-109000000D03*
X312000000Y-108000000D03*
X310000000Y-107000000D03*
X312000000Y-106000000D03*
X310000000Y-105000000D03*
X312000000Y-102000000D03*
X310000000Y-101000000D03*
X312000000Y-100000000D03*
X310000000Y-99000000D03*
X312000000Y-98000000D03*
X310000000Y-97000000D03*
X312000000Y-96000000D03*
X310000000Y-95000000D03*
X312000000Y-94000000D03*
X310000000Y-93000000D03*
X312000000Y-92000000D03*
X310000000Y-91000000D03*
X312000000Y-90000000D03*
X310000000Y-89000000D03*
X312000000Y-88000000D03*
X310000000Y-87000000D03*
X312000000Y-86000000D03*
X310000000Y-85000000D03*
X312000000Y-84000000D03*
X310000000Y-83000000D03*
X312000000Y-82000000D03*
X310000000Y-81000000D03*
X312000000Y-80000000D03*
X310000000Y-79000000D03*
X312000000Y-78000000D03*
X310000000Y-77000000D03*
X312000000Y-76000000D03*
X310000000Y-75000000D03*
X312000000Y-74000000D03*
X310000000Y-73000000D03*
X312000000Y-72000000D03*
X310000000Y-71000000D03*
X312000000Y-70000000D03*
X310000000Y-69000000D03*
X312000000Y-68000000D03*
X310000000Y-67000000D03*
X312000000Y-66000000D03*
X310000000Y-65000000D03*
D19*
X219587501Y-92399999D03*
X221412501Y-92399999D03*
D28*
X166679446Y-130805561D03*
X166679446Y-132355561D03*
D12*
X196779801Y-111399999D03*
X196779801Y-113939999D03*
X206000001Y-113939999D03*
X206000001Y-111399999D03*
D13*
X205133387Y-57895899D03*
X205133387Y-54945899D03*
D15*
X252000000Y-70087500D03*
X252000000Y-71912500D03*
X252000000Y-65500000D03*
X252000000Y-67325000D03*
D29*
X159150000Y-109490000D03*
X157500000Y-109490000D03*
D22*
X291500000Y-115000000D03*
D23*
X289500000Y-114000000D03*
X291500000Y-113000000D03*
X289500000Y-112000000D03*
X291500000Y-111000000D03*
X289500000Y-110000000D03*
X291500000Y-109000000D03*
X289500000Y-108000000D03*
X291500000Y-107000000D03*
X289500000Y-106000000D03*
X291500000Y-105000000D03*
X289500000Y-102000000D03*
X291500000Y-101000000D03*
X289500000Y-100000000D03*
X291500000Y-99000000D03*
X289500000Y-98000000D03*
X291500000Y-97000000D03*
X289500000Y-96000000D03*
X291500000Y-95000000D03*
X289500000Y-94000000D03*
X291500000Y-93000000D03*
X289500000Y-92000000D03*
X291500000Y-91000000D03*
X289500000Y-90000000D03*
X291500000Y-89000000D03*
X289500000Y-88000000D03*
X291500000Y-87000000D03*
X289500000Y-86000000D03*
X291500000Y-85000000D03*
X289500000Y-84000000D03*
X291500000Y-83000000D03*
X289500000Y-82000000D03*
X291500000Y-81000000D03*
X289500000Y-80000000D03*
X291500000Y-79000000D03*
X289500000Y-78000000D03*
X291500000Y-77000000D03*
X289500000Y-76000000D03*
X291500000Y-75000000D03*
X289500000Y-74000000D03*
X291500000Y-73000000D03*
X289500000Y-72000000D03*
X291500000Y-71000000D03*
X289500000Y-70000000D03*
X291500000Y-69000000D03*
X289500000Y-68000000D03*
X291500000Y-67000000D03*
X289500000Y-66000000D03*
X291500000Y-65000000D03*
X294000000Y-115000000D03*
X296000000Y-114000000D03*
X294000000Y-113000000D03*
X296000000Y-112000000D03*
X294000000Y-111000000D03*
X296000000Y-110000000D03*
X294000000Y-109000000D03*
X296000000Y-108000000D03*
X294000000Y-107000000D03*
X296000000Y-106000000D03*
X294000000Y-105000000D03*
X296000000Y-102000000D03*
X294000000Y-101000000D03*
X296000000Y-100000000D03*
X294000000Y-99000000D03*
X296000000Y-98000000D03*
X294000000Y-97000000D03*
X296000000Y-96000000D03*
X294000000Y-95000000D03*
X296000000Y-94000000D03*
X294000000Y-93000000D03*
X296000000Y-92000000D03*
X294000000Y-91000000D03*
X296000000Y-90000000D03*
X294000000Y-89000000D03*
X296000000Y-88000000D03*
X294000000Y-87000000D03*
X296000000Y-86000000D03*
X294000000Y-85000000D03*
X296000000Y-84000000D03*
X294000000Y-83000000D03*
X296000000Y-82000000D03*
X294000000Y-81000000D03*
X296000000Y-80000000D03*
X294000000Y-79000000D03*
X296000000Y-78000000D03*
X294000000Y-77000000D03*
X296000000Y-76000000D03*
X294000000Y-75000000D03*
X296000000Y-74000000D03*
X294000000Y-73000000D03*
X296000000Y-72000000D03*
X294000000Y-71000000D03*
X296000000Y-70000000D03*
X294000000Y-69000000D03*
X296000000Y-68000000D03*
X294000000Y-67000000D03*
X296000000Y-66000000D03*
X294000000Y-65000000D03*
D11*
X161969597Y-103756145D03*
X161969597Y-101931145D03*
D30*
X239420009Y-127219212D03*
X239420009Y-126199212D03*
D25*
X211684504Y-76168159D03*
X214630904Y-76168159D03*
D11*
X234498985Y-105312499D03*
X234498985Y-103487499D03*
X224348678Y-69595344D03*
X224348678Y-67770344D03*
D31*
X168984158Y-118798145D03*
X168984158Y-120068145D03*
X168984158Y-121338145D03*
X168984158Y-122608145D03*
X174584156Y-122608145D03*
X174584156Y-121338145D03*
X174584156Y-120068145D03*
X174584156Y-118798145D03*
D32*
X183000000Y-87399999D03*
X183500000Y-84500000D03*
X183999999Y-87399999D03*
X184500000Y-84500000D03*
X185000000Y-87399999D03*
X185500000Y-84500000D03*
X186000000Y-87399999D03*
X186500000Y-84500000D03*
X187000000Y-87399999D03*
X187500000Y-84500000D03*
X188000000Y-87399999D03*
X188500000Y-84500000D03*
X189000000Y-87399999D03*
X189500000Y-84500000D03*
X190000000Y-87399999D03*
X190500000Y-84500000D03*
X191000000Y-87399999D03*
X191500000Y-84500000D03*
X192000000Y-87399999D03*
X192500000Y-84500000D03*
X193000000Y-87399999D03*
X193500000Y-84500000D03*
X194000000Y-87399999D03*
X194500000Y-84500000D03*
X195000000Y-87399999D03*
X195500000Y-84500000D03*
X196000000Y-87399999D03*
X196500000Y-84500000D03*
X197000000Y-87399999D03*
X197500000Y-84500000D03*
X198000000Y-87399999D03*
X198500000Y-84500000D03*
X199000000Y-87399999D03*
X199500001Y-84500000D03*
X200000000Y-87399999D03*
X200500000Y-84500000D03*
X201000001Y-87399999D03*
X201500000Y-84500000D03*
X202000001Y-87399999D03*
X202500000Y-84500000D03*
D33*
X181999997Y-87300000D03*
X203499957Y-87300000D03*
X181999997Y-84600000D03*
X203499957Y-84600000D03*
D11*
X211889901Y-115082499D03*
X211889901Y-113257499D03*
D17*
X205289901Y-116687898D03*
X202489901Y-116687898D03*
D19*
X240747978Y-126637384D03*
X242572978Y-126637384D03*
D17*
X212100001Y-65899999D03*
X214900001Y-65899999D03*
X224900001Y-106899999D03*
X222100001Y-106899999D03*
D11*
X224064449Y-64441523D03*
X224064449Y-62616523D03*
D34*
X162823134Y-109402520D03*
X160998134Y-109402520D03*
D15*
X269000000Y-76587500D03*
X269000000Y-78412500D03*
D12*
X193279801Y-57899999D03*
X193279801Y-60439999D03*
X202500001Y-60439999D03*
X202500001Y-57899999D03*
D29*
X245994833Y-127038860D03*
X244344833Y-127038860D03*
D11*
X209273998Y-69556362D03*
X209273998Y-67731362D03*
D34*
X172072124Y-134143895D03*
X170247124Y-134143895D03*
D25*
X207212042Y-69679018D03*
X204265642Y-69679018D03*
D13*
X236740386Y-71771762D03*
X236740386Y-68821762D03*
X155000000Y-109465000D03*
X155000000Y-106515000D03*
D35*
X168746900Y-124499998D03*
X168746900Y-125799997D03*
X168746900Y-127099997D03*
X168746900Y-127749996D03*
X168746900Y-128399997D03*
X168746900Y-129049996D03*
X168746900Y-129699997D03*
X168746900Y-130349996D03*
X174500000Y-130349998D03*
X174500000Y-129700000D03*
X174500000Y-129049999D03*
X174500000Y-128400000D03*
X174500000Y-127749999D03*
X174500000Y-127100000D03*
X174500000Y-125800000D03*
X174500000Y-124500000D03*
D36*
X171623450Y-127424998D03*
D13*
X234732791Y-101672058D03*
X234732791Y-98722058D03*
D18*
X206867193Y-78617394D03*
X206867193Y-72368994D03*
X199550415Y-78574738D03*
X199550415Y-72326338D03*
D37*
X248948932Y-132745486D03*
X245998932Y-132745486D03*
D34*
X178294661Y-132095083D03*
X176469661Y-132095083D03*
D25*
X214635371Y-92580801D03*
X217581771Y-92580801D03*
D15*
X159610467Y-102581360D03*
X159610467Y-104406360D03*
D17*
X192584042Y-63241426D03*
X195384042Y-63241426D03*
D11*
X190611385Y-58968466D03*
X190611385Y-57143466D03*
D38*
X164298543Y-108848213D03*
X164298543Y-109868213D03*
D11*
X194231306Y-112225059D03*
X194231306Y-110400059D03*
D17*
X201400001Y-63283584D03*
X198600001Y-63283584D03*
D25*
X203473201Y-101899999D03*
X200526801Y-101899999D03*
D34*
X242593029Y-128679815D03*
X240768029Y-128679815D03*
D11*
X214353234Y-111411683D03*
X214353234Y-109586683D03*
D15*
X188099616Y-73982122D03*
X188099616Y-75807122D03*
D19*
X216587501Y-76399999D03*
X218412501Y-76399999D03*
D12*
X224889901Y-71629999D03*
X224889901Y-74169999D03*
X234110101Y-74169999D03*
X234110101Y-71629999D03*
D15*
X301500000Y-76587500D03*
X301500000Y-78412500D03*
D18*
X210000001Y-92275799D03*
X210000001Y-98524199D03*
X176500001Y-80524199D03*
X176500001Y-74275799D03*
D15*
X271500000Y-72587500D03*
X271500000Y-74412500D03*
D11*
X205000001Y-61724999D03*
X205000001Y-59899999D03*
D17*
X231400001Y-106899999D03*
X228600001Y-106899999D03*
D39*
X172000000Y-105340000D03*
D40*
X172000000Y-115500000D03*
D19*
X177627466Y-134112178D03*
X179452466Y-134112178D03*
D16*
X183680001Y-71452499D03*
X183680001Y-78312499D03*
D41*
X240734260Y-130608362D03*
X240234259Y-130608362D03*
X239734259Y-130608362D03*
X239234258Y-130608362D03*
X239234258Y-133402362D03*
X239734259Y-133402362D03*
X240234259Y-133402362D03*
X240734260Y-133402362D03*
D42*
X239984259Y-132005362D03*
D18*
X169000000Y-80524199D03*
X169000000Y-74275799D03*
D11*
X196389901Y-109082499D03*
X196389901Y-107257499D03*
X222205458Y-73157644D03*
X222205458Y-71332644D03*
D15*
X180146398Y-129948735D03*
X180146398Y-131773735D03*
D17*
X195989901Y-116669999D03*
X198789901Y-116669999D03*
D18*
X169000001Y-90399999D03*
X169000001Y-96648399D03*
D34*
X168612753Y-134143118D03*
X166787753Y-134143118D03*
D11*
X242905960Y-133650421D03*
X242905960Y-131825421D03*
D25*
X199973201Y-69399999D03*
X197026801Y-69399999D03*
D24*
X214875801Y-87899999D03*
X221124201Y-87899999D03*
D43*
X161211857Y-105727512D03*
X161211857Y-106227513D03*
X161211857Y-106727513D03*
X161211857Y-107227514D03*
X164005857Y-107227514D03*
X164005857Y-106727513D03*
X164005857Y-106227513D03*
X164005857Y-105727512D03*
D44*
X162608857Y-106477513D03*
D11*
X192761454Y-55764442D03*
X192761454Y-53939442D03*
D15*
X285500000Y-76675000D03*
X285500000Y-78500000D03*
D45*
X175000000Y-106500000D03*
X179000000Y-136000000D03*
X218500000Y-96000000D03*
X244000000Y-129000000D03*
X287500000Y-98000000D03*
X299000000Y-88000000D03*
X184000000Y-69500000D03*
X156500000Y-81500000D03*
X199500000Y-103500000D03*
X213000000Y-72000000D03*
X187000000Y-86000000D03*
X165499999Y-108590001D03*
X254500000Y-89000000D03*
X217000000Y-114500000D03*
X226000000Y-65500000D03*
X299000000Y-81000000D03*
X176000000Y-127500000D03*
X319500000Y-69500000D03*
X211000000Y-70500000D03*
X303500000Y-88000000D03*
X299000000Y-98000000D03*
X287500000Y-96000000D03*
X215000000Y-99500000D03*
X266000000Y-81000000D03*
X191500000Y-86000000D03*
X239000000Y-73500000D03*
X200500000Y-70500000D03*
X204000000Y-66500000D03*
X187500000Y-69000000D03*
X315000000Y-98000000D03*
X271500000Y-88000000D03*
X220000000Y-81500000D03*
X175000000Y-83000000D03*
X216000000Y-74370997D03*
X199500000Y-113500000D03*
X154499999Y-111090001D03*
X220500000Y-105000000D03*
X271000000Y-71000000D03*
X195500000Y-68000000D03*
X220500000Y-68000000D03*
X235000000Y-108500000D03*
X227000000Y-75000000D03*
X190500000Y-86000000D03*
X210500000Y-64000000D03*
X303500000Y-81000000D03*
X218000000Y-94000000D03*
X220000000Y-94000000D03*
X161500000Y-98500000D03*
X208805649Y-51500000D03*
X190500000Y-97500000D03*
X155500000Y-91500000D03*
X240000000Y-69000000D03*
X175500000Y-71500000D03*
X266000000Y-89000000D03*
X266000000Y-96000000D03*
X299000000Y-96000000D03*
X226000000Y-58000000D03*
X220000000Y-80000000D03*
X271500000Y-96000000D03*
X186000000Y-97000000D03*
X176750000Y-69250000D03*
X283000000Y-110000000D03*
X178500000Y-87000000D03*
X319500000Y-88000000D03*
X165000000Y-131500000D03*
X204000000Y-120000000D03*
X211000000Y-72500000D03*
X195500000Y-61000000D03*
X215000000Y-74500000D03*
X225000000Y-88500000D03*
X254500000Y-107000000D03*
X237500000Y-131500000D03*
X187000000Y-101500000D03*
X204000000Y-105000000D03*
X266000000Y-107000000D03*
X205500000Y-53000000D03*
X198000000Y-61000000D03*
X198500000Y-102500000D03*
X157500000Y-86000000D03*
X170500000Y-99000000D03*
X205000000Y-66500000D03*
X287500000Y-107000000D03*
X319500000Y-98000000D03*
X158500000Y-78000000D03*
X159499999Y-110590001D03*
X299000000Y-89000000D03*
X254000000Y-96000000D03*
X248500000Y-134500000D03*
X219000000Y-116500000D03*
X189000000Y-64000000D03*
X182500000Y-73500000D03*
X266000000Y-110000000D03*
X202000000Y-65000000D03*
X212000000Y-71500000D03*
X214500000Y-106000000D03*
X190500000Y-75500000D03*
X183000000Y-101500000D03*
X254500000Y-88000000D03*
X315000000Y-107000000D03*
X266000000Y-88000000D03*
X222500000Y-109500000D03*
X225500000Y-108500000D03*
X254500000Y-110000000D03*
X165499999Y-107090001D03*
X283500000Y-89000000D03*
X165000000Y-130000000D03*
X239000000Y-76000000D03*
X229000000Y-111000000D03*
X202129003Y-70500000D03*
X303500000Y-89000000D03*
X189000000Y-54000000D03*
X226000000Y-64000000D03*
X191000000Y-69000000D03*
X283000000Y-107000000D03*
X319500000Y-89000000D03*
X236500000Y-98500000D03*
X203000000Y-70500000D03*
X169500000Y-69500000D03*
X216000000Y-75000000D03*
X169500000Y-98500000D03*
X254500000Y-81000000D03*
X234500000Y-78500000D03*
X175000000Y-131500000D03*
X287500000Y-110000000D03*
X271500000Y-81000000D03*
X176000000Y-128500000D03*
X287500000Y-88000000D03*
X191500000Y-113500000D03*
X225500000Y-101000000D03*
X239500000Y-135000000D03*
X227500000Y-72500000D03*
X194500000Y-86000000D03*
X201500000Y-70500000D03*
X319500000Y-96000000D03*
X283000000Y-81000000D03*
X315000000Y-96000000D03*
X209750000Y-116250000D03*
X285000000Y-75500000D03*
X301000000Y-75000000D03*
X185500000Y-86000000D03*
X319500000Y-107000000D03*
X163500000Y-79500000D03*
X170000000Y-100500000D03*
X207000000Y-60000000D03*
X207000000Y-102500000D03*
X319500000Y-81000000D03*
X234000000Y-108500000D03*
X316500000Y-74000000D03*
X287500000Y-89000000D03*
X286500000Y-71000000D03*
X193500000Y-122500000D03*
X155000000Y-90500000D03*
X315000000Y-81000000D03*
X251500000Y-64500000D03*
X303500000Y-98000000D03*
X173500000Y-82500000D03*
X208000000Y-105500000D03*
X159999999Y-109090001D03*
X190500000Y-73500000D03*
X315000000Y-110000000D03*
X191500000Y-101500000D03*
X199000000Y-86000000D03*
X195500000Y-102000000D03*
X315000000Y-88000000D03*
X185500000Y-95500000D03*
X287500000Y-81000000D03*
X303500000Y-96000000D03*
X206500000Y-122000000D03*
X208500000Y-110000000D03*
X225000000Y-87000000D03*
X212000000Y-70000000D03*
X283000000Y-98000000D03*
X283000000Y-96000000D03*
X205000000Y-106500000D03*
X253500000Y-60000000D03*
X161500000Y-136000000D03*
X271500000Y-107000000D03*
X247500000Y-127500000D03*
X196000000Y-103000000D03*
X283500000Y-88000000D03*
X223000000Y-94000000D03*
X171500000Y-101500000D03*
X216500000Y-100500000D03*
X266000000Y-98000000D03*
X218500000Y-58500000D03*
X179000000Y-98500000D03*
X271500000Y-110000000D03*
X254000000Y-98000000D03*
X238000000Y-129500000D03*
X271500000Y-89000000D03*
X303500000Y-107000000D03*
X225500000Y-122500000D03*
X206750000Y-62250000D03*
X163500000Y-133500000D03*
X163500000Y-91500000D03*
X251500000Y-69000000D03*
X315000000Y-89000000D03*
X204660339Y-100812426D03*
X183000000Y-69500000D03*
X214000000Y-122500000D03*
X319500000Y-110000000D03*
X169000000Y-72000000D03*
X299000000Y-107000000D03*
X171750000Y-82250000D03*
X223000000Y-120500000D03*
X299000000Y-110000000D03*
X214500000Y-102500000D03*
X303500000Y-110000000D03*
X230000000Y-118000000D03*
X266500000Y-75500000D03*
X178500000Y-100500000D03*
X239000000Y-134500000D03*
X164999999Y-107590001D03*
X165499999Y-105090001D03*
X254000000Y-97000000D03*
X166500000Y-137000000D03*
X241000000Y-134500000D03*
X252000000Y-106000000D03*
X182250000Y-76250000D03*
X181000000Y-93000000D03*
X186000000Y-69500000D03*
X188500000Y-80500000D03*
X190500000Y-77500000D03*
X254000000Y-102000000D03*
X188500000Y-90000000D03*
X185500000Y-94500000D03*
X254000000Y-100000000D03*
X241000000Y-96500000D03*
X195000000Y-77500000D03*
X221000000Y-79500000D03*
X212000000Y-52000000D03*
X177000000Y-119000000D03*
X229000000Y-104000000D03*
X171500000Y-124500000D03*
X212000000Y-118000000D03*
X194862101Y-90637899D03*
X228500000Y-78500000D03*
X199000000Y-120000000D03*
X219000000Y-119000000D03*
X173000000Y-124500000D03*
X198500000Y-91000000D03*
X206500000Y-52000000D03*
X191500000Y-118500000D03*
X220500000Y-116500000D03*
X196000000Y-65000000D03*
X199500000Y-91000000D03*
X221000000Y-68500000D03*
X215250000Y-67250000D03*
X197500000Y-102000000D03*
X179000000Y-122000000D03*
X196000000Y-58000000D03*
X187000000Y-59500000D03*
X227500000Y-104000000D03*
X228500000Y-66500000D03*
X200500000Y-117000000D03*
X171000000Y-130000000D03*
X190000000Y-93500000D03*
X238500000Y-128500000D03*
X159999999Y-111090001D03*
X159999999Y-108090001D03*
X165999999Y-105590001D03*
X158999999Y-111590001D03*
X208000000Y-65000000D03*
X215500000Y-58000000D03*
X217000000Y-71500000D03*
X218000000Y-70000000D03*
X195500000Y-86000000D03*
X228500000Y-75000000D03*
X230500000Y-75000000D03*
X198750000Y-82750000D03*
X196250000Y-82750000D03*
X196500000Y-86000000D03*
X197750000Y-82750000D03*
X197500000Y-86000000D03*
X201500000Y-55000000D03*
X231500000Y-99500000D03*
X205000000Y-56500000D03*
X226500000Y-60500000D03*
X239000000Y-72500000D03*
X233000000Y-69500000D03*
X244500000Y-131000000D03*
X221500000Y-114000000D03*
X210500000Y-112000000D03*
X229000000Y-113000000D03*
X235000000Y-100500000D03*
X203500000Y-112000000D03*
X219500000Y-61000000D03*
X176000000Y-102500000D03*
X184000000Y-67500000D03*
X250000000Y-108000000D03*
X158500000Y-93500000D03*
X244500000Y-93500000D03*
X254500000Y-94000000D03*
X168500000Y-102500000D03*
X252500000Y-90000000D03*
X254500000Y-92000000D03*
X246000000Y-114000000D03*
X248000000Y-112000000D03*
X254500000Y-87000000D03*
X213000000Y-51500000D03*
X254500000Y-85000000D03*
X226000000Y-53500000D03*
X254500000Y-83000000D03*
X254500000Y-82000000D03*
X159000000Y-79000000D03*
X159000000Y-95500000D03*
X173500000Y-101000000D03*
X165000000Y-74500000D03*
X154000000Y-89000000D03*
X161500000Y-81500000D03*
X169000000Y-101000000D03*
X155499999Y-105090001D03*
X165000000Y-91500000D03*
X173500000Y-100000000D03*
X160500000Y-73500000D03*
X156499999Y-105090001D03*
X156499999Y-103590001D03*
X163000000Y-71000000D03*
X178000000Y-69000000D03*
X172500000Y-83500000D03*
X180500000Y-71000000D03*
X179500000Y-87500000D03*
X157999999Y-104590001D03*
X162500000Y-90500000D03*
X157500000Y-93000000D03*
X167500000Y-88000000D03*
X165000000Y-81000000D03*
X183500000Y-86000000D03*
X171000000Y-87500000D03*
X172500000Y-88500000D03*
X178000000Y-83500000D03*
X173500000Y-88500000D03*
X156499999Y-108590001D03*
X163499999Y-104090001D03*
X227000000Y-121500000D03*
X224000000Y-120000000D03*
X208000000Y-122000000D03*
X203000000Y-120000000D03*
X174500000Y-134500000D03*
D46*
X173840000Y-105340000D02*
X175000000Y-106500000D01*
X172000000Y-105340000D02*
X173840000Y-105340000D01*
X162558097Y-127099997D02*
X160500000Y-125041900D01*
X168746900Y-127099997D02*
X162558097Y-127099997D01*
X160500000Y-128037500D02*
X161000000Y-128537500D01*
X160500000Y-125041900D02*
X160500000Y-128037500D01*
X160500000Y-117000000D02*
X164500000Y-121000000D01*
X164500000Y-121000000D02*
X165000000Y-121000000D01*
X165000000Y-121000000D02*
X165338145Y-121338145D01*
X160500000Y-114958100D02*
X160500000Y-117000000D01*
X165338145Y-121338145D02*
X168984158Y-121338145D01*
X167500000Y-115500000D02*
X166958100Y-114958100D01*
X172000000Y-115500000D02*
X167500000Y-115500000D01*
X160500000Y-114958100D02*
X166958100Y-114958100D01*
X158000000Y-97000000D02*
X158000000Y-94000000D01*
X158500000Y-97500000D02*
X158000000Y-97000000D01*
X159500000Y-97500000D02*
X158500000Y-97500000D01*
X190500000Y-128500000D02*
X159500000Y-97500000D01*
X230500000Y-128500000D02*
X190500000Y-128500000D01*
X158000000Y-94000000D02*
X158500000Y-93500000D01*
X241000000Y-115500000D02*
X240500000Y-116000000D01*
X240500000Y-116000000D02*
X240500000Y-118500000D01*
X240500000Y-118500000D02*
X230500000Y-128500000D01*
X258500000Y-115000000D02*
X258000000Y-115500000D01*
X258000000Y-115500000D02*
X241000000Y-115500000D01*
X234498985Y-107998985D02*
X235000000Y-108500000D01*
X289500000Y-110000000D02*
X287500000Y-110000000D01*
X159999999Y-108802765D02*
X159999999Y-109090001D01*
X185500000Y-85000000D02*
X185500000Y-86000000D01*
X305500000Y-98000000D02*
X303500000Y-98000000D01*
X280000000Y-110000000D02*
X283000000Y-110000000D01*
X197026801Y-69399999D02*
X195626802Y-68000000D01*
D47*
X210964001Y-99488199D02*
X210000001Y-98524199D01*
D46*
X273000000Y-110000000D02*
X271500000Y-110000000D01*
X275000000Y-107000000D02*
X271500000Y-107000000D01*
X319047203Y-71405605D02*
X319047203Y-69952797D01*
X269000000Y-76587500D02*
X269000000Y-76000000D01*
X155000000Y-109465000D02*
X155000000Y-110590000D01*
X160496600Y-107873838D02*
X160503999Y-107881237D01*
X263000000Y-88000000D02*
X266000000Y-88000000D01*
X192680001Y-70680001D02*
X191000000Y-69000000D01*
X263000000Y-98000000D02*
X266000000Y-98000000D01*
X206224999Y-61724999D02*
X205000001Y-61724999D01*
X273500000Y-96000000D02*
X271500000Y-96000000D01*
X321500000Y-98000000D02*
X319500000Y-98000000D01*
X261000000Y-107000000D02*
X266000000Y-107000000D01*
X239734259Y-130001962D02*
X239734259Y-130608362D01*
D47*
X183455001Y-101044999D02*
X183000000Y-101500000D01*
D46*
X212389901Y-63169999D02*
X211330001Y-63169999D01*
X190500000Y-84500000D02*
X190500000Y-85000000D01*
X273500000Y-110000000D02*
X273000000Y-110000000D01*
D47*
X205133387Y-53366613D02*
X205500000Y-53000000D01*
D46*
X234732791Y-98722058D02*
X236277942Y-98722058D01*
X160503999Y-108298765D02*
X159999999Y-108802765D01*
D47*
X183455001Y-99242499D02*
X183455001Y-101044999D01*
D46*
X188982122Y-73982122D02*
X190500000Y-75500000D01*
X271500000Y-71500000D02*
X271000000Y-71000000D01*
X319047203Y-69952797D02*
X319500000Y-69500000D01*
X223289901Y-118669999D02*
X223289901Y-120210099D01*
D48*
X211929994Y-71429994D02*
X212000000Y-71500000D01*
D46*
X183680001Y-71452499D02*
X183680001Y-69819999D01*
X256500000Y-98000000D02*
X256000000Y-98000000D01*
X165499999Y-107090001D02*
X165137511Y-106727513D01*
X294000000Y-107000000D02*
X299000000Y-107000000D01*
X323500000Y-81000000D02*
X319500000Y-81000000D01*
X169000001Y-96648399D02*
X169000001Y-99500001D01*
X169000001Y-99500001D02*
X170000000Y-100500000D01*
X307500000Y-89000000D02*
X303500000Y-89000000D01*
X179452466Y-134112178D02*
X179452466Y-135547534D01*
X294000000Y-81000000D02*
X299000000Y-81000000D01*
X160669601Y-106740000D02*
X161199370Y-106740000D01*
X280000000Y-98000000D02*
X283000000Y-98000000D01*
X225819455Y-57819455D02*
X226000000Y-58000000D01*
X268500000Y-75500000D02*
X267000000Y-75500000D01*
X159375801Y-85399999D02*
X158100001Y-85399999D01*
D47*
X215000000Y-99500000D02*
X214988199Y-99488199D01*
X214988199Y-99488199D02*
X210964001Y-99488199D01*
D46*
X258500000Y-107000000D02*
X258000000Y-107000000D01*
X179452466Y-135547534D02*
X179000000Y-136000000D01*
X160503999Y-107881237D02*
X160503999Y-108298765D01*
X273500000Y-88000000D02*
X273000000Y-88000000D01*
X205289901Y-118710099D02*
X204000000Y-120000000D01*
X323500000Y-107000000D02*
X319500000Y-107000000D01*
X252000000Y-65500000D02*
X252000000Y-65000000D01*
X161199370Y-106740000D02*
X161211857Y-106727513D01*
X213187501Y-103812499D02*
X214500000Y-102500000D01*
D47*
X159150000Y-109490000D02*
X159150000Y-110240002D01*
D48*
X207806193Y-71429994D02*
X211929994Y-71429994D01*
D46*
X216587501Y-76399999D02*
X216587501Y-75587501D01*
X205289901Y-116687898D02*
X205289901Y-118710099D01*
X158100001Y-85399999D02*
X157500000Y-86000000D01*
X223289901Y-120210099D02*
X223000000Y-120500000D01*
X174500000Y-127749999D02*
X175750001Y-127749999D01*
X321500000Y-110000000D02*
X319500000Y-110000000D01*
X239232297Y-129500000D02*
X239734259Y-130001962D01*
X296000000Y-110000000D02*
X299000000Y-110000000D01*
X280000000Y-96000000D02*
X283000000Y-96000000D01*
X254000000Y-61587500D02*
X254000000Y-60500000D01*
X261000000Y-81000000D02*
X261500000Y-81000000D01*
X239734259Y-134765741D02*
X239500000Y-135000000D01*
X183680001Y-69819999D02*
X184000000Y-69500000D01*
D47*
X186000000Y-97000000D02*
X186273103Y-96726897D01*
D46*
X278000000Y-81000000D02*
X283000000Y-81000000D01*
X225000000Y-87500000D02*
X225000000Y-87000000D01*
X278000000Y-107000000D02*
X283000000Y-107000000D01*
X192680001Y-71382499D02*
X192680001Y-70680001D01*
X238000000Y-129500000D02*
X239232297Y-129500000D01*
X175900000Y-128400000D02*
X176000000Y-128500000D01*
X224215188Y-57819455D02*
X225819455Y-57819455D01*
X218439999Y-115939999D02*
X219000000Y-116500000D01*
X291500000Y-89000000D02*
X294000000Y-89000000D01*
X224900001Y-106899999D02*
X224900001Y-107900001D01*
X289500000Y-98000000D02*
X289000000Y-98000000D01*
X291500000Y-81000000D02*
X287500000Y-81000000D01*
X236277942Y-98722058D02*
X236500000Y-98500000D01*
X226169999Y-74169999D02*
X224889901Y-74169999D01*
X195000000Y-87399999D02*
X195000000Y-86500000D01*
D47*
X202000001Y-70370998D02*
X202129003Y-70500000D01*
D46*
X312000000Y-110000000D02*
X315000000Y-110000000D01*
X256000000Y-98000000D02*
X254000000Y-98000000D01*
X258000000Y-107000000D02*
X254500000Y-107000000D01*
X258500000Y-89000000D02*
X254500000Y-89000000D01*
X321000000Y-88000000D02*
X319500000Y-88000000D01*
X209750000Y-116250000D02*
X208582499Y-115082499D01*
X296000000Y-96000000D02*
X299000000Y-96000000D01*
X239821762Y-68821762D02*
X240000000Y-69000000D01*
X224900001Y-107900001D02*
X225500000Y-108500000D01*
X312000000Y-96000000D02*
X315000000Y-96000000D01*
D47*
X204000000Y-104500000D02*
X204000000Y-105000000D01*
D46*
X166679446Y-132355561D02*
X165855561Y-132355561D01*
X160496600Y-106913001D02*
X160496600Y-107873838D01*
X216587501Y-75587501D02*
X216000000Y-75000000D01*
X221330001Y-104169999D02*
X220500000Y-105000000D01*
X291500000Y-107000000D02*
X287500000Y-107000000D01*
X217581771Y-92580801D02*
X217581771Y-93581771D01*
X160669601Y-106740000D02*
X160496600Y-106913001D01*
X208542967Y-109957033D02*
X208500000Y-110000000D01*
X192275001Y-99329999D02*
X192275001Y-100724999D01*
X207000000Y-102500000D02*
X207526801Y-101973199D01*
X263000000Y-110000000D02*
X266000000Y-110000000D01*
X203000001Y-99152088D02*
X204660339Y-100812426D01*
X169000001Y-72999999D02*
X169500000Y-72500000D01*
X174500000Y-131000000D02*
X175000000Y-131500000D01*
X271500000Y-72587500D02*
X271500000Y-71500000D01*
X303500000Y-81000000D02*
X307500000Y-81000000D01*
X190500000Y-85000000D02*
X190500000Y-86000000D01*
X204265642Y-69679018D02*
X204265642Y-67234358D01*
X212000000Y-70000000D02*
X211556362Y-69556362D01*
D47*
X202000001Y-69312499D02*
X202000001Y-70370998D01*
D46*
X195000000Y-86500000D02*
X194500000Y-86000000D01*
X174500000Y-130349998D02*
X174500000Y-131000000D01*
X219399999Y-80899999D02*
X218124201Y-80899999D01*
X234498985Y-105312499D02*
X234498985Y-107998985D01*
X194939999Y-60439999D02*
X195500000Y-61000000D01*
X229218607Y-117218607D02*
X230000000Y-118000000D01*
X228439347Y-110439347D02*
X229000000Y-111000000D01*
X285500000Y-76675000D02*
X285500000Y-76000000D01*
X254000000Y-60500000D02*
X253500000Y-60000000D01*
X222889901Y-104169999D02*
X221330001Y-104169999D01*
X236584515Y-75312499D02*
X238312499Y-75312499D01*
X169000001Y-74275799D02*
X169000001Y-72999999D01*
X226597292Y-110439347D02*
X228439347Y-110439347D01*
X199550415Y-72326338D02*
X199550415Y-71449585D01*
X177024199Y-96524199D02*
X179000000Y-98500000D01*
X197000001Y-98173299D02*
X197000001Y-99487499D01*
X301500000Y-76587500D02*
X301500000Y-75500000D01*
X321000000Y-96000000D02*
X319500000Y-96000000D01*
X289500000Y-88000000D02*
X287500000Y-88000000D01*
X238005362Y-132005362D02*
X237500000Y-131500000D01*
X294000000Y-89000000D02*
X299000000Y-89000000D01*
X296000000Y-98000000D02*
X299000000Y-98000000D01*
X220000000Y-81500000D02*
X219399999Y-80899999D01*
X236740386Y-68821762D02*
X239821762Y-68821762D01*
X196587501Y-99899999D02*
X196587501Y-100912499D01*
X252000000Y-69500000D02*
X251500000Y-69000000D01*
X219587501Y-92399999D02*
X219587501Y-93587501D01*
X224064449Y-64441523D02*
X224941523Y-64441523D01*
X165137511Y-106727513D02*
X164005857Y-106727513D01*
D48*
X206867193Y-72368994D02*
X207806193Y-71429994D01*
D46*
X233900001Y-76899999D02*
X233900001Y-77900001D01*
X296000000Y-88000000D02*
X299000000Y-88000000D01*
D47*
X186273103Y-96726897D02*
X187860404Y-96726897D01*
D46*
X307500000Y-107000000D02*
X303500000Y-107000000D01*
X176500001Y-72500001D02*
X175500000Y-71500000D01*
X162608857Y-106477513D02*
X162858857Y-106727513D01*
X211556362Y-69556362D02*
X209273998Y-69556362D01*
X321500000Y-96000000D02*
X321000000Y-96000000D01*
D47*
X220900001Y-65899999D02*
X220900001Y-67599999D01*
D46*
X310000000Y-107000000D02*
X310500000Y-107000000D01*
X245994833Y-127038860D02*
X247038860Y-127038860D01*
X233900001Y-77900001D02*
X234500000Y-78500000D01*
X247038860Y-127038860D02*
X247500000Y-127500000D01*
X197000001Y-99487499D02*
X196587501Y-99899999D01*
X201400001Y-63283584D02*
X201400001Y-64400001D01*
X208542967Y-108419992D02*
X208542967Y-109957033D01*
X275500000Y-107000000D02*
X275000000Y-107000000D01*
X291500000Y-89000000D02*
X287500000Y-89000000D01*
X256500000Y-96000000D02*
X256000000Y-96000000D01*
X176500001Y-74275799D02*
X176500001Y-72500001D01*
X312000000Y-88000000D02*
X315000000Y-88000000D01*
X275500000Y-89000000D02*
X271500000Y-89000000D01*
X201400001Y-64400001D02*
X202000000Y-65000000D01*
X278000000Y-89000000D02*
X283500000Y-89000000D01*
X310000000Y-81000000D02*
X315000000Y-81000000D01*
X217581771Y-93581771D02*
X218000000Y-94000000D01*
X224600001Y-87899999D02*
X225000000Y-87500000D01*
X185500000Y-84500000D02*
X185500000Y-85000000D01*
X214779801Y-115939999D02*
X218439999Y-115939999D01*
X169500000Y-72500000D02*
X169500000Y-69500000D01*
X162858857Y-106727513D02*
X164005857Y-106727513D01*
X219587501Y-93587501D02*
X220000000Y-94000000D01*
X207526801Y-101973199D02*
X207526801Y-101399999D01*
X305500000Y-88000000D02*
X303500000Y-88000000D01*
X301500000Y-75500000D02*
X301000000Y-75000000D01*
X196779801Y-113939999D02*
X199060001Y-113939999D01*
D47*
X205133387Y-54945899D02*
X205133387Y-53366613D01*
D46*
X252000000Y-70087500D02*
X252000000Y-69500000D01*
X239984259Y-132005362D02*
X238005362Y-132005362D01*
X195626802Y-68000000D02*
X195500000Y-68000000D01*
X196587501Y-100912499D02*
X195500000Y-102000000D01*
X199000000Y-87399999D02*
X199000000Y-86000000D01*
X261500000Y-89000000D02*
X266000000Y-89000000D01*
X164975000Y-133500000D02*
X163500000Y-133500000D01*
X256000000Y-88000000D02*
X254500000Y-88000000D01*
X312000000Y-98000000D02*
X312500000Y-98000000D01*
X192275001Y-100724999D02*
X191500000Y-101500000D01*
D47*
X220900001Y-67599999D02*
X220500000Y-68000000D01*
D46*
X239734259Y-133402362D02*
X239734259Y-134765741D01*
X203000001Y-99024199D02*
X203000001Y-99152088D01*
X312500000Y-98000000D02*
X315000000Y-98000000D01*
X200526801Y-101899999D02*
X199100001Y-101899999D01*
D47*
X204687501Y-103812499D02*
X204000000Y-104500000D01*
D46*
X248948932Y-132745486D02*
X248948932Y-134051068D01*
X165241787Y-108848213D02*
X165499999Y-108590001D01*
X256500000Y-88000000D02*
X256000000Y-88000000D01*
X263000000Y-96000000D02*
X266000000Y-96000000D01*
X273000000Y-88000000D02*
X271500000Y-88000000D01*
X323500000Y-89000000D02*
X319500000Y-89000000D01*
X165855561Y-132355561D02*
X165500000Y-132000000D01*
X199100001Y-101899999D02*
X198500000Y-102500000D01*
X275500000Y-81000000D02*
X271500000Y-81000000D01*
X248948932Y-134051068D02*
X248500000Y-134500000D01*
X199550415Y-71449585D02*
X200500000Y-70500000D01*
X206750000Y-62250000D02*
X206224999Y-61724999D01*
X289500000Y-96000000D02*
X287500000Y-96000000D01*
X176500001Y-96524199D02*
X177024199Y-96524199D01*
X289000000Y-98000000D02*
X287500000Y-98000000D01*
X164298543Y-108848213D02*
X165241787Y-108848213D01*
X165225000Y-129775000D02*
X165000000Y-130000000D01*
X285500000Y-76000000D02*
X285000000Y-75500000D01*
X269000000Y-76000000D02*
X268500000Y-75500000D01*
X256500000Y-110000000D02*
X254500000Y-110000000D01*
X226490068Y-117218607D02*
X229218607Y-117218607D01*
X280000000Y-88000000D02*
X280500000Y-88000000D01*
X305000000Y-110000000D02*
X303500000Y-110000000D01*
X211330001Y-63169999D02*
X210500000Y-64000000D01*
X305000000Y-96000000D02*
X303500000Y-96000000D01*
X287000000Y-71500000D02*
X286500000Y-71000000D01*
D47*
X205500001Y-103812499D02*
X204687501Y-103812499D01*
D46*
X191500000Y-84500000D02*
X191500000Y-85000000D01*
X305500000Y-96000000D02*
X305000000Y-96000000D01*
X238312499Y-75312499D02*
X239000000Y-76000000D01*
X214630904Y-74869096D02*
X215000000Y-74500000D01*
X204265642Y-67234358D02*
X205000000Y-66500000D01*
X321500000Y-88000000D02*
X321000000Y-88000000D01*
X188099616Y-73982122D02*
X188982122Y-73982122D01*
X317000000Y-75137500D02*
X317000000Y-74500000D01*
X252000000Y-65000000D02*
X251500000Y-64500000D01*
X258500000Y-81000000D02*
X254500000Y-81000000D01*
X305500000Y-110000000D02*
X305000000Y-110000000D01*
X208582499Y-115082499D02*
X208398193Y-115082499D01*
X165500000Y-132000000D02*
X165000000Y-131500000D01*
X165225000Y-128500000D02*
X165225000Y-129775000D01*
X267000000Y-75500000D02*
X266500000Y-75500000D01*
X191500000Y-85000000D02*
X191500000Y-86000000D01*
X199060001Y-113939999D02*
X199500000Y-113500000D01*
X175750001Y-127749999D02*
X176000000Y-127500000D01*
X261000000Y-89000000D02*
X261500000Y-89000000D01*
X195500000Y-84500000D02*
X195500000Y-85000000D01*
X224941523Y-64441523D02*
X226000000Y-65500000D01*
X227000000Y-75000000D02*
X226169999Y-74169999D01*
X221124201Y-87899999D02*
X224600001Y-87899999D01*
X310500000Y-107000000D02*
X315000000Y-107000000D01*
X256000000Y-96000000D02*
X254000000Y-96000000D01*
X174500000Y-128400000D02*
X175900000Y-128400000D01*
X317000000Y-74500000D02*
X316500000Y-74000000D01*
X310000000Y-89000000D02*
X315000000Y-89000000D01*
X212500001Y-103812499D02*
X213187501Y-103812499D01*
X193279801Y-60439999D02*
X194939999Y-60439999D01*
X287000000Y-72500000D02*
X287000000Y-71500000D01*
X195500000Y-85000000D02*
X194500000Y-86000000D01*
X280500000Y-88000000D02*
X283500000Y-88000000D01*
X261500000Y-81000000D02*
X266000000Y-81000000D01*
X214630904Y-76168159D02*
X214630904Y-74869096D01*
D47*
X159150000Y-110240002D02*
X159499999Y-110590001D01*
D46*
X187000000Y-87399999D02*
X187000000Y-86000000D01*
X155000000Y-110590000D02*
X154499999Y-111090001D01*
X166875003Y-128399997D02*
X166775000Y-128500000D01*
X168746900Y-128399997D02*
X166875003Y-128399997D01*
X161000000Y-131462500D02*
X162025000Y-132487500D01*
D47*
X307500000Y-97000000D02*
X294000000Y-97000000D01*
D46*
X239234258Y-134265742D02*
X239000000Y-134500000D01*
X162025000Y-133500000D02*
X163525000Y-135000000D01*
D47*
X294000000Y-97000000D02*
X291500000Y-97000000D01*
X323500000Y-97000000D02*
X310000000Y-97000000D01*
X278000000Y-97000000D02*
X291500000Y-97000000D01*
D46*
X164862488Y-105727512D02*
X164005857Y-105727512D01*
X162500000Y-131000000D02*
X162037500Y-131462500D01*
X163525000Y-135000000D02*
X165930871Y-135000000D01*
X162750004Y-127749996D02*
X162500000Y-128000000D01*
X164637512Y-107227514D02*
X164005857Y-107227514D01*
D47*
X278000000Y-97000000D02*
X275500000Y-97000000D01*
D46*
X166787753Y-134143118D02*
X166787753Y-136712247D01*
D47*
X275500000Y-97000000D02*
X261000000Y-97000000D01*
X258500000Y-97000000D02*
X254000000Y-97000000D01*
D46*
X240734260Y-134234260D02*
X241000000Y-134500000D01*
X162500000Y-128000000D02*
X162500000Y-131000000D01*
D47*
X310000000Y-97000000D02*
X307500000Y-97000000D01*
D46*
X162025000Y-132487500D02*
X162025000Y-133500000D01*
X240734260Y-133402362D02*
X240734260Y-134234260D01*
X164999999Y-107590001D02*
X164637512Y-107227514D01*
X166787753Y-136712247D02*
X166500000Y-137000000D01*
X165930871Y-135000000D02*
X166787753Y-134143118D01*
D47*
X258500000Y-97000000D02*
X261000000Y-97000000D01*
D46*
X162037500Y-131462500D02*
X161000000Y-131462500D01*
X239234258Y-133402362D02*
X239234258Y-134265742D01*
X168746900Y-127749996D02*
X162750004Y-127749996D01*
X165499999Y-105090001D02*
X164862488Y-105727512D01*
X182250000Y-76250000D02*
X182250000Y-76882498D01*
X321500000Y-106000000D02*
X312000000Y-106000000D01*
X256500000Y-106000000D02*
X252000000Y-106000000D01*
X273500000Y-106000000D02*
X280000000Y-106000000D01*
X280000000Y-106000000D02*
X289500000Y-106000000D01*
X263000000Y-106000000D02*
X273500000Y-106000000D01*
X305500000Y-106000000D02*
X312000000Y-106000000D01*
X185500000Y-82500000D02*
X183680001Y-80680001D01*
X296000000Y-106000000D02*
X305500000Y-106000000D01*
X256500000Y-106000000D02*
X263000000Y-106000000D01*
X187500000Y-82500000D02*
X185500000Y-82500000D01*
X289500000Y-106000000D02*
X296000000Y-106000000D01*
X182250000Y-76882498D02*
X183680001Y-78312499D01*
X183680001Y-80680001D02*
X183680001Y-78312499D01*
X187500000Y-84500000D02*
X187500000Y-82500000D01*
X184617501Y-92382499D02*
X183455001Y-92382499D01*
X258500000Y-105000000D02*
X239500000Y-105000000D01*
X258500000Y-105000000D02*
X261000000Y-105000000D01*
X291500000Y-105000000D02*
X294000000Y-105000000D01*
X181000000Y-114500000D02*
X181000000Y-93000000D01*
X275500000Y-105000000D02*
X278000000Y-105000000D01*
X183455001Y-92382499D02*
X182837500Y-93000000D01*
X229000000Y-126000000D02*
X192500000Y-126000000D01*
X238500000Y-106000000D02*
X238500000Y-116500000D01*
X182837500Y-93000000D02*
X181500000Y-93000000D01*
X188000000Y-89000000D02*
X184617501Y-92382499D01*
X294000000Y-105000000D02*
X307500000Y-105000000D01*
X278000000Y-105000000D02*
X291500000Y-105000000D01*
X323500000Y-105000000D02*
X310000000Y-105000000D01*
X188000000Y-87399999D02*
X188000000Y-89000000D01*
X181500000Y-93000000D02*
X181000000Y-93000000D01*
X310000000Y-105000000D02*
X307500000Y-105000000D01*
X192500000Y-126000000D02*
X181000000Y-114500000D01*
X238500000Y-116500000D02*
X229000000Y-126000000D01*
X239500000Y-105000000D02*
X238500000Y-106000000D01*
X275500000Y-105000000D02*
X261000000Y-105000000D01*
X263000000Y-102000000D02*
X273500000Y-102000000D01*
X307902312Y-102000000D02*
X308106312Y-101796000D01*
X291902312Y-102000000D02*
X292106312Y-101796000D01*
X263000000Y-102000000D02*
X260668399Y-102000000D01*
X293393688Y-101796000D02*
X293597688Y-102000000D01*
X289500000Y-102000000D02*
X291902312Y-102000000D01*
X293597688Y-102000000D02*
X296000000Y-102000000D01*
X189807122Y-75807122D02*
X188099616Y-75807122D01*
X309597688Y-102000000D02*
X312000000Y-102000000D01*
X190500000Y-77500000D02*
X190500000Y-76500000D01*
X188500000Y-84500000D02*
X188500000Y-80500000D01*
X256500000Y-102000000D02*
X254000000Y-102000000D01*
X186000000Y-69500000D02*
X186000000Y-75500000D01*
X277393688Y-101796000D02*
X276106312Y-101796000D01*
X277597688Y-102000000D02*
X277393688Y-101796000D01*
X296000000Y-102000000D02*
X295821000Y-101821000D01*
X280000000Y-102000000D02*
X277597688Y-102000000D01*
X276106312Y-101796000D02*
X275902312Y-102000000D01*
X305500000Y-102000000D02*
X307902312Y-102000000D01*
X186000000Y-75500000D02*
X186307122Y-75807122D01*
X289679000Y-101821000D02*
X289500000Y-102000000D01*
X256500000Y-102000000D02*
X256679000Y-101821000D01*
X190500000Y-76500000D02*
X189807122Y-75807122D01*
X260668399Y-102000000D02*
X260464399Y-101796000D01*
X275902312Y-102000000D02*
X273500000Y-102000000D01*
X308106312Y-101796000D02*
X309393688Y-101796000D01*
X309393688Y-101796000D02*
X309597688Y-102000000D01*
X289500000Y-102000000D02*
X280000000Y-102000000D01*
X260464399Y-101796000D02*
X259106312Y-101796000D01*
X292106312Y-101796000D02*
X293393688Y-101796000D01*
X305500000Y-102000000D02*
X296000000Y-102000000D01*
X259106312Y-101796000D02*
X258902312Y-102000000D01*
X262821000Y-101821000D02*
X263000000Y-102000000D01*
X258902312Y-102000000D02*
X256500000Y-102000000D01*
X312000000Y-102000000D02*
X321500000Y-102000000D01*
X186307122Y-75807122D02*
X188099616Y-75807122D01*
X193000000Y-125000000D02*
X185979000Y-117979000D01*
X242500000Y-101000000D02*
X238000000Y-105500000D01*
X310000000Y-101000000D02*
X307500000Y-101000000D01*
X188500000Y-90000000D02*
X189000000Y-89500000D01*
X185021000Y-97198409D02*
X185021000Y-96801591D01*
X187860404Y-94901897D02*
X185901897Y-94901897D01*
X185901897Y-94901897D02*
X185500000Y-94500000D01*
X275500000Y-101000000D02*
X261000000Y-101000000D01*
X261000000Y-101000000D02*
X258500000Y-101000000D01*
X275500000Y-101000000D02*
X278000000Y-101000000D01*
X238000000Y-116000000D02*
X229000000Y-125000000D01*
X185979000Y-117979000D02*
X185979000Y-98156409D01*
X323500000Y-101000000D02*
X310000000Y-101000000D01*
X185979000Y-98156409D02*
X185021000Y-97198409D01*
X238000000Y-105500000D02*
X238000000Y-116000000D01*
X258500000Y-101000000D02*
X242500000Y-101000000D01*
X278000000Y-101000000D02*
X291500000Y-101000000D01*
X229000000Y-125000000D02*
X193000000Y-125000000D01*
X294000000Y-101000000D02*
X307500000Y-101000000D01*
X186920694Y-94901897D02*
X187860404Y-94901897D01*
X291500000Y-101000000D02*
X294000000Y-101000000D01*
X185021000Y-96801591D02*
X186920694Y-94901897D01*
X189000000Y-89500000D02*
X189000000Y-87399999D01*
X256500000Y-100000000D02*
X263000000Y-100000000D01*
X189500000Y-84500000D02*
X189500000Y-83500000D01*
X305500000Y-100000000D02*
X312000000Y-100000000D01*
X221000000Y-79500000D02*
X224000000Y-79500000D01*
X193422500Y-77500000D02*
X195000000Y-77500000D01*
X312000000Y-100000000D02*
X321500000Y-100000000D01*
X189500000Y-83500000D02*
X192680001Y-80319999D01*
X289500000Y-100000000D02*
X280000000Y-100000000D01*
X192680001Y-78242499D02*
X193422500Y-77500000D01*
X296000000Y-100000000D02*
X289500000Y-100000000D01*
X273500000Y-100000000D02*
X280000000Y-100000000D01*
X256500000Y-100000000D02*
X254000000Y-100000000D01*
X263000000Y-100000000D02*
X273500000Y-100000000D01*
X305500000Y-100000000D02*
X296000000Y-100000000D01*
X192680001Y-80319999D02*
X192680001Y-78242499D01*
X224000000Y-79500000D02*
X241000000Y-96500000D01*
D49*
X198049301Y-93626699D02*
X199000000Y-94577398D01*
X228600001Y-106899999D02*
X228600001Y-104399999D01*
X194862101Y-90637899D02*
X192637899Y-90637899D01*
X199000000Y-98000000D02*
X198412501Y-98587499D01*
X191000000Y-89000000D02*
X191000000Y-87399999D01*
X228600001Y-104399999D02*
X229000000Y-104000000D01*
X197000001Y-93626699D02*
X198049301Y-93626699D01*
X176798145Y-118798145D02*
X177000000Y-119000000D01*
X174584156Y-118798145D02*
X176798145Y-118798145D01*
X199000000Y-94577398D02*
X199000000Y-98000000D01*
X200169999Y-116669999D02*
X200500000Y-117000000D01*
X198412501Y-99899999D02*
X198412501Y-101087499D01*
X170500000Y-124500000D02*
X171500000Y-124500000D01*
X218669999Y-118669999D02*
X219000000Y-119000000D01*
X195384042Y-63241426D02*
X195384042Y-64384042D01*
X198789901Y-116669999D02*
X200169999Y-116669999D01*
X177000000Y-123550000D02*
X177450000Y-123550000D01*
X217289901Y-118669999D02*
X218669999Y-118669999D01*
X198412501Y-98587499D02*
X198412501Y-99899999D01*
X215250000Y-67250000D02*
X214900001Y-66900001D01*
X227541189Y-77541189D02*
X228500000Y-78500000D01*
X192637899Y-90637899D02*
X191000000Y-89000000D01*
X198412501Y-101087499D02*
X197500000Y-102000000D01*
X197000001Y-93499999D02*
X197000001Y-93626699D01*
X169200003Y-125799997D02*
X170500000Y-124500000D01*
X168746900Y-125799997D02*
X169200003Y-125799997D01*
X195384042Y-64384042D02*
X196000000Y-65000000D01*
X199500000Y-91000000D02*
X197000001Y-93499999D01*
X177450000Y-123550000D02*
X179000000Y-122000000D01*
X174500000Y-124500000D02*
X173000000Y-124500000D01*
X227541189Y-76899999D02*
X227541189Y-77541189D01*
X214900001Y-66900001D02*
X214900001Y-65899999D01*
D46*
X168746900Y-130349996D02*
X167135011Y-130349996D01*
X167135011Y-130349996D02*
X166679446Y-130805561D01*
X168984158Y-122608145D02*
X168984158Y-124262740D01*
X168984158Y-124262740D02*
X168746900Y-124499998D01*
X168746900Y-129699997D02*
X170699997Y-129699997D01*
X170699997Y-129699997D02*
X171000000Y-130000000D01*
X168746900Y-129699997D02*
X168746900Y-129049996D01*
X176650000Y-125800000D02*
X177000000Y-125450000D01*
X174500000Y-125800000D02*
X176650000Y-125800000D01*
X175491013Y-129049999D02*
X174500000Y-129049999D01*
X176475233Y-130034219D02*
X175491013Y-129049999D01*
X310000000Y-99000000D02*
X307500000Y-99000000D01*
X258500000Y-99000000D02*
X261000000Y-99000000D01*
X275500000Y-99000000D02*
X261000000Y-99000000D01*
X191245000Y-93500000D02*
X190000000Y-93500000D01*
X291500000Y-99000000D02*
X294000000Y-99000000D01*
X190000000Y-87399999D02*
X190000000Y-90194998D01*
X258500000Y-99000000D02*
X243500000Y-99000000D01*
X192275001Y-92469999D02*
X191245000Y-93500000D01*
X229000000Y-124000000D02*
X193500000Y-124000000D01*
X278000000Y-99000000D02*
X291500000Y-99000000D01*
X193500000Y-124000000D02*
X189521000Y-120021000D01*
X294000000Y-99000000D02*
X307500000Y-99000000D01*
X190000000Y-90194998D02*
X192275001Y-92469999D01*
X323500000Y-99000000D02*
X310000000Y-99000000D01*
X189521000Y-120021000D02*
X189521000Y-93979000D01*
X275500000Y-99000000D02*
X278000000Y-99000000D01*
X243500000Y-99000000D02*
X237500000Y-105000000D01*
X237500000Y-105000000D02*
X237500000Y-115500000D01*
X189521000Y-93979000D02*
X190000000Y-93500000D01*
X237500000Y-115500000D02*
X229000000Y-124000000D01*
X240234259Y-129734259D02*
X240234259Y-130608362D01*
X238500000Y-128500000D02*
X239420009Y-127579991D01*
X239000000Y-128500000D02*
X240234259Y-129734259D01*
X238500000Y-128500000D02*
X239000000Y-128500000D01*
X239420009Y-127579991D02*
X239420009Y-127219212D01*
X242500000Y-135500000D02*
X241000000Y-135500000D01*
X242905960Y-133650421D02*
X242905960Y-135094040D01*
X242905960Y-135094040D02*
X242500000Y-135500000D01*
X241000000Y-135500000D02*
X240234259Y-134734259D01*
X240234259Y-134734259D02*
X240234259Y-133402362D01*
X160998134Y-110091866D02*
X159999999Y-111090001D01*
X159999999Y-108090001D02*
X159999999Y-106786601D01*
X159999999Y-106786601D02*
X160559087Y-106227513D01*
X160559087Y-106227513D02*
X161211857Y-106227513D01*
X160998134Y-109402520D02*
X160998134Y-110091866D01*
X158500000Y-111090002D02*
X158500000Y-107902500D01*
X164005857Y-106227513D02*
X165362487Y-106227513D01*
X165362487Y-106227513D02*
X165999999Y-105590001D01*
X158999999Y-111590001D02*
X158500000Y-111090002D01*
X203000001Y-92775799D02*
X203000001Y-92499999D01*
X205500001Y-101987499D02*
X203560701Y-101987499D01*
X206500000Y-100500000D02*
X205500001Y-101499999D01*
X193000000Y-90000000D02*
X200500000Y-90000000D01*
X203473201Y-101899999D02*
X203473201Y-102595299D01*
X198811001Y-107257499D02*
X196389901Y-107257499D01*
X206000000Y-90500000D02*
X206500000Y-91000000D01*
X203000001Y-92500001D02*
X203000001Y-92775799D01*
X200500000Y-90000000D02*
X203000001Y-92500001D01*
X205000000Y-90500000D02*
X206000000Y-90500000D01*
X205500001Y-101499999D02*
X205500001Y-101987499D01*
X192000000Y-87399999D02*
X192000000Y-89000000D01*
X206500000Y-91000000D02*
X206500000Y-100500000D01*
X203473201Y-102595299D02*
X198811001Y-107257499D01*
X203560701Y-101987499D02*
X203473201Y-101899999D01*
X192000000Y-89000000D02*
X193000000Y-90000000D01*
X203000001Y-92499999D02*
X205000000Y-90500000D01*
X199000000Y-56500000D02*
X196439442Y-53939442D01*
X192500000Y-82500000D02*
X192500000Y-84500000D01*
X200000000Y-62500000D02*
X199000000Y-61500000D01*
X199973201Y-70095299D02*
X199973201Y-69399999D01*
X196000000Y-71000000D02*
X196750701Y-70249299D01*
X196750701Y-70249299D02*
X199819201Y-70249299D01*
X196500000Y-80000000D02*
X196000000Y-79500000D01*
X198125153Y-80000000D02*
X196500000Y-80000000D01*
X197625153Y-80500000D02*
X194500000Y-80500000D01*
X199550415Y-78574738D02*
X198125153Y-80000000D01*
X194500000Y-80500000D02*
X192500000Y-82500000D01*
X202000001Y-67487499D02*
X200000000Y-65487498D01*
X199550415Y-78574738D02*
X197625153Y-80500000D01*
X196439442Y-53939442D02*
X192761454Y-53939442D01*
X196000000Y-79500000D02*
X196000000Y-71000000D01*
X199973201Y-69399999D02*
X200087501Y-69399999D01*
X200087501Y-69399999D02*
X202000001Y-67487499D01*
X199000000Y-61500000D02*
X199000000Y-56500000D01*
X199819201Y-70249299D02*
X199973201Y-70095299D01*
X200000000Y-65487498D02*
X200000000Y-62500000D01*
X214353234Y-109586683D02*
X214353234Y-108353234D01*
X212500001Y-101987499D02*
X211060701Y-101987499D01*
X213500000Y-91500000D02*
X213500000Y-97000000D01*
X193000000Y-87399999D02*
X193000000Y-89000000D01*
X215000000Y-98500000D02*
X215500000Y-98500000D01*
X210000001Y-91499999D02*
X211500000Y-90000000D01*
X211500000Y-90000000D02*
X212000000Y-90000000D01*
X211000000Y-106500000D02*
X211000000Y-103487500D01*
X214353234Y-108353234D02*
X214000000Y-108000000D01*
X214012501Y-101987499D02*
X212500001Y-101987499D01*
X193500000Y-89500000D02*
X207224202Y-89500000D01*
X212000000Y-90000000D02*
X213500000Y-91500000D01*
X213500000Y-97000000D02*
X215000000Y-98500000D01*
X193000000Y-89000000D02*
X193500000Y-89500000D01*
X212500000Y-108000000D02*
X211000000Y-106500000D01*
X210000001Y-92275799D02*
X210000001Y-91499999D01*
X214000000Y-108000000D02*
X212500000Y-108000000D01*
X216000000Y-99000000D02*
X216000000Y-100000000D01*
X211060701Y-101987499D02*
X210473201Y-101399999D01*
X215500000Y-98500000D02*
X216000000Y-99000000D01*
X216000000Y-100000000D02*
X214012501Y-101987499D01*
X207224202Y-89500000D02*
X210000001Y-92275799D01*
X211000000Y-103487500D02*
X212500001Y-101987499D01*
X209273998Y-67731362D02*
X207326342Y-69679018D01*
X204484587Y-81000000D02*
X206867193Y-78617394D01*
X208000000Y-65000000D02*
X209273998Y-66273998D01*
X207212042Y-70374318D02*
X207212042Y-69679018D01*
X200500000Y-81500000D02*
X201000000Y-81000000D01*
X207326342Y-69679018D02*
X207212042Y-69679018D01*
X201000000Y-81000000D02*
X204484587Y-81000000D01*
X206867193Y-78617394D02*
X205484587Y-80000000D01*
X209273998Y-66273998D02*
X209273998Y-67731362D01*
X193500000Y-84500000D02*
X193500000Y-82500000D01*
X213185463Y-56685463D02*
X211867313Y-56685463D01*
X193500000Y-82500000D02*
X194500000Y-81500000D01*
X206586360Y-71000000D02*
X207212042Y-70374318D01*
X203000000Y-80000000D02*
X203000000Y-71500000D01*
X203500000Y-71000000D02*
X206586360Y-71000000D01*
X214500000Y-58000000D02*
X213185463Y-56685463D01*
X194500000Y-81500000D02*
X200500000Y-81500000D01*
X215500000Y-58000000D02*
X214500000Y-58000000D01*
X205484587Y-80000000D02*
X203000000Y-80000000D01*
X203000000Y-71500000D02*
X203500000Y-71000000D01*
X214635371Y-94135371D02*
X215500000Y-95000000D01*
X213475802Y-86500000D02*
X214875801Y-87899999D01*
X194000000Y-87399999D02*
X194000000Y-88500000D01*
X215500000Y-95000000D02*
X220000000Y-95000000D01*
X222457986Y-96957986D02*
X220500000Y-95000000D01*
X220500000Y-95000000D02*
X220000000Y-95000000D01*
X194000000Y-88500000D02*
X194500000Y-89000000D01*
X214875801Y-88124199D02*
X213000000Y-90000000D01*
X222457986Y-97826511D02*
X222457986Y-96957986D01*
X214875801Y-87899999D02*
X214875801Y-88124199D01*
X213000000Y-90000000D02*
X213000000Y-90500000D01*
X213000000Y-90500000D02*
X214635371Y-92135371D01*
X194500000Y-89000000D02*
X209000000Y-89000000D01*
X214635371Y-92580801D02*
X214635371Y-94135371D01*
X211500000Y-86500000D02*
X213475802Y-86500000D01*
X214635371Y-92135371D02*
X214635371Y-92580801D01*
X220000000Y-95000000D02*
X221412501Y-93587499D01*
X209000000Y-89000000D02*
X211500000Y-86500000D01*
X221412501Y-93587499D02*
X221412501Y-92399999D01*
X218500000Y-73000000D02*
X219500000Y-74000000D01*
X217000000Y-71500000D02*
X217000000Y-72000000D01*
X210500000Y-74500000D02*
X210500000Y-74000000D01*
X217000000Y-72000000D02*
X218000000Y-73000000D01*
X211684504Y-76168159D02*
X211684504Y-75684504D01*
X201500000Y-81500000D02*
X206000000Y-81500000D01*
X210500000Y-74000000D02*
X211500000Y-73000000D01*
X218500000Y-70000000D02*
X218000000Y-70000000D01*
X211875801Y-80899999D02*
X210500000Y-79524198D01*
X222119022Y-70000000D02*
X218500000Y-70000000D01*
X201000000Y-82000000D02*
X201500000Y-81500000D01*
X206500000Y-82000000D02*
X208000000Y-82000000D01*
X211500000Y-73000000D02*
X218000000Y-73000000D01*
X208500000Y-82500000D02*
X210275800Y-82500000D01*
X210275800Y-82500000D02*
X211875801Y-80899999D01*
X219500000Y-76000000D02*
X219100001Y-76399999D01*
X210500000Y-77352663D02*
X211684504Y-76168159D01*
X195500000Y-82000000D02*
X201000000Y-82000000D01*
X211684504Y-75684504D02*
X210500000Y-74500000D01*
X206000000Y-81500000D02*
X206500000Y-82000000D01*
X219100001Y-76399999D02*
X218412501Y-76399999D01*
X218000000Y-73000000D02*
X218500000Y-73000000D01*
X194500000Y-84500000D02*
X194500000Y-83000000D01*
X210500000Y-79524198D02*
X210500000Y-77352663D01*
X208000000Y-82000000D02*
X208500000Y-82500000D01*
X224348678Y-67770344D02*
X222119022Y-70000000D01*
X219500000Y-74000000D02*
X219500000Y-76000000D01*
X194500000Y-83000000D02*
X195500000Y-82000000D01*
X196000000Y-86500000D02*
X196000000Y-87399999D01*
X195500000Y-86000000D02*
X196000000Y-86500000D01*
X195989901Y-116669999D02*
X194231306Y-114911404D01*
X194231306Y-114911404D02*
X194231306Y-112225059D01*
X195056366Y-111399999D02*
X194231306Y-112225059D01*
X202489901Y-116687898D02*
X202489901Y-118010099D01*
X195989901Y-118489901D02*
X195989901Y-116669999D01*
X202489901Y-118010099D02*
X201500000Y-119000000D01*
X201500000Y-119000000D02*
X196500000Y-119000000D01*
X196779801Y-111399999D02*
X195056366Y-111399999D01*
X196500000Y-119000000D02*
X195989901Y-118489901D01*
X215000000Y-121000000D02*
X214489901Y-120489901D01*
X220489901Y-119510099D02*
X219000000Y-121000000D01*
X220489901Y-118669999D02*
X220489901Y-119510099D01*
X214489901Y-120489901D02*
X214489901Y-118669999D01*
X213097301Y-115082499D02*
X214779801Y-113399999D01*
X213097301Y-117277399D02*
X213097301Y-115082499D01*
X214489901Y-118669999D02*
X213097301Y-117277399D01*
X219000000Y-121000000D02*
X215000000Y-121000000D01*
X211889901Y-115082499D02*
X213097301Y-115082499D01*
X197000000Y-66000000D02*
X194000000Y-66000000D01*
X193279801Y-57899999D02*
X191679852Y-57899999D01*
X191679852Y-57899999D02*
X190611385Y-58968466D01*
X198600001Y-64399999D02*
X197000000Y-66000000D01*
X194000000Y-66000000D02*
X192584042Y-64584042D01*
X190611385Y-61268769D02*
X190611385Y-58968466D01*
X192584042Y-64584042D02*
X192584042Y-63241426D01*
X192584042Y-63241426D02*
X190611385Y-61268769D01*
X198600001Y-63283584D02*
X198600001Y-64399999D01*
X211425001Y-65899999D02*
X209711335Y-64186333D01*
X211099071Y-61920829D02*
X212389901Y-60629999D01*
X212100001Y-67100001D02*
X212100001Y-65899999D01*
X209711335Y-64186333D02*
X209711335Y-61920829D01*
X209711335Y-61920829D02*
X211099071Y-61920829D01*
X218100001Y-65899999D02*
X218100001Y-66899999D01*
X217000000Y-68000000D02*
X213000000Y-68000000D01*
X212100001Y-65899999D02*
X211425001Y-65899999D01*
X213000000Y-68000000D02*
X212100001Y-67100001D01*
X218100001Y-66899999D02*
X217000000Y-68000000D01*
X222100001Y-108100001D02*
X222100001Y-106899999D01*
X219500000Y-105500000D02*
X220899999Y-106899999D01*
X219500000Y-104500000D02*
X219500000Y-105500000D01*
X231400001Y-106899999D02*
X228800000Y-109500000D01*
X222500000Y-108500000D02*
X222100001Y-108100001D01*
X220236831Y-102807889D02*
X220236831Y-103763169D01*
X223500000Y-108500000D02*
X222500000Y-108500000D01*
X220236831Y-102807889D02*
X221712011Y-102807889D01*
X221712011Y-102807889D02*
X222889901Y-101629999D01*
X228800000Y-109500000D02*
X224500000Y-109500000D01*
X220236831Y-103763169D02*
X219500000Y-104500000D01*
X220899999Y-106899999D02*
X222100001Y-106899999D01*
X224500000Y-109500000D02*
X223500000Y-108500000D01*
X225641188Y-76000000D02*
X224741189Y-76899999D01*
X222205458Y-73157644D02*
X223362256Y-73157644D01*
X228500000Y-75000000D02*
X227500000Y-76000000D01*
X222205458Y-74364268D02*
X224741189Y-76899999D01*
X231100001Y-76899999D02*
X231100001Y-75600001D01*
X227500000Y-76000000D02*
X225641188Y-76000000D01*
X222205458Y-73157644D02*
X222205458Y-74364268D01*
X223362256Y-73157644D02*
X224889901Y-71629999D01*
X231100001Y-75600001D02*
X230500000Y-75000000D01*
X198750000Y-82750000D02*
X198500000Y-83000000D01*
X198500000Y-83000000D02*
X198500000Y-84500000D01*
X196500000Y-83000000D02*
X196500000Y-84500000D01*
X196250000Y-82750000D02*
X196500000Y-83000000D01*
X197000000Y-86500000D02*
X197000000Y-87399999D01*
X196500000Y-86000000D02*
X197000000Y-86500000D01*
X197750000Y-82750000D02*
X197500000Y-83000000D01*
X197500000Y-83000000D02*
X197500000Y-84500000D01*
X197500000Y-86000000D02*
X198000000Y-86500000D01*
X198000000Y-86500000D02*
X198000000Y-87399999D01*
X204100001Y-111399999D02*
X203500000Y-112000000D01*
X206000001Y-111399999D02*
X204100001Y-111399999D01*
X234732791Y-101672058D02*
X234732791Y-100767209D01*
X224000001Y-113399999D02*
X222100001Y-113399999D01*
X226597292Y-113389347D02*
X228610653Y-113389347D01*
X245998932Y-132745486D02*
X245998932Y-130561682D01*
X241678177Y-130608362D02*
X240734260Y-130608362D01*
X246000000Y-130560614D02*
X244939386Y-130560614D01*
X205133387Y-57895899D02*
X205133387Y-56633387D01*
X238271762Y-71771762D02*
X239000000Y-72500000D01*
X240768029Y-130574593D02*
X240734260Y-130608362D01*
X221610101Y-60629999D02*
X219870001Y-60629999D01*
X202500001Y-57899999D02*
X202500001Y-56000001D01*
X234732791Y-100767209D02*
X235000000Y-100500000D01*
X205133387Y-56633387D02*
X205000000Y-56500000D01*
X234110101Y-71629999D02*
X234110101Y-70610101D01*
X236740386Y-71771762D02*
X238271762Y-71771762D01*
X244939386Y-130560614D02*
X244500000Y-131000000D01*
X241683539Y-130603000D02*
X241678177Y-130608362D01*
X240768029Y-128679815D02*
X240768029Y-130574593D01*
X222100001Y-113399999D02*
X221500000Y-114000000D01*
X243825421Y-131825421D02*
X244745486Y-132745486D01*
X224215188Y-60769455D02*
X226230545Y-60769455D01*
X242905960Y-131825421D02*
X243825421Y-131825421D01*
X226230545Y-60769455D02*
X226500000Y-60500000D01*
X209869992Y-111369992D02*
X210500000Y-112000000D01*
X202500001Y-56000001D02*
X201500000Y-55000000D01*
X208542967Y-111369992D02*
X209869992Y-111369992D01*
X232110101Y-101629999D02*
X232110101Y-100110101D01*
X219870001Y-60629999D02*
X219500000Y-61000000D01*
X242905960Y-131825421D02*
X241683539Y-130603000D01*
X234110101Y-70610101D02*
X233000000Y-69500000D01*
X228610653Y-113389347D02*
X229000000Y-113000000D01*
X244745486Y-132745486D02*
X245998932Y-132745486D01*
X232110101Y-100110101D02*
X231500000Y-99500000D01*
X245998932Y-130561682D02*
X246000000Y-130560614D01*
X246500000Y-95000000D02*
X237000000Y-104500000D01*
X210500000Y-115359306D02*
X208398193Y-113257499D01*
X278000000Y-95000000D02*
X275500000Y-95000000D01*
X310000000Y-95000000D02*
X307500000Y-95000000D01*
X237000000Y-104500000D02*
X237000000Y-115000000D01*
X294000000Y-95000000D02*
X291500000Y-95000000D01*
X207715693Y-113939999D02*
X208398193Y-113257499D01*
X237000000Y-115000000D02*
X228500000Y-123500000D01*
X206000001Y-113939999D02*
X207715693Y-113939999D01*
X261000000Y-95000000D02*
X275500000Y-95000000D01*
X278000000Y-95000000D02*
X291500000Y-95000000D01*
X210500000Y-121500000D02*
X210500000Y-115359306D01*
X310000000Y-95000000D02*
X323500000Y-95000000D01*
X258500000Y-95000000D02*
X261000000Y-95000000D01*
X258500000Y-95000000D02*
X246500000Y-95000000D01*
X294000000Y-95000000D02*
X307500000Y-95000000D01*
X228500000Y-123500000D02*
X212500000Y-123500000D01*
X212500000Y-123500000D02*
X210500000Y-121500000D01*
X310000000Y-109000000D02*
X307500000Y-109000000D01*
X240000000Y-109000000D02*
X239000000Y-110000000D01*
X239000000Y-117000000D02*
X229500000Y-126500000D01*
X186000000Y-87699999D02*
X186000000Y-87399999D01*
X183699999Y-90000000D02*
X186000000Y-87699999D01*
X291500000Y-109000000D02*
X294000000Y-109000000D01*
X294000000Y-109000000D02*
X307500000Y-109000000D01*
X258500000Y-109000000D02*
X261000000Y-109000000D01*
X275500000Y-109000000D02*
X278000000Y-109000000D01*
X278000000Y-109000000D02*
X291500000Y-109000000D01*
X310000000Y-109000000D02*
X323500000Y-109000000D01*
X180000000Y-114500000D02*
X180000000Y-90500000D01*
X192000000Y-126500000D02*
X180000000Y-114500000D01*
X258500000Y-109000000D02*
X240000000Y-109000000D01*
X275500000Y-109000000D02*
X261000000Y-109000000D01*
X229500000Y-126500000D02*
X192000000Y-126500000D01*
X180500000Y-90000000D02*
X183699999Y-90000000D01*
X239000000Y-110000000D02*
X239000000Y-117000000D01*
X180000000Y-90500000D02*
X180500000Y-90000000D01*
X258500000Y-93000000D02*
X261000000Y-93000000D01*
X258500000Y-93000000D02*
X247500000Y-93000000D01*
X278000000Y-93000000D02*
X275500000Y-93000000D01*
X294000000Y-93000000D02*
X291500000Y-93000000D01*
X278000000Y-93000000D02*
X291500000Y-93000000D01*
X230606393Y-115393607D02*
X226490068Y-115393607D01*
X310000000Y-93000000D02*
X307500000Y-93000000D01*
X236500000Y-104000000D02*
X236500000Y-109500000D01*
X310000000Y-93000000D02*
X323500000Y-93000000D01*
X247500000Y-93000000D02*
X236500000Y-104000000D01*
X294000000Y-93000000D02*
X307500000Y-93000000D01*
X261000000Y-93000000D02*
X275500000Y-93000000D01*
X224000001Y-115939999D02*
X225943676Y-115939999D01*
X236500000Y-109500000D02*
X230606393Y-115393607D01*
X225943676Y-115939999D02*
X226490068Y-115393607D01*
X255000000Y-80000000D02*
X254000000Y-79000000D01*
X252000000Y-74500000D02*
X252000000Y-71912500D01*
X254000000Y-79000000D02*
X254000000Y-76500000D01*
X254000000Y-76500000D02*
X252000000Y-74500000D01*
X256500000Y-80000000D02*
X255000000Y-80000000D01*
X310000000Y-111000000D02*
X323500000Y-111000000D01*
X240500000Y-111000000D02*
X239500000Y-112000000D01*
X291500000Y-111000000D02*
X294000000Y-111000000D01*
X258500000Y-111000000D02*
X240500000Y-111000000D01*
X291500000Y-111000000D02*
X278000000Y-111000000D01*
X310000000Y-111000000D02*
X307500000Y-111000000D01*
X294000000Y-111000000D02*
X307500000Y-111000000D01*
X258500000Y-111000000D02*
X261000000Y-111000000D01*
X179000000Y-103500000D02*
X178000000Y-102500000D01*
X239500000Y-112000000D02*
X239500000Y-117500000D01*
X229500000Y-127500000D02*
X192000000Y-127500000D01*
X178000000Y-102500000D02*
X176000000Y-102500000D01*
X192000000Y-127500000D02*
X179000000Y-114500000D01*
X275500000Y-111000000D02*
X278000000Y-111000000D01*
X239500000Y-117500000D02*
X229500000Y-127500000D01*
X275500000Y-111000000D02*
X261000000Y-111000000D01*
X179000000Y-114500000D02*
X179000000Y-103500000D01*
X256500000Y-78000000D02*
X255500000Y-78000000D01*
X255000000Y-77500000D02*
X255000000Y-75500000D01*
X254000000Y-74500000D02*
X254000000Y-63412500D01*
X255500000Y-78000000D02*
X255000000Y-77500000D01*
X255000000Y-75500000D02*
X254000000Y-74500000D01*
X253000000Y-69000000D02*
X252500000Y-69000000D01*
X255000000Y-79000000D02*
X254500000Y-78500000D01*
X253500000Y-69500000D02*
X253000000Y-69000000D01*
X254500000Y-76000000D02*
X253500000Y-75000000D01*
X253500000Y-75000000D02*
X253500000Y-69500000D01*
X254500000Y-78500000D02*
X254500000Y-76000000D01*
X258500000Y-79000000D02*
X255000000Y-79000000D01*
X252000000Y-68500000D02*
X252000000Y-67325000D01*
X252500000Y-69000000D02*
X252000000Y-68500000D01*
X294000000Y-91000000D02*
X307500000Y-91000000D01*
X310000000Y-91000000D02*
X307500000Y-91000000D01*
X233816485Y-104169999D02*
X234498985Y-103487499D01*
X310000000Y-91000000D02*
X323500000Y-91000000D01*
X248500000Y-91000000D02*
X236012501Y-103487499D01*
X258500000Y-91000000D02*
X248500000Y-91000000D01*
X261000000Y-91000000D02*
X258500000Y-91000000D01*
X278000000Y-91000000D02*
X291500000Y-91000000D01*
X291500000Y-91000000D02*
X294000000Y-91000000D01*
X232110101Y-104169999D02*
X233816485Y-104169999D01*
X236012501Y-103487499D02*
X234498985Y-103487499D01*
X261000000Y-91000000D02*
X275500000Y-91000000D01*
X278000000Y-91000000D02*
X275500000Y-91000000D01*
X289500000Y-108000000D02*
X280000000Y-108000000D01*
X280000000Y-108000000D02*
X273500000Y-108000000D01*
X296000000Y-108000000D02*
X289500000Y-108000000D01*
X186500000Y-84200000D02*
X186500000Y-84500000D01*
X256500000Y-108000000D02*
X250000000Y-108000000D01*
X296000000Y-108000000D02*
X305500000Y-108000000D01*
X184000000Y-67500000D02*
X183000000Y-67500000D01*
X256500000Y-108000000D02*
X263000000Y-108000000D01*
X321500000Y-108000000D02*
X312000000Y-108000000D01*
X182000000Y-80500000D02*
X182800000Y-80500000D01*
X181500000Y-80000000D02*
X182000000Y-80500000D01*
X263000000Y-108000000D02*
X273500000Y-108000000D01*
X182800000Y-80500000D02*
X186500000Y-84200000D01*
X312000000Y-108000000D02*
X305500000Y-108000000D01*
X181500000Y-69000000D02*
X181500000Y-80000000D01*
X183000000Y-67500000D02*
X181500000Y-69000000D01*
X310000000Y-115000000D02*
X323500000Y-115000000D01*
X291500000Y-115000000D02*
X294000000Y-115000000D01*
X261000000Y-115000000D02*
X275500000Y-115000000D01*
X307500000Y-115000000D02*
X294000000Y-115000000D01*
X261000000Y-115000000D02*
X258500000Y-115000000D01*
X278000000Y-115000000D02*
X275500000Y-115000000D01*
X291500000Y-115000000D02*
X278000000Y-115000000D01*
X310000000Y-115000000D02*
X307500000Y-115000000D01*
X204460001Y-60439999D02*
X205000001Y-59899999D01*
X239853554Y-93500000D02*
X215353554Y-69000000D01*
X263000000Y-94000000D02*
X273500000Y-94000000D01*
X305500000Y-94000000D02*
X312000000Y-94000000D01*
X205700001Y-59899999D02*
X205000001Y-59899999D01*
X207479000Y-63479000D02*
X207479000Y-61678998D01*
X289500000Y-94000000D02*
X296000000Y-94000000D01*
X213000000Y-69000000D02*
X207479000Y-63479000D01*
X215353554Y-69000000D02*
X213000000Y-69000000D01*
X256500000Y-94000000D02*
X256000000Y-94000000D01*
X202500001Y-60439999D02*
X204460001Y-60439999D01*
X244500000Y-93500000D02*
X239853554Y-93500000D01*
X256000000Y-94000000D02*
X254500000Y-94000000D01*
X263000000Y-94000000D02*
X256500000Y-94000000D01*
X321500000Y-94000000D02*
X312000000Y-94000000D01*
X273500000Y-94000000D02*
X280000000Y-94000000D01*
X305500000Y-94000000D02*
X296000000Y-94000000D01*
X289500000Y-94000000D02*
X280000000Y-94000000D01*
X207479000Y-61678998D02*
X205700001Y-59899999D01*
X256500000Y-90000000D02*
X263000000Y-90000000D01*
X256500000Y-90000000D02*
X254322591Y-90000000D01*
X234792601Y-73487499D02*
X234110101Y-74169999D01*
X236584515Y-73487499D02*
X234792601Y-73487499D01*
X321500000Y-90000000D02*
X312000000Y-90000000D01*
X237810090Y-73487499D02*
X236584515Y-73487499D01*
X254322591Y-90000000D02*
X237810090Y-73487499D01*
X305500000Y-90000000D02*
X296000000Y-90000000D01*
X296000000Y-90000000D02*
X289500000Y-90000000D01*
X273500000Y-90000000D02*
X263000000Y-90000000D01*
X289500000Y-90000000D02*
X280000000Y-90000000D01*
X305500000Y-90000000D02*
X312000000Y-90000000D01*
X273500000Y-90000000D02*
X280000000Y-90000000D01*
X275500000Y-113000000D02*
X278000000Y-113000000D01*
X240000000Y-113500000D02*
X240000000Y-118000000D01*
X230000000Y-128000000D02*
X191000000Y-128000000D01*
X261000000Y-113000000D02*
X258500000Y-113000000D01*
X240500000Y-113000000D02*
X240000000Y-113500000D01*
X258500000Y-113000000D02*
X240500000Y-113000000D01*
X310000000Y-113000000D02*
X307500000Y-113000000D01*
X191000000Y-128000000D02*
X168500000Y-105500000D01*
X294000000Y-113000000D02*
X307500000Y-113000000D01*
X240000000Y-118000000D02*
X230000000Y-128000000D01*
X291500000Y-113000000D02*
X294000000Y-113000000D01*
X261000000Y-113000000D02*
X275500000Y-113000000D01*
X168500000Y-105500000D02*
X168500000Y-102500000D01*
X291500000Y-113000000D02*
X278000000Y-113000000D01*
X310000000Y-113000000D02*
X323500000Y-113000000D01*
X275500000Y-79000000D02*
X272000000Y-79000000D01*
X271500000Y-78500000D02*
X271500000Y-74412500D01*
X272000000Y-79000000D02*
X271500000Y-78500000D01*
X289500000Y-92000000D02*
X280000000Y-92000000D01*
X256500000Y-92000000D02*
X254500000Y-92000000D01*
X321500000Y-92000000D02*
X312000000Y-92000000D01*
X230000000Y-79000000D02*
X229500000Y-78500000D01*
X229500000Y-78500000D02*
X229500000Y-64000000D01*
X289500000Y-92000000D02*
X296000000Y-92000000D01*
X229000000Y-63500000D02*
X228000000Y-63500000D01*
X273500000Y-92000000D02*
X263000000Y-92000000D01*
X229500000Y-64000000D02*
X229000000Y-63500000D01*
X305500000Y-92000000D02*
X312000000Y-92000000D01*
X223510973Y-63169999D02*
X224064449Y-62616523D01*
X232000000Y-79000000D02*
X230000000Y-79000000D01*
X243000000Y-90000000D02*
X232000000Y-79000000D01*
X221610101Y-63169999D02*
X223510973Y-63169999D01*
X252500000Y-90000000D02*
X243000000Y-90000000D01*
X305500000Y-92000000D02*
X296000000Y-92000000D01*
X273500000Y-92000000D02*
X280000000Y-92000000D01*
X227116523Y-62616523D02*
X224064449Y-62616523D01*
X228000000Y-63500000D02*
X227116523Y-62616523D01*
X263000000Y-92000000D02*
X256500000Y-92000000D01*
X273500000Y-80000000D02*
X270000000Y-80000000D01*
X270000000Y-80000000D02*
X269000000Y-79000000D01*
X269000000Y-79000000D02*
X269000000Y-78412500D01*
X289500000Y-80000000D02*
X286000000Y-80000000D01*
X286000000Y-80000000D02*
X285500000Y-79500000D01*
X285500000Y-79500000D02*
X285500000Y-78500000D01*
X289500000Y-78000000D02*
X287500000Y-78000000D01*
X287000000Y-77500000D02*
X287000000Y-74325000D01*
X287500000Y-78000000D02*
X287000000Y-77500000D01*
X302000000Y-80000000D02*
X301500000Y-79500000D01*
X301500000Y-79500000D02*
X301500000Y-78412500D01*
X305500000Y-80000000D02*
X302000000Y-80000000D01*
X321500000Y-78000000D02*
X319500000Y-78000000D01*
X319500000Y-78000000D02*
X319047203Y-77547203D01*
X319047203Y-77547203D02*
X319047203Y-73230605D01*
X317500000Y-79000000D02*
X317000000Y-78500000D01*
X323500000Y-79000000D02*
X317500000Y-79000000D01*
X317000000Y-78500000D02*
X317000000Y-76962500D01*
X296000000Y-114000000D02*
X289500000Y-114000000D01*
X321500000Y-114000000D02*
X312000000Y-114000000D01*
X273500000Y-114000000D02*
X280000000Y-114000000D01*
X296000000Y-114000000D02*
X305500000Y-114000000D01*
X256500000Y-114000000D02*
X263000000Y-114000000D01*
X256500000Y-114000000D02*
X246000000Y-114000000D01*
X280000000Y-114000000D02*
X289500000Y-114000000D01*
X305500000Y-114000000D02*
X312000000Y-114000000D01*
X273500000Y-114000000D02*
X263000000Y-114000000D01*
X321500000Y-112000000D02*
X312000000Y-112000000D01*
X256500000Y-112000000D02*
X248000000Y-112000000D01*
X263000000Y-112000000D02*
X273500000Y-112000000D01*
X280000000Y-112000000D02*
X273500000Y-112000000D01*
X256500000Y-112000000D02*
X263000000Y-112000000D01*
X305500000Y-112000000D02*
X312000000Y-112000000D01*
X296000000Y-112000000D02*
X289500000Y-112000000D01*
X305500000Y-112000000D02*
X296000000Y-112000000D01*
X280000000Y-112000000D02*
X289500000Y-112000000D01*
X294000000Y-87000000D02*
X307500000Y-87000000D01*
X310000000Y-87000000D02*
X307500000Y-87000000D01*
X291500000Y-87000000D02*
X278000000Y-87000000D01*
X258500000Y-87000000D02*
X254500000Y-87000000D01*
X294000000Y-87000000D02*
X291500000Y-87000000D01*
X310000000Y-87000000D02*
X323500000Y-87000000D01*
X261000000Y-87000000D02*
X258500000Y-87000000D01*
X261000000Y-87000000D02*
X275500000Y-87000000D01*
X278000000Y-87000000D02*
X275500000Y-87000000D01*
X263000000Y-86000000D02*
X273500000Y-86000000D01*
X305500000Y-86000000D02*
X312000000Y-86000000D01*
X253500000Y-86000000D02*
X253000000Y-85500000D01*
X296000000Y-86000000D02*
X305500000Y-86000000D01*
X321500000Y-86000000D02*
X312000000Y-86000000D01*
X217497963Y-55997963D02*
X213000000Y-51500000D01*
X256500000Y-86000000D02*
X263000000Y-86000000D01*
X289500000Y-86000000D02*
X296000000Y-86000000D01*
X273500000Y-86000000D02*
X280000000Y-86000000D01*
X253000000Y-85500000D02*
X253000000Y-77500000D01*
X256500000Y-86000000D02*
X254822591Y-86000000D01*
X253000000Y-77500000D02*
X231497963Y-55997963D01*
X254500000Y-86000000D02*
X254000000Y-86000000D01*
X231497963Y-55997963D02*
X217497963Y-55997963D01*
X254000000Y-86000000D02*
X253500000Y-86000000D01*
X280000000Y-86000000D02*
X289500000Y-86000000D01*
X254822591Y-86000000D02*
X254500000Y-86000000D01*
X310000000Y-85000000D02*
X323500000Y-85000000D01*
X307500000Y-85000000D02*
X294000000Y-85000000D01*
X310000000Y-85000000D02*
X307500000Y-85000000D01*
X258000000Y-85000000D02*
X254500000Y-85000000D01*
X275500000Y-85000000D02*
X278000000Y-85000000D01*
X278000000Y-85000000D02*
X291500000Y-85000000D01*
X275500000Y-85000000D02*
X261000000Y-85000000D01*
X261000000Y-85000000D02*
X258500000Y-85000000D01*
X258500000Y-85000000D02*
X258000000Y-85000000D01*
X294000000Y-85000000D02*
X291500000Y-85000000D01*
X289500000Y-84000000D02*
X296000000Y-84000000D01*
X305500000Y-84000000D02*
X312000000Y-84000000D01*
X256500000Y-84000000D02*
X254500000Y-84000000D01*
X256500000Y-84000000D02*
X263000000Y-84000000D01*
X253500000Y-77000000D02*
X230000000Y-53500000D01*
X263000000Y-84000000D02*
X273500000Y-84000000D01*
X321500000Y-84000000D02*
X312000000Y-84000000D01*
X289500000Y-84000000D02*
X280000000Y-84000000D01*
X253500000Y-83000000D02*
X253500000Y-77000000D01*
X273500000Y-84000000D02*
X280000000Y-84000000D01*
X305500000Y-84000000D02*
X296000000Y-84000000D01*
X254500000Y-84000000D02*
X253500000Y-83000000D01*
X230000000Y-53500000D02*
X226000000Y-53500000D01*
X294000000Y-83000000D02*
X307500000Y-83000000D01*
X258500000Y-83000000D02*
X261000000Y-83000000D01*
X278000000Y-83000000D02*
X291500000Y-83000000D01*
X275500000Y-83000000D02*
X261000000Y-83000000D01*
X275500000Y-83000000D02*
X278000000Y-83000000D01*
X258500000Y-83000000D02*
X254500000Y-83000000D01*
X323500000Y-83000000D02*
X310000000Y-83000000D01*
X294000000Y-83000000D02*
X291500000Y-83000000D01*
X310000000Y-83000000D02*
X307500000Y-83000000D01*
X256500000Y-82000000D02*
X254500000Y-82000000D01*
X289500000Y-82000000D02*
X296000000Y-82000000D01*
X312000000Y-82000000D02*
X321500000Y-82000000D01*
X280000000Y-82000000D02*
X289500000Y-82000000D01*
X296000000Y-82000000D02*
X305500000Y-82000000D01*
X256500000Y-82000000D02*
X263000000Y-82000000D01*
X280000000Y-82000000D02*
X273500000Y-82000000D01*
X305500000Y-82000000D02*
X312000000Y-82000000D01*
X263000000Y-82000000D02*
X273500000Y-82000000D01*
X159610467Y-104406360D02*
X158183640Y-104406360D01*
X155000000Y-105590000D02*
X155499999Y-105090001D01*
X160149997Y-105739999D02*
X160162484Y-105727512D01*
X160162484Y-105727512D02*
X161211857Y-105727512D01*
X159610467Y-104406360D02*
X159610467Y-105200469D01*
X159610467Y-105200469D02*
X160149997Y-105739999D01*
X156499999Y-104077499D02*
X156499999Y-103590001D01*
X155000000Y-106515000D02*
X155000000Y-105590000D01*
X158183640Y-104406360D02*
X157999999Y-104590001D01*
X158500000Y-106077500D02*
X156499999Y-104077499D01*
X166724202Y-86500000D02*
X165624201Y-85399999D01*
X171000000Y-86000000D02*
X170000000Y-87000000D01*
X167500000Y-86500000D02*
X166724202Y-86500000D01*
X160500000Y-90500000D02*
X160000000Y-91000000D01*
X160000000Y-92000000D02*
X159000000Y-93000000D01*
X162500000Y-90500000D02*
X160500000Y-90500000D01*
X157504000Y-92996000D02*
X157500000Y-93000000D01*
X165624201Y-85399999D02*
X167500000Y-87275798D01*
X183000000Y-86649999D02*
X182350001Y-86000000D01*
X159000000Y-93000000D02*
X158712764Y-93000000D01*
X182350001Y-86000000D02*
X171000000Y-86000000D01*
X158708764Y-92996000D02*
X157504000Y-92996000D01*
X170000000Y-87000000D02*
X168000000Y-87000000D01*
X160000000Y-91000000D02*
X160000000Y-92000000D01*
X168000000Y-87000000D02*
X167500000Y-86500000D01*
X167500000Y-87275798D02*
X167500000Y-88000000D01*
X183000000Y-87399999D02*
X183000000Y-86649999D01*
X158712764Y-93000000D02*
X158708764Y-92996000D01*
X170500000Y-82024198D02*
X169000001Y-80524199D01*
X165000000Y-81500000D02*
X165000000Y-81000000D01*
X182500000Y-85500000D02*
X171500000Y-85500000D01*
X168000000Y-81524200D02*
X168000000Y-82000000D01*
X183500000Y-84500000D02*
X182500000Y-85500000D01*
X166500000Y-82000000D02*
X165500000Y-82000000D01*
X171500000Y-85500000D02*
X170500000Y-84500000D01*
X169000001Y-80524199D02*
X168000000Y-81524200D01*
X165500000Y-82000000D02*
X165000000Y-81500000D01*
X168000000Y-82000000D02*
X167500000Y-82500000D01*
X170500000Y-84500000D02*
X170500000Y-82024198D01*
X167000000Y-82500000D02*
X166500000Y-82000000D01*
X167500000Y-82500000D02*
X167000000Y-82500000D01*
X171000000Y-88400000D02*
X169000001Y-90399999D01*
X183999999Y-86499999D02*
X183500000Y-86000000D01*
X170900000Y-88500000D02*
X172500000Y-88500000D01*
X169000001Y-90399999D02*
X170900000Y-88500000D01*
X171000000Y-87500000D02*
X171000000Y-88400000D01*
X183999999Y-87399999D02*
X183999999Y-86499999D01*
X178500000Y-83000000D02*
X178000000Y-83500000D01*
X178500000Y-82500000D02*
X176524199Y-80524199D01*
X184500000Y-84500000D02*
X184500000Y-84200000D01*
X178500000Y-82500000D02*
X178500000Y-83000000D01*
X184500000Y-84200000D02*
X182800000Y-82500000D01*
X182800000Y-82500000D02*
X178500000Y-82500000D01*
X176524199Y-80524199D02*
X176500001Y-80524199D01*
X184199999Y-88500000D02*
X178275800Y-88500000D01*
X178275800Y-88500000D02*
X176500001Y-90275799D01*
X185000000Y-87399999D02*
X185000000Y-87699999D01*
X174724202Y-88500000D02*
X176500001Y-90275799D01*
X185000000Y-87699999D02*
X184199999Y-88500000D01*
X173500000Y-88500000D02*
X174724202Y-88500000D01*
X180146398Y-129948735D02*
X178385717Y-129948735D01*
X178385717Y-129948735D02*
X178300233Y-130034219D01*
X168613530Y-134143895D02*
X168612753Y-134143118D01*
X170247124Y-134143895D02*
X168613530Y-134143895D01*
X242572978Y-126637384D02*
X242572978Y-128659764D01*
X242572978Y-128659764D02*
X242593029Y-128679815D01*
X244344833Y-128344833D02*
X244735614Y-128735614D01*
X244735614Y-128735614D02*
X246000000Y-128735614D01*
X244344833Y-127038860D02*
X244344833Y-128344833D01*
X156499999Y-108590001D02*
X156499999Y-109090001D01*
X156499999Y-109090001D02*
X156899998Y-109490000D01*
X156899998Y-109490000D02*
X157500000Y-109490000D01*
D47*
X195072341Y-110400059D02*
X196389901Y-109082499D01*
X194231306Y-110400059D02*
X195072341Y-110400059D01*
D46*
X190611385Y-57143466D02*
X191382430Y-57143466D01*
X191382430Y-57143466D02*
X192761454Y-55764442D01*
X211889901Y-113257499D02*
X212507418Y-113257499D01*
X212507418Y-113257499D02*
X214353234Y-111411683D01*
X209711335Y-60095829D02*
X210281947Y-60095829D01*
X210281947Y-60095829D02*
X211867313Y-58510463D01*
X221126608Y-100982889D02*
X222457986Y-99651511D01*
X220236831Y-100982889D02*
X221126608Y-100982889D01*
X222205458Y-71332644D02*
X223942758Y-69595344D01*
X223942758Y-69595344D02*
X224348678Y-69595344D01*
X159610467Y-102581360D02*
X161319382Y-102581360D01*
X161319382Y-102581360D02*
X161969597Y-101931145D01*
X162823134Y-109402520D02*
X163832850Y-109402520D01*
X163832850Y-109402520D02*
X164298543Y-109868213D01*
X240747978Y-126637384D02*
X239858181Y-126637384D01*
X239858181Y-126637384D02*
X239420009Y-126199212D01*
X161969597Y-103756145D02*
X163166143Y-103756145D01*
X163166143Y-103756145D02*
X163499999Y-104090001D01*
X224000000Y-120500000D02*
X224000000Y-120000000D01*
X227000000Y-121500000D02*
X225000000Y-121500000D01*
X225000000Y-121500000D02*
X224000000Y-120500000D01*
X207000000Y-121000000D02*
X203500000Y-121000000D01*
X203000000Y-120500000D02*
X203000000Y-120000000D01*
X208000000Y-122000000D02*
X207000000Y-121000000D01*
X203500000Y-121000000D02*
X203000000Y-120500000D01*
X174143895Y-134143895D02*
X174500000Y-134500000D01*
X172072124Y-134143895D02*
X174143895Y-134143895D01*
X179825050Y-132095083D02*
X180146398Y-131773735D01*
X178294661Y-132095083D02*
X179825050Y-132095083D01*
X177627466Y-134112178D02*
X177627466Y-133252888D01*
X177627466Y-133252888D02*
X176469661Y-132095083D01*
M02*
