G04 #@! TF.GenerationSoftware,KiCad,Pcbnew,8.0.1*
G04 #@! TF.CreationDate,2024-04-11T19:40:35-05:00*
G04 #@! TF.ProjectId,Backplane,4261636b-706c-4616-9e65-2e6b69636164,rev?*
G04 #@! TF.SameCoordinates,Original*
G04 #@! TF.FileFunction,Soldermask,Bot*
G04 #@! TF.FilePolarity,Negative*
%FSLAX46Y46*%
G04 Gerber Fmt 4.6, Leading zero omitted, Abs format (unit mm)*
G04 Created by KiCad (PCBNEW 8.0.1) date 2024-04-11 19:40:35*
%MOMM*%
%LPD*%
G01*
G04 APERTURE LIST*
G04 Aperture macros list*
%AMRoundRect*
0 Rectangle with rounded corners*
0 $1 Rounding radius*
0 $2 $3 $4 $5 $6 $7 $8 $9 X,Y pos of 4 corners*
0 Add a 4 corners polygon primitive as box body*
4,1,4,$2,$3,$4,$5,$6,$7,$8,$9,$2,$3,0*
0 Add four circle primitives for the rounded corners*
1,1,$1+$1,$2,$3*
1,1,$1+$1,$4,$5*
1,1,$1+$1,$6,$7*
1,1,$1+$1,$8,$9*
0 Add four rect primitives between the rounded corners*
20,1,$1+$1,$2,$3,$4,$5,0*
20,1,$1+$1,$4,$5,$6,$7,0*
20,1,$1+$1,$6,$7,$8,$9,0*
20,1,$1+$1,$8,$9,$2,$3,0*%
G04 Aperture macros list end*
%ADD10C,2.400000*%
%ADD11RoundRect,0.102000X0.644000X-0.644000X0.644000X0.644000X-0.644000X0.644000X-0.644000X-0.644000X0*%
%ADD12C,1.492000*%
%ADD13C,3.200000*%
%ADD14O,2.200000X2.200000*%
%ADD15R,2.200000X2.200000*%
%ADD16R,1.955800X1.346200*%
%ADD17RoundRect,0.250000X0.450000X-0.262500X0.450000X0.262500X-0.450000X0.262500X-0.450000X-0.262500X0*%
%ADD18RoundRect,0.250000X-0.262500X-0.450000X0.262500X-0.450000X0.262500X0.450000X-0.262500X0.450000X0*%
%ADD19RoundRect,0.102000X1.560000X-1.145000X1.560000X1.145000X-1.560000X1.145000X-1.560000X-1.145000X0*%
%ADD20RoundRect,0.250000X0.650000X-0.325000X0.650000X0.325000X-0.650000X0.325000X-0.650000X-0.325000X0*%
%ADD21RoundRect,0.102000X0.365000X-0.605000X0.365000X0.605000X-0.365000X0.605000X-0.365000X-0.605000X0*%
%ADD22R,0.558800X1.981200*%
%ADD23RoundRect,0.102000X-0.365000X0.605000X-0.365000X-0.605000X0.365000X-0.605000X0.365000X0.605000X0*%
%ADD24RoundRect,0.250000X-0.450000X0.262500X-0.450000X-0.262500X0.450000X-0.262500X0.450000X0.262500X0*%
%ADD25RoundRect,0.250000X-0.325000X-0.650000X0.325000X-0.650000X0.325000X0.650000X-0.325000X0.650000X0*%
%ADD26R,2.184400X3.200400*%
%ADD27RoundRect,0.102000X-0.605000X-0.365000X0.605000X-0.365000X0.605000X0.365000X-0.605000X0.365000X0*%
%ADD28R,1.981200X0.558800*%
%ADD29R,3.200400X2.184400*%
%ADD30RoundRect,0.250000X-0.650000X0.325000X-0.650000X-0.325000X0.650000X-0.325000X0.650000X0.325000X0*%
%ADD31R,1.092200X0.990600*%
%ADD32RoundRect,0.250000X0.262500X0.450000X-0.262500X0.450000X-0.262500X-0.450000X0.262500X-0.450000X0*%
%ADD33RoundRect,0.102000X-1.560000X1.145000X-1.560000X-1.145000X1.560000X-1.145000X1.560000X1.145000X0*%
%ADD34RoundRect,0.102000X0.605000X0.365000X-0.605000X0.365000X-0.605000X-0.365000X0.605000X-0.365000X0*%
%ADD35RoundRect,0.250000X0.325000X0.650000X-0.325000X0.650000X-0.325000X-0.650000X0.325000X-0.650000X0*%
%ADD36RoundRect,0.135000X0.185000X-0.135000X0.185000X0.135000X-0.185000X0.135000X-0.185000X-0.135000X0*%
G04 APERTURE END LIST*
D10*
X324750000Y-103350000D03*
X324750000Y-63200000D03*
D11*
X323500000Y-115000000D03*
D12*
X321500000Y-114000000D03*
X323500000Y-113000000D03*
X321500000Y-112000000D03*
X323500000Y-111000000D03*
X321500000Y-110000000D03*
X323500000Y-109000000D03*
X321500000Y-108000000D03*
X323500000Y-107000000D03*
X321500000Y-106000000D03*
X323500000Y-105000000D03*
X321500000Y-102000000D03*
X323500000Y-101000000D03*
X321500000Y-100000000D03*
X323500000Y-99000000D03*
X321500000Y-98000000D03*
X323500000Y-97000000D03*
X321500000Y-96000000D03*
X323500000Y-95000000D03*
X321500000Y-94000000D03*
X323500000Y-93000000D03*
X321500000Y-92000000D03*
X323500000Y-91000000D03*
X321500000Y-90000000D03*
X323500000Y-89000000D03*
X321500000Y-88000000D03*
X323500000Y-87000000D03*
X321500000Y-86000000D03*
X323500000Y-85000000D03*
X321500000Y-84000000D03*
X323500000Y-83000000D03*
X321500000Y-82000000D03*
X323500000Y-81000000D03*
X321500000Y-80000000D03*
X323500000Y-79000000D03*
X321500000Y-78000000D03*
X323500000Y-77000000D03*
X321500000Y-76000000D03*
X323500000Y-75000000D03*
X321500000Y-74000000D03*
X323500000Y-73000000D03*
X321500000Y-72000000D03*
X323500000Y-71000000D03*
X321500000Y-70000000D03*
X323500000Y-69000000D03*
X321500000Y-68000000D03*
X323500000Y-67000000D03*
X321500000Y-66000000D03*
X323500000Y-65000000D03*
X326000000Y-115000000D03*
X328000000Y-114000000D03*
X326000000Y-113000000D03*
X328000000Y-112000000D03*
X326000000Y-111000000D03*
X328000000Y-110000000D03*
X326000000Y-109000000D03*
X328000000Y-108000000D03*
X326000000Y-107000000D03*
X328000000Y-106000000D03*
X326000000Y-105000000D03*
X328000000Y-102000000D03*
X326000000Y-101000000D03*
X328000000Y-100000000D03*
X326000000Y-99000000D03*
X328000000Y-98000000D03*
X326000000Y-97000000D03*
X328000000Y-96000000D03*
X326000000Y-95000000D03*
X328000000Y-94000000D03*
X326000000Y-93000000D03*
X328000000Y-92000000D03*
X326000000Y-91000000D03*
X328000000Y-90000000D03*
X326000000Y-89000000D03*
X328000000Y-88000000D03*
X326000000Y-87000000D03*
X328000000Y-86000000D03*
X326000000Y-85000000D03*
X328000000Y-84000000D03*
X326000000Y-83000000D03*
X328000000Y-82000000D03*
X326000000Y-81000000D03*
X328000000Y-80000000D03*
X326000000Y-79000000D03*
X328000000Y-78000000D03*
X326000000Y-77000000D03*
X328000000Y-76000000D03*
X326000000Y-75000000D03*
X328000000Y-74000000D03*
X326000000Y-73000000D03*
X328000000Y-72000000D03*
X326000000Y-71000000D03*
X328000000Y-70000000D03*
X326000000Y-69000000D03*
X328000000Y-68000000D03*
X326000000Y-67000000D03*
X328000000Y-66000000D03*
X326000000Y-65000000D03*
D10*
X259750000Y-103350000D03*
X259750000Y-63200000D03*
D11*
X258500000Y-115000000D03*
D12*
X256500000Y-114000000D03*
X258500000Y-113000000D03*
X256500000Y-112000000D03*
X258500000Y-111000000D03*
X256500000Y-110000000D03*
X258500000Y-109000000D03*
X256500000Y-108000000D03*
X258500000Y-107000000D03*
X256500000Y-106000000D03*
X258500000Y-105000000D03*
X256500000Y-102000000D03*
X258500000Y-101000000D03*
X256500000Y-100000000D03*
X258500000Y-99000000D03*
X256500000Y-98000000D03*
X258500000Y-97000000D03*
X256500000Y-96000000D03*
X258500000Y-95000000D03*
X256500000Y-94000000D03*
X258500000Y-93000000D03*
X256500000Y-92000000D03*
X258500000Y-91000000D03*
X256500000Y-90000000D03*
X258500000Y-89000000D03*
X256500000Y-88000000D03*
X258500000Y-87000000D03*
X256500000Y-86000000D03*
X258500000Y-85000000D03*
X256500000Y-84000000D03*
X258500000Y-83000000D03*
X256500000Y-82000000D03*
X258500000Y-81000000D03*
X256500000Y-80000000D03*
X258500000Y-79000000D03*
X256500000Y-78000000D03*
X258500000Y-77000000D03*
X256500000Y-76000000D03*
X258500000Y-75000000D03*
X256500000Y-74000000D03*
X258500000Y-73000000D03*
X256500000Y-72000000D03*
X258500000Y-71000000D03*
X256500000Y-70000000D03*
X258500000Y-69000000D03*
X256500000Y-68000000D03*
X258500000Y-67000000D03*
X256500000Y-66000000D03*
X258500000Y-65000000D03*
X261000000Y-115000000D03*
X263000000Y-114000000D03*
X261000000Y-113000000D03*
X263000000Y-112000000D03*
X261000000Y-111000000D03*
X263000000Y-110000000D03*
X261000000Y-109000000D03*
X263000000Y-108000000D03*
X261000000Y-107000000D03*
X263000000Y-106000000D03*
X261000000Y-105000000D03*
X263000000Y-102000000D03*
X261000000Y-101000000D03*
X263000000Y-100000000D03*
X261000000Y-99000000D03*
X263000000Y-98000000D03*
X261000000Y-97000000D03*
X263000000Y-96000000D03*
X261000000Y-95000000D03*
X263000000Y-94000000D03*
X261000000Y-93000000D03*
X263000000Y-92000000D03*
X261000000Y-91000000D03*
X263000000Y-90000000D03*
X261000000Y-89000000D03*
X263000000Y-88000000D03*
X261000000Y-87000000D03*
X263000000Y-86000000D03*
X261000000Y-85000000D03*
X263000000Y-84000000D03*
X261000000Y-83000000D03*
X263000000Y-82000000D03*
X261000000Y-81000000D03*
X263000000Y-80000000D03*
X261000000Y-79000000D03*
X263000000Y-78000000D03*
X261000000Y-77000000D03*
X263000000Y-76000000D03*
X261000000Y-75000000D03*
X263000000Y-74000000D03*
X261000000Y-73000000D03*
X263000000Y-72000000D03*
X261000000Y-71000000D03*
X263000000Y-70000000D03*
X261000000Y-69000000D03*
X263000000Y-68000000D03*
X261000000Y-67000000D03*
X263000000Y-66000000D03*
X261000000Y-65000000D03*
D13*
X157500000Y-48000000D03*
D10*
X276750000Y-103350000D03*
X276750000Y-63200000D03*
D11*
X275500000Y-115000000D03*
D12*
X273500000Y-114000000D03*
X275500000Y-113000000D03*
X273500000Y-112000000D03*
X275500000Y-111000000D03*
X273500000Y-110000000D03*
X275500000Y-109000000D03*
X273500000Y-108000000D03*
X275500000Y-107000000D03*
X273500000Y-106000000D03*
X275500000Y-105000000D03*
X273500000Y-102000000D03*
X275500000Y-101000000D03*
X273500000Y-100000000D03*
X275500000Y-99000000D03*
X273500000Y-98000000D03*
X275500000Y-97000000D03*
X273500000Y-96000000D03*
X275500000Y-95000000D03*
X273500000Y-94000000D03*
X275500000Y-93000000D03*
X273500000Y-92000000D03*
X275500000Y-91000000D03*
X273500000Y-90000000D03*
X275500000Y-89000000D03*
X273500000Y-88000000D03*
X275500000Y-87000000D03*
X273500000Y-86000000D03*
X275500000Y-85000000D03*
X273500000Y-84000000D03*
X275500000Y-83000000D03*
X273500000Y-82000000D03*
X275500000Y-81000000D03*
X273500000Y-80000000D03*
X275500000Y-79000000D03*
X273500000Y-78000000D03*
X275500000Y-77000000D03*
X273500000Y-76000000D03*
X275500000Y-75000000D03*
X273500000Y-74000000D03*
X275500000Y-73000000D03*
X273500000Y-72000000D03*
X275500000Y-71000000D03*
X273500000Y-70000000D03*
X275500000Y-69000000D03*
X273500000Y-68000000D03*
X275500000Y-67000000D03*
X273500000Y-66000000D03*
X275500000Y-65000000D03*
X278000000Y-115000000D03*
X280000000Y-114000000D03*
X278000000Y-113000000D03*
X280000000Y-112000000D03*
X278000000Y-111000000D03*
X280000000Y-110000000D03*
X278000000Y-109000000D03*
X280000000Y-108000000D03*
X278000000Y-107000000D03*
X280000000Y-106000000D03*
X278000000Y-105000000D03*
X280000000Y-102000000D03*
X278000000Y-101000000D03*
X280000000Y-100000000D03*
X278000000Y-99000000D03*
X280000000Y-98000000D03*
X278000000Y-97000000D03*
X280000000Y-96000000D03*
X278000000Y-95000000D03*
X280000000Y-94000000D03*
X278000000Y-93000000D03*
X280000000Y-92000000D03*
X278000000Y-91000000D03*
X280000000Y-90000000D03*
X278000000Y-89000000D03*
X280000000Y-88000000D03*
X278000000Y-87000000D03*
X280000000Y-86000000D03*
X278000000Y-85000000D03*
X280000000Y-84000000D03*
X278000000Y-83000000D03*
X280000000Y-82000000D03*
X278000000Y-81000000D03*
X280000000Y-80000000D03*
X278000000Y-79000000D03*
X280000000Y-78000000D03*
X278000000Y-77000000D03*
X280000000Y-76000000D03*
X278000000Y-75000000D03*
X280000000Y-74000000D03*
X278000000Y-73000000D03*
X280000000Y-72000000D03*
X278000000Y-71000000D03*
X280000000Y-70000000D03*
X278000000Y-69000000D03*
X280000000Y-68000000D03*
X278000000Y-67000000D03*
X280000000Y-66000000D03*
X278000000Y-65000000D03*
D10*
X308750000Y-103350000D03*
X308750000Y-63200000D03*
D11*
X307500000Y-115000000D03*
D12*
X305500000Y-114000000D03*
X307500000Y-113000000D03*
X305500000Y-112000000D03*
X307500000Y-111000000D03*
X305500000Y-110000000D03*
X307500000Y-109000000D03*
X305500000Y-108000000D03*
X307500000Y-107000000D03*
X305500000Y-106000000D03*
X307500000Y-105000000D03*
X305500000Y-102000000D03*
X307500000Y-101000000D03*
X305500000Y-100000000D03*
X307500000Y-99000000D03*
X305500000Y-98000000D03*
X307500000Y-97000000D03*
X305500000Y-96000000D03*
X307500000Y-95000000D03*
X305500000Y-94000000D03*
X307500000Y-93000000D03*
X305500000Y-92000000D03*
X307500000Y-91000000D03*
X305500000Y-90000000D03*
X307500000Y-89000000D03*
X305500000Y-88000000D03*
X307500000Y-87000000D03*
X305500000Y-86000000D03*
X307500000Y-85000000D03*
X305500000Y-84000000D03*
X307500000Y-83000000D03*
X305500000Y-82000000D03*
X307500000Y-81000000D03*
X305500000Y-80000000D03*
X307500000Y-79000000D03*
X305500000Y-78000000D03*
X307500000Y-77000000D03*
X305500000Y-76000000D03*
X307500000Y-75000000D03*
X305500000Y-74000000D03*
X307500000Y-73000000D03*
X305500000Y-72000000D03*
X307500000Y-71000000D03*
X305500000Y-70000000D03*
X307500000Y-69000000D03*
X305500000Y-68000000D03*
X307500000Y-67000000D03*
X305500000Y-66000000D03*
X307500000Y-65000000D03*
X310000000Y-115000000D03*
X312000000Y-114000000D03*
X310000000Y-113000000D03*
X312000000Y-112000000D03*
X310000000Y-111000000D03*
X312000000Y-110000000D03*
X310000000Y-109000000D03*
X312000000Y-108000000D03*
X310000000Y-107000000D03*
X312000000Y-106000000D03*
X310000000Y-105000000D03*
X312000000Y-102000000D03*
X310000000Y-101000000D03*
X312000000Y-100000000D03*
X310000000Y-99000000D03*
X312000000Y-98000000D03*
X310000000Y-97000000D03*
X312000000Y-96000000D03*
X310000000Y-95000000D03*
X312000000Y-94000000D03*
X310000000Y-93000000D03*
X312000000Y-92000000D03*
X310000000Y-91000000D03*
X312000000Y-90000000D03*
X310000000Y-89000000D03*
X312000000Y-88000000D03*
X310000000Y-87000000D03*
X312000000Y-86000000D03*
X310000000Y-85000000D03*
X312000000Y-84000000D03*
X310000000Y-83000000D03*
X312000000Y-82000000D03*
X310000000Y-81000000D03*
X312000000Y-80000000D03*
X310000000Y-79000000D03*
X312000000Y-78000000D03*
X310000000Y-77000000D03*
X312000000Y-76000000D03*
X310000000Y-75000000D03*
X312000000Y-74000000D03*
X310000000Y-73000000D03*
X312000000Y-72000000D03*
X310000000Y-71000000D03*
X312000000Y-70000000D03*
X310000000Y-69000000D03*
X312000000Y-68000000D03*
X310000000Y-67000000D03*
X312000000Y-66000000D03*
X310000000Y-65000000D03*
D13*
X333000000Y-134500000D03*
D10*
X292750000Y-103350000D03*
X292750000Y-63200000D03*
D11*
X291500000Y-115000000D03*
D12*
X289500000Y-114000000D03*
X291500000Y-113000000D03*
X289500000Y-112000000D03*
X291500000Y-111000000D03*
X289500000Y-110000000D03*
X291500000Y-109000000D03*
X289500000Y-108000000D03*
X291500000Y-107000000D03*
X289500000Y-106000000D03*
X291500000Y-105000000D03*
X289500000Y-102000000D03*
X291500000Y-101000000D03*
X289500000Y-100000000D03*
X291500000Y-99000000D03*
X289500000Y-98000000D03*
X291500000Y-97000000D03*
X289500000Y-96000000D03*
X291500000Y-95000000D03*
X289500000Y-94000000D03*
X291500000Y-93000000D03*
X289500000Y-92000000D03*
X291500000Y-91000000D03*
X289500000Y-90000000D03*
X291500000Y-89000000D03*
X289500000Y-88000000D03*
X291500000Y-87000000D03*
X289500000Y-86000000D03*
X291500000Y-85000000D03*
X289500000Y-84000000D03*
X291500000Y-83000000D03*
X289500000Y-82000000D03*
X291500000Y-81000000D03*
X289500000Y-80000000D03*
X291500000Y-79000000D03*
X289500000Y-78000000D03*
X291500000Y-77000000D03*
X289500000Y-76000000D03*
X291500000Y-75000000D03*
X289500000Y-74000000D03*
X291500000Y-73000000D03*
X289500000Y-72000000D03*
X291500000Y-71000000D03*
X289500000Y-70000000D03*
X291500000Y-69000000D03*
X289500000Y-68000000D03*
X291500000Y-67000000D03*
X289500000Y-66000000D03*
X291500000Y-65000000D03*
X294000000Y-115000000D03*
X296000000Y-114000000D03*
X294000000Y-113000000D03*
X296000000Y-112000000D03*
X294000000Y-111000000D03*
X296000000Y-110000000D03*
X294000000Y-109000000D03*
X296000000Y-108000000D03*
X294000000Y-107000000D03*
X296000000Y-106000000D03*
X294000000Y-105000000D03*
X296000000Y-102000000D03*
X294000000Y-101000000D03*
X296000000Y-100000000D03*
X294000000Y-99000000D03*
X296000000Y-98000000D03*
X294000000Y-97000000D03*
X296000000Y-96000000D03*
X294000000Y-95000000D03*
X296000000Y-94000000D03*
X294000000Y-93000000D03*
X296000000Y-92000000D03*
X294000000Y-91000000D03*
X296000000Y-90000000D03*
X294000000Y-89000000D03*
X296000000Y-88000000D03*
X294000000Y-87000000D03*
X296000000Y-86000000D03*
X294000000Y-85000000D03*
X296000000Y-84000000D03*
X294000000Y-83000000D03*
X296000000Y-82000000D03*
X294000000Y-81000000D03*
X296000000Y-80000000D03*
X294000000Y-79000000D03*
X296000000Y-78000000D03*
X294000000Y-77000000D03*
X296000000Y-76000000D03*
X294000000Y-75000000D03*
X296000000Y-74000000D03*
X294000000Y-73000000D03*
X296000000Y-72000000D03*
X294000000Y-71000000D03*
X296000000Y-70000000D03*
X294000000Y-69000000D03*
X296000000Y-68000000D03*
X294000000Y-67000000D03*
X296000000Y-66000000D03*
X294000000Y-65000000D03*
D13*
X157000000Y-135000000D03*
X333000000Y-47500000D03*
D14*
X172000000Y-105340000D03*
D15*
X172000000Y-115500000D03*
D16*
X201110101Y-58629999D03*
X201110101Y-61169999D03*
X191889901Y-61169999D03*
X191889901Y-58629999D03*
D17*
X237963098Y-70454999D03*
X237963098Y-68629999D03*
D18*
X216587501Y-76399999D03*
X218412501Y-76399999D03*
D19*
X187860404Y-99244397D03*
X187860404Y-92384397D03*
D20*
X222824034Y-104141695D03*
X222824034Y-101191695D03*
D18*
X157022528Y-91244660D03*
X158847528Y-91244660D03*
D17*
X237009453Y-107462544D03*
X237009453Y-105637544D03*
D21*
X174500001Y-74719999D03*
X174500001Y-78079999D03*
D22*
X161405001Y-88863799D03*
X160135001Y-88863799D03*
X158865001Y-88863799D03*
X157595001Y-88863799D03*
X157595001Y-83936199D03*
X158865001Y-83936199D03*
X160135001Y-83936199D03*
X161405001Y-83936199D03*
D23*
X170992247Y-74827096D03*
X170992247Y-71467096D03*
D17*
X223000001Y-55312499D03*
X223000001Y-53487499D03*
X222975069Y-107718259D03*
X222975069Y-105893259D03*
D16*
X235610101Y-67129999D03*
X235610101Y-69669999D03*
X226389901Y-69669999D03*
X226389901Y-67129999D03*
D17*
X205500001Y-103812499D03*
X205500001Y-101987499D03*
D18*
X222087501Y-92399999D03*
X223912501Y-92399999D03*
D24*
X202000001Y-67487499D03*
X202000001Y-69312499D03*
D17*
X209270325Y-69558957D03*
X209270325Y-67733957D03*
D21*
X155500001Y-84399999D03*
X155500001Y-87759999D03*
D25*
X179135286Y-71345528D03*
X182085286Y-71345528D03*
D17*
X158500000Y-107902500D03*
X158500000Y-106077500D03*
D22*
X173595001Y-92436199D03*
X174865001Y-92436199D03*
X176135001Y-92436199D03*
X177405001Y-92436199D03*
X177405001Y-97363799D03*
X176135001Y-97363799D03*
X174865001Y-97363799D03*
X173595001Y-97363799D03*
D24*
X183680001Y-73899999D03*
X183680001Y-75724999D03*
D17*
X170837129Y-78454475D03*
X170837129Y-76629475D03*
D26*
X216375801Y-87899999D03*
X222624201Y-87899999D03*
D17*
X213000001Y-105812499D03*
X213000001Y-103987499D03*
D27*
X177180001Y-71399999D03*
X173820001Y-71399999D03*
X167716201Y-71994999D03*
X164356201Y-71994999D03*
D28*
X168963801Y-93399999D03*
X168963801Y-94669999D03*
X168963801Y-95939999D03*
X168963801Y-97209999D03*
X164036201Y-97209999D03*
X164036201Y-95939999D03*
X164036201Y-94669999D03*
X164036201Y-93399999D03*
D20*
X161500001Y-94779999D03*
X161500001Y-91829999D03*
D17*
X228481375Y-120573255D03*
X228481375Y-118748255D03*
D29*
X199558728Y-78566143D03*
X199558728Y-72317743D03*
D18*
X170249488Y-134152359D03*
X172074488Y-134152359D03*
D20*
X208805649Y-55622331D03*
X208805649Y-52672331D03*
D17*
X237018451Y-103992157D03*
X237018451Y-102167157D03*
D28*
X168500001Y-74089999D03*
X168500001Y-75359999D03*
X168500001Y-76629999D03*
X168500001Y-77899999D03*
X163572401Y-77899999D03*
X163572401Y-76629999D03*
X163572401Y-75359999D03*
X163572401Y-74089999D03*
D29*
X206853470Y-78615556D03*
X206853470Y-72367156D03*
D30*
X161021549Y-75367903D03*
X161021549Y-78317903D03*
D21*
X161500001Y-96624999D03*
X161500001Y-99984999D03*
D31*
X219030366Y-92571494D03*
X216083966Y-92571494D03*
D32*
X177987760Y-90063992D03*
X176162760Y-90063992D03*
D31*
X214634566Y-76169550D03*
X211688166Y-76169550D03*
D17*
X228481375Y-117094088D03*
X228481375Y-115269088D03*
X203557327Y-58425495D03*
X203557327Y-56600495D03*
D29*
X197000001Y-92775799D03*
X197000001Y-99024199D03*
D33*
X188099616Y-71464622D03*
X188099616Y-78324622D03*
D26*
X211875801Y-80899999D03*
X218124201Y-80899999D03*
D34*
X176798022Y-99845527D03*
X180158022Y-99845527D03*
D16*
X226110101Y-117129999D03*
X226110101Y-119669999D03*
X216889901Y-119669999D03*
X216889901Y-117129999D03*
D17*
X208500001Y-120312499D03*
X208500001Y-118487499D03*
D20*
X194042016Y-117148523D03*
X194042016Y-114198523D03*
D35*
X174975001Y-99899999D03*
X172025001Y-99899999D03*
D36*
X162500000Y-107000000D03*
X162500000Y-105980000D03*
D22*
X180405001Y-78863799D03*
X179135001Y-78863799D03*
X177865001Y-78863799D03*
X176595001Y-78863799D03*
X176595001Y-73936199D03*
X177865001Y-73936199D03*
X179135001Y-73936199D03*
X180405001Y-73936199D03*
D17*
X208500001Y-116812499D03*
X208500001Y-114987499D03*
D18*
X163195032Y-135696515D03*
X165020032Y-135696515D03*
D17*
X223013660Y-58759518D03*
X223013660Y-56934518D03*
X237967326Y-67007126D03*
X237967326Y-65182126D03*
D20*
X223768679Y-67132901D03*
X223768679Y-64182901D03*
D17*
X203557327Y-61916182D03*
X203557327Y-60091182D03*
D27*
X158180001Y-81399999D03*
X154820001Y-81399999D03*
D32*
X242603372Y-128694182D03*
X240778372Y-128694182D03*
D17*
X194284402Y-120812499D03*
X194284402Y-118987499D03*
D31*
X210473201Y-103899999D03*
X207526801Y-103899999D03*
D16*
X234610101Y-104129999D03*
X234610101Y-106669999D03*
X225389901Y-106669999D03*
X225389901Y-104129999D03*
D25*
X160025001Y-81399999D03*
X162975001Y-81399999D03*
D17*
X171367739Y-97764136D03*
X171367739Y-95939136D03*
D29*
X211254190Y-94269128D03*
X211254190Y-100517528D03*
D17*
X208981514Y-59167079D03*
X208981514Y-57342079D03*
D31*
X203473201Y-101899999D03*
X200526801Y-101899999D03*
D17*
X214474753Y-120794170D03*
X214474753Y-118969170D03*
D29*
X204000001Y-92775799D03*
X204000001Y-99024199D03*
D20*
X189304085Y-58608534D03*
X189304085Y-55658534D03*
D31*
X207206982Y-69662111D03*
X204260582Y-69662111D03*
D17*
X183500001Y-96724999D03*
X183500001Y-94899999D03*
X192500001Y-96812499D03*
X192500001Y-94987499D03*
D18*
X166774916Y-134130563D03*
X168599916Y-134130563D03*
D23*
X179500001Y-97079999D03*
X179500001Y-93719999D03*
D16*
X220610101Y-55629999D03*
X220610101Y-58169999D03*
X211389901Y-58169999D03*
X211389901Y-55629999D03*
D24*
X192500001Y-73899999D03*
X192500001Y-75724999D03*
D17*
X223949686Y-70703074D03*
X223949686Y-68878074D03*
D34*
X164820001Y-99304999D03*
X168180001Y-99304999D03*
D17*
X189500001Y-62312499D03*
X189500001Y-60487499D03*
D16*
X206110101Y-117129999D03*
X206110101Y-119669999D03*
X196889901Y-119669999D03*
X196889901Y-117129999D03*
D20*
X214221304Y-117177145D03*
X214221304Y-114227145D03*
D18*
X176040356Y-81263277D03*
X177865356Y-81263277D03*
D31*
X197026801Y-69399999D03*
X199973201Y-69399999D03*
M02*
